<svg width="163" height="150" viewBox="0 0 163 150" fill="none" xmlns="http://www.w3.org/2000/svg">
<path d="M162.372 2.60528C162.707 1.84729 162.363 0.961826 161.605 0.627542C160.847 0.293257 159.962 0.636737 159.628 1.39472L162.372 2.60528ZM96.744 96.5838L96.4602 95.1109L96.744 96.5838ZM75.191 85.9981L73.9946 86.9029L75.191 85.9981ZM80.2268 52.1789L81.0164 53.4542L80.2268 52.1789ZM110.643 68.4699L112.083 68.0511L110.643 68.4699ZM101.377 109.232L102.373 110.353L101.377 109.232ZM33.7469 122.704L33.5412 124.19L33.7469 122.704ZM14.4097 129.372L13.1364 128.579L14.4097 129.372ZM4.58146 148.488C4.85075 149.271 5.70415 149.688 6.48759 149.419L19.2544 145.03C20.0379 144.761 20.4547 143.908 20.1854 143.124C19.9161 142.341 19.0627 141.924 18.2793 142.193L6.93095 146.094L3.03023 134.746C2.76094 133.962 1.90753 133.545 1.1241 133.815C0.340658 134.084 -0.0761428 134.937 0.193146 135.721L4.58146 148.488ZM159.628 1.39472C152.322 17.9589 144.451 39.8507 134.288 58.5447C124.096 77.2929 111.941 92.1276 96.4602 95.1109L97.0278 98.0567C113.986 94.7888 126.718 78.7495 136.924 59.9776C147.159 41.1514 155.196 18.8768 162.372 2.60528L159.628 1.39472ZM96.4602 95.1109C89.7212 96.4095 81.5481 91.9176 76.3874 85.0933L73.9946 86.9029C79.5091 94.195 88.7074 99.6601 97.0278 98.0567L96.4602 95.1109ZM76.3874 85.0933C67.8167 73.7598 70.4109 60.0209 81.0164 53.4542L79.4371 50.9036C67.1932 58.4847 64.457 74.2908 73.9946 86.9029L76.3874 85.0933ZM81.0164 53.4542C86.6513 49.9652 92.4722 49.9059 97.4595 52.5677C102.497 55.2564 106.857 60.823 109.202 68.8886L112.083 68.0511C109.573 59.4187 104.795 53.0821 98.872 49.9211C92.8993 46.7333 85.9394 46.8775 79.4371 50.9036L81.0164 53.4542ZM109.202 68.8886C113.645 84.1708 110.812 98.8506 100.381 108.11L102.373 110.353C113.899 100.122 116.754 84.1186 112.083 68.0511L109.202 68.8886ZM100.381 108.11C80.6003 125.669 57.0184 124.413 33.9527 121.219L33.5412 124.19C56.641 127.389 81.4955 128.885 102.373 110.353L100.381 108.11ZM33.9527 121.219C30.2994 120.713 26.5059 120.213 22.9433 121.023C19.2588 121.86 15.9543 124.054 13.1364 128.579L15.683 130.165C18.126 126.242 20.7895 124.589 23.6081 123.948C26.5485 123.28 29.7931 123.671 33.5412 124.19L33.9527 121.219ZM13.1364 128.579C11.3621 131.428 9.94946 134.695 8.63518 137.926C7.30438 141.199 6.08308 144.412 4.65216 147.342L7.34784 148.658C8.83795 145.607 10.1208 142.237 11.4142 139.057C12.7241 135.835 14.0558 132.778 15.683 130.165L13.1364 128.579Z" fill="#CEDAEF"/>
</svg>
