<svg width="49" height="18" viewBox="0 0 49 18" fill="none" xmlns="http://www.w3.org/2000/svg">
<path d="M5.23682 5.53857C4.72477 5.53857 4.26351 5.62744 3.85303 5.80518C3.44678 5.97868 3.09977 6.23258 2.81201 6.56689C2.52848 6.89697 2.31055 7.29688 2.1582 7.7666C2.00586 8.23633 1.92969 8.7653 1.92969 9.35352C1.92969 10.1322 2.05029 10.8092 2.2915 11.3848C2.53695 11.9561 2.90088 12.3983 3.3833 12.7114C3.86995 13.0246 4.47721 13.1812 5.20508 13.1812C5.61979 13.1812 6.00911 13.1473 6.37305 13.0796C6.74121 13.0076 7.0988 12.9188 7.4458 12.813V13.7524C7.10726 13.8794 6.75179 13.9725 6.37939 14.0317C6.007 14.0952 5.56478 14.127 5.05273 14.127C4.10905 14.127 3.31982 13.9323 2.68506 13.543C2.05452 13.1494 1.58057 12.5951 1.26318 11.8799C0.950033 11.1647 0.793457 10.3205 0.793457 9.34717C0.793457 8.64469 0.890788 8.00358 1.08545 7.42383C1.28434 6.83984 1.5721 6.33626 1.94873 5.91309C2.32959 5.48991 2.79508 5.16406 3.34521 4.93555C3.89958 4.7028 4.53434 4.58643 5.24951 4.58643C5.71924 4.58643 6.17204 4.63298 6.60791 4.72607C7.04378 4.81917 7.43734 4.95247 7.78857 5.12598L7.35693 6.04004C7.06071 5.90462 6.73486 5.78825 6.37939 5.69092C6.02816 5.58936 5.6473 5.53857 5.23682 5.53857ZM10.3594 14H9.29932V4.12305H10.3594V14ZM13.6411 7.04297V14H12.5874V7.04297H13.6411ZM13.127 4.44043C13.3005 4.44043 13.4486 4.49756 13.5713 4.61182C13.6982 4.72184 13.7617 4.89535 13.7617 5.13232C13.7617 5.36507 13.6982 5.53857 13.5713 5.65283C13.4486 5.76709 13.3005 5.82422 13.127 5.82422C12.945 5.82422 12.7926 5.76709 12.6699 5.65283C12.5514 5.53857 12.4922 5.36507 12.4922 5.13232C12.4922 4.89535 12.5514 4.72184 12.6699 4.61182C12.7926 4.49756 12.945 4.44043 13.127 4.44043ZM18.6621 14.127C18.0358 14.127 17.4836 13.9979 17.0054 13.7397C16.5272 13.4816 16.1548 13.0881 15.8882 12.5591C15.6216 12.0301 15.4883 11.3636 15.4883 10.5596C15.4883 9.71745 15.6279 9.02979 15.9072 8.49658C16.1908 7.95915 16.5801 7.56136 17.0752 7.30322C17.5703 7.04508 18.1331 6.91602 18.7637 6.91602C19.1107 6.91602 19.445 6.95199 19.7666 7.02393C20.0924 7.09163 20.359 7.17839 20.5664 7.28418L20.249 8.1665C20.0374 8.08187 19.792 8.0057 19.5127 7.93799C19.2376 7.87028 18.9795 7.83643 18.7383 7.83643C18.2559 7.83643 17.8538 7.9401 17.5322 8.14746C17.2148 8.35482 16.9757 8.65951 16.8149 9.06152C16.6584 9.46354 16.5801 9.95866 16.5801 10.5469C16.5801 11.1097 16.6562 11.59 16.8086 11.9878C16.9652 12.3856 17.1958 12.6903 17.5005 12.9019C17.8094 13.1092 18.1945 13.2129 18.6558 13.2129C19.0239 13.2129 19.3561 13.1748 19.6523 13.0986C19.9486 13.0182 20.2173 12.9251 20.4585 12.8193V13.7588C20.2257 13.8773 19.9655 13.9683 19.6777 14.0317C19.3942 14.0952 19.0557 14.127 18.6621 14.127ZM23.1562 4.12305V9.25195C23.1562 9.42122 23.1499 9.62858 23.1372 9.87402C23.1245 10.1152 23.1139 10.3289 23.1055 10.5151H23.1499C23.2388 10.4051 23.3678 10.2422 23.5371 10.0264C23.7106 9.81055 23.8566 9.63704 23.9751 9.50586L26.2856 7.04297H27.5234L24.7241 10.0137L27.7266 14H26.457L24.0005 10.7056L23.1562 11.48V14H22.1089V4.12305H23.1562Z" fill="#FFA8A8"/>
<path d="M40.064 16L32 3L48 3L40.064 16Z" stroke="#FFA8A8" stroke-width="1.24517" stroke-linecap="round" stroke-linejoin="round"/>
</svg>
