<svg width="75" height="31" viewBox="0 0 75 31" fill="none" xmlns="http://www.w3.org/2000/svg">
<rect x="0.625" y="0.62207" width="74.2661" height="29.7561" rx="14.878" fill="#4B7BA8"/>
<path d="M20.7608 11.2498C21.5548 11.2498 22.2092 11.3455 22.7239 11.537C23.2426 11.7286 23.6276 12.0179 23.879 12.4049C24.1304 12.7919 24.2561 13.2807 24.2561 13.8712C24.2561 14.2703 24.1803 14.6194 24.0286 14.9186C23.877 15.2179 23.6775 15.4713 23.4301 15.6787C23.1828 15.8862 22.9154 16.0558 22.6281 16.1875L25.2017 20H23.1428L21.054 16.6424H20.0665V20H18.2111V11.2498H20.7608ZM20.6291 12.77H20.0665V15.1341H20.665C21.2795 15.1341 21.7184 15.0324 21.9817 14.8289C22.2491 14.6214 22.3827 14.3181 22.3827 13.9191C22.3827 13.5042 22.2391 13.2089 21.9518 13.0333C21.6685 12.8578 21.2276 12.77 20.6291 12.77ZM32.2402 16.6424C32.2402 17.201 32.1644 17.6957 32.0128 18.1267C31.8652 18.5576 31.6477 18.9227 31.3604 19.2219C31.0771 19.5172 30.734 19.7406 30.331 19.8923C29.932 20.0439 29.4811 20.1197 28.9783 20.1197C28.5075 20.1197 28.0746 20.0439 27.6796 19.8923C27.2885 19.7406 26.9474 19.5172 26.6561 19.2219C26.3688 18.9227 26.1454 18.5576 25.9858 18.1267C25.8302 17.6957 25.7524 17.201 25.7524 16.6424C25.7524 15.9002 25.884 15.2718 26.1474 14.757C26.4107 14.2423 26.7858 13.8513 27.2726 13.584C27.7594 13.3166 28.3399 13.183 29.0142 13.183C29.6407 13.183 30.1953 13.3166 30.6781 13.584C31.1649 13.8513 31.546 14.2423 31.8213 14.757C32.1006 15.2718 32.2402 15.9002 32.2402 16.6424ZM27.6137 16.6424C27.6137 17.0813 27.6616 17.4503 27.7574 17.7496C27.8531 18.0489 28.0028 18.2743 28.2063 18.4259C28.4098 18.5775 28.6751 18.6533 29.0023 18.6533C29.3255 18.6533 29.5868 18.5775 29.7863 18.4259C29.9898 18.2743 30.1375 18.0489 30.2292 17.7496C30.325 17.4503 30.3729 17.0813 30.3729 16.6424C30.3729 16.1995 30.325 15.8324 30.2292 15.5411C30.1375 15.2458 29.9898 15.0244 29.7863 14.8767C29.5828 14.7291 29.3175 14.6553 28.9903 14.6553C28.5075 14.6553 28.1564 14.8209 27.9369 15.1521C27.7215 15.4832 27.6137 15.98 27.6137 16.6424ZM36.4897 13.171C37.3874 13.171 38.0757 13.3665 38.5545 13.7575C39.0333 14.1486 39.2727 14.7431 39.2727 15.5411V20H37.9979L37.6448 19.0903H37.5969C37.4054 19.3297 37.2099 19.5252 37.0104 19.6768C36.8109 19.8284 36.5814 19.9401 36.3221 20.012C36.0627 20.0838 35.7475 20.1197 35.3764 20.1197C34.9814 20.1197 34.6263 20.0439 34.3111 19.8923C33.9998 19.7406 33.7545 19.5092 33.5749 19.198C33.3954 18.8828 33.3056 18.4838 33.3056 18.001C33.3056 17.2907 33.555 16.768 34.0537 16.4329C34.5525 16.0937 35.3006 15.9062 36.2981 15.8703L37.4592 15.8344V15.5411C37.4592 15.19 37.3675 14.9326 37.1839 14.769C37.0004 14.6054 36.745 14.5236 36.4178 14.5236C36.0946 14.5236 35.7774 14.5695 35.4662 14.6613C35.155 14.753 34.8437 14.8688 34.5325 15.0084L33.928 13.7755C34.2831 13.5879 34.6802 13.4403 35.1191 13.3326C35.562 13.2249 36.0188 13.171 36.4897 13.171ZM37.4592 16.8997L36.753 16.9237C36.1625 16.9396 35.7515 17.0453 35.5201 17.2409C35.2926 17.4364 35.1789 17.6937 35.1789 18.0129C35.1789 18.2922 35.2607 18.4918 35.4243 18.6115C35.5879 18.7272 35.8014 18.785 36.0647 18.785C36.4557 18.785 36.7849 18.6693 37.0523 18.4379C37.3236 18.2065 37.4592 17.8773 37.4592 17.4503V16.8997ZM43.2768 20.1197C42.5306 20.1197 41.9221 19.8284 41.4513 19.2459C40.9845 18.6593 40.7511 17.7995 40.7511 16.6663C40.7511 15.5211 40.9885 14.6553 41.4633 14.0688C41.9381 13.4782 42.5586 13.183 43.3247 13.183C43.6439 13.183 43.9252 13.2268 44.1686 13.3146C44.4119 13.4024 44.6214 13.5201 44.797 13.6677C44.9765 13.8154 45.1282 13.981 45.2519 14.1645H45.3117C45.2878 14.0368 45.2578 13.8493 45.2219 13.6019C45.19 13.3505 45.1741 13.0932 45.1741 12.8298V10.6872H47.0055V20H45.605L45.2519 19.1322H45.1741C45.0583 19.3157 44.9127 19.4833 44.7371 19.6349C44.5656 19.7825 44.3601 19.9002 44.1207 19.988C43.8813 20.0758 43.6 20.1197 43.2768 20.1197ZM43.9172 18.6653C44.4159 18.6653 44.7671 18.5177 44.9706 18.2224C45.178 17.9232 45.2878 17.4743 45.2997 16.8758V16.6783C45.2997 16.0279 45.2 15.5311 45.0005 15.188C44.801 14.8408 44.4299 14.6673 43.8873 14.6673C43.4843 14.6673 43.169 14.8408 42.9416 15.188C42.7142 15.5351 42.6005 16.0359 42.6005 16.6902C42.6005 17.3446 42.7142 17.8374 42.9416 18.1686C43.173 18.4997 43.4982 18.6653 43.9172 18.6653ZM57.7488 20H51.632V18.7132L53.8285 16.4927C54.2714 16.0379 54.6266 15.6588 54.8939 15.3556C55.1652 15.0483 55.3607 14.769 55.4804 14.5176C55.6041 14.2663 55.666 13.9969 55.666 13.7096C55.666 13.3625 55.5682 13.1032 55.3727 12.9316C55.1812 12.756 54.9238 12.6682 54.6006 12.6682C54.2615 12.6682 53.9323 12.746 53.6131 12.9017C53.2939 13.0573 52.9607 13.2787 52.6136 13.566L51.6081 12.375C51.8594 12.1595 52.1248 11.956 52.4041 11.7645C52.6874 11.573 53.0146 11.4193 53.3856 11.3036C53.7607 11.1839 54.2096 11.1241 54.7323 11.1241C55.3069 11.1241 55.7996 11.2278 56.2106 11.4353C56.6256 11.6428 56.9448 11.9261 57.1682 12.2852C57.3917 12.6403 57.5034 13.0433 57.5034 13.4942C57.5034 13.977 57.4076 14.4179 57.2161 14.8169C57.0246 15.2159 56.7453 15.6109 56.3782 16.0019C56.0151 16.393 55.5762 16.8259 55.0615 17.3007L53.9363 18.3601V18.4439H57.7488V20Z" fill="white"/>
</svg>
