<svg width="52" height="52" viewBox="0 0 52 52" fill="none" xmlns="http://www.w3.org/2000/svg">
<circle cx="25.6143" cy="25.6143" r="25.6143" fill="#FFCB77"/>
<path d="M34.7677 35.0787H31.3283V41H25.4266V35.0787H13.2323V30.8771L25.7588 12.4293H31.3283L31.3283 30.3886H34.7677V35.0787ZM25.4266 30.3886V25.5421C25.4266 25.0861 25.4331 24.5455 25.4461 23.9201C25.4722 23.2948 25.4982 22.6694 25.5243 22.0441C25.5503 21.4187 25.5764 20.865 25.6025 20.383C25.6415 19.8879 25.6676 19.5427 25.6806 19.3473H25.5243C25.2768 19.8814 25.0162 20.4025 24.7426 20.9106C24.469 21.4057 24.1498 21.9268 23.785 22.474L18.5477 30.3886H25.4266Z" fill="#184065"/>
</svg>
