<svg width="32" height="32" viewBox="0 0 32 32" fill="none" xmlns="http://www.w3.org/2000/svg">
<circle cx="16" cy="16" r="16" fill="#5FD0BA"/>
<path d="M21.6274 12.145C21.6274 12.967 21.4565 13.679 21.1147 14.2813C20.7729 14.8835 20.3091 15.3758 19.7231 15.7583C19.1453 16.1408 18.4943 16.4215 17.77 16.6006V16.6738C19.2023 16.8529 20.2887 17.2923 21.0293 17.9922C21.778 18.6921 22.1523 19.6279 22.1523 20.7998C22.1523 21.8415 21.896 22.7733 21.3833 23.5952C20.8787 24.4172 20.0975 25.0641 19.0396 25.5361C17.9816 26.0081 16.6185 26.2441 14.9502 26.2441C13.9655 26.2441 13.0459 26.1628 12.1914 26C11.3451 25.8454 10.5475 25.6053 9.79883 25.2798L9.79883 22.0693C10.5638 22.46 11.3654 22.757 12.2036 22.9604C13.0418 23.1558 13.8231 23.2534 14.5474 23.2534C15.8983 23.2534 16.8423 23.0215 17.3794 22.5576C17.9246 22.0856 18.1973 21.4264 18.1973 20.5801C18.1973 20.0837 18.0711 19.6646 17.8188 19.3228C17.5666 18.981 17.1271 18.7205 16.5005 18.5415C15.882 18.3625 15.0153 18.2729 13.9004 18.2729H12.5454V15.3799H13.9248C15.0234 15.3799 15.8576 15.2782 16.4272 15.0747C17.005 14.8631 17.3957 14.5783 17.5991 14.2202C17.8107 13.854 17.9165 13.439 17.9165 12.9751C17.9165 12.3403 17.7212 11.8439 17.3306 11.4858C16.9399 11.1278 16.2889 10.9487 15.3774 10.9487C14.8078 10.9487 14.2869 11.022 13.8149 11.1685C13.3511 11.3068 12.932 11.4777 12.5576 11.6812C12.1833 11.8765 11.8537 12.0677 11.5688 12.2549L9.82324 9.65479C10.5231 9.15023 11.341 8.73112 12.2769 8.39746C13.2209 8.0638 14.3439 7.89697 15.646 7.89697C17.4852 7.89697 18.9419 8.26725 20.0161 9.00781C21.0903 9.74837 21.6274 10.7941 21.6274 12.145Z" fill="#184065"/>
</svg>
