<svg width="129" height="45" viewBox="0 0 129 45" fill="none" xmlns="http://www.w3.org/2000/svg">
<path d="M0.220703 22.484C0.220703 10.0664 10.2871 0 22.7047 0H106.516C118.933 0 129 10.0664 129 22.484C129 34.9016 118.933 44.968 106.516 44.968H22.7047C10.2871 44.968 0.220703 34.9016 0.220703 22.484Z" fill="#5FD0BA"/>
<path d="M37.0794 16.335C38.3749 16.335 39.4426 16.4912 40.2825 16.8037C41.1288 17.1162 41.7571 17.5882 42.1673 18.2197C42.5774 18.8512 42.7825 19.6488 42.7825 20.6123C42.7825 21.2633 42.6588 21.833 42.4114 22.3213C42.164 22.8096 41.8385 23.223 41.4348 23.5615C41.0312 23.9001 40.595 24.1768 40.1262 24.3916L44.3255 30.6123H40.9661L37.5579 25.1338H35.9466V30.6123H32.9192V16.335H37.0794ZM36.8645 18.8154H35.9466V22.6729H36.9231C37.9257 22.6729 38.6419 22.5068 39.0716 22.1748C39.5078 21.8363 39.7259 21.3415 39.7259 20.6904C39.7259 20.0133 39.4915 19.5316 39.0227 19.2451C38.5605 18.9587 37.8411 18.8154 36.8645 18.8154ZM55.8098 25.1338C55.8098 26.0452 55.6861 26.8525 55.4387 27.5557C55.1979 28.2588 54.843 28.8545 54.3743 29.3428C53.9121 29.8245 53.3522 30.1891 52.6946 30.4365C52.0436 30.6839 51.3079 30.8076 50.4876 30.8076C49.7193 30.8076 49.013 30.6839 48.3684 30.4365C47.7304 30.1891 47.1738 29.8245 46.6985 29.3428C46.2298 28.8545 45.8652 28.2588 45.6048 27.5557C45.3509 26.8525 45.2239 26.0452 45.2239 25.1338C45.2239 23.9229 45.4387 22.8975 45.8684 22.0576C46.2981 21.2178 46.9101 20.5798 47.7044 20.1436C48.4986 19.7074 49.4459 19.4893 50.5462 19.4893C51.5683 19.4893 52.4732 19.7074 53.261 20.1436C54.0553 20.5798 54.677 21.2178 55.1262 22.0576C55.582 22.8975 55.8098 23.9229 55.8098 25.1338ZM48.261 25.1338C48.261 25.8499 48.3391 26.4521 48.4954 26.9404C48.6516 27.4287 48.8958 27.7965 49.2278 28.0439C49.5598 28.2913 49.9928 28.415 50.5266 28.415C51.054 28.415 51.4804 28.2913 51.8059 28.0439C52.138 27.7965 52.3788 27.4287 52.5286 26.9404C52.6848 26.4521 52.763 25.8499 52.763 25.1338C52.763 24.4111 52.6848 23.8122 52.5286 23.3369C52.3788 22.8551 52.138 22.4938 51.8059 22.2529C51.4739 22.012 51.041 21.8916 50.5071 21.8916C49.7193 21.8916 49.1464 22.1618 48.7884 22.7021C48.4368 23.2425 48.261 24.0531 48.261 25.1338ZM62.7434 19.4697C64.2083 19.4697 65.3313 19.7887 66.1126 20.4268C66.8938 21.0648 67.2844 22.0348 67.2844 23.3369V30.6123H65.2044L64.6282 29.1279H64.5501C64.2376 29.5186 63.9186 29.8376 63.593 30.085C63.2675 30.3324 62.8932 30.5146 62.47 30.6318C62.0468 30.749 61.5325 30.8076 60.927 30.8076C60.2825 30.8076 59.7031 30.6839 59.1887 30.4365C58.6809 30.1891 58.2805 29.8115 57.9876 29.3037C57.6946 28.7894 57.5481 28.1383 57.5481 27.3506C57.5481 26.1917 57.955 25.3389 58.7688 24.792C59.5826 24.2386 60.8033 23.9326 62.4309 23.874L64.3255 23.8154V23.3369C64.3255 22.764 64.1757 22.3441 63.8762 22.0771C63.5768 21.8102 63.1601 21.6768 62.6262 21.6768C62.0989 21.6768 61.5813 21.7516 61.0735 21.9014C60.5657 22.0511 60.0579 22.2399 59.5501 22.4678L58.5637 20.4561C59.1432 20.1501 59.791 19.9092 60.5071 19.7334C61.2298 19.5576 61.9752 19.4697 62.7434 19.4697ZM64.3255 25.5537L63.1731 25.5928C62.2096 25.6188 61.539 25.7913 61.1614 26.1104C60.7903 26.4294 60.6048 26.8493 60.6048 27.3701C60.6048 27.8258 60.7382 28.1514 61.0051 28.3467C61.2721 28.5355 61.6204 28.6299 62.0501 28.6299C62.6881 28.6299 63.2252 28.4411 63.6614 28.0635C64.1041 27.6859 64.3255 27.1488 64.3255 26.4521V25.5537ZM73.8176 30.8076C72.6002 30.8076 71.6074 30.3324 70.8391 29.3818C70.0774 28.4248 69.6966 27.0218 69.6966 25.1729C69.6966 23.3044 70.0839 21.8916 70.8587 20.9346C71.6334 19.971 72.6458 19.4893 73.8958 19.4893C74.4166 19.4893 74.8756 19.5609 75.2727 19.7041C75.6699 19.8473 76.0117 20.0394 76.2981 20.2803C76.5911 20.5212 76.8385 20.7913 77.0403 21.0908H77.138C77.0989 20.8825 77.0501 20.5765 76.9915 20.1729C76.9394 19.7627 76.9134 19.3428 76.9134 18.9131V15.417H79.9016V30.6123H77.6165L77.0403 29.1963H76.9134C76.7246 29.4958 76.4869 29.7692 76.2005 30.0166C75.9205 30.2575 75.5852 30.4495 75.1946 30.5928C74.804 30.736 74.345 30.8076 73.8176 30.8076ZM74.8626 28.4346C75.6764 28.4346 76.2493 28.1937 76.5813 27.7119C76.9199 27.2236 77.0989 26.4912 77.1184 25.5146V25.1924C77.1184 24.1312 76.9557 23.3206 76.6301 22.7607C76.3046 22.1943 75.6992 21.9111 74.8137 21.9111C74.1562 21.9111 73.6419 22.1943 73.2708 22.7607C72.8997 23.3271 72.7141 24.1442 72.7141 25.2119C72.7141 26.2796 72.8997 27.0837 73.2708 27.624C73.6484 28.1644 74.179 28.4346 74.8626 28.4346ZM96.8743 19.5283C96.8743 20.1859 96.7376 20.7555 96.4641 21.2373C96.1907 21.7191 95.8196 22.113 95.3509 22.4189C94.8886 22.7249 94.3678 22.9495 93.7884 23.0928V23.1514C94.9342 23.2946 95.8033 23.6462 96.3958 24.2061C96.9947 24.766 97.2942 25.5146 97.2942 26.4521C97.2942 27.2855 97.0891 28.0309 96.679 28.6885C96.2753 29.346 95.6503 29.8636 94.804 30.2412C93.9576 30.6188 92.8671 30.8076 91.5325 30.8076C90.7447 30.8076 90.0091 30.7425 89.3255 30.6123C88.6484 30.4886 88.0104 30.2965 87.4114 30.0361V27.4678C88.0234 27.7803 88.6647 28.0179 89.3352 28.1807C90.0058 28.3369 90.6308 28.415 91.2102 28.415C92.291 28.415 93.0462 28.2295 93.4759 27.8584C93.9121 27.4808 94.1301 26.9535 94.1301 26.2764C94.1301 25.8792 94.0292 25.5439 93.8274 25.2705C93.6256 24.9971 93.274 24.7887 92.7727 24.6455C92.2779 24.5023 91.5846 24.4307 90.6926 24.4307H89.6087V22.1162H90.7122C91.5911 22.1162 92.2584 22.0348 92.7141 21.8721C93.1764 21.7028 93.4889 21.4749 93.6516 21.1885C93.8209 20.8955 93.9055 20.5635 93.9055 20.1924C93.9055 19.6846 93.7493 19.2874 93.4368 19.001C93.1243 18.7145 92.6035 18.5713 91.8743 18.5713C91.4186 18.5713 91.0019 18.6299 90.6243 18.7471C90.2532 18.8577 89.9179 18.9945 89.6184 19.1572C89.319 19.3135 89.0553 19.4665 88.8274 19.6162L87.4309 17.5361C87.9908 17.1325 88.6451 16.7972 89.3938 16.5303C90.149 16.2633 91.0475 16.1299 92.0891 16.1299C93.5605 16.1299 94.7259 16.4261 95.5852 17.0186C96.4446 17.611 96.8743 18.4476 96.8743 19.5283Z" fill="#1D4B76"/>
</svg>
