<svg width="52" height="52" viewBox="0 0 52 52" fill="none" xmlns="http://www.w3.org/2000/svg">
<circle cx="25.7862" cy="26.0714" r="25.6143" fill="#ADC9F5"/>
<path d="M35.8962 41.8701H15.9241V37.6685L23.096 30.4184C24.5422 28.9332 25.7017 27.6955 26.5745 26.7054C27.4605 25.7022 28.0988 24.7902 28.4897 23.9695C28.8936 23.1487 29.0955 22.2693 29.0955 21.3313C29.0955 20.1978 28.7763 19.351 28.1379 18.7908C27.5126 18.2176 26.6723 17.9309 25.617 17.9309C24.5096 17.9309 23.4348 18.185 22.3925 18.6931C21.3503 19.2012 20.2624 19.9242 19.129 20.8623L15.8459 16.9734C16.6667 16.2698 17.533 15.6054 18.445 14.9801C19.37 14.3547 20.4383 13.8531 21.6499 13.4753C22.8746 13.0845 24.3402 12.889 26.0469 12.889C27.923 12.889 29.5319 13.2278 30.8738 13.9052C32.2288 14.5827 33.271 15.5077 34.0006 16.6802C34.7302 17.8397 35.0949 19.1556 35.0949 20.6278C35.0949 22.2042 34.7823 23.6438 34.1569 24.9466C33.5316 26.2494 32.6196 27.5392 31.421 28.8159C30.2354 30.0927 28.8024 31.5062 27.1217 33.0566L23.4478 36.5156V36.7891H35.8962V41.8701Z" fill="#184065"/>
</svg>
