<svg width="32" height="32" viewBox="0 0 32 32" fill="none" xmlns="http://www.w3.org/2000/svg">
<circle cx="16" cy="16" r="16" fill="#5FD0BA"/>
<path d="M22.7261 22.3013H20.5776V26H16.8911V22.3013H9.27393V19.6768L17.0986 8.15332H20.5776V19.3716H22.7261V22.3013ZM16.8911 19.3716V16.3442C16.8911 16.0594 16.8952 15.7217 16.9033 15.3311C16.9196 14.9404 16.9359 14.5498 16.9521 14.1592C16.9684 13.7686 16.9847 13.4227 17.001 13.1216C17.0254 12.8123 17.0417 12.5967 17.0498 12.4746H16.9521C16.7975 12.8083 16.6348 13.1338 16.4639 13.4512C16.293 13.7604 16.0936 14.0859 15.8657 14.4277L12.5942 19.3716H16.8911Z" fill="#184065"/>
</svg>
