<svg width="129" height="45" viewBox="0 0 129 45" fill="none" xmlns="http://www.w3.org/2000/svg">
<path d="M0 22.484C0 10.0664 10.0664 0 22.484 0H106.295C118.713 0 128.779 10.0664 128.779 22.484C128.779 34.9016 118.713 44.968 106.295 44.968H22.484C10.0664 44.968 0 34.9016 0 22.484Z" fill="#FFCB77"/>
<path d="M36.8577 16.335C38.1533 16.335 39.221 16.4912 40.0608 16.8037C40.9072 17.1162 41.5354 17.5882 41.9456 18.2197C42.3557 18.8512 42.5608 19.6488 42.5608 20.6123C42.5608 21.2633 42.4371 21.833 42.1897 22.3213C41.9423 22.8096 41.6168 23.223 41.2132 23.5615C40.8095 23.9001 40.3733 24.1768 39.9046 24.3916L44.1038 30.6123H40.7444L37.3362 25.1338H35.7249V30.6123H32.6975V16.335H36.8577ZM36.6428 18.8154H35.7249V22.6729H36.7014C37.704 22.6729 38.4202 22.5068 38.8499 22.1748C39.2861 21.8363 39.5042 21.3415 39.5042 20.6904C39.5042 20.0133 39.2698 19.5316 38.801 19.2451C38.3388 18.9587 37.6194 18.8154 36.6428 18.8154ZM55.5882 25.1338C55.5882 26.0452 55.4645 26.8525 55.2171 27.5557C54.9762 28.2588 54.6214 28.8545 54.1526 29.3428C53.6904 29.8245 53.1305 30.1891 52.4729 30.4365C51.8219 30.6839 51.0862 30.8076 50.2659 30.8076C49.4977 30.8076 48.7913 30.6839 48.1468 30.4365C47.5087 30.1891 46.9521 29.8245 46.4768 29.3428C46.0081 28.8545 45.6435 28.2588 45.3831 27.5557C45.1292 26.8525 45.0022 26.0452 45.0022 25.1338C45.0022 23.9229 45.2171 22.8975 45.6468 22.0576C46.0764 21.2178 46.6884 20.5798 47.4827 20.1436C48.277 19.7074 49.2242 19.4893 50.3245 19.4893C51.3466 19.4893 52.2516 19.7074 53.0393 20.1436C53.8336 20.5798 54.4553 21.2178 54.9046 22.0576C55.3603 22.8975 55.5882 23.9229 55.5882 25.1338ZM48.0393 25.1338C48.0393 25.8499 48.1175 26.4521 48.2737 26.9404C48.43 27.4287 48.6741 27.7965 49.0061 28.0439C49.3382 28.2913 49.7711 28.415 50.305 28.415C50.8323 28.415 51.2587 28.2913 51.5843 28.0439C51.9163 27.7965 52.1572 27.4287 52.3069 26.9404C52.4632 26.4521 52.5413 25.8499 52.5413 25.1338C52.5413 24.4111 52.4632 23.8122 52.3069 23.3369C52.1572 22.8551 51.9163 22.4938 51.5843 22.2529C51.2522 22.012 50.8193 21.8916 50.2854 21.8916C49.4977 21.8916 48.9247 22.1618 48.5667 22.7021C48.2151 23.2425 48.0393 24.0531 48.0393 25.1338ZM62.5218 19.4697C63.9866 19.4697 65.1096 19.7887 65.8909 20.4268C66.6721 21.0648 67.0628 22.0348 67.0628 23.3369V30.6123H64.9827L64.4065 29.1279H64.3284C64.0159 29.5186 63.6969 29.8376 63.3714 30.085C63.0458 30.3324 62.6715 30.5146 62.2483 30.6318C61.8251 30.749 61.3108 30.8076 60.7053 30.8076C60.0608 30.8076 59.4814 30.6839 58.9671 30.4365C58.4593 30.1891 58.0589 29.8115 57.7659 29.3037C57.4729 28.7894 57.3264 28.1383 57.3264 27.3506C57.3264 26.1917 57.7333 25.3389 58.5471 24.792C59.3609 24.2386 60.5816 23.9326 62.2093 23.874L64.1038 23.8154V23.3369C64.1038 22.764 63.954 22.3441 63.6546 22.0771C63.3551 21.8102 62.9384 21.6768 62.4046 21.6768C61.8772 21.6768 61.3596 21.7516 60.8518 21.9014C60.344 22.0511 59.8362 22.2399 59.3284 22.4678L58.3421 20.4561C58.9215 20.1501 59.5693 19.9092 60.2854 19.7334C61.0081 19.5576 61.7535 19.4697 62.5218 19.4697ZM64.1038 25.5537L62.9514 25.5928C61.9879 25.6188 61.3173 25.7913 60.9397 26.1104C60.5686 26.4294 60.3831 26.8493 60.3831 27.3701C60.3831 27.8258 60.5165 28.1514 60.7835 28.3467C61.0504 28.5355 61.3987 28.6299 61.8284 28.6299C62.4664 28.6299 63.0035 28.4411 63.4397 28.0635C63.8824 27.6859 64.1038 27.1488 64.1038 26.4521V25.5537ZM73.596 30.8076C72.3785 30.8076 71.3857 30.3324 70.6175 29.3818C69.8557 28.4248 69.4749 27.0218 69.4749 25.1729C69.4749 23.3044 69.8622 21.8916 70.637 20.9346C71.4117 19.971 72.4241 19.4893 73.6741 19.4893C74.1949 19.4893 74.6539 19.5609 75.051 19.7041C75.4482 19.8473 75.79 20.0394 76.0764 20.2803C76.3694 20.5212 76.6168 20.7913 76.8186 21.0908H76.9163C76.8772 20.8825 76.8284 20.5765 76.7698 20.1729C76.7177 19.7627 76.6917 19.3428 76.6917 18.9131V15.417H79.68V30.6123H77.3948L76.8186 29.1963H76.6917C76.5029 29.4958 76.2652 29.7692 75.9788 30.0166C75.6988 30.2575 75.3635 30.4495 74.9729 30.5928C74.5823 30.736 74.1233 30.8076 73.596 30.8076ZM74.6409 28.4346C75.4547 28.4346 76.0276 28.1937 76.3596 27.7119C76.6982 27.2236 76.8772 26.4912 76.8968 25.5146V25.1924C76.8968 24.1312 76.734 23.3206 76.4085 22.7607C76.0829 22.1943 75.4775 21.9111 74.5921 21.9111C73.9345 21.9111 73.4202 22.1943 73.0491 22.7607C72.678 23.3271 72.4925 24.1442 72.4925 25.2119C72.4925 26.2796 72.678 27.0837 73.0491 27.624C73.4267 28.1644 73.9573 28.4346 74.6409 28.4346ZM94.6897 30.6123H91.6721V22.3506C91.6721 22.1227 91.6754 21.8428 91.6819 21.5107C91.6884 21.1722 91.6982 20.8271 91.7112 20.4756C91.7242 20.1175 91.7372 19.7952 91.7503 19.5088C91.6787 19.5934 91.5322 19.7399 91.3108 19.9482C91.096 20.1501 90.8941 20.3324 90.7053 20.4951L89.0647 21.8135L87.6096 19.9971L92.2093 16.335H94.6897V30.6123Z" fill="#1D4B76"/>
</svg>
