<svg width="52" height="52" viewBox="0 0 52 52" fill="none" xmlns="http://www.w3.org/2000/svg">
<circle cx="25.6143" cy="25.6143" r="25.6143" fill="#FFCB77"/>
<path d="M26.3625 22.7476C28.1083 22.7476 29.6586 23.0798 31.0135 23.7442C32.3815 24.4087 33.4563 25.3858 34.238 26.6756C35.0197 27.9654 35.4105 29.5548 35.4105 31.4439C35.4105 33.5023 34.9806 35.2807 34.1207 36.7789C33.2739 38.2641 32.0037 39.4041 30.31 40.1988C28.6294 40.9935 26.5319 41.3908 24.0174 41.3908C22.5192 41.3908 21.1056 41.2606 19.7768 41C18.4609 40.7525 17.3079 40.3681 16.3178 39.847V34.6292C17.3079 35.1504 18.4935 35.5933 19.8745 35.9581C21.2685 36.3099 22.5778 36.4858 23.8025 36.4858C25.001 36.4858 26.0107 36.3294 26.8315 36.0167C27.6523 35.691 28.2711 35.196 28.688 34.5315C29.1179 33.8541 29.3329 32.9942 29.3329 31.952C29.3329 30.558 28.8639 29.4896 27.9259 28.747C26.9878 28.0044 25.5482 27.6331 23.607 27.6331C22.8644 27.6331 22.0893 27.7048 21.2815 27.8481C20.4868 27.9914 19.8224 28.1347 19.2882 28.278L16.8845 26.9882L17.9593 12.4293L33.4563 12.4293V17.5494L23.2553 17.5494L22.7276 23.158C23.1706 23.0668 23.6526 22.9756 24.1738 22.8844C24.6949 22.7932 25.4245 22.7476 26.3625 22.7476Z" fill="#184065"/>
</svg>
