<svg width="75" height="31" viewBox="0 0 75 31" fill="none" xmlns="http://www.w3.org/2000/svg">
<rect x="0.109375" y="0.62207" width="74.2661" height="29.7561" rx="14.878" fill="#4B7BA8"/>
<path d="M20.753 11.0789C21.547 11.0789 22.2014 11.1746 22.7161 11.3661C23.2348 11.5577 23.6198 11.847 23.8712 12.234C24.1226 12.621 24.2483 13.1098 24.2483 13.7003C24.2483 14.0994 24.1725 14.4485 24.0208 14.7477C23.8692 15.047 23.6697 15.3004 23.4223 15.5078C23.1749 15.7153 22.9076 15.8849 22.6203 16.0166L25.1939 19.8291H23.135L21.0462 16.4715H20.0587V19.8291H18.2033V11.0789H20.753ZM20.6213 12.5991H20.0587V14.9632H20.6572C21.2717 14.9632 21.7106 14.8615 21.9739 14.658C22.2413 14.4505 22.3749 14.1472 22.3749 13.7482C22.3749 13.3333 22.2313 13.038 21.944 12.8624C21.6607 12.6869 21.2198 12.5991 20.6213 12.5991ZM32.2324 16.4715C32.2324 17.0301 32.1566 17.5248 32.005 17.9558C31.8573 18.3867 31.6399 18.7518 31.3526 19.051C31.0693 19.3463 30.7262 19.5697 30.3232 19.7214C29.9242 19.873 29.4733 19.9488 28.9705 19.9488C28.4997 19.9488 28.0668 19.873 27.6718 19.7214C27.2807 19.5697 26.9396 19.3463 26.6483 19.051C26.361 18.7518 26.1376 18.3867 25.978 17.9558C25.8224 17.5248 25.7445 17.0301 25.7445 16.4715C25.7445 15.7293 25.8762 15.1009 26.1396 14.5861C26.4029 14.0714 26.778 13.6804 27.2648 13.4131C27.7516 13.1457 28.3321 13.0121 29.0064 13.0121C29.6329 13.0121 30.1875 13.1457 30.6703 13.4131C31.1571 13.6804 31.5381 14.0714 31.8135 14.5861C32.0928 15.1009 32.2324 15.7293 32.2324 16.4715ZM27.6059 16.4715C27.6059 16.9104 27.6538 17.2794 27.7496 17.5787C27.8453 17.878 27.995 18.1034 28.1984 18.255C28.4019 18.4066 28.6673 18.4825 28.9945 18.4825C29.3177 18.4825 29.579 18.4066 29.7785 18.255C29.982 18.1034 30.1296 17.878 30.2214 17.5787C30.3172 17.2794 30.3651 16.9104 30.3651 16.4715C30.3651 16.0286 30.3172 15.6615 30.2214 15.3702C30.1296 15.0749 29.982 14.8535 29.7785 14.7058C29.575 14.5582 29.3097 14.4844 28.9825 14.4844C28.4997 14.4844 28.1486 14.65 27.9291 14.9812C27.7136 15.3123 27.6059 15.8091 27.6059 16.4715ZM36.4818 13.0001C37.3796 13.0001 38.0679 13.1956 38.5467 13.5866C39.0255 13.9777 39.2649 14.5722 39.2649 15.3702V19.8291H37.9901L37.637 18.9194H37.5891C37.3976 19.1588 37.2021 19.3543 37.0025 19.5059C36.803 19.6575 36.5736 19.7693 36.3143 19.8411C36.0549 19.9129 35.7397 19.9488 35.3686 19.9488C34.9736 19.9488 34.6185 19.873 34.3033 19.7214C33.992 19.5697 33.7466 19.3383 33.5671 19.0271C33.3875 18.7119 33.2978 18.3129 33.2978 17.8301C33.2978 17.1198 33.5471 16.5971 34.0459 16.262C34.5447 15.9228 35.2928 15.7353 36.2903 15.6994L37.4514 15.6635V15.3702C37.4514 15.0191 37.3597 14.7617 37.1761 14.5981C36.9926 14.4345 36.7372 14.3527 36.41 14.3527C36.0868 14.3527 35.7696 14.3986 35.4584 14.4904C35.1472 14.5822 34.8359 14.6979 34.5247 14.8375L33.9202 13.6046C34.2753 13.417 34.6723 13.2694 35.1113 13.1617C35.5542 13.054 36.011 13.0001 36.4818 13.0001ZM37.4514 16.7288L36.7452 16.7528C36.1547 16.7687 35.7437 16.8744 35.5123 17.07C35.2848 17.2655 35.1711 17.5228 35.1711 17.842C35.1711 18.1213 35.2529 18.3209 35.4165 18.4406C35.5801 18.5563 35.7936 18.6141 36.0569 18.6141C36.4479 18.6141 36.7771 18.4984 37.0444 18.267C37.3158 18.0356 37.4514 17.7064 37.4514 17.2794V16.7288ZM43.269 19.9488C42.5228 19.9488 41.9143 19.6575 41.4435 19.075C40.9767 18.4884 40.7432 17.6286 40.7432 16.4954C40.7432 15.3502 40.9807 14.4844 41.4555 13.8979C41.9303 13.3073 42.5507 13.0121 43.3168 13.0121C43.636 13.0121 43.9173 13.0559 44.1607 13.1437C44.4041 13.2315 44.6136 13.3492 44.7892 13.4969C44.9687 13.6445 45.1204 13.8101 45.244 13.9936H45.3039C45.28 13.8659 45.25 13.6784 45.2141 13.431C45.1822 13.1796 45.1662 12.9223 45.1662 12.6589V10.5163H46.9977V19.8291H45.5972L45.244 18.9613H45.1662C45.0505 19.1448 44.9049 19.3124 44.7293 19.464C44.5578 19.6116 44.3523 19.7293 44.1129 19.8171C43.8735 19.9049 43.5922 19.9488 43.269 19.9488ZM43.9094 18.4944C44.4081 18.4944 44.7593 18.3468 44.9627 18.0515C45.1702 17.7523 45.28 17.3034 45.2919 16.7049V16.5074C45.2919 15.857 45.1922 15.3602 44.9927 15.0171C44.7932 14.6699 44.4221 14.4964 43.8794 14.4964C43.4764 14.4964 43.1612 14.6699 42.9338 15.0171C42.7064 15.3642 42.5926 15.865 42.5926 16.5193C42.5926 17.1737 42.7064 17.6665 42.9338 17.9977C43.1652 18.3288 43.4904 18.4944 43.9094 18.4944ZM56.1968 19.8291H54.3474V14.7657C54.3474 14.626 54.3494 14.4545 54.3534 14.251C54.3574 14.0435 54.3634 13.832 54.3714 13.6166C54.3793 13.3971 54.3873 13.1996 54.3953 13.024C54.3514 13.0759 54.2616 13.1657 54.126 13.2934C53.9943 13.417 53.8706 13.5288 53.7549 13.6285L52.7494 14.4365L51.8576 13.3233L54.6766 11.0789H56.1968V19.8291Z" fill="white"/>
</svg>
