<svg width="130" height="45" viewBox="0 0 130 45" fill="none" xmlns="http://www.w3.org/2000/svg">
<path d="M0.608398 22.484C0.608398 10.0664 10.6748 0 23.0924 0H106.904C119.321 0 129.388 10.0664 129.388 22.484C129.388 34.9016 119.321 44.968 106.904 44.968H23.0924C10.6748 44.968 0.608398 34.9016 0.608398 22.484Z" fill="#E5D9F2"/>
<path d="M37.47 16.335C38.7656 16.335 39.8333 16.4912 40.6731 16.8037C41.5195 17.1162 42.1477 17.5882 42.5579 18.2197C42.968 18.8512 43.1731 19.6488 43.1731 20.6123C43.1731 21.2633 43.0494 21.833 42.802 22.3213C42.5546 22.8096 42.2291 23.223 41.8255 23.5615C41.4218 23.9001 40.9856 24.1768 40.5169 24.3916L44.7161 30.6123H41.3567L37.9485 25.1338H36.3372V30.6123H33.3098V16.335H37.47ZM37.2551 18.8154H36.3372V22.6729H37.3137C38.3163 22.6729 39.0325 22.5068 39.4622 22.1748C39.8984 21.8363 40.1165 21.3415 40.1165 20.6904C40.1165 20.0133 39.8821 19.5316 39.4134 19.2451C38.9511 18.9587 38.2317 18.8154 37.2551 18.8154ZM56.2005 25.1338C56.2005 26.0452 56.0768 26.8525 55.8294 27.5557C55.5885 28.2588 55.2337 28.8545 54.7649 29.3428C54.3027 29.8245 53.7428 30.1891 53.0852 30.4365C52.4342 30.6839 51.6985 30.8076 50.8782 30.8076C50.11 30.8076 49.4036 30.6839 48.7591 30.4365C48.121 30.1891 47.5644 29.8245 47.0891 29.3428C46.6204 28.8545 46.2558 28.2588 45.9954 27.5557C45.7415 26.8525 45.6145 26.0452 45.6145 25.1338C45.6145 23.9229 45.8294 22.8975 46.2591 22.0576C46.6887 21.2178 47.3007 20.5798 48.095 20.1436C48.8893 19.7074 49.8365 19.4893 50.9368 19.4893C51.9589 19.4893 52.8639 19.7074 53.6516 20.1436C54.4459 20.5798 55.0676 21.2178 55.5169 22.0576C55.9726 22.8975 56.2005 23.9229 56.2005 25.1338ZM48.6516 25.1338C48.6516 25.8499 48.7298 26.4521 48.886 26.9404C49.0423 27.4287 49.2864 27.7965 49.6184 28.0439C49.9505 28.2913 50.3834 28.415 50.9173 28.415C51.4446 28.415 51.871 28.2913 52.1966 28.0439C52.5286 27.7965 52.7695 27.4287 52.9192 26.9404C53.0755 26.4521 53.1536 25.8499 53.1536 25.1338C53.1536 24.4111 53.0755 23.8122 52.9192 23.3369C52.7695 22.8551 52.5286 22.4938 52.1966 22.2529C51.8645 22.012 51.4316 21.8916 50.8977 21.8916C50.11 21.8916 49.5371 22.1618 49.179 22.7021C48.8274 23.2425 48.6516 24.0531 48.6516 25.1338ZM63.1341 19.4697C64.5989 19.4697 65.7219 19.7887 66.5032 20.4268C67.2844 21.0648 67.6751 22.0348 67.6751 23.3369V30.6123H65.595L65.0188 29.1279H64.9407C64.6282 29.5186 64.3092 29.8376 63.9837 30.085C63.6581 30.3324 63.2838 30.5146 62.8606 30.6318C62.4374 30.749 61.9231 30.8076 61.3176 30.8076C60.6731 30.8076 60.0937 30.6839 59.5794 30.4365C59.0716 30.1891 58.6712 29.8115 58.3782 29.3037C58.0852 28.7894 57.9387 28.1383 57.9387 27.3506C57.9387 26.1917 58.3456 25.3389 59.1594 24.792C59.9732 24.2386 61.194 23.9326 62.8216 23.874L64.7161 23.8154V23.3369C64.7161 22.764 64.5663 22.3441 64.2669 22.0771C63.9674 21.8102 63.5507 21.6768 63.0169 21.6768C62.4895 21.6768 61.9719 21.7516 61.4641 21.9014C60.9563 22.0511 60.4485 22.2399 59.9407 22.4678L58.9544 20.4561C59.5338 20.1501 60.1816 19.9092 60.8977 19.7334C61.6204 19.5576 62.3658 19.4697 63.1341 19.4697ZM64.7161 25.5537L63.5637 25.5928C62.6002 25.6188 61.9296 25.7913 61.552 26.1104C61.1809 26.4294 60.9954 26.8493 60.9954 27.3701C60.9954 27.8258 61.1288 28.1514 61.3958 28.3467C61.6627 28.5355 62.011 28.6299 62.4407 28.6299C63.0787 28.6299 63.6158 28.4411 64.052 28.0635C64.4947 27.6859 64.7161 27.1488 64.7161 26.4521V25.5537ZM74.2083 30.8076C72.9908 30.8076 71.998 30.3324 71.2298 29.3818C70.468 28.4248 70.0872 27.0218 70.0872 25.1729C70.0872 23.3044 70.4746 21.8916 71.2493 20.9346C72.024 19.971 73.0364 19.4893 74.2864 19.4893C74.8072 19.4893 75.2662 19.5609 75.6634 19.7041C76.0605 19.8473 76.4023 20.0394 76.6887 20.2803C76.9817 20.5212 77.2291 20.7913 77.4309 21.0908H77.5286C77.4895 20.8825 77.4407 20.5765 77.3821 20.1729C77.33 19.7627 77.304 19.3428 77.304 18.9131V15.417H80.2923V30.6123H78.0071L77.4309 29.1963H77.304C77.1152 29.4958 76.8775 29.7692 76.5911 30.0166C76.3111 30.2575 75.9759 30.4495 75.5852 30.5928C75.1946 30.736 74.7356 30.8076 74.2083 30.8076ZM75.2532 28.4346C76.067 28.4346 76.6399 28.1937 76.9719 27.7119C77.3105 27.2236 77.4895 26.4912 77.5091 25.5146V25.1924C77.5091 24.1312 77.3463 23.3206 77.0208 22.7607C76.6953 22.1943 76.0898 21.9111 75.2044 21.9111C74.5468 21.9111 74.0325 22.1943 73.6614 22.7607C73.2903 23.3271 73.1048 24.1442 73.1048 25.2119C73.1048 26.2796 73.2903 27.0837 73.6614 27.624C74.039 28.1644 74.5696 28.4346 75.2532 28.4346ZM97.8216 30.6123H87.8411V28.5127L91.4251 24.8896C92.1477 24.1475 92.7272 23.529 93.1634 23.0342C93.6061 22.5329 93.9251 22.0771 94.1204 21.667C94.3222 21.2568 94.4231 20.8174 94.4231 20.3486C94.4231 19.7822 94.2636 19.359 93.9446 19.0791C93.6321 18.7926 93.2122 18.6494 92.6848 18.6494C92.1315 18.6494 91.5943 18.7764 91.0735 19.0303C90.5527 19.2842 90.0091 19.6455 89.4426 20.1143L87.802 18.1709C88.2122 17.8193 88.6451 17.4873 89.1009 17.1748C89.5631 16.8623 90.0969 16.6117 90.7024 16.4229C91.3144 16.2275 92.0468 16.1299 92.8997 16.1299C93.8372 16.1299 94.6412 16.2992 95.3118 16.6377C95.9889 16.9762 96.5097 17.4385 96.8743 18.0244C97.2389 18.6038 97.4212 19.2614 97.4212 19.9971C97.4212 20.7848 97.2649 21.5042 96.9524 22.1553C96.6399 22.8063 96.1842 23.4508 95.5852 24.0889C94.9928 24.7269 94.2766 25.4333 93.4368 26.208L91.6009 27.9365V28.0732H97.8216V30.6123Z" fill="#1D4B76"/>
</svg>
