<svg width="52" height="52" viewBox="0 0 52 52" fill="none" xmlns="http://www.w3.org/2000/svg">
<circle cx="25.7862" cy="26.0714" r="25.6143" fill="#FFCB77"/>
<path d="M35.009 19.8196C35.009 21.1355 34.7354 22.2754 34.1882 23.2395C33.641 24.2036 32.8984 24.9918 31.9604 25.6041C31.0354 26.2164 29.9931 26.6659 28.8336 26.9525V27.0698C31.1266 27.3564 32.8658 28.0599 34.0514 29.1803C35.25 30.3007 35.8493 31.799 35.8493 33.675C35.8493 35.3426 35.4389 36.8343 34.6181 38.1502C33.8104 39.466 32.5597 40.5018 30.866 41.2574C29.1723 42.013 26.9901 42.3908 24.3194 42.3908C22.743 42.3908 21.2708 42.2606 19.9028 42C18.5479 41.7525 17.2712 41.3681 16.0726 40.847V35.7074C17.2972 36.3328 18.5805 36.8083 19.9224 37.134C21.2643 37.4467 22.515 37.603 23.6745 37.603C25.8371 37.603 27.3484 37.2317 28.2083 36.4891C29.0812 35.7335 29.5176 34.6782 29.5176 33.3233C29.5176 32.5286 29.3157 31.8576 28.9118 31.3104C28.5079 30.7632 27.8044 30.3463 26.8012 30.0597C25.8111 29.7731 24.4236 29.6298 22.6387 29.6298H20.4696L20.4696 24.9983H22.6778C24.4366 24.9983 25.772 24.8354 26.684 24.5097C27.609 24.171 28.2343 23.715 28.56 23.1418C28.8988 22.5555 29.0681 21.8911 29.0681 21.1485C29.0681 20.1323 28.7554 19.3376 28.1301 18.7643C27.5047 18.1911 26.4625 17.9045 25.0033 17.9045C24.0914 17.9045 23.2576 18.0217 22.5019 18.2562C21.7593 18.4777 21.0884 18.7513 20.4891 19.077C19.8898 19.3897 19.3622 19.6958 18.9062 19.9955L16.1117 15.833C17.2321 15.0253 18.5414 14.3543 20.0396 13.8202C21.5509 13.286 23.3488 13.0189 25.4333 13.0189C28.3776 13.0189 30.7097 13.6117 32.4294 14.7973C34.1491 15.9828 35.009 17.6569 35.009 19.8196Z" fill="#184065"/>
</svg>
