<svg width="76" height="31" viewBox="0 0 76 31" fill="none" xmlns="http://www.w3.org/2000/svg">
<rect x="0.929688" y="0.62207" width="74.2661" height="29.7561" rx="14.878" fill="#4B7BA8"/>
<path d="M21.5186 10.9783C22.3126 10.9783 22.967 11.074 23.4817 11.2656C24.0004 11.4571 24.3855 11.7464 24.6368 12.1334C24.8882 12.5204 25.0139 13.0092 25.0139 13.5998C25.0139 13.9988 24.9381 14.3479 24.7865 14.6472C24.6348 14.9464 24.4353 15.1998 24.1879 15.4073C23.9406 15.6147 23.6732 15.7843 23.3859 15.916L25.9595 19.7285H23.9007L21.8119 16.3709H20.8243V19.7285H18.9689V10.9783H21.5186ZM21.3869 12.4985H20.8243V14.8626H21.4228C22.0373 14.8626 22.4762 14.7609 22.7395 14.5574C23.0069 14.3499 23.1406 14.0466 23.1406 13.6476C23.1406 13.2327 22.9969 12.9374 22.7096 12.7618C22.4263 12.5863 21.9854 12.4985 21.3869 12.4985ZM32.998 16.3709C32.998 16.9295 32.9222 17.4242 32.7706 17.8552C32.623 18.2861 32.4055 18.6512 32.1182 18.9505C31.8349 19.2457 31.4918 19.4692 31.0888 19.6208C30.6898 19.7724 30.2389 19.8482 29.7361 19.8482C29.2653 19.8482 28.8324 19.7724 28.4374 19.6208C28.0464 19.4692 27.7052 19.2457 27.4139 18.9505C27.1266 18.6512 26.9032 18.2861 26.7436 17.8552C26.588 17.4242 26.5102 16.9295 26.5102 16.3709C26.5102 15.6287 26.6418 15.0003 26.9052 14.4856C27.1685 13.9708 27.5436 13.5798 28.0304 13.3125C28.5172 13.0451 29.0977 12.9115 29.7721 12.9115C30.3985 12.9115 30.9531 13.0451 31.4359 13.3125C31.9227 13.5798 32.3038 13.9708 32.5791 14.4856C32.8584 15.0003 32.998 15.6287 32.998 16.3709ZM28.3715 16.3709C28.3715 16.8098 28.4194 17.1789 28.5152 17.4781C28.6109 17.7774 28.7606 18.0028 28.9641 18.1544C29.1676 18.3061 29.4329 18.3819 29.7601 18.3819C30.0833 18.3819 30.3446 18.3061 30.5441 18.1544C30.7476 18.0028 30.8953 17.7774 30.987 17.4781C31.0828 17.1789 31.1307 16.8098 31.1307 16.3709C31.1307 15.928 31.0828 15.5609 30.987 15.2696C30.8953 14.9743 30.7476 14.7529 30.5441 14.6053C30.3406 14.4576 30.0753 14.3838 29.7481 14.3838C29.2653 14.3838 28.9142 14.5494 28.6947 14.8806C28.4793 15.2117 28.3715 15.7085 28.3715 16.3709ZM37.2475 12.8995C38.1452 12.8995 38.8335 13.095 39.3123 13.486C39.7911 13.8771 40.0305 14.4716 40.0305 15.2696V19.7285H38.7557L38.4026 18.8188H38.3547C38.1632 19.0582 37.9677 19.2537 37.7682 19.4053C37.5687 19.5569 37.3392 19.6687 37.0799 19.7405C36.8205 19.8123 36.5053 19.8482 36.1342 19.8482C35.7392 19.8482 35.3841 19.7724 35.0689 19.6208C34.7577 19.4692 34.5123 19.2377 34.3327 18.9265C34.1532 18.6113 34.0634 18.2123 34.0634 17.7295C34.0634 17.0193 34.3128 16.4966 34.8115 16.1614C35.3103 15.8222 36.0584 15.6347 37.0559 15.5988L38.2171 15.5629V15.2696C38.2171 14.9185 38.1253 14.6611 37.9417 14.4975C37.7582 14.3339 37.5028 14.2521 37.1756 14.2521C36.8525 14.2521 36.5352 14.298 36.224 14.3898C35.9128 14.4816 35.6016 14.5973 35.2903 14.7369L34.6858 13.504C35.041 13.3165 35.438 13.1688 35.8769 13.0611C36.3198 12.9534 36.7766 12.8995 37.2475 12.8995ZM38.2171 16.6282L37.5108 16.6522C36.9203 16.6681 36.5093 16.7739 36.2779 16.9694C36.0504 17.1649 35.9367 17.4223 35.9367 17.7415C35.9367 18.0208 36.0185 18.2203 36.1821 18.34C36.3457 18.4557 36.5592 18.5135 36.8225 18.5135C37.2136 18.5135 37.5427 18.3978 37.8101 18.1664C38.0814 17.935 38.2171 17.6058 38.2171 17.1789V16.6282ZM44.0346 19.8482C43.2884 19.8482 42.68 19.5569 42.2091 18.9744C41.7423 18.3878 41.5089 17.528 41.5089 16.3948C41.5089 15.2497 41.7463 14.3838 42.2211 13.7973C42.6959 13.2067 43.3164 12.9115 44.0825 12.9115C44.4017 12.9115 44.683 12.9554 44.9264 13.0431C45.1698 13.1309 45.3792 13.2486 45.5548 13.3963C45.7344 13.5439 45.886 13.7095 46.0097 13.893H46.0695C46.0456 13.7653 46.0157 13.5778 45.9797 13.3304C45.9478 13.0791 45.9319 12.8217 45.9319 12.5583V10.4157H47.7633V19.7285H46.3628L46.0097 18.8607H45.9319C45.8162 19.0442 45.6705 19.2118 45.495 19.3634C45.3234 19.5111 45.1179 19.6288 44.8785 19.7165C44.6391 19.8043 44.3578 19.8482 44.0346 19.8482ZM44.675 18.3938C45.1738 18.3938 45.5249 18.2462 45.7284 17.9509C45.9359 17.6517 46.0456 17.2028 46.0576 16.6043V16.4068C46.0576 15.7564 45.9578 15.2596 45.7583 14.9165C45.5588 14.5693 45.1877 14.3958 44.6451 14.3958C44.2421 14.3958 43.9269 14.5693 43.6994 14.9165C43.472 15.2636 43.3583 15.7644 43.3583 16.4187C43.3583 17.0731 43.472 17.5659 43.6994 17.8971C43.9308 18.2282 44.256 18.3938 44.675 18.3938ZM58.1654 12.9354C58.1654 13.3384 58.0817 13.6875 57.9141 13.9828C57.7465 14.2781 57.5191 14.5195 57.2318 14.707C56.9485 14.8945 56.6293 15.0322 56.2742 15.12V15.1559C56.9764 15.2437 57.5091 15.4591 57.8722 15.8023C58.2393 16.1454 58.4228 16.6043 58.4228 17.1789C58.4228 17.6896 58.2971 18.1465 58.0457 18.5494C57.7984 18.9524 57.4153 19.2697 56.8966 19.5011C56.3779 19.7325 55.7096 19.8482 54.8916 19.8482C54.4088 19.8482 53.9579 19.8083 53.539 19.7285C53.124 19.6527 52.733 19.535 52.3659 19.3754V17.8013C52.7409 17.9928 53.134 18.1385 53.5449 18.2382C53.9559 18.334 54.339 18.3819 54.6941 18.3819C55.3564 18.3819 55.8193 18.2681 56.0826 18.0407C56.35 17.8093 56.4836 17.4861 56.4836 17.0711C56.4836 16.8277 56.4218 16.6222 56.2981 16.4547C56.1744 16.2871 55.9589 16.1594 55.6517 16.0716C55.3485 15.9838 54.9235 15.9399 54.3769 15.9399H53.7125V14.5215H54.3888C54.9275 14.5215 55.3365 14.4716 55.6158 14.3718C55.8991 14.2681 56.0906 14.1284 56.1904 13.9529C56.2941 13.7733 56.346 13.5698 56.346 13.3424C56.346 13.0312 56.2502 12.7878 56.0587 12.6122C55.8672 12.4367 55.548 12.3489 55.1011 12.3489C54.8218 12.3489 54.5664 12.3848 54.335 12.4566C54.1075 12.5244 53.9021 12.6082 53.7185 12.708C53.535 12.8037 53.3734 12.8975 53.2337 12.9893L52.3778 11.7144C52.721 11.4671 53.122 11.2616 53.5808 11.098C54.0437 10.9344 54.5943 10.8526 55.2327 10.8526C56.1345 10.8526 56.8487 11.0341 57.3754 11.3972C57.9021 11.7603 58.1654 12.2731 58.1654 12.9354Z" fill="white"/>
</svg>
