<svg width="32" height="32" viewBox="0 0 32 32" fill="none" xmlns="http://www.w3.org/2000/svg">
<circle cx="16" cy="16" r="16" fill="#5FD0BA"/>
<path d="M16.3418 14.5986C17.4323 14.5986 18.4007 14.8062 19.2471 15.2212C20.1016 15.6362 20.7729 16.2466 21.2612 17.0522C21.7495 17.8579 21.9937 18.8507 21.9937 20.0308C21.9937 21.3166 21.7251 22.4274 21.188 23.3633C20.659 24.291 19.8656 25.0031 18.8076 25.4995C17.7578 25.9959 16.4476 26.2441 14.877 26.2441C13.9411 26.2441 13.0581 26.1628 12.228 26C11.4061 25.8454 10.6859 25.6053 10.0674 25.2798L10.0674 22.0205C10.6859 22.346 11.4264 22.6227 12.2891 22.8506C13.1598 23.0703 13.9777 23.1802 14.7427 23.1802C15.4914 23.1802 16.1221 23.0825 16.6348 22.8872C17.1475 22.6838 17.534 22.3745 17.7944 21.9595C18.063 21.5363 18.1973 20.9992 18.1973 20.3481C18.1973 19.4774 17.9043 18.8101 17.3184 18.3462C16.7324 17.8823 15.8332 17.6504 14.6206 17.6504C14.1567 17.6504 13.6725 17.6951 13.168 17.7847C12.6715 17.8742 12.2565 17.9637 11.9229 18.0532L10.4214 17.2476L11.0928 8.15332L20.7729 8.15332V11.3516L14.4009 11.3516L14.0713 14.855C14.348 14.798 14.6491 14.741 14.9746 14.6841C15.3001 14.6271 15.7559 14.5986 16.3418 14.5986Z" fill="#184065"/>
</svg>
