<svg width="128" height="426" viewBox="0 0 128 426" fill="none" xmlns="http://www.w3.org/2000/svg">
<g clip-path="url(#clip0_792_2332)">
<path d="M102.321 345.151C101.653 365.03 100.069 410.634 100.069 410.634H93.3403C93.3403 410.634 81.2429 376.869 78.9917 363.254C76.7404 349.64 81.2182 328.182 81.2182 328.182C79.6102 321.621 71.9905 288.645 70.333 273.649C70.234 272.86 70.1598 272.12 70.1104 271.454C76.4188 270.911 91.188 269.555 101.455 267.458C101.479 267.952 101.504 268.47 101.529 269.012C102.271 286.179 102.84 328.083 102.271 345.151H102.321Z" fill="#FFE0CB"/>
<path d="M112.266 263.192C111.721 264.844 107.342 266.275 101.529 267.458C91.262 269.555 76.4928 270.911 70.1843 271.454C68.4031 271.602 67.3146 271.676 67.1662 271.701C67.1662 271.701 66.9188 269.16 66.5229 265.411C66.5229 265.189 66.4735 264.967 66.4487 264.745C65.3355 254.214 63.2574 235.395 62.4657 235.074C61.6493 234.754 61.4267 254.214 61.3772 265.14C61.3772 265.362 61.3772 265.584 61.3772 265.806C61.3772 269.703 61.3772 272.367 61.3772 272.367C61.3772 272.367 60.1403 272.465 58.1611 272.613C53.7081 272.934 45.47 273.477 39.4089 273.477C36.2176 273.477 31.5172 272.885 26.8415 272.12C18.7518 270.813 10.7363 269.012 10.7363 269.012C10.7363 269.012 11.1569 266.447 11.8001 262.427C11.8248 262.205 11.8743 261.983 11.8991 261.761C13.9771 248.788 18.1828 222.372 19.0239 215.861C19.1724 214.677 19.3703 213.148 19.6177 211.397C19.6424 211.15 19.6919 210.903 19.7166 210.657C20.3598 206.02 21.201 199.977 21.9926 194.452C23.1306 186.461 24.1449 179.555 24.1449 179.555C26.5693 178.865 29.0927 178.396 31.8388 178.051C32.0614 178.026 32.3088 178.001 32.5315 177.977C33.9911 177.804 35.4754 177.656 37.0834 177.533C37.3061 177.508 37.5535 177.483 37.7761 177.483C38.7904 177.409 39.8295 177.335 40.8933 177.262C41.1159 177.262 41.3633 177.237 41.6107 177.212C42.5508 177.138 43.4909 177.089 44.4804 177.015C44.7031 177.015 44.9257 176.99 45.1731 176.966C46.6822 176.867 48.2655 176.768 49.923 176.645C50.1457 176.645 50.3931 176.62 50.6405 176.596C51.9764 176.497 53.3618 176.398 54.8214 176.275C55.044 176.275 55.2667 176.25 55.5141 176.226C55.8357 176.201 56.1573 176.176 56.4789 176.127C57.4684 176.028 58.4827 175.954 59.5218 175.856C59.7692 175.831 60.0166 175.806 60.2392 175.782C61.5751 175.658 62.9358 175.535 64.2964 175.436C64.5191 175.412 64.7665 175.387 64.9891 175.362C66.2261 175.239 67.4383 175.14 68.6752 175.042C68.8979 175.042 69.1206 175.017 69.3679 174.968C70.877 174.844 72.3614 174.721 73.7962 174.598C74.0189 174.573 74.2415 174.548 74.4642 174.524C76.0228 174.4 77.5566 174.252 78.9667 174.129C79.1894 174.104 79.412 174.08 79.6594 174.055C81.119 173.932 82.4797 173.809 83.6919 173.71C83.9145 173.71 84.1372 173.661 84.3598 173.636C85.8442 173.513 87.0811 173.389 88.0459 173.315C88.2933 173.315 88.516 173.266 88.7139 173.241C89.7035 173.167 90.2477 173.118 90.2477 173.118C90.2477 173.118 92.3258 181.01 93.2411 184.143C93.2659 184.266 93.3401 184.488 93.4143 184.809C94.107 187.497 96.4325 197.141 99.2527 208.782C99.327 209.103 99.4012 209.424 99.5001 209.769C103.409 225.973 108.159 245.729 110.657 256.113C110.707 256.36 110.781 256.582 110.831 256.804C111.795 260.799 112.364 263.241 112.364 263.241L112.266 263.192Z" fill="#6BAFFA"/>
<path d="M56.4301 75.8178C51.5317 77.3223 45.4212 80.504 35.3524 76.9277C25.2836 73.3514 20.3357 67.7773 21.2511 61.0686C22.1417 54.36 25.5062 52.1155 29.316 45.8755C33.1258 39.6354 34.4618 31.1509 33.5711 24.2203C32.6805 17.2897 32.829 12.1595 38.7911 8.80518C44.778 5.45085 48.8104 10.359 48.8104 10.359C48.8104 10.359 55.2921 -2.14572 71.224 0.320701C87.1313 2.78712 90.4958 14.8479 90.9411 20.644C91.3864 26.4401 91.3864 36.0591 94.7509 40.9673C98.1154 45.8755 104.82 49.4518 104.82 56.3824C104.82 63.3131 101.233 70.219 90.9411 72.0195C80.6249 73.7953 62.2932 74.0173 56.4795 75.8178H56.4301Z" fill="#5D4640"/>
<path d="M93.3155 184.784C90.2231 185.006 85.7701 185.425 80.7233 185.943C80.4512 185.993 80.1543 186.017 79.8822 186.042C79.6348 186.067 79.3627 186.091 79.1153 186.116C78.1752 186.215 77.2599 186.313 76.295 186.412C76.0476 186.412 75.8003 186.461 75.5529 186.486C72.0399 186.856 68.4033 187.275 64.8161 187.694C64.8161 187.694 64.6924 187.694 64.6429 187.694C63.0844 187.867 61.5753 188.064 60.0662 188.237C60.0662 188.237 60.0167 188.237 59.9672 188.237C55.8358 188.73 51.9023 189.199 48.5873 189.643C45.8165 189.988 43.2189 190.26 40.7697 190.432C39.4833 190.531 38.2463 190.605 37.0836 190.654H37.0341C36.6878 190.654 36.3167 190.679 35.9703 190.679C35.7477 190.679 35.525 190.704 35.3024 190.704C34.8076 190.704 34.3128 190.753 33.818 190.753C33.6943 190.753 33.5706 190.753 33.447 190.753C32.21 190.778 31.0473 190.802 30.0082 190.802H29.365C26.1489 190.802 24.244 190.679 24.1945 190.654C23.9966 190.654 23.8729 190.482 23.8977 190.284C23.8977 190.112 24.0708 189.964 24.244 189.988C24.2935 189.988 26.0994 190.112 29.2166 190.112C29.4392 190.112 29.6619 190.112 29.9093 190.112C30.9483 190.112 32.1358 190.112 33.4222 190.087C33.6449 190.087 33.8923 190.087 34.1396 190.062C35.0055 190.038 35.8961 190.013 36.8362 189.964C37.0589 189.964 37.3063 189.939 37.5536 189.914C38.5185 189.865 39.5328 189.816 40.5718 189.742C40.8192 189.742 41.0419 189.717 41.314 189.668C42.8725 189.544 44.5301 189.396 46.2371 189.199C46.4845 189.174 46.7318 189.15 46.9792 189.1C47.4988 189.051 48.0183 188.977 48.5625 188.903C49.4779 188.78 50.4427 188.656 51.5065 188.533C51.7539 188.508 52.0013 188.459 52.2487 188.434C53.164 188.311 54.1041 188.212 55.0936 188.089C55.341 188.064 55.5884 188.015 55.8606 187.99C57.1223 187.842 58.4582 187.67 59.8188 187.522C60.0909 187.473 60.3383 187.448 60.6105 187.423C61.8969 187.275 63.2328 187.103 64.5687 186.955C64.8408 186.93 65.0882 186.881 65.3604 186.856C67.0426 186.659 68.7496 186.461 70.4566 186.264C70.704 186.239 70.9514 186.215 71.1988 186.19C72.7821 186.017 74.3654 185.845 75.924 185.672C76.1713 185.647 76.4187 185.623 76.6661 185.598C77.5815 185.499 78.4968 185.401 79.3874 185.302C79.7833 185.253 80.2038 185.228 80.5996 185.179C80.847 185.154 81.0944 185.129 81.3418 185.105C86.067 184.611 90.2479 184.242 93.2661 184.02C93.2908 184.143 93.365 184.365 93.4392 184.685L93.3155 184.784Z" fill="#11100E"/>
<path d="M35.8965 190.556C35.8965 190.556 35.8965 190.629 35.8965 190.728C35.748 192.529 34.0658 207.376 19.6182 211.372C19.6429 211.125 19.6924 210.879 19.7171 210.632C33.2989 206.711 35.0554 192.8 35.2285 190.777C35.2285 190.629 35.2285 190.531 35.2285 190.531C35.2285 190.358 35.4264 190.21 35.5749 190.21C35.7728 190.21 35.8965 190.358 35.8965 190.556Z" fill="#11100E"/>
<path d="M102.543 105.069C102.444 105.439 102.791 105.809 103.36 106.204C103.236 105.661 103.112 105.119 102.964 104.601C102.741 104.724 102.593 104.872 102.543 105.069Z" fill="#FFE0CB"/>
<path d="M81.0453 38.9449C81.0453 38.9449 69.1706 38.9449 63.5795 34.7026C57.9885 30.4604 54.8466 21.088 50.5915 21.7539C46.5591 22.3952 41.8586 31.1263 41.1907 40.0794C40.5227 49.0079 43.2193 57.7143 47.0044 63.3131C48.4887 65.4835 50.4183 66.9881 52.4964 67.9993C55.7372 69.5778 59.3492 70.0217 62.2436 70.0217C63.7775 70.0217 66.1524 69.4298 68.6758 68.2953C73.8215 65.9768 79.7094 61.34 81.0701 54.6066C83.0987 44.5436 81.0701 38.9695 81.0701 38.9695L81.0453 38.9449Z" fill="#FFE0CB"/>
<path d="M45.3468 40.3012C44.4067 40.6218 48.0433 37.1688 51.482 36.7249C54.9208 36.2809 55.5145 39.29 55.5145 39.29C55.5145 39.29 48.9339 39.1173 45.3715 40.3012H45.3468Z" fill="#3B241D"/>
<path d="M124.289 151.956C120.479 165.349 107.937 178.076 104.127 178.076C100.317 178.076 92.6972 172.501 90.916 168.481C90.6934 167.988 90.5202 167.47 90.3718 166.927C90.8665 158.27 92.2767 145.47 94.9485 139.673C100.094 128.501 96.9771 116.662 96.9771 116.662C95.9133 116.168 94.3795 115.675 92.4251 115.182H92.3756C84.0633 113.11 68.6014 111.31 53.7579 112.641C44.7282 113.455 37.4301 114.985 32.1607 116.76H32.136C30.0579 117.476 28.2767 118.216 26.8665 118.98C24.5905 120.213 23.2299 121.447 22.8341 122.606C21.3497 127.07 22.0919 151.192 22.7599 159.38C22.7846 161.353 23.0567 165.546 23.3783 169.665C23.6752 173.784 24.0215 177.829 24.1947 179.481C25.7533 194.403 28.3014 213.123 31.5917 219.141C35.6242 226.516 37.4054 234.557 35.4015 236.11C33.3977 237.664 32.037 231.646 32.037 231.646C32.037 231.646 28.6725 246.395 27.2871 245.483C25.877 244.595 27.2871 232.09 27.2871 232.09C27.2871 232.09 23.9721 243.707 22.4135 242.819C21.0529 242.055 21.3745 233.891 21.4734 231.72C21.325 233.792 20.657 241.191 19.4943 240.797C18.1584 240.353 17.243 230.758 17.4904 226.516C17.7131 222.274 13.6806 216.922 10.3161 209.769C6.95158 202.616 2.25116 184.316 0.692597 168.235C-0.865965 152.154 0.247293 126.922 6.97632 108.375C11.751 95.1792 16.204 90.6903 20.8797 88.3226C22.6114 87.4347 24.3679 86.8427 26.1738 86.2015C26.347 86.1521 26.5202 86.0781 26.6686 86.0288C33.6203 83.5624 49.0575 81.5646 52.5457 80.0107C54.4754 79.1475 54.7722 76.3851 54.3764 73.6227C54.3022 73.0554 54.1785 72.4882 54.0548 71.9456C53.7579 70.663 53.3126 69.4545 52.8673 68.5419C52.7931 68.3692 52.6941 68.1719 52.5457 67.9253C55.7865 69.5038 59.3984 69.9231 62.2682 69.9231C63.8267 69.9231 66.1522 69.3558 68.7003 68.1966C68.4777 69.2818 68.2055 70.5397 67.9334 71.8469C67.785 72.6115 67.6365 73.3514 67.4881 74.116C66.7707 77.717 66.2264 80.9973 66.5233 81.096C67.1912 81.318 73.475 82.6498 81.9852 84.0064C84.3354 84.3763 86.463 84.9436 88.3926 85.7082C90.5944 86.5714 92.5241 87.6813 94.2558 89.0625C96.4823 90.789 98.3377 92.9348 99.921 95.4012C100.935 96.9797 101.999 100.383 103.038 104.552C102.816 104.675 102.642 104.823 102.618 105.02C102.519 105.39 102.865 105.76 103.434 106.155C105.339 114.121 107.095 124.209 108.011 129.734C108.407 132.151 108.654 133.705 108.679 133.828L108.778 133.655C108.877 133.433 108.951 133.285 109 133.236V133.187L116.323 118.438C114.987 117.55 114.764 113.973 114.764 113.973C114.764 113.973 105.586 112.863 105.809 110.397C106.007 108.153 110.856 108.893 111.722 109.041C110.831 108.819 105.562 107.536 103.508 106.179C103.385 105.637 103.236 105.094 103.112 104.576C104.968 103.565 112.093 104.823 112.093 104.823C112.093 104.823 101.331 98.8049 104.25 97.8923C106.749 97.103 112.117 100.161 113.528 101.025C112.291 100.211 108.258 97.473 108.06 96.3384C107.838 95.0066 111.202 95.0066 115.235 96.7824C119.267 98.5582 123.967 105.933 126.664 112.42C129.361 118.906 128.223 138.539 124.413 151.956H124.289Z" fill="#FFE0CB"/>
<path d="M96.9522 116.686C91.4107 114.146 72.0895 111.038 53.7083 112.666C35.3272 114.294 24.0214 118.931 22.7845 122.63C22.0918 124.702 21.127 137.898 21.597 150.624C22.1165 165.225 24.1204 179.457 24.1204 179.531C32.3338 177.212 41.6109 177.434 56.4049 176.102C71.2236 174.771 90.1243 173.118 90.1243 173.118C90.1243 171.589 90.1985 169.443 90.3222 166.927C90.817 158.27 92.2271 145.469 94.8989 139.673C100.045 128.5 96.9275 116.662 96.9275 116.662L96.9522 116.686Z" fill="#1E56A1"/>
<path d="M58.1117 272.589C58.087 273.057 58.0375 273.551 57.988 274.093C56.8253 288.472 53.8566 326.702 53.4855 333.534C53.0402 341.574 46.5586 408.562 46.5586 408.562C46.5586 408.562 43.5899 410.067 39.5574 412.311C35.0054 399.239 26.8168 362.588 26.6189 347.815C26.3962 331.955 32.9026 321.005 32.9026 321.005C32.9026 321.005 32.4573 315.874 31.344 306.033C30.4782 298.511 28.3259 284.946 27.2373 275.795C27.0642 274.439 26.9405 273.205 26.8415 272.071C31.5172 272.835 36.2176 273.427 39.409 273.427C45.47 273.427 53.6834 272.885 58.1612 272.564L58.1117 272.589Z" fill="#FFE0CB"/>
<path d="M100.094 410.609H93.3653C93.3653 410.609 91.3615 420.179 91.8068 423.089H121.147L100.094 410.609Z" fill="#5D8FD6"/>
<path d="M46.5594 408.587C46.5594 408.587 43.5907 410.092 39.5582 412.336C33.1508 415.937 24.0221 421.462 19.8906 426C19.8906 426 37.3564 425.112 48.3406 424.446C48.3406 424.446 48.3406 413.495 46.5594 408.587Z" fill="#5D8FD6"/>
<path d="M57.098 57.2456C56.8012 57.2456 56.529 57.2209 56.3311 57.147C56.0095 57.0483 55.1684 56.7523 58.6318 42.2991C58.6813 42.1265 58.8545 42.0031 59.0277 42.0525C59.2008 42.1018 59.3245 42.2744 59.2751 42.4471C58.0134 47.7252 56.3806 55.4451 56.628 56.5303C57.4691 56.7277 59.374 56.2837 59.9925 55.1738C60.0914 55.0012 60.2894 54.9518 60.4625 55.0505C60.6357 55.1492 60.6852 55.3465 60.5862 55.5191C59.9183 56.7277 58.236 57.2703 57.098 57.2703V57.2456Z" fill="#11100E"/>
<path d="M59.9925 64.2501C57.6176 64.2501 56.1827 62.573 56.1827 62.5483C56.059 62.4003 56.0838 62.203 56.2322 62.0797C56.3806 61.9564 56.5785 61.981 56.7022 62.129C56.8012 62.2523 59.473 65.4094 63.8024 62.0797C63.9508 61.9564 64.1487 62.0057 64.2724 62.129C64.3961 62.277 64.3713 62.499 64.2229 62.5976C62.6149 63.8308 61.18 64.2501 59.9925 64.2501Z" fill="#11100E"/>
<path d="M68.651 68.2706C68.4284 69.3558 68.1563 70.6137 67.8841 71.9209C62.4663 74.116 56.9495 73.6474 53.9808 71.9949C53.6839 70.7123 53.2386 69.5038 52.7933 68.5912C52.7191 68.4186 52.6201 68.2213 52.4717 67.9746C55.7125 69.5531 59.3244 69.9724 62.1941 69.9724C63.7527 69.9724 66.0782 69.4051 68.6263 68.2459L68.651 68.2706Z" fill="#F4B36E"/>
<path d="M32.1114 116.785H32.0867L26.8173 119.029C26.4462 109.632 22.6364 94.9819 20.8057 88.3965C22.5374 87.5086 24.2939 86.9167 26.0998 86.2754C30.1076 96.1904 32.1114 116.785 32.1114 116.785Z" fill="#1E56A1"/>
<path d="M96.9526 116.686L92.4006 115.206H92.3512C93.3902 107.536 89.803 91.726 88.3682 85.8066C90.5699 86.6699 92.4996 87.7798 94.2313 89.1363C98.5112 100.63 96.9774 116.686 96.9774 116.686H96.9526Z" fill="#1E56A1"/>
<path d="M108.605 133.853C107.244 136.664 101.901 147.665 101.505 149.86C101.505 149.86 103.014 138.267 107.937 129.734C108.333 132.151 108.58 133.705 108.605 133.828V133.853Z" fill="#F4B36E"/>
<path d="M37.7765 177.434C37.1333 180.616 34.7088 188.089 34.0409 190.136C33.9419 190.408 33.8924 190.58 33.8677 190.654C33.843 190.728 33.7935 190.778 33.744 190.827C33.6945 190.876 33.6203 190.901 33.5461 190.901C33.5214 190.901 33.4719 190.901 33.4471 190.901C33.4224 190.901 33.3977 190.901 33.3729 190.876C33.2492 190.802 33.175 190.63 33.2245 190.482C33.2245 190.482 33.274 190.383 33.3234 190.21C33.843 188.632 36.3416 180.887 37.059 177.558C37.2817 177.533 37.5291 177.508 37.7517 177.508L37.7765 177.434Z" fill="#11100E"/>
<path d="M32.5315 177.952C31.8883 181.035 30.4287 187.99 29.835 190.21C29.7855 190.383 29.736 190.531 29.7113 190.654C29.6866 190.778 29.5876 190.852 29.4639 190.876C29.4392 190.876 29.4144 190.876 29.3897 190.876C29.3897 190.876 29.3402 190.876 29.3155 190.876C29.1423 190.827 29.0433 190.63 29.0928 190.457C29.0928 190.383 29.1423 190.309 29.167 190.21C29.6866 188.311 31.1709 181.331 31.8636 178.051C32.0862 178.026 32.3336 178.001 32.5563 177.977L32.5315 177.952Z" fill="#11100E"/>
<path d="M45.1489 176.941C44.3819 180.591 41.8833 187.793 41.1906 189.742C41.0916 190.013 41.0422 190.186 41.0174 190.235C40.968 190.358 40.8443 190.457 40.6958 190.457C40.6463 190.457 40.6216 190.457 40.5969 190.457C40.4237 190.383 40.3247 190.186 40.399 190.038C40.399 189.964 40.4484 189.914 40.4732 189.84C41.7349 186.313 43.7635 180.221 44.4562 177.015C44.6788 177.015 44.9015 176.99 45.1489 176.966V176.941Z" fill="#11100E"/>
<path d="M41.6114 177.163C40.8198 179.95 38.1727 187.941 37.48 189.988C37.4058 190.26 37.3563 190.408 37.3316 190.457C37.3068 190.58 37.1831 190.679 37.0594 190.679C37.0594 190.679 37.0594 190.679 37.01 190.679C37.01 190.679 36.9605 190.679 36.9357 190.679C36.7626 190.629 36.6636 190.432 36.7378 190.26C36.7378 190.26 36.7626 190.186 36.812 190.038C37.2821 188.607 40.0529 180.295 40.9682 177.212C41.1909 177.212 41.4382 177.188 41.6856 177.163H41.6114Z" fill="#11100E"/>
<path d="M50.6165 176.546C49.7754 179.851 47.4746 187.177 46.8561 189.174C46.7572 189.446 46.7077 189.618 46.7077 189.668C46.6582 189.816 46.5345 189.89 46.3861 189.89C46.3614 189.89 46.3119 189.89 46.2871 189.89C46.114 189.84 46.015 189.643 46.0645 189.47C46.0645 189.47 46.0645 189.396 46.1387 189.273C46.5593 187.917 49.0084 180.123 49.9238 176.596C50.1464 176.596 50.3938 176.571 50.6412 176.546H50.6165Z" fill="#11100E"/>
<path d="M55.465 176.176C55.0444 179.703 52.7684 186.609 52.1252 188.533C52.0262 188.829 51.952 189.002 51.952 189.051C51.9025 189.199 51.7788 189.273 51.6304 189.273C51.5809 189.273 51.5562 189.273 51.5314 189.273C51.3583 189.224 51.2593 189.026 51.3335 188.854C51.3335 188.854 51.3335 188.78 51.4077 188.656C51.853 187.349 54.327 179.95 54.8217 176.25C55.0444 176.25 55.267 176.226 55.5144 176.201L55.465 176.176Z" fill="#11100E"/>
<path d="M60.1899 175.732C59.0519 179.407 56.479 186.141 55.7368 188.089C55.6131 188.385 55.5637 188.558 55.5389 188.607C55.4894 188.755 55.3657 188.829 55.242 188.829C55.1926 188.829 55.1678 188.829 55.1184 188.804C54.9452 188.73 54.8462 188.533 54.9204 188.385C54.9204 188.385 54.9452 188.311 54.9947 188.188C55.4647 186.93 58.2355 179.753 59.4972 175.806C59.7446 175.782 59.9919 175.757 60.2146 175.732H60.1899Z" fill="#11100E"/>
<path d="M64.9404 175.313C64.5445 178.914 61.4522 185.524 60.4873 187.497C60.3389 187.818 60.2399 188.015 60.2152 188.064C60.1905 188.138 60.1163 188.212 60.0173 188.237C60.0173 188.237 59.9678 188.237 59.9183 188.237C59.8689 188.237 59.8194 188.237 59.7699 188.188C59.5967 188.089 59.5225 187.892 59.6215 187.744C59.6215 187.744 59.6215 187.67 59.6957 187.596C60.2399 186.437 63.7776 179.111 64.2477 175.362C64.4703 175.338 64.7177 175.313 64.9404 175.288V175.313Z" fill="#11100E"/>
<path d="M69.2943 174.918C69.0717 178.569 66.1525 185.006 65.2371 186.955C65.0887 187.275 64.9897 187.473 64.965 187.522C64.9402 187.596 64.866 187.645 64.8165 187.695C64.7671 187.695 64.7176 187.719 64.6681 187.719C64.6681 187.719 64.6434 187.719 64.6186 187.719C64.5692 187.719 64.5444 187.719 64.4949 187.719C64.3465 187.645 64.2723 187.423 64.3465 187.251C64.3465 187.251 64.396 187.177 64.4455 187.053C65.0392 185.82 68.3542 178.741 68.6264 174.992C68.849 174.992 69.0717 174.968 69.3191 174.918H69.2943Z" fill="#11100E"/>
<path d="M74.3907 174.475C74.0939 177.977 71.7684 184.439 71.0757 186.313C70.9767 186.609 70.9025 186.757 70.9025 186.831C70.853 186.955 70.7294 187.053 70.5809 187.053C70.5562 187.053 70.5067 187.053 70.4572 187.053C70.284 186.979 70.1851 186.782 70.2593 186.609C70.2593 186.609 70.284 186.535 70.3335 186.412C70.8036 185.179 73.4012 178.15 73.7228 174.573C73.9454 174.549 74.1681 174.524 74.3907 174.499V174.475Z" fill="#11100E"/>
<path d="M79.5608 174.031C79.2887 177.36 77.359 183.28 76.5179 185.721C76.4189 185.993 76.32 186.239 76.2705 186.412C76.0231 186.412 75.7757 186.461 75.5283 186.486C75.5778 186.363 75.652 186.116 75.7757 185.795C76.5426 183.625 78.596 177.459 78.8928 174.105C79.1155 174.08 79.3381 174.055 79.5855 174.031H79.5608Z" fill="#11100E"/>
<path d="M84.2614 173.611C84.0882 177.385 81.9112 183.403 81.2185 185.203C81.1195 185.499 81.0453 185.672 81.0206 185.721C80.9711 185.845 80.8474 185.943 80.699 185.943C80.6495 185.943 80.6247 185.943 80.5753 185.943C80.4021 185.869 80.3279 185.672 80.3774 185.499C80.3774 185.499 80.4021 185.425 80.4516 185.302C80.8969 184.118 83.346 177.582 83.5687 173.685C83.7913 173.685 84.014 173.636 84.2366 173.611H84.2614Z" fill="#11100E"/>
<path d="M86.1165 185.228C86.1165 185.228 85.9434 185.425 85.8197 185.425C85.7702 185.425 85.7207 185.425 85.696 185.401C85.5228 185.327 85.4486 185.129 85.5228 184.957C85.5723 184.883 88.6399 177.977 87.972 173.291C88.2194 173.291 88.442 173.241 88.6399 173.217C89.3326 178.075 86.265 184.907 86.1165 185.228Z" fill="#11100E"/>
<path d="M99.4021 209.72C91.5845 204.22 80.4767 188.139 79.0913 186.116C79.0418 186.042 78.9923 185.993 78.9676 185.943C78.8686 185.796 78.8934 185.574 79.0418 185.475C79.116 185.426 79.1655 185.401 79.2397 185.401C79.3387 185.401 79.4624 185.45 79.5118 185.549C79.5118 185.549 79.6355 185.722 79.8334 186.017C81.7384 188.78 91.9061 203.233 99.1299 208.733C99.2041 209.054 99.2784 209.374 99.3773 209.72H99.4021Z" fill="#11100E"/>
<path d="M61.3525 265.115C61.3525 265.337 61.3525 265.559 61.3525 265.781C56.7758 266.373 52.1248 266.62 47.5976 266.62C32.1604 266.62 18.0344 263.833 11.7754 262.402C11.8001 262.18 11.8496 261.958 11.8743 261.736C19.9145 263.586 41.1654 267.705 61.3525 265.115Z" fill="#11100E"/>
<path d="M110.707 256.754C107.862 258.456 101.331 261.49 89.1597 263.068C76.6417 264.696 69.4426 265.214 66.5234 265.387C66.5234 265.165 66.474 264.943 66.4492 264.721C69.3437 264.573 76.518 264.055 89.0855 262.427C101.331 260.849 107.887 257.692 110.559 256.064C110.608 256.31 110.683 256.532 110.732 256.754H110.707Z" fill="#11100E"/>
<path d="M41.4629 323.964C41.4629 323.964 41.3144 323.94 41.2402 323.89C39.2611 322.238 39.6322 317.552 40.4238 316.318C40.5228 316.17 40.7207 316.121 40.8939 316.22C41.0423 316.318 41.0918 316.516 40.9928 316.688C40.3001 317.798 40.028 322.041 41.6855 323.397C41.8339 323.52 41.8339 323.718 41.735 323.866C41.6608 323.94 41.5866 323.989 41.4876 323.989L41.4629 323.964Z" fill="#11100E"/>
<path d="M91.5102 322.78C91.5102 322.78 91.337 322.756 91.2875 322.682C89.63 321.177 88.1951 319.13 88.1209 319.056C88.0219 318.908 88.0467 318.686 88.1951 318.588C88.3436 318.489 88.5662 318.514 88.6652 318.662C88.6652 318.662 90.1495 320.733 91.7328 322.189C91.8812 322.312 91.8812 322.534 91.7328 322.657C91.6586 322.731 91.5844 322.756 91.4854 322.756L91.5102 322.78Z" fill="#11100E"/>
<path d="M58.1123 272.589C58.0876 273.057 58.0381 273.551 57.9886 274.093C53.2882 275.622 40.3497 279.075 27.2132 275.82C27.04 274.463 26.9163 273.23 26.8174 272.095C31.4931 272.86 36.1935 273.452 39.3848 273.452C45.4459 273.452 53.6593 272.909 58.1371 272.589H58.1123Z" fill="#F4B36E"/>
<path d="M101.579 269.012C99.2533 269.999 94.5281 271.577 86.3643 272.712C77.5571 273.945 72.6093 273.822 70.3828 273.625C70.2839 272.835 70.2096 272.095 70.1602 271.429C76.4686 270.887 91.2378 269.53 101.505 267.434C101.529 267.927 101.554 268.445 101.579 268.988V269.012Z" fill="#F4B36E"/>
<path d="M52.4713 45.4314C52.4713 47.1086 52.0013 48.4898 51.4075 48.4898C50.8138 48.4898 50.3438 47.1332 50.3438 45.4314C50.3438 43.7296 50.8138 42.373 51.4075 42.373C52.0013 42.373 52.4713 43.7296 52.4713 45.4314Z" fill="#11100E"/>
<path d="M72.0406 44.6914C72.0406 46.3686 71.5706 47.7498 70.9769 47.7498C70.3831 47.7498 69.9131 46.3933 69.9131 44.6914C69.9131 42.9896 70.3831 41.6331 70.9769 41.6331C71.5706 41.6331 72.0406 42.9896 72.0406 44.6914Z" fill="#11100E"/>
<path d="M68.6507 38.8709C68.057 38.4269 68.7497 36.7744 72.04 36.6757C75.3303 36.5771 79.0411 39.2655 79.0411 39.2655C79.0411 39.2655 69.5661 39.5368 68.6507 38.8709Z" fill="#5D2E25"/>
</g>
<defs>
<clipPath id="clip0_792_2332">
<rect width="128" height="426" fill="white"/>
</clipPath>
</defs>
</svg>
