<svg width="208" height="30" viewBox="0 0 208 30" fill="none" xmlns="http://www.w3.org/2000/svg">
<path d="M54.9169 12.5198H59.8803C62.0039 12.5198 63.6111 12.8179 64.702 13.4143C65.7928 14.0106 66.3383 15.0579 66.3383 16.556C66.3383 17.1596 66.2401 17.705 66.0437 18.1923C65.8546 18.6795 65.5783 19.0795 65.2147 19.3922C64.851 19.705 64.4074 19.9086 63.8838 20.0031V20.1122C64.4147 20.2213 64.8947 20.4104 65.3238 20.6795C65.7528 20.9413 66.0946 21.3267 66.3492 21.8358C66.611 22.3376 66.7419 23.0067 66.7419 23.843C66.7419 24.8102 66.5055 25.6393 66.0328 26.3302C65.5601 27.021 64.8838 27.5519 64.0038 27.9228C63.1311 28.2865 62.0912 28.4683 60.8839 28.4683H54.9169V12.5198ZM58.2986 18.8359H60.2621C61.2439 18.8359 61.9239 18.6832 62.3021 18.3777C62.6802 18.065 62.8693 17.6069 62.8693 17.0032C62.8693 16.3924 62.6439 15.956 62.193 15.6942C61.7493 15.4251 61.0439 15.2906 60.0767 15.2906H58.2986V18.8359ZM58.2986 21.5194V25.6756H60.5021C61.5203 25.6756 62.2293 25.4793 62.6293 25.0866C63.0293 24.6939 63.2293 24.1666 63.2293 23.5048C63.2293 23.1121 63.142 22.7667 62.9675 22.4685C62.7929 22.1703 62.4984 21.9376 62.0839 21.7703C61.6766 21.6031 61.113 21.5194 60.393 21.5194H58.2986ZM69.9272 28.4683V12.5198H73.3089V28.4683H69.9272ZM91.7991 20.4722C91.7991 21.7012 91.6464 22.8212 91.3409 23.8321C91.0355 24.8357 90.5701 25.7011 89.9446 26.4283C89.3265 27.1556 88.5411 27.7156 87.5884 28.1083C86.6357 28.4937 85.5084 28.6864 84.2067 28.6864C82.9049 28.6864 81.7777 28.4937 80.825 28.1083C79.8723 27.7156 79.0832 27.1556 78.4578 26.4283C77.8396 25.7011 77.3778 24.832 77.0724 23.8212C76.767 22.8103 76.6142 21.6867 76.6142 20.4504C76.6142 18.7995 76.8833 17.3632 77.4215 16.1415C77.9669 14.9124 78.8032 13.9597 79.9305 13.2834C81.0577 12.607 82.4904 12.2689 84.2285 12.2689C85.9593 12.2689 87.3811 12.607 88.4938 13.2834C89.6137 13.9597 90.4428 14.9124 90.981 16.1415C91.5264 17.3705 91.7991 18.8141 91.7991 20.4722ZM80.1596 20.4722C80.1596 21.5849 80.2977 22.5449 80.5741 23.3521C80.8577 24.1521 81.2977 24.7702 81.894 25.2066C82.4904 25.6356 83.2613 25.8502 84.2067 25.8502C85.1666 25.8502 85.9448 25.6356 86.5411 25.2066C87.1375 24.7702 87.5702 24.1521 87.8393 23.3521C88.1156 22.5449 88.2538 21.5849 88.2538 20.4722C88.2538 18.7995 87.9411 17.4832 87.3156 16.5233C86.6902 15.5633 85.6612 15.0833 84.2285 15.0833C83.2758 15.0833 82.4976 15.3015 81.894 15.7378C81.2977 16.1669 80.8577 16.7851 80.5741 17.5923C80.2977 18.3923 80.1596 19.3522 80.1596 20.4722ZM101.857 28.4683L98.0171 15.956H97.9189C97.9334 16.2542 97.9552 16.7051 97.9843 17.3087C98.0207 17.905 98.0534 18.5414 98.0825 19.2177C98.1116 19.894 98.1261 20.5049 98.1261 21.0504V28.4683H95.1044V12.5198H99.7079L103.482 24.7157H103.548L107.551 12.5198H112.155V28.4683H109.002V20.9195C109.002 20.4177 109.009 19.8395 109.024 19.185C109.046 18.5305 109.071 17.9087 109.1 17.3196C109.129 16.7233 109.151 16.276 109.166 15.9778H109.068L104.955 28.4683H101.857ZM130.656 20.4722C130.656 21.7012 130.503 22.8212 130.198 23.8321C129.892 24.8357 129.427 25.7011 128.801 26.4283C128.183 27.1556 127.398 27.7156 126.445 28.1083C125.492 28.4937 124.365 28.6864 123.063 28.6864C121.762 28.6864 120.634 28.4937 119.682 28.1083C118.729 27.7156 117.94 27.1556 117.315 26.4283C116.696 25.7011 116.235 24.832 115.929 23.8212C115.624 22.8103 115.471 21.6867 115.471 20.4504C115.471 18.7995 115.74 17.3632 116.278 16.1415C116.824 14.9124 117.66 13.9597 118.787 13.2834C119.914 12.607 121.347 12.2689 123.085 12.2689C124.816 12.2689 126.238 12.607 127.35 13.2834C128.47 13.9597 129.3 14.9124 129.838 16.1415C130.383 17.3705 130.656 18.8141 130.656 20.4722ZM119.016 20.4722C119.016 21.5849 119.154 22.5449 119.431 23.3521C119.714 24.1521 120.154 24.7702 120.751 25.2066C121.347 25.6356 122.118 25.8502 123.063 25.8502C124.023 25.8502 124.801 25.6356 125.398 25.2066C125.994 24.7702 126.427 24.1521 126.696 23.3521C126.972 22.5449 127.11 21.5849 127.11 20.4722C127.11 18.7995 126.798 17.4832 126.172 16.5233C125.547 15.5633 124.518 15.0833 123.085 15.0833C122.133 15.0833 121.354 15.3015 120.751 15.7378C120.154 16.1669 119.714 16.7851 119.431 17.5923C119.154 18.3923 119.016 19.3522 119.016 20.4722ZM140.114 28.4683H136.732V15.3342H132.401V12.5198H144.444V15.3342H140.114V28.4683ZM146.899 28.4683V12.5198H150.281V28.4683H146.899ZM166.807 12.5198L161.386 28.4683H157.698L152.288 12.5198H155.702L158.702 22.0103C158.753 22.1703 158.837 22.4721 158.953 22.9157C159.069 23.3521 159.186 23.8175 159.302 24.3121C159.426 24.7993 159.509 25.2029 159.553 25.5229C159.597 25.2029 159.673 24.7993 159.782 24.3121C159.898 23.8248 160.011 23.363 160.12 22.9267C160.237 22.483 160.32 22.1776 160.371 22.0103L163.393 12.5198H166.807ZM178.589 28.4683L177.432 24.672H171.618L170.462 28.4683H166.818L172.447 12.4543H176.581L182.232 28.4683H178.589ZM176.625 21.8358L175.469 18.1268C175.396 17.8796 175.298 17.5632 175.174 17.1778C175.058 16.7851 174.938 16.3887 174.814 15.9887C174.698 15.5815 174.603 15.2288 174.531 14.9306C174.458 15.2288 174.356 15.5997 174.225 16.0433C174.101 16.4796 173.981 16.8942 173.865 17.2869C173.749 17.6796 173.665 17.9596 173.614 18.1268L172.469 21.8358H176.625ZM190.403 28.4683H187.021V15.3342H182.69V12.5198H194.733V15.3342H190.403V28.4683ZM206.373 28.4683H197.188V12.5198H206.373V15.2906H200.57V18.7923H205.969V21.5631H200.57V25.6756H206.373V28.4683Z" fill="#F09185"/>
<path d="M5.75781 27.9262L19.7209 0L33.684 27.9262H5.75781Z" fill="#9E3F31"/>
<path d="M16.9258 27.9266L29.2133 3.35156L41.5008 27.9266H16.9258Z" fill="#E05A48"/>
<path d="M13.5781 27.9261L21.956 11.1704L30.3339 27.9261H13.5781Z" fill="#F09185"/>
<path d="M0.171875 27.9263L5.75712 16.7559L11.3424 27.9263H0.171875Z" fill="#E05A48"/>
</svg>
