<svg width="302" height="421" viewBox="0 0 302 421" fill="none" xmlns="http://www.w3.org/2000/svg">
<path d="M126.146 25H117.684V23.487L120.923 20.2047C121.55 19.5664 122.066 19.0165 122.47 18.5549C122.875 18.0876 123.174 17.646 123.368 17.23C123.567 16.814 123.667 16.361 123.667 15.8709C123.667 15.2669 123.493 14.811 123.146 14.5033C122.798 14.1898 122.339 14.0331 121.769 14.0331C121.228 14.0331 120.727 14.1414 120.265 14.3579C119.809 14.5688 119.336 14.8708 118.846 15.264L117.743 13.9391C118.091 13.6428 118.461 13.3721 118.855 13.1271C119.254 12.882 119.698 12.6883 120.188 12.5458C120.678 12.3976 121.237 12.3236 121.863 12.3236C122.656 12.3236 123.339 12.466 123.915 12.7509C124.491 13.0302 124.932 13.4205 125.24 13.922C125.553 14.4235 125.71 15.0076 125.71 15.6743C125.71 16.3467 125.576 16.9679 125.308 17.5377C125.04 18.1076 124.659 18.6718 124.163 19.2302C123.667 19.783 123.077 20.3842 122.393 21.0338L120.231 23.1451V23.2391H126.146V25ZM136.164 25H127.702V23.487L130.941 20.2047C131.568 19.5664 132.084 19.0165 132.488 18.5549C132.893 18.0876 133.192 17.646 133.386 17.23C133.585 16.814 133.685 16.361 133.685 15.8709C133.685 15.2669 133.511 14.811 133.164 14.5033C132.816 14.1898 132.357 14.0331 131.788 14.0331C131.246 14.0331 130.745 14.1414 130.283 14.3579C129.827 14.5688 129.354 14.8708 128.864 15.264L127.761 13.9391C128.109 13.6428 128.479 13.3721 128.873 13.1271C129.272 12.882 129.716 12.6883 130.206 12.5458C130.696 12.3976 131.255 12.3236 131.882 12.3236C132.674 12.3236 133.357 12.466 133.933 12.7509C134.509 13.0302 134.95 13.4205 135.258 13.922C135.571 14.4235 135.728 15.0076 135.728 15.6743C135.728 16.3467 135.594 16.9679 135.326 17.5377C135.058 18.1076 134.677 18.6718 134.181 19.2302C133.685 19.783 133.095 20.3842 132.411 21.0338L130.249 23.1451V23.2391H136.164V25ZM146.661 18.2045L149.627 12.5031H151.841L147.686 20.1448V25H145.644V20.2218L141.481 12.5031H143.712L146.661 18.2045ZM157.046 15.358C157.89 15.358 158.613 15.5318 159.218 15.8795C159.822 16.2271 160.286 16.72 160.611 17.3582C160.936 17.9965 161.098 18.7601 161.098 19.6491V20.7261H154.781C154.804 21.6435 155.049 22.3502 155.516 22.8459C155.989 23.3417 156.65 23.5896 157.499 23.5896C158.103 23.5896 158.645 23.5326 159.123 23.4186C159.608 23.299 160.106 23.1252 160.619 22.8972V24.5299C160.146 24.7521 159.665 24.9145 159.175 25.0171C158.685 25.1197 158.098 25.171 157.414 25.171C156.485 25.171 155.667 24.9915 154.961 24.6324C154.26 24.2677 153.71 23.7264 153.311 23.0084C152.918 22.2903 152.721 21.3985 152.721 20.3329C152.721 19.2729 152.901 18.3726 153.26 17.6318C153.619 16.891 154.123 16.3268 154.773 15.9393C155.422 15.5518 156.18 15.358 157.046 15.358ZM157.046 16.871C156.414 16.871 155.901 17.0762 155.508 17.4864C155.12 17.8967 154.892 18.4979 154.824 19.29H159.132C159.126 18.8171 159.047 18.3982 158.893 18.0335C158.745 17.6688 158.517 17.3839 158.209 17.1787C157.907 16.9736 157.519 16.871 157.046 16.871ZM167.073 15.358C168.27 15.358 169.173 15.623 169.783 16.153C170.398 16.683 170.706 17.5092 170.706 18.6319V25H169.278L168.894 23.658H168.825C168.557 23.9999 168.281 24.282 167.996 24.5042C167.711 24.7265 167.381 24.8917 167.005 25C166.634 25.114 166.181 25.171 165.645 25.171C165.081 25.171 164.577 25.0684 164.133 24.8632C163.688 24.6524 163.338 24.3333 163.081 23.9059C162.825 23.4785 162.696 22.9371 162.696 22.2818C162.696 21.3073 163.058 20.5751 163.782 20.085C164.511 19.5949 165.611 19.3242 167.082 19.2729L168.723 19.2131V18.7173C168.723 18.062 168.569 17.5947 168.261 17.3155C167.959 17.0363 167.532 16.8966 166.979 16.8966C166.506 16.8966 166.047 16.965 165.603 17.1018C165.158 17.2386 164.725 17.4067 164.303 17.6061L163.654 16.1872C164.115 15.9421 164.64 15.7427 165.227 15.5888C165.819 15.435 166.435 15.358 167.073 15.358ZM168.714 20.4782L167.492 20.5209C166.489 20.5551 165.785 20.7261 165.381 21.0338C164.976 21.3415 164.774 21.7632 164.774 22.2989C164.774 22.7662 164.913 23.1081 165.192 23.3246C165.472 23.5355 165.839 23.6409 166.295 23.6409C166.99 23.6409 167.566 23.4443 168.022 23.0511C168.483 22.6522 168.714 22.0681 168.714 21.2988V20.4782ZM178.313 15.358C178.473 15.358 178.647 15.3666 178.835 15.3837C179.023 15.4008 179.185 15.4236 179.322 15.4521L179.134 17.3326C179.014 17.2984 178.866 17.2728 178.689 17.2557C178.519 17.2386 178.365 17.23 178.228 17.23C177.869 17.23 177.527 17.2898 177.202 17.4095C176.877 17.5235 176.59 17.7001 176.339 17.9395C176.088 18.1731 175.892 18.4666 175.749 18.8199C175.607 19.1732 175.535 19.5835 175.535 20.0508V25H173.518V15.5375H175.091L175.364 17.2044H175.458C175.646 16.8682 175.88 16.5604 176.159 16.2812C176.439 16.002 176.758 15.7797 177.117 15.6145C177.481 15.4435 177.88 15.358 178.313 15.358ZM187.434 22.2989C187.434 22.92 187.283 23.4443 186.981 23.8717C186.679 24.2991 186.237 24.6239 185.656 24.8461C185.08 25.0627 184.374 25.171 183.536 25.171C182.875 25.171 182.305 25.1225 181.827 25.0256C181.354 24.9345 180.906 24.792 180.485 24.5983V22.863C180.935 23.0739 181.439 23.2562 181.998 23.4101C182.562 23.564 183.094 23.6409 183.596 23.6409C184.257 23.6409 184.733 23.5383 185.023 23.3332C185.314 23.1223 185.459 22.8431 185.459 22.4955C185.459 22.2903 185.4 22.108 185.28 21.9484C185.166 21.7832 184.949 21.6151 184.63 21.4441C184.317 21.2674 183.855 21.0566 183.245 20.8116C182.647 20.5722 182.143 20.3329 181.733 20.0935C181.322 19.8542 181.012 19.5664 180.801 19.2302C180.59 18.8883 180.485 18.4524 180.485 17.9224C180.485 17.0847 180.815 16.4493 181.476 16.0162C182.143 15.5774 183.023 15.358 184.117 15.358C184.699 15.358 185.246 15.4179 185.759 15.5375C186.277 15.6515 186.784 15.8196 187.28 16.0419L186.648 17.5548C186.22 17.3668 185.79 17.2129 185.357 17.0932C184.929 16.9679 184.493 16.9052 184.049 16.9052C183.53 16.9052 183.134 16.985 182.861 17.1445C182.593 17.3041 182.459 17.532 182.459 17.8284C182.459 18.0506 182.525 18.2387 182.656 18.3925C182.787 18.5464 183.012 18.7002 183.331 18.8541C183.656 19.008 184.106 19.1989 184.682 19.4268C185.246 19.6434 185.733 19.8713 186.143 20.1106C186.559 20.3443 186.878 20.6321 187.101 20.974C187.323 21.3159 187.434 21.7575 187.434 22.2989ZM205.453 18.7344C205.453 19.6975 205.33 20.5751 205.085 21.3672C204.846 22.1536 204.484 22.8317 204 23.4016C203.515 23.9657 202.908 24.4017 202.179 24.7094C201.45 25.0171 200.595 25.171 199.615 25.171C198.617 25.171 197.751 25.0171 197.016 24.7094C196.287 24.4017 195.68 23.9629 195.195 23.393C194.717 22.8232 194.358 22.1422 194.118 21.3501C193.879 20.558 193.759 19.6804 193.759 18.7173C193.759 17.4295 193.97 16.3068 194.392 15.3495C194.819 14.3864 195.466 13.6399 196.332 13.11C197.204 12.5743 198.304 12.3065 199.632 12.3065C200.931 12.3065 202.011 12.5714 202.871 13.1014C203.732 13.6314 204.376 14.3779 204.803 15.3409C205.236 16.2983 205.453 17.4295 205.453 18.7344ZM195.913 18.7344C195.913 19.6975 196.044 20.5323 196.307 21.239C196.569 21.9399 196.97 22.4812 197.512 22.863C198.059 23.2391 198.76 23.4272 199.615 23.4272C200.475 23.4272 201.176 23.2391 201.717 22.863C202.259 22.4812 202.658 21.9399 202.914 21.239C203.171 20.5323 203.299 19.6975 203.299 18.7344C203.299 17.2699 203.005 16.1245 202.418 15.2982C201.837 14.4662 200.908 14.0502 199.632 14.0502C198.777 14.0502 198.073 14.2383 197.52 14.6144C196.973 14.9905 196.569 15.529 196.307 16.2299C196.044 16.9251 195.913 17.76 195.913 18.7344ZM209.949 25H207.932V11.6996H209.949V25ZM216.001 25.171C214.872 25.171 213.966 24.7607 213.283 23.9401C212.604 23.1138 212.265 21.8971 212.265 20.2901C212.265 18.6661 212.61 17.438 213.3 16.606C213.995 15.774 214.91 15.358 216.044 15.358C216.522 15.358 216.941 15.4236 217.3 15.5546C217.659 15.68 217.967 15.851 218.223 16.0675C218.485 16.2841 218.708 16.5262 218.89 16.7941H218.984C218.956 16.6174 218.921 16.3638 218.881 16.0333C218.847 15.6971 218.83 15.3865 218.83 15.1016V11.6996H220.847V25H219.275L218.916 23.7093H218.83C218.659 23.9828 218.443 24.2307 218.181 24.4529C217.924 24.6695 217.616 24.8433 217.257 24.9744C216.904 25.1054 216.485 25.171 216.001 25.171ZM216.565 23.5383C217.425 23.5383 218.032 23.2904 218.386 22.7947C218.739 22.2989 218.921 21.5552 218.933 20.5637V20.2987C218.933 19.2388 218.762 18.4267 218.42 17.8626C218.078 17.2927 217.454 17.0078 216.548 17.0078C215.824 17.0078 215.271 17.3012 214.89 17.8882C214.513 18.4695 214.325 19.2815 214.325 20.3243C214.325 21.3672 214.513 22.165 214.89 22.7177C215.271 23.2648 215.83 23.5383 216.565 23.5383Z" fill="#FDF5E0"/>
<path d="M93.7995 54.598C93.7995 55.3388 93.6172 55.977 93.2525 56.5127C92.8934 57.0483 92.3749 57.4586 91.6967 57.7436C91.0243 58.0285 90.2208 58.171 89.2863 58.171C88.8304 58.171 88.3944 58.1453 87.9784 58.094C87.5624 58.0427 87.1692 57.9687 86.7988 57.8718C86.4341 57.7692 86.1008 57.6467 85.7987 57.5042V55.5724C86.3059 55.7947 86.8729 55.997 87.4998 56.1793C88.1266 56.356 88.7648 56.4443 89.4145 56.4443C89.9444 56.4443 90.3832 56.3759 90.7308 56.2391C91.0842 56.0967 91.3463 55.8972 91.5172 55.6408C91.6882 55.3787 91.7737 55.0738 91.7737 54.7262C91.7737 54.3558 91.674 54.0424 91.4745 53.7859C91.2751 53.5295 90.973 53.2958 90.5684 53.085C90.1695 52.8684 89.6681 52.6377 89.064 52.3926C88.6537 52.2274 88.2605 52.0393 87.8844 51.8285C87.514 51.6176 87.1835 51.3697 86.8929 51.0848C86.6022 50.7999 86.3714 50.4637 86.2005 50.0762C86.0352 49.683 85.9526 49.2214 85.9526 48.6914C85.9526 47.9848 86.1207 47.3807 86.4569 46.8793C86.7988 46.3778 87.2775 45.9931 87.893 45.7253C88.5141 45.4575 89.2378 45.3236 90.0641 45.3236C90.7194 45.3236 91.3349 45.3919 91.9104 45.5287C92.4917 45.6655 93.0616 45.8592 93.62 46.11L92.9704 47.7597C92.4575 47.5488 91.9589 47.3807 91.4745 47.2554C90.9958 47.13 90.5057 47.0673 90.0043 47.0673C89.5712 47.0673 89.2036 47.1328 88.9016 47.2639C88.5996 47.395 88.3688 47.5802 88.2092 47.8195C88.0554 48.0532 87.9784 48.3324 87.9784 48.6572C87.9784 49.0219 88.0668 49.3296 88.2434 49.5804C88.4258 49.8254 88.705 50.0505 89.0811 50.2557C89.4629 50.4608 89.953 50.6887 90.5513 50.9395C91.2409 51.2244 91.825 51.5236 92.3036 51.837C92.788 52.1504 93.1584 52.5265 93.4149 52.9653C93.6713 53.3984 93.7995 53.9426 93.7995 54.598ZM99.5266 56.5469C99.7887 56.5469 100.048 56.5241 100.304 56.4785C100.561 56.4272 100.794 56.3674 101.005 56.299V57.8205C100.783 57.9174 100.495 58 100.142 58.0684C99.7887 58.1368 99.4211 58.171 99.0393 58.171C98.5037 58.171 98.0221 58.0826 97.5948 57.906C97.1674 57.7236 96.8283 57.413 96.5776 56.9743C96.3268 56.5355 96.2015 55.9286 96.2015 55.1536V50.0676H94.9107V49.1701L96.2955 48.4606L96.9537 46.4348H98.2187V48.5375H100.928V50.0676H98.2187V55.1279C98.2187 55.6066 98.3384 55.9628 98.5778 56.1964C98.8171 56.43 99.1334 56.5469 99.5266 56.5469ZM106.638 48.358C107.835 48.358 108.738 48.623 109.348 49.153C109.963 49.683 110.271 50.5092 110.271 51.6319V58H108.844L108.459 56.658H108.391C108.123 56.9999 107.846 57.282 107.562 57.5042C107.277 57.7265 106.946 57.8917 106.57 58C106.2 58.114 105.747 58.171 105.211 58.171C104.647 58.171 104.142 58.0684 103.698 57.8632C103.253 57.6524 102.903 57.3333 102.647 56.9059C102.39 56.4785 102.262 55.9371 102.262 55.2818C102.262 54.3073 102.624 53.5751 103.347 53.085C104.077 52.5949 105.177 52.3242 106.647 52.2729L108.288 52.2131V51.7173C108.288 51.062 108.134 50.5947 107.827 50.3155C107.524 50.0363 107.097 49.8966 106.544 49.8966C106.071 49.8966 105.613 49.965 105.168 50.1018C104.724 50.2386 104.291 50.4067 103.869 50.6061L103.219 49.1872C103.681 48.9421 104.205 48.7427 104.792 48.5888C105.385 48.435 106 48.358 106.638 48.358ZM108.28 53.4782L107.057 53.5209C106.054 53.5551 105.35 53.7261 104.946 54.0338C104.541 54.3415 104.339 54.7632 104.339 55.2989C104.339 55.7662 104.479 56.1081 104.758 56.3246C105.037 56.5355 105.405 56.6409 105.861 56.6409C106.556 56.6409 107.131 56.4443 107.587 56.0511C108.049 55.6522 108.28 55.0681 108.28 54.2988V53.4782ZM117.879 48.358C118.038 48.358 118.212 48.3666 118.4 48.3837C118.588 48.4008 118.751 48.4236 118.887 48.4521L118.699 50.3326C118.58 50.2984 118.432 50.2728 118.255 50.2557C118.084 50.2386 117.93 50.23 117.793 50.23C117.434 50.23 117.092 50.2898 116.768 50.4095C116.443 50.5235 116.155 50.7001 115.904 50.9395C115.653 51.1731 115.457 51.4666 115.314 51.8199C115.172 52.1732 115.101 52.5835 115.101 53.0508V58H113.083V48.5375H114.656L114.93 50.2044H115.024C115.212 49.8682 115.445 49.5604 115.725 49.2812C116.004 49.002 116.323 48.7797 116.682 48.6145C117.047 48.4435 117.446 48.358 117.879 48.358ZM124.161 56.5469C124.424 56.5469 124.683 56.5241 124.939 56.4785C125.196 56.4272 125.429 56.3674 125.64 56.299V57.8205C125.418 57.9174 125.13 58 124.777 58.0684C124.424 58.1368 124.056 58.171 123.674 58.171C123.139 58.171 122.657 58.0826 122.23 57.906C121.802 57.7236 121.463 57.413 121.212 56.9743C120.962 56.5355 120.836 55.9286 120.836 55.1536V50.0676H119.546V49.1701L120.93 48.4606L121.589 46.4348H122.854V48.5375H125.563V50.0676H122.854V55.1279C122.854 55.6066 122.973 55.9628 123.213 56.1964C123.452 56.43 123.768 56.5469 124.161 56.5469ZM133.923 55.2989C133.923 55.92 133.772 56.4443 133.47 56.8717C133.168 57.2991 132.726 57.6239 132.145 57.8461C131.57 58.0627 130.863 58.171 130.025 58.171C129.364 58.171 128.794 58.1225 128.316 58.0256C127.843 57.9345 127.395 57.792 126.974 57.5983V55.863C127.424 56.0739 127.928 56.2562 128.487 56.4101C129.051 56.564 129.584 56.6409 130.085 56.6409C130.746 56.6409 131.222 56.5383 131.513 56.3332C131.803 56.1223 131.949 55.8431 131.949 55.4955C131.949 55.2903 131.889 55.108 131.769 54.9484C131.655 54.7832 131.438 54.6151 131.119 54.4441C130.806 54.2674 130.344 54.0566 129.735 53.8116C129.136 53.5722 128.632 53.3329 128.222 53.0935C127.811 52.8542 127.501 52.5664 127.29 52.2302C127.079 51.8883 126.974 51.4524 126.974 50.9224C126.974 50.0847 127.304 49.4493 127.965 49.0162C128.632 48.5774 129.512 48.358 130.607 48.358C131.188 48.358 131.735 48.4179 132.248 48.5375C132.766 48.6515 133.273 48.8196 133.769 49.0419L133.137 50.5548C132.709 50.3668 132.279 50.2129 131.846 50.0932C131.419 49.9679 130.983 49.9052 130.538 49.9052C130.02 49.9052 129.624 49.985 129.35 50.1445C129.082 50.3041 128.948 50.532 128.948 50.8284C128.948 51.0506 129.014 51.2387 129.145 51.3925C129.276 51.5464 129.501 51.7002 129.82 51.8541C130.145 52.008 130.595 52.1989 131.171 52.4268C131.735 52.6434 132.222 52.8713 132.632 53.1106C133.048 53.3443 133.367 53.6321 133.59 53.974C133.812 54.3159 133.923 54.7575 133.923 55.2989ZM147.001 55.2989C147.001 55.92 146.85 56.4443 146.548 56.8717C146.246 57.2991 145.805 57.6239 145.223 57.8461C144.648 58.0627 143.941 58.171 143.103 58.171C142.442 58.171 141.873 58.1225 141.394 58.0256C140.921 57.9345 140.474 57.792 140.052 57.5983V55.863C140.502 56.0739 141.006 56.2562 141.565 56.4101C142.129 56.564 142.662 56.6409 143.163 56.6409C143.824 56.6409 144.3 56.5383 144.591 56.3332C144.881 56.1223 145.027 55.8431 145.027 55.4955C145.027 55.2903 144.967 55.108 144.847 54.9484C144.733 54.7832 144.517 54.6151 144.198 54.4441C143.884 54.2674 143.423 54.0566 142.813 53.8116C142.214 53.5722 141.71 53.3329 141.3 53.0935C140.89 52.8542 140.579 52.5664 140.368 52.2302C140.157 51.8883 140.052 51.4524 140.052 50.9224C140.052 50.0847 140.382 49.4493 141.043 49.0162C141.71 48.5774 142.591 48.358 143.685 48.358C144.266 48.358 144.813 48.4179 145.326 48.5375C145.844 48.6515 146.352 48.8196 146.847 49.0419L146.215 50.5548C145.787 50.3668 145.357 50.2129 144.924 50.0932C144.497 49.9679 144.061 49.9052 143.616 49.9052C143.098 49.9052 142.702 49.985 142.428 50.1445C142.16 50.3041 142.026 50.532 142.026 50.8284C142.026 51.0506 142.092 51.2387 142.223 51.3925C142.354 51.5464 142.579 51.7002 142.898 51.8541C143.223 52.008 143.673 52.1989 144.249 52.4268C144.813 52.6434 145.3 52.8713 145.711 53.1106C146.127 53.3443 146.446 53.6321 146.668 53.974C146.89 54.3159 147.001 54.7575 147.001 55.2989ZM157.421 48.5375V58H155.84L155.566 56.7264H155.455C155.256 57.0512 155.002 57.3219 154.694 57.5384C154.387 57.7493 154.045 57.906 153.669 58.0085C153.292 58.1168 152.896 58.171 152.48 58.171C151.768 58.171 151.158 58.0513 150.651 57.8119C150.15 57.5669 149.765 57.1908 149.497 56.6836C149.229 56.1765 149.095 55.5211 149.095 54.7176V48.5375H151.113V54.3415C151.113 55.0766 151.261 55.6266 151.557 55.9913C151.859 56.356 152.327 56.5383 152.959 56.5383C153.569 56.5383 154.053 56.413 154.412 56.1622C154.771 55.9115 155.025 55.5411 155.173 55.051C155.327 54.5609 155.404 53.9597 155.404 53.2474V48.5375H157.421ZM162.31 44.6996V47.905C162.31 48.2754 162.299 48.6401 162.276 48.9991C162.259 49.3524 162.242 49.6288 162.225 49.8283H162.31C162.567 49.418 162.923 49.0732 163.379 48.794C163.841 48.509 164.43 48.3666 165.148 48.3666C166.271 48.3666 167.174 48.7797 167.858 49.606C168.542 50.4266 168.884 51.6433 168.884 53.2559C168.884 54.3273 168.727 55.2277 168.414 55.9571C168.1 56.6865 167.659 57.2392 167.089 57.6153C166.525 57.9858 165.861 58.171 165.097 58.171C164.379 58.171 163.798 58.0399 163.353 57.7778C162.914 57.5099 162.57 57.1994 162.319 56.846H162.174L161.806 58H160.302V44.6996H162.31ZM164.618 49.9992C164.049 49.9992 163.595 50.1132 163.259 50.3411C162.929 50.5691 162.689 50.911 162.541 51.3669C162.393 51.8171 162.316 52.3898 162.31 53.085V53.2645C162.31 54.3187 162.476 55.1251 162.806 55.6835C163.142 56.242 163.752 56.5212 164.635 56.5212C165.336 56.5212 165.875 56.2391 166.251 55.675C166.627 55.1051 166.815 54.2902 166.815 53.2303C166.815 52.159 166.627 51.3526 166.251 50.8113C165.881 50.2699 165.336 49.9992 164.618 49.9992ZM179.586 53.2474C179.586 54.0338 179.483 54.7319 179.278 55.3416C179.073 55.9514 178.774 56.4671 178.38 56.8888C177.987 57.3048 177.514 57.6239 176.961 57.8461C176.409 58.0627 175.785 58.171 175.089 58.171C174.44 58.171 173.844 58.0627 173.303 57.8461C172.762 57.6239 172.291 57.3048 171.893 56.8888C171.499 56.4671 171.194 55.9514 170.978 55.3416C170.761 54.7319 170.653 54.0338 170.653 53.2474C170.653 52.2046 170.833 51.3213 171.192 50.5976C171.556 49.8682 172.075 49.3125 172.747 48.9307C173.42 48.5489 174.22 48.358 175.149 48.358C176.021 48.358 176.79 48.5489 177.457 48.9307C178.124 49.3125 178.645 49.8682 179.021 50.5976C179.398 51.327 179.586 52.2103 179.586 53.2474ZM172.722 53.2474C172.722 53.9369 172.804 54.5267 172.97 55.0168C173.141 55.5069 173.403 55.883 173.756 56.1451C174.109 56.4016 174.565 56.5298 175.124 56.5298C175.682 56.5298 176.138 56.4016 176.491 56.1451C176.845 55.883 177.104 55.5069 177.269 55.0168C177.434 54.5267 177.517 53.9369 177.517 53.2474C177.517 52.5579 177.434 51.9738 177.269 51.4951C177.104 51.0107 176.845 50.6432 176.491 50.3924C176.138 50.136 175.679 50.0078 175.115 50.0078C174.283 50.0078 173.676 50.287 173.294 50.8455C172.913 51.4039 172.722 52.2046 172.722 53.2474ZM183.988 53.1619L180.825 48.5375H183.116L185.278 51.8627L187.45 48.5375H189.732L186.552 53.1619L189.894 58H187.595L185.278 54.4526L182.953 58H180.671L183.988 53.1619ZM199.912 53.2474C199.912 54.0338 199.81 54.7319 199.605 55.3416C199.4 55.9514 199.1 56.4671 198.707 56.8888C198.314 57.3048 197.841 57.6239 197.288 57.8461C196.735 58.0627 196.111 58.171 195.416 58.171C194.767 58.171 194.171 58.0627 193.63 57.8461C193.088 57.6239 192.618 57.3048 192.219 56.8888C191.826 56.4671 191.521 55.9514 191.305 55.3416C191.088 54.7319 190.98 54.0338 190.98 53.2474C190.98 52.2046 191.159 51.3213 191.518 50.5976C191.883 49.8682 192.402 49.3125 193.074 48.9307C193.747 48.5489 194.547 48.358 195.476 48.358C196.348 48.358 197.117 48.5489 197.784 48.9307C198.451 49.3125 198.972 49.8682 199.348 50.5976C199.724 51.327 199.912 52.2103 199.912 53.2474ZM193.048 53.2474C193.048 53.9369 193.131 54.5267 193.296 55.0168C193.467 55.5069 193.729 55.883 194.083 56.1451C194.436 56.4016 194.892 56.5298 195.45 56.5298C196.009 56.5298 196.465 56.4016 196.818 56.1451C197.171 55.883 197.431 55.5069 197.596 55.0168C197.761 54.5267 197.844 53.9369 197.844 53.2474C197.844 52.5579 197.761 51.9738 197.596 51.4951C197.431 51.0107 197.171 50.6432 196.818 50.3924C196.465 50.136 196.006 50.0078 195.442 50.0078C194.61 50.0078 194.003 50.287 193.621 50.8455C193.239 51.4039 193.048 52.2046 193.048 53.2474ZM207.152 48.358C208.218 48.358 209.047 48.6344 209.64 49.1872C210.238 49.7342 210.537 50.6147 210.537 51.8285V58H208.529V52.2046C208.529 51.4695 208.378 50.9195 208.076 50.5548C207.774 50.1844 207.306 49.9992 206.674 49.9992C205.756 49.9992 205.118 50.2813 204.759 50.8455C204.406 51.4096 204.229 52.2274 204.229 53.2987V58H202.22V48.5375H203.785L204.067 49.8197H204.178C204.383 49.4892 204.636 49.2185 204.939 49.0077C205.246 48.7911 205.588 48.6287 205.964 48.5204C206.346 48.4122 206.742 48.358 207.152 48.358ZM217.119 48.358C217.963 48.358 218.686 48.5318 219.29 48.8795C219.894 49.2271 220.359 49.72 220.684 50.3582C221.008 50.9965 221.171 51.7601 221.171 52.6491V53.7261H214.854C214.877 54.6435 215.122 55.3502 215.589 55.8459C216.062 56.3417 216.723 56.5896 217.572 56.5896C218.176 56.5896 218.718 56.5326 219.196 56.4186C219.681 56.299 220.179 56.1252 220.692 55.8972V57.5299C220.219 57.7521 219.738 57.9145 219.248 58.0171C218.758 58.1197 218.171 58.171 217.487 58.171C216.558 58.171 215.74 57.9915 215.034 57.6324C214.333 57.2677 213.783 56.7264 213.384 56.0084C212.991 55.2903 212.794 54.3985 212.794 53.3329C212.794 52.2729 212.973 51.3726 213.332 50.6318C213.691 49.891 214.196 49.3268 214.845 48.9393C215.495 48.5518 216.253 48.358 217.119 48.358ZM217.119 49.871C216.487 49.871 215.974 50.0762 215.581 50.4864C215.193 50.8967 214.965 51.4979 214.897 52.29H219.205C219.199 51.8171 219.119 51.3982 218.966 51.0335C218.817 50.6688 218.589 50.3839 218.282 50.1787C217.98 49.9736 217.592 49.871 217.119 49.871Z" fill="#C9E4D2"/>
<path d="M301.429 20.7147C301.429 32.1551 292.155 41.4294 280.715 41.4294C269.274 41.4294 260 32.1551 260 20.7147C260 9.27429 269.274 0 280.715 0C292.155 0 301.429 9.27429 301.429 20.7147Z" fill="#C9E4D2"/>
<path fill-rule="evenodd" clip-rule="evenodd" d="M280.5 373C279.672 373 279 372.328 279 371.5L279 20.5C279 19.6716 279.672 19 280.5 19V19C281.328 19 282 19.6716 282 20.5L282 371.5C282 372.328 281.328 373 280.5 373V373Z" fill="#C9E4D2"/>
<path d="M126.146 176.172H117.684V174.659L120.923 171.377C121.55 170.738 122.066 170.188 122.47 169.727C122.875 169.26 123.174 168.818 123.368 168.402C123.567 167.986 123.667 167.533 123.667 167.043C123.667 166.439 123.493 165.983 123.146 165.675C122.798 165.362 122.339 165.205 121.769 165.205C121.228 165.205 120.727 165.313 120.265 165.53C119.809 165.741 119.336 166.043 118.846 166.436L117.743 165.111C118.091 164.815 118.461 164.544 118.855 164.299C119.254 164.054 119.698 163.86 120.188 163.718C120.678 163.57 121.237 163.495 121.863 163.495C122.656 163.495 123.339 163.638 123.915 163.923C124.491 164.202 124.932 164.592 125.24 165.094C125.553 165.595 125.71 166.179 125.71 166.846C125.71 167.519 125.576 168.14 125.308 168.71C125.04 169.279 124.659 169.844 124.163 170.402C123.667 170.955 123.077 171.556 122.393 172.206L120.231 174.317V174.411H126.146V176.172ZM135.685 166.53C135.685 167.094 135.571 167.584 135.343 168C135.115 168.416 134.802 168.758 134.403 169.026C134.01 169.288 133.554 169.476 133.035 169.59V169.65C134.033 169.775 134.785 170.089 135.292 170.59C135.805 171.092 136.061 171.755 136.061 172.582C136.061 173.305 135.888 173.952 135.54 174.522C135.192 175.086 134.66 175.531 133.942 175.856C133.224 176.18 132.3 176.343 131.172 176.343C130.494 176.343 129.864 176.289 129.283 176.18C128.707 176.072 128.16 175.898 127.642 175.659V173.873C128.172 174.135 128.736 174.337 129.334 174.479C129.933 174.622 130.5 174.693 131.035 174.693C132.078 174.693 132.822 174.499 133.266 174.112C133.711 173.719 133.933 173.177 133.933 172.488C133.933 172.043 133.816 171.679 133.583 171.394C133.355 171.109 132.998 170.895 132.514 170.753C132.035 170.61 131.417 170.539 130.659 170.539H129.557V168.923H130.668C131.391 168.923 131.973 168.838 132.411 168.667C132.85 168.49 133.167 168.248 133.36 167.94C133.56 167.633 133.659 167.274 133.659 166.863C133.659 166.328 133.486 165.912 133.138 165.615C132.79 165.313 132.275 165.162 131.591 165.162C131.169 165.162 130.785 165.211 130.437 165.308C130.095 165.404 129.779 165.527 129.488 165.675C129.198 165.823 128.921 165.983 128.659 166.154L127.693 164.761C128.166 164.407 128.73 164.108 129.386 163.863C130.041 163.618 130.805 163.495 131.676 163.495C132.959 163.495 133.947 163.772 134.642 164.325C135.338 164.872 135.685 165.607 135.685 166.53ZM146.661 169.376L149.627 163.675H151.841L147.686 171.317V176.172H145.644V171.394L141.481 163.675H143.712L146.661 169.376ZM157.046 166.53C157.89 166.53 158.613 166.704 159.218 167.051C159.822 167.399 160.286 167.892 160.611 168.53C160.936 169.168 161.098 169.932 161.098 170.821V171.898H154.781C154.804 172.815 155.049 173.522 155.516 174.018C155.989 174.514 156.65 174.761 157.499 174.761C158.103 174.761 158.645 174.704 159.123 174.591C159.608 174.471 160.106 174.297 160.619 174.069V175.702C160.146 175.924 159.665 176.086 159.175 176.189C158.685 176.292 158.098 176.343 157.414 176.343C156.485 176.343 155.667 176.163 154.961 175.804C154.26 175.44 153.71 174.898 153.311 174.18C152.918 173.462 152.721 172.57 152.721 171.505C152.721 170.445 152.901 169.544 153.26 168.804C153.619 168.063 154.123 167.499 154.773 167.111C155.422 166.724 156.18 166.53 157.046 166.53ZM157.046 168.043C156.414 168.043 155.901 168.248 155.508 168.658C155.12 169.069 154.892 169.67 154.824 170.462H159.132C159.126 169.989 159.047 169.57 158.893 169.205C158.745 168.841 158.517 168.556 158.209 168.351C157.907 168.145 157.519 168.043 157.046 168.043ZM167.073 166.53C168.27 166.53 169.173 166.795 169.783 167.325C170.398 167.855 170.706 168.681 170.706 169.804V176.172H169.278L168.894 174.83H168.825C168.557 175.172 168.281 175.454 167.996 175.676C167.711 175.898 167.381 176.064 167.005 176.172C166.634 176.286 166.181 176.343 165.645 176.343C165.081 176.343 164.577 176.24 164.133 176.035C163.688 175.824 163.338 175.505 163.081 175.078C162.825 174.65 162.696 174.109 162.696 173.454C162.696 172.479 163.058 171.747 163.782 171.257C164.511 170.767 165.611 170.496 167.082 170.445L168.723 170.385V169.889C168.723 169.234 168.569 168.767 168.261 168.487C167.959 168.208 167.532 168.069 166.979 168.069C166.506 168.069 166.047 168.137 165.603 168.274C165.158 168.41 164.725 168.579 164.303 168.778L163.654 167.359C164.115 167.114 164.64 166.915 165.227 166.761C165.819 166.607 166.435 166.53 167.073 166.53ZM168.714 171.65L167.492 171.693C166.489 171.727 165.785 171.898 165.381 172.206C164.976 172.513 164.774 172.935 164.774 173.471C164.774 173.938 164.913 174.28 165.192 174.496C165.472 174.707 165.839 174.813 166.295 174.813C166.99 174.813 167.566 174.616 168.022 174.223C168.483 173.824 168.714 173.24 168.714 172.471V171.65ZM178.313 166.53C178.473 166.53 178.647 166.538 178.835 166.556C179.023 166.573 179.185 166.595 179.322 166.624L179.134 168.504C179.014 168.47 178.866 168.445 178.689 168.428C178.519 168.41 178.365 168.402 178.228 168.402C177.869 168.402 177.527 168.462 177.202 168.581C176.877 168.695 176.59 168.872 176.339 169.111C176.088 169.345 175.892 169.638 175.749 169.992C175.607 170.345 175.535 170.755 175.535 171.223V176.172H173.518V166.709H175.091L175.364 168.376H175.458C175.646 168.04 175.88 167.732 176.159 167.453C176.439 167.174 176.758 166.952 177.117 166.786C177.481 166.615 177.88 166.53 178.313 166.53ZM187.434 173.471C187.434 174.092 187.283 174.616 186.981 175.044C186.679 175.471 186.237 175.796 185.656 176.018C185.08 176.235 184.374 176.343 183.536 176.343C182.875 176.343 182.305 176.294 181.827 176.198C181.354 176.106 180.906 175.964 180.485 175.77V174.035C180.935 174.246 181.439 174.428 181.998 174.582C182.562 174.736 183.094 174.813 183.596 174.813C184.257 174.813 184.733 174.71 185.023 174.505C185.314 174.294 185.459 174.015 185.459 173.667C185.459 173.462 185.4 173.28 185.28 173.12C185.166 172.955 184.949 172.787 184.63 172.616C184.317 172.439 183.855 172.228 183.245 171.983C182.647 171.744 182.143 171.505 181.733 171.265C181.322 171.026 181.012 170.738 180.801 170.402C180.59 170.06 180.485 169.624 180.485 169.094C180.485 168.257 180.815 167.621 181.476 167.188C182.143 166.749 183.023 166.53 184.117 166.53C184.699 166.53 185.246 166.59 185.759 166.709C186.277 166.823 186.784 166.991 187.28 167.214L186.648 168.727C186.22 168.539 185.79 168.385 185.357 168.265C184.929 168.14 184.493 168.077 184.049 168.077C183.53 168.077 183.134 168.157 182.861 168.316C182.593 168.476 182.459 168.704 182.459 169C182.459 169.222 182.525 169.411 182.656 169.564C182.787 169.718 183.012 169.872 183.331 170.026C183.656 170.18 184.106 170.371 184.682 170.599C185.246 170.815 185.733 171.043 186.143 171.283C186.559 171.516 186.878 171.804 187.101 172.146C187.323 172.488 187.434 172.929 187.434 173.471ZM205.453 169.906C205.453 170.869 205.33 171.747 205.085 172.539C204.846 173.325 204.484 174.004 204 174.573C203.515 175.138 202.908 175.574 202.179 175.881C201.45 176.189 200.595 176.343 199.615 176.343C198.617 176.343 197.751 176.189 197.016 175.881C196.287 175.574 195.68 175.135 195.195 174.565C194.717 173.995 194.358 173.314 194.118 172.522C193.879 171.73 193.759 170.852 193.759 169.889C193.759 168.601 193.97 167.479 194.392 166.521C194.819 165.558 195.466 164.812 196.332 164.282C197.204 163.746 198.304 163.478 199.632 163.478C200.931 163.478 202.011 163.743 202.871 164.273C203.732 164.803 204.376 165.55 204.803 166.513C205.236 167.47 205.453 168.601 205.453 169.906ZM195.913 169.906C195.913 170.869 196.044 171.704 196.307 172.411C196.569 173.112 196.97 173.653 197.512 174.035C198.059 174.411 198.76 174.599 199.615 174.599C200.475 174.599 201.176 174.411 201.717 174.035C202.259 173.653 202.658 173.112 202.914 172.411C203.171 171.704 203.299 170.869 203.299 169.906C203.299 168.442 203.005 167.296 202.418 166.47C201.837 165.638 200.908 165.222 199.632 165.222C198.777 165.222 198.073 165.41 197.52 165.786C196.973 166.162 196.569 166.701 196.307 167.402C196.044 168.097 195.913 168.932 195.913 169.906ZM209.949 176.172H207.932V162.871H209.949V176.172ZM216.001 176.343C214.872 176.343 213.966 175.933 213.283 175.112C212.604 174.286 212.265 173.069 212.265 171.462C212.265 169.838 212.61 168.61 213.3 167.778C213.995 166.946 214.91 166.53 216.044 166.53C216.522 166.53 216.941 166.595 217.3 166.727C217.659 166.852 217.967 167.023 218.223 167.239C218.485 167.456 218.708 167.698 218.89 167.966H218.984C218.956 167.789 218.921 167.536 218.881 167.205C218.847 166.869 218.83 166.558 218.83 166.273V162.871H220.847V176.172H219.275L218.916 174.881H218.83C218.659 175.155 218.443 175.403 218.181 175.625C217.924 175.841 217.616 176.015 217.257 176.146C216.904 176.277 216.485 176.343 216.001 176.343ZM216.565 174.71C217.425 174.71 218.032 174.462 218.386 173.967C218.739 173.471 218.921 172.727 218.933 171.736V171.471C218.933 170.411 218.762 169.599 218.42 169.034C218.078 168.465 217.454 168.18 216.548 168.18C215.824 168.18 215.271 168.473 214.89 169.06C214.513 169.641 214.325 170.453 214.325 171.496C214.325 172.539 214.513 173.337 214.89 173.89C215.271 174.437 215.83 174.71 216.565 174.71Z" fill="#FDF5E0"/>
<path d="M49.5474 200.011C50.6244 200.011 51.5134 200.142 52.2143 200.404C52.9209 200.666 53.4452 201.065 53.7871 201.601C54.1347 202.136 54.3085 202.817 54.3085 203.644C54.3085 204.259 54.1945 204.783 53.9666 205.217C53.7386 205.65 53.4395 206.009 53.0691 206.294C52.6987 206.578 52.3026 206.806 51.8809 206.977L55.4283 212.508H53.1118L50.0944 207.499H48.0857V212.508H46.0342V200.011H49.5474ZM49.4106 201.72H48.0857V205.806H49.5046C50.4563 205.806 51.1458 205.63 51.5732 205.276C52.0063 204.923 52.2228 204.402 52.2228 203.712C52.2228 202.988 51.992 202.475 51.5305 202.173C51.0746 201.871 50.3679 201.72 49.4106 201.72ZM60.7792 202.866C61.6226 202.866 62.3463 203.04 62.9504 203.387C63.5544 203.735 64.0188 204.228 64.3437 204.866C64.6685 205.504 64.8309 206.268 64.8309 207.157V208.234H58.514C58.5368 209.151 58.7819 209.858 59.2491 210.354C59.7221 210.85 60.3832 211.097 61.2322 211.097C61.8363 211.097 62.3777 211.04 62.8563 210.926C63.3407 210.807 63.8393 210.633 64.3522 210.405V212.038C63.8792 212.26 63.3977 212.422 62.9076 212.525C62.4175 212.627 61.8306 212.679 61.1468 212.679C60.2179 212.679 59.4002 212.499 58.6935 212.14C57.9926 211.776 57.4427 211.234 57.0438 210.516C56.6506 209.798 56.454 208.906 56.454 207.841C56.454 206.781 56.6335 205.88 56.9925 205.14C57.3515 204.399 57.8559 203.835 58.5055 203.447C59.1551 203.06 59.913 202.866 60.7792 202.866ZM60.7792 204.379C60.1467 204.379 59.6338 204.584 59.2406 204.994C58.8531 205.405 58.6252 206.006 58.5568 206.798H62.8649C62.8592 206.325 62.7794 205.906 62.6255 205.541C62.4774 205.177 62.2494 204.892 61.9417 204.687C61.6397 204.481 61.2522 204.379 60.7792 204.379ZM69.7972 216.713C68.515 216.713 67.532 216.483 66.8482 216.021C66.1644 215.559 65.8224 214.913 65.8224 214.081C65.8224 213.499 66.0048 213.006 66.3695 212.602C66.7342 212.203 67.2556 211.927 67.9338 211.773C67.6773 211.659 67.4551 211.482 67.267 211.243C67.0847 210.998 66.9935 210.727 66.9935 210.431C66.9935 210.077 67.0932 209.775 67.2927 209.525C67.4921 209.274 67.7913 209.032 68.1902 208.798C67.6944 208.587 67.2955 208.245 66.9935 207.772C66.6972 207.294 66.549 206.732 66.549 206.088C66.549 205.405 66.6943 204.823 66.9849 204.345C67.2756 203.86 67.7001 203.493 68.2586 203.242C68.817 202.986 69.4923 202.857 70.2844 202.857C70.4554 202.857 70.6406 202.869 70.84 202.891C71.0452 202.909 71.2332 202.931 71.4042 202.96C71.5808 202.983 71.7147 203.008 71.8059 203.037H75.0797V204.157L73.4728 204.456C73.6266 204.672 73.7491 204.92 73.8403 205.199C73.9315 205.473 73.9771 205.772 73.9771 206.097C73.9771 207.077 73.638 207.849 72.9599 208.413C72.2875 208.972 71.3586 209.251 70.1733 209.251C69.8884 209.24 69.612 209.217 69.3441 209.183C69.139 209.308 68.9823 209.448 68.874 209.602C68.7657 209.75 68.7116 209.918 68.7116 210.106C68.7116 210.26 68.7657 210.385 68.874 210.482C68.9823 210.573 69.1418 210.642 69.3527 210.687C69.5692 210.733 69.8314 210.756 70.1391 210.756H71.7717C72.8089 210.756 73.601 210.975 74.148 211.414C74.6951 211.852 74.9686 212.496 74.9686 213.346C74.9686 214.423 74.5241 215.252 73.6352 215.833C72.7462 216.42 71.4669 216.713 69.7972 216.713ZM69.8741 215.303C70.575 215.303 71.1648 215.235 71.6435 215.098C72.1222 214.961 72.4841 214.764 72.7291 214.508C72.9741 214.257 73.0966 213.958 73.0966 213.61C73.0966 213.303 73.0197 213.066 72.8659 212.901C72.712 212.736 72.4812 212.622 72.1735 212.559C71.8658 212.496 71.484 212.465 71.0281 212.465H69.5407C69.1703 212.465 68.8427 212.522 68.5577 212.636C68.2728 212.756 68.0506 212.927 67.891 213.149C67.7372 213.371 67.6602 213.639 67.6602 213.952C67.6602 214.385 67.8511 214.719 68.2329 214.952C68.6204 215.186 69.1675 215.303 69.8741 215.303ZM70.2673 207.935C70.8543 207.935 71.2902 207.775 71.5751 207.456C71.8601 207.131 72.0025 206.675 72.0025 206.088C72.0025 205.45 71.8544 204.971 71.558 204.652C71.2674 204.333 70.8343 204.174 70.2588 204.174C69.6946 204.174 69.2644 204.336 68.968 204.661C68.6774 204.986 68.5321 205.467 68.5321 206.105C68.5321 206.681 68.6774 207.131 68.968 207.456C69.2644 207.775 69.6975 207.935 70.2673 207.935ZM85.0551 203.045V212.508H83.4737L83.2002 211.234H83.0891C82.8896 211.559 82.636 211.83 82.3283 212.046C82.0206 212.257 81.6787 212.414 81.3026 212.516C80.9265 212.625 80.5304 212.679 80.1144 212.679C79.4021 212.679 78.7924 212.559 78.2852 212.32C77.7837 212.075 77.3991 211.699 77.1312 211.191C76.8634 210.684 76.7295 210.029 76.7295 209.225V203.045H78.7468V208.849C78.7468 209.584 78.8949 210.134 79.1913 210.499C79.4933 210.864 79.9606 211.046 80.5931 211.046C81.2028 211.046 81.6872 210.921 82.0462 210.67C82.4052 210.419 82.6588 210.049 82.807 209.559C82.9609 209.069 83.0378 208.468 83.0378 207.755V203.045H85.0551ZM89.953 212.508H87.9357V199.207H89.953V212.508ZM96.5348 202.866C97.7315 202.866 98.6347 203.131 99.2445 203.661C99.8599 204.191 100.168 205.017 100.168 206.14V212.508H98.7402L98.3555 211.166H98.2871C98.0193 211.508 97.7429 211.79 97.458 212.012C97.1731 212.234 96.8425 212.4 96.4664 212.508C96.096 212.622 95.643 212.679 95.1073 212.679C94.5432 212.679 94.0389 212.576 93.5944 212.371C93.1499 212.16 92.7994 211.841 92.543 211.414C92.2865 210.986 92.1583 210.445 92.1583 209.79C92.1583 208.815 92.5202 208.083 93.2439 207.593C93.9733 207.103 95.0731 206.832 96.5434 206.781L98.1846 206.721V206.225C98.1846 205.57 98.0307 205.103 97.723 204.823C97.4209 204.544 96.9936 204.404 96.4408 204.404C95.9678 204.404 95.5091 204.473 95.0646 204.61C94.6201 204.746 94.187 204.914 93.7653 205.114L93.1157 203.695C93.5773 203.45 94.1015 203.251 94.6885 203.097C95.2811 202.943 95.8966 202.866 96.5348 202.866ZM98.176 207.986L96.9537 208.029C95.9507 208.063 95.2469 208.234 94.8423 208.542C94.4378 208.849 94.2355 209.271 94.2355 209.807C94.2355 210.274 94.3751 210.616 94.6543 210.832C94.9335 211.043 95.3011 211.149 95.757 211.149C96.4522 211.149 97.0277 210.952 97.4836 210.559C97.9452 210.16 98.176 209.576 98.176 208.807V207.986ZM107.775 202.866C107.935 202.866 108.109 202.874 108.297 202.891C108.485 202.909 108.647 202.931 108.784 202.96L108.596 204.84C108.476 204.806 108.328 204.781 108.151 204.763C107.98 204.746 107.827 204.738 107.69 204.738C107.331 204.738 106.989 204.798 106.664 204.917C106.339 205.031 106.051 205.208 105.801 205.447C105.55 205.681 105.353 205.974 105.211 206.328C105.068 206.681 104.997 207.091 104.997 207.559V212.508H102.98V203.045H104.553L104.826 204.712H104.92C105.108 204.376 105.342 204.068 105.621 203.789C105.9 203.51 106.22 203.288 106.579 203.122C106.943 202.951 107.342 202.866 107.775 202.866ZM112.553 212.508H110.536V199.207H112.553V212.508ZM113.998 203.045H116.186L118.127 208.448C118.212 208.693 118.289 208.935 118.357 209.174C118.432 209.408 118.494 209.639 118.546 209.867C118.602 210.094 118.648 210.322 118.682 210.55H118.734C118.791 210.254 118.87 209.924 118.973 209.559C119.081 209.188 119.201 208.818 119.332 208.448L121.195 203.045H123.358L119.298 213.807C119.064 214.423 118.776 214.947 118.434 215.38C118.098 215.819 117.699 216.149 117.238 216.371C116.776 216.599 116.249 216.713 115.656 216.713C115.371 216.713 115.124 216.696 114.913 216.662C114.702 216.634 114.522 216.602 114.374 216.568V214.961C114.494 214.99 114.645 215.015 114.827 215.038C115.01 215.061 115.198 215.072 115.391 215.072C115.75 215.072 116.061 215.001 116.323 214.858C116.585 214.716 116.807 214.514 116.99 214.252C117.172 213.995 117.323 213.702 117.443 213.371L117.776 212.482L113.998 203.045ZM140.035 202.866C141.095 202.866 141.893 203.139 142.428 203.686C142.97 204.234 143.24 205.111 143.24 206.319V212.508H141.231V206.678C141.231 205.96 141.092 205.419 140.813 205.054C140.533 204.689 140.109 204.507 139.539 204.507C138.741 204.507 138.166 204.763 137.812 205.276C137.465 205.784 137.291 206.521 137.291 207.49V212.508H135.282V206.678C135.282 206.2 135.219 205.801 135.094 205.481C134.974 205.157 134.789 204.914 134.539 204.755C134.288 204.59 133.972 204.507 133.59 204.507C133.037 204.507 132.595 204.632 132.265 204.883C131.94 205.134 131.706 205.504 131.564 205.994C131.421 206.479 131.35 207.074 131.35 207.781V212.508H129.341V203.045H130.906L131.188 204.319H131.299C131.493 203.988 131.732 203.718 132.017 203.507C132.308 203.29 132.629 203.131 132.983 203.028C133.336 202.92 133.704 202.866 134.085 202.866C134.792 202.866 135.388 202.991 135.872 203.242C136.356 203.487 136.718 203.863 136.958 204.37H137.111C137.408 203.857 137.821 203.478 138.351 203.233C138.881 202.988 139.442 202.866 140.035 202.866ZM149.813 202.866C150.657 202.866 151.381 203.04 151.985 203.387C152.589 203.735 153.053 204.228 153.378 204.866C153.703 205.504 153.865 206.268 153.865 207.157V208.234H147.548C147.571 209.151 147.816 209.858 148.283 210.354C148.756 210.85 149.417 211.097 150.267 211.097C150.871 211.097 151.412 211.04 151.891 210.926C152.375 210.807 152.874 210.633 153.386 210.405V212.038C152.914 212.26 152.432 212.422 151.942 212.525C151.452 212.627 150.865 212.679 150.181 212.679C149.252 212.679 148.434 212.499 147.728 212.14C147.027 211.776 146.477 211.234 146.078 210.516C145.685 209.798 145.488 208.906 145.488 207.841C145.488 206.781 145.668 205.88 146.027 205.14C146.386 204.399 146.89 203.835 147.54 203.447C148.189 203.06 148.947 202.866 149.813 202.866ZM149.813 204.379C149.181 204.379 148.668 204.584 148.275 204.994C147.887 205.405 147.659 206.006 147.591 206.798H151.899C151.893 206.325 151.814 205.906 151.66 205.541C151.512 205.177 151.284 204.892 150.976 204.687C150.674 204.481 150.286 204.379 149.813 204.379ZM159.9 202.866C160.743 202.866 161.467 203.04 162.071 203.387C162.675 203.735 163.14 204.228 163.464 204.866C163.789 205.504 163.952 206.268 163.952 207.157V208.234H157.635C157.658 209.151 157.903 209.858 158.37 210.354C158.843 210.85 159.504 211.097 160.353 211.097C160.957 211.097 161.498 211.04 161.977 210.926C162.461 210.807 162.96 210.633 163.473 210.405V212.038C163 212.26 162.518 212.422 162.028 212.525C161.538 212.627 160.951 212.679 160.268 212.679C159.339 212.679 158.521 212.499 157.814 212.14C157.113 211.776 156.563 211.234 156.165 210.516C155.771 209.798 155.575 208.906 155.575 207.841C155.575 206.781 155.754 205.88 156.113 205.14C156.472 204.399 156.977 203.835 157.626 203.447C158.276 203.06 159.034 202.866 159.9 202.866ZM159.9 204.379C159.267 204.379 158.755 204.584 158.361 204.994C157.974 205.405 157.746 206.006 157.678 206.798H161.986C161.98 206.325 161.9 205.906 161.746 205.541C161.598 205.177 161.37 204.892 161.062 204.687C160.76 204.481 160.373 204.379 159.9 204.379ZM169.739 211.055C170.001 211.055 170.26 211.032 170.516 210.986C170.773 210.935 171.006 210.875 171.217 210.807V212.328C170.995 212.425 170.707 212.508 170.354 212.576C170.001 212.645 169.633 212.679 169.251 212.679C168.716 212.679 168.234 212.59 167.807 212.414C167.379 212.231 167.04 211.921 166.79 211.482C166.539 211.043 166.413 210.436 166.413 209.661V204.575H165.123V203.678L166.507 202.968L167.166 200.943H168.431V203.045H171.14V204.575H168.431V209.636C168.431 210.114 168.55 210.471 168.79 210.704C169.029 210.938 169.345 211.055 169.739 211.055ZM179.5 209.807C179.5 210.428 179.349 210.952 179.047 211.379C178.745 211.807 178.303 212.132 177.722 212.354C177.147 212.57 176.44 212.679 175.602 212.679C174.941 212.679 174.371 212.63 173.893 212.533C173.42 212.442 172.972 212.3 172.551 212.106V210.371C173.001 210.582 173.505 210.764 174.064 210.918C174.628 211.072 175.161 211.149 175.662 211.149C176.323 211.149 176.799 211.046 177.09 210.841C177.38 210.63 177.526 210.351 177.526 210.003C177.526 209.798 177.466 209.616 177.346 209.456C177.232 209.291 177.016 209.123 176.696 208.952C176.383 208.775 175.921 208.564 175.312 208.319C174.713 208.08 174.209 207.841 173.799 207.601C173.388 207.362 173.078 207.074 172.867 206.738C172.656 206.396 172.551 205.96 172.551 205.43C172.551 204.593 172.881 203.957 173.542 203.524C174.209 203.085 175.089 202.866 176.184 202.866C176.765 202.866 177.312 202.926 177.825 203.045C178.343 203.159 178.851 203.327 179.346 203.55L178.714 205.063C178.286 204.875 177.856 204.721 177.423 204.601C176.996 204.476 176.56 204.413 176.115 204.413C175.597 204.413 175.201 204.493 174.927 204.652C174.659 204.812 174.525 205.04 174.525 205.336C174.525 205.558 174.591 205.746 174.722 205.9C174.853 206.054 175.078 206.208 175.397 206.362C175.722 206.516 176.172 206.707 176.748 206.935C177.312 207.151 177.799 207.379 178.209 207.618C178.625 207.852 178.945 208.14 179.167 208.482C179.389 208.824 179.5 209.265 179.5 209.807ZM193.955 212.499L192.758 208.097C192.701 207.881 192.632 207.618 192.553 207.311C192.473 207.003 192.393 206.687 192.313 206.362C192.234 206.031 192.159 205.727 192.091 205.447C192.028 205.168 191.98 204.952 191.946 204.798H191.877C191.849 204.952 191.803 205.168 191.741 205.447C191.678 205.727 191.607 206.031 191.527 206.362C191.447 206.692 191.367 207.014 191.288 207.328C191.214 207.641 191.145 207.909 191.082 208.131L189.826 212.499H187.621L184.971 203.037H187.005L188.236 207.738C188.316 208.057 188.393 208.402 188.467 208.772C188.547 209.143 188.615 209.496 188.672 209.832C188.729 210.169 188.772 210.445 188.8 210.661H188.869C188.891 210.508 188.923 210.314 188.963 210.08C189.002 209.841 189.048 209.593 189.099 209.337C189.151 209.074 189.202 208.829 189.253 208.601C189.305 208.368 189.353 208.18 189.399 208.037L190.852 203.037H193.048L194.442 208.037C194.504 208.254 194.573 208.527 194.647 208.858C194.721 209.183 194.787 209.51 194.844 209.841C194.906 210.166 194.946 210.436 194.963 210.653H195.032C195.054 210.459 195.094 210.197 195.151 209.867C195.214 209.53 195.285 209.174 195.365 208.798C195.445 208.416 195.527 208.063 195.613 207.738L196.869 203.037H198.87L196.203 212.499H193.955ZM202.502 203.045V212.508H200.494V203.045H202.502ZM201.511 199.421C201.819 199.421 202.084 199.504 202.306 199.669C202.534 199.834 202.648 200.119 202.648 200.524C202.648 200.923 202.534 201.208 202.306 201.379C202.084 201.544 201.819 201.626 201.511 201.626C201.192 201.626 200.921 201.544 200.699 201.379C200.482 201.208 200.374 200.923 200.374 200.524C200.374 200.119 200.482 199.834 200.699 199.669C200.921 199.504 201.192 199.421 201.511 199.421ZM208.905 211.055C209.167 211.055 209.426 211.032 209.683 210.986C209.939 210.935 210.173 210.875 210.383 210.807V212.328C210.161 212.425 209.873 212.508 209.52 212.576C209.167 212.645 208.799 212.679 208.417 212.679C207.882 212.679 207.4 212.59 206.973 212.414C206.546 212.231 206.206 211.921 205.956 211.482C205.705 211.043 205.58 210.436 205.58 209.661V204.575H204.289V203.678L205.674 202.968L206.332 200.943H207.597V203.045H210.307V204.575H207.597V209.636C207.597 210.114 207.717 210.471 207.956 210.704C208.195 210.938 208.512 211.055 208.905 211.055ZM214.315 199.207V202.55C214.315 202.897 214.304 203.236 214.281 203.567C214.264 203.897 214.244 204.154 214.221 204.336H214.333C214.532 204.006 214.777 203.735 215.068 203.524C215.358 203.307 215.683 203.145 216.042 203.037C216.407 202.929 216.794 202.874 217.205 202.874C217.928 202.874 218.544 202.997 219.051 203.242C219.558 203.481 219.946 203.855 220.214 204.362C220.487 204.869 220.624 205.527 220.624 206.336V212.508H218.615V206.712C218.615 205.977 218.464 205.427 218.162 205.063C217.86 204.692 217.393 204.507 216.76 204.507C216.15 204.507 215.666 204.635 215.307 204.892C214.954 205.142 214.7 205.516 214.546 206.011C214.392 206.502 214.315 207.1 214.315 207.807V212.508H212.307V199.207H214.315ZM120.11 226.866C121.232 226.866 122.133 227.276 122.811 228.097C123.495 228.917 123.837 230.137 123.837 231.755C123.837 232.827 123.677 233.73 123.358 234.465C123.045 235.194 122.603 235.747 122.033 236.123C121.469 236.494 120.811 236.679 120.058 236.679C119.58 236.679 119.164 236.616 118.81 236.491C118.457 236.365 118.155 236.203 117.904 236.003C117.654 235.798 117.443 235.576 117.272 235.337H117.152C117.181 235.565 117.206 235.818 117.229 236.098C117.258 236.371 117.272 236.622 117.272 236.85V240.705H115.255V227.045H116.896L117.178 228.353H117.272C117.449 228.085 117.662 227.837 117.913 227.61C118.169 227.382 118.477 227.202 118.836 227.071C119.201 226.934 119.625 226.866 120.11 226.866ZM119.571 228.507C119.018 228.507 118.574 228.618 118.238 228.84C117.907 229.057 117.665 229.385 117.511 229.823C117.363 230.262 117.283 230.812 117.272 231.473V231.755C117.272 232.456 117.343 233.052 117.486 233.542C117.634 234.026 117.876 234.396 118.212 234.653C118.554 234.904 119.016 235.029 119.597 235.029C120.087 235.029 120.492 234.895 120.811 234.627C121.136 234.359 121.378 233.978 121.537 233.482C121.697 232.986 121.777 232.402 121.777 231.73C121.777 230.71 121.594 229.917 121.23 229.353C120.871 228.789 120.318 228.507 119.571 228.507ZM130.957 226.866C131.117 226.866 131.29 226.874 131.478 226.891C131.666 226.909 131.829 226.931 131.966 226.96L131.778 228.84C131.658 228.806 131.51 228.781 131.333 228.763C131.162 228.746 131.008 228.738 130.871 228.738C130.512 228.738 130.171 228.798 129.846 228.917C129.521 229.031 129.233 229.208 128.982 229.447C128.732 229.681 128.535 229.974 128.393 230.328C128.25 230.681 128.179 231.091 128.179 231.559V236.508H126.162V227.045H127.734L128.008 228.712H128.102C128.29 228.376 128.524 228.068 128.803 227.789C129.082 227.51 129.401 227.288 129.76 227.122C130.125 226.951 130.524 226.866 130.957 226.866ZM135.727 227.045V236.508H133.718V227.045H135.727ZM134.735 223.421C135.043 223.421 135.308 223.504 135.53 223.669C135.758 223.834 135.872 224.119 135.872 224.524C135.872 224.923 135.758 225.208 135.53 225.379C135.308 225.544 135.043 225.626 134.735 225.626C134.416 225.626 134.145 225.544 133.923 225.379C133.707 225.208 133.598 224.923 133.598 224.524C133.598 224.119 133.707 223.834 133.923 223.669C134.145 223.504 134.416 223.421 134.735 223.421ZM149.301 226.866C150.361 226.866 151.158 227.139 151.694 227.686C152.235 228.234 152.506 229.111 152.506 230.319V236.508H150.497V230.678C150.497 229.96 150.358 229.419 150.078 229.054C149.799 228.689 149.375 228.507 148.805 228.507C148.007 228.507 147.432 228.763 147.078 229.276C146.731 229.784 146.557 230.521 146.557 231.49V236.508H144.548V230.678C144.548 230.2 144.485 229.801 144.36 229.481C144.24 229.157 144.055 228.914 143.804 228.755C143.554 228.59 143.237 228.507 142.856 228.507C142.303 228.507 141.861 228.632 141.531 228.883C141.206 229.134 140.972 229.504 140.83 229.994C140.687 230.479 140.616 231.074 140.616 231.781V236.508H138.607V227.045H140.172L140.454 228.319H140.565C140.758 227.988 140.998 227.718 141.283 227.507C141.573 227.29 141.895 227.131 142.249 227.028C142.602 226.92 142.97 226.866 143.351 226.866C144.058 226.866 144.653 226.991 145.138 227.242C145.622 227.487 145.984 227.863 146.223 228.37H146.377C146.674 227.857 147.087 227.478 147.617 227.233C148.147 226.988 148.708 226.866 149.301 226.866ZM159.02 226.866C160.216 226.866 161.119 227.131 161.729 227.661C162.345 228.191 162.652 229.017 162.652 230.14V236.508H161.225L160.84 235.166H160.772C160.504 235.508 160.228 235.79 159.943 236.012C159.658 236.234 159.327 236.4 158.951 236.508C158.581 236.622 158.128 236.679 157.592 236.679C157.028 236.679 156.524 236.576 156.079 236.371C155.635 236.16 155.284 235.841 155.028 235.414C154.771 234.986 154.643 234.445 154.643 233.79C154.643 232.815 155.005 232.083 155.729 231.593C156.458 231.103 157.558 230.832 159.028 230.781L160.669 230.721V230.225C160.669 229.57 160.515 229.103 160.208 228.823C159.906 228.544 159.478 228.404 158.925 228.404C158.453 228.404 157.994 228.473 157.549 228.61C157.105 228.746 156.672 228.914 156.25 229.114L155.6 227.695C156.062 227.45 156.586 227.251 157.173 227.097C157.766 226.943 158.381 226.866 159.02 226.866ZM160.661 231.986L159.438 232.029C158.435 232.063 157.732 232.234 157.327 232.542C156.922 232.849 156.72 233.271 156.72 233.807C156.72 234.274 156.86 234.616 157.139 234.832C157.418 235.043 157.786 235.149 158.242 235.149C158.937 235.149 159.512 234.952 159.968 234.559C160.43 234.16 160.661 233.576 160.661 232.807V231.986ZM170.26 226.866C170.419 226.866 170.593 226.874 170.781 226.891C170.969 226.909 171.132 226.931 171.269 226.96L171.081 228.84C170.961 228.806 170.813 228.781 170.636 228.763C170.465 228.746 170.311 228.738 170.174 228.738C169.815 228.738 169.474 228.798 169.149 228.917C168.824 229.031 168.536 229.208 168.285 229.447C168.035 229.681 167.838 229.974 167.696 230.328C167.553 230.681 167.482 231.091 167.482 231.559V236.508H165.465V227.045H167.037L167.311 228.712H167.405C167.593 228.376 167.827 228.068 168.106 227.789C168.385 227.51 168.704 227.288 169.063 227.122C169.428 226.951 169.827 226.866 170.26 226.866ZM171.593 227.045H173.782L175.722 232.448C175.807 232.693 175.884 232.935 175.953 233.174C176.027 233.408 176.09 233.639 176.141 233.867C176.198 234.094 176.243 234.322 176.278 234.55H176.329C176.386 234.254 176.466 233.924 176.568 233.559C176.677 233.188 176.796 232.818 176.927 232.448L178.791 227.045H180.953L176.893 237.807C176.659 238.423 176.372 238.947 176.03 239.38C175.694 239.819 175.295 240.149 174.833 240.371C174.371 240.599 173.844 240.713 173.252 240.713C172.967 240.713 172.719 240.696 172.508 240.662C172.297 240.634 172.118 240.602 171.969 240.568V238.961C172.089 238.99 172.24 239.015 172.423 239.038C172.605 239.061 172.793 239.072 172.987 239.072C173.346 239.072 173.656 239.001 173.918 238.858C174.181 238.716 174.403 238.514 174.585 238.252C174.767 237.995 174.918 237.702 175.038 237.371L175.372 236.482L171.593 227.045ZM190.749 236.679C189.854 236.679 189.079 236.505 188.424 236.157C187.769 235.81 187.264 235.277 186.911 234.559C186.558 233.841 186.381 232.929 186.381 231.824C186.381 230.672 186.575 229.732 186.962 229.003C187.35 228.273 187.886 227.735 188.569 227.387C189.259 227.04 190.048 226.866 190.937 226.866C191.501 226.866 192.011 226.923 192.467 227.037C192.929 227.145 193.319 227.279 193.638 227.439L193.04 229.046C192.692 228.903 192.336 228.783 191.971 228.687C191.607 228.59 191.256 228.541 190.92 228.541C190.367 228.541 189.906 228.664 189.535 228.909C189.171 229.154 188.897 229.519 188.715 230.003C188.538 230.487 188.45 231.088 188.45 231.807C188.45 232.502 188.541 233.089 188.723 233.567C188.906 234.04 189.176 234.399 189.535 234.644C189.894 234.884 190.336 235.003 190.86 235.003C191.379 235.003 191.843 234.941 192.254 234.815C192.664 234.69 193.051 234.528 193.416 234.328V236.072C193.057 236.277 192.672 236.428 192.262 236.525C191.852 236.627 191.347 236.679 190.749 236.679ZM199.348 226.866C200.545 226.866 201.448 227.131 202.058 227.661C202.673 228.191 202.981 229.017 202.981 230.14V236.508H201.554L201.169 235.166H201.101C200.833 235.508 200.556 235.79 200.271 236.012C199.986 236.234 199.656 236.4 199.28 236.508C198.909 236.622 198.456 236.679 197.921 236.679C197.357 236.679 196.852 236.576 196.408 236.371C195.963 236.16 195.613 235.841 195.356 235.414C195.1 234.986 194.972 234.445 194.972 233.79C194.972 232.815 195.334 232.083 196.057 231.593C196.787 231.103 197.887 230.832 199.357 230.781L200.998 230.721V230.225C200.998 229.57 200.844 229.103 200.536 228.823C200.234 228.544 199.807 228.404 199.254 228.404C198.781 228.404 198.322 228.473 197.878 228.61C197.434 228.746 197 228.914 196.579 229.114L195.929 227.695C196.391 227.45 196.915 227.251 197.502 227.097C198.095 226.943 198.71 226.866 199.348 226.866ZM200.989 231.986L199.767 232.029C198.764 232.063 198.06 232.234 197.656 232.542C197.251 232.849 197.049 233.271 197.049 233.807C197.049 234.274 197.188 234.616 197.468 234.832C197.747 235.043 198.114 235.149 198.57 235.149C199.266 235.149 199.841 234.952 200.297 234.559C200.759 234.16 200.989 233.576 200.989 232.807V231.986ZM210.589 226.866C210.748 226.866 210.922 226.874 211.11 226.891C211.298 226.909 211.461 226.931 211.597 226.96L211.409 228.84C211.29 228.806 211.141 228.781 210.965 228.763C210.794 228.746 210.64 228.738 210.503 228.738C210.144 228.738 209.802 228.798 209.477 228.917C209.153 229.031 208.865 229.208 208.614 229.447C208.363 229.681 208.167 229.974 208.024 230.328C207.882 230.681 207.811 231.091 207.811 231.559V236.508H205.793V227.045H207.366L207.64 228.712H207.734C207.922 228.376 208.155 228.068 208.435 227.789C208.714 227.51 209.033 227.288 209.392 227.122C209.757 226.951 210.156 226.866 210.589 226.866ZM217.119 226.866C217.963 226.866 218.686 227.04 219.29 227.387C219.894 227.735 220.359 228.228 220.684 228.866C221.008 229.504 221.171 230.268 221.171 231.157V232.234H214.854C214.877 233.151 215.122 233.858 215.589 234.354C216.062 234.85 216.723 235.097 217.572 235.097C218.176 235.097 218.718 235.04 219.196 234.926C219.681 234.807 220.179 234.633 220.692 234.405V236.038C220.219 236.26 219.738 236.422 219.248 236.525C218.758 236.627 218.171 236.679 217.487 236.679C216.558 236.679 215.74 236.499 215.034 236.14C214.333 235.776 213.783 235.234 213.384 234.516C212.991 233.798 212.794 232.906 212.794 231.841C212.794 230.781 212.973 229.88 213.332 229.14C213.691 228.399 214.196 227.835 214.845 227.447C215.495 227.06 216.253 226.866 217.119 226.866ZM217.119 228.379C216.487 228.379 215.974 228.584 215.581 228.994C215.193 229.405 214.965 230.006 214.897 230.798H219.205C219.199 230.325 219.119 229.906 218.966 229.541C218.817 229.177 218.589 228.892 218.282 228.687C217.98 228.481 217.592 228.379 217.119 228.379ZM148.591 250.866C149.714 250.866 150.614 251.276 151.292 252.097C151.976 252.917 152.318 254.137 152.318 255.755C152.318 256.827 152.158 257.73 151.839 258.465C151.526 259.194 151.084 259.747 150.514 260.123C149.95 260.494 149.292 260.679 148.54 260.679C148.061 260.679 147.645 260.616 147.292 260.491C146.939 260.365 146.637 260.203 146.386 260.003C146.135 259.798 145.924 259.576 145.753 259.337H145.634C145.662 259.565 145.688 259.818 145.711 260.098C145.739 260.371 145.753 260.622 145.753 260.85V264.705H143.736V251.045H145.377L145.659 252.353H145.753C145.93 252.085 146.144 251.837 146.394 251.61C146.651 251.382 146.959 251.202 147.318 251.071C147.682 250.934 148.107 250.866 148.591 250.866ZM148.053 252.507C147.5 252.507 147.055 252.618 146.719 252.84C146.389 253.057 146.146 253.385 145.993 253.823C145.844 254.262 145.765 254.812 145.753 255.473V255.755C145.753 256.456 145.825 257.052 145.967 257.542C146.115 258.026 146.357 258.396 146.694 258.653C147.035 258.904 147.497 259.029 148.078 259.029C148.568 259.029 148.973 258.895 149.292 258.627C149.617 258.359 149.859 257.978 150.019 257.482C150.178 256.986 150.258 256.402 150.258 255.73C150.258 254.71 150.076 253.917 149.711 253.353C149.352 252.789 148.799 252.507 148.053 252.507ZM156.652 247.207V250.55C156.652 250.897 156.64 251.236 156.618 251.567C156.6 251.897 156.581 252.154 156.558 252.336H156.669C156.868 252.006 157.113 251.735 157.404 251.524C157.695 251.307 158.019 251.145 158.378 251.037C158.743 250.929 159.131 250.874 159.541 250.874C160.265 250.874 160.88 250.997 161.387 251.242C161.894 251.481 162.282 251.855 162.55 252.362C162.823 252.869 162.96 253.527 162.96 254.336V260.508H160.951V254.712C160.951 253.977 160.8 253.427 160.498 253.063C160.196 252.692 159.729 252.507 159.096 252.507C158.487 252.507 158.002 252.635 157.643 252.892C157.29 253.142 157.036 253.516 156.883 254.011C156.729 254.502 156.652 255.1 156.652 255.807V260.508H154.643V247.207H156.652ZM164.345 251.045H166.533L168.473 256.448C168.559 256.693 168.636 256.935 168.704 257.174C168.778 257.408 168.841 257.639 168.892 257.867C168.949 258.094 168.995 258.322 169.029 258.55H169.08C169.137 258.254 169.217 257.924 169.32 257.559C169.428 257.188 169.548 256.818 169.679 256.448L171.542 251.045H173.705L169.644 261.807C169.411 262.423 169.123 262.947 168.781 263.38C168.445 263.819 168.046 264.149 167.584 264.371C167.123 264.599 166.596 264.713 166.003 264.713C165.718 264.713 165.47 264.696 165.259 264.662C165.049 264.634 164.869 264.602 164.721 264.568V262.961C164.841 262.99 164.992 263.015 165.174 263.038C165.356 263.061 165.544 263.072 165.738 263.072C166.097 263.072 166.408 263.001 166.67 262.858C166.932 262.716 167.154 262.514 167.337 262.252C167.519 261.995 167.67 261.702 167.79 261.371L168.123 260.482L164.345 251.045ZM181.5 257.807C181.5 258.428 181.349 258.952 181.047 259.379C180.745 259.807 180.304 260.132 179.722 260.354C179.147 260.57 178.44 260.679 177.603 260.679C176.941 260.679 176.372 260.63 175.893 260.533C175.42 260.442 174.973 260.3 174.551 260.106V258.371C175.001 258.582 175.505 258.764 176.064 258.918C176.628 259.072 177.161 259.149 177.662 259.149C178.323 259.149 178.799 259.046 179.09 258.841C179.38 258.63 179.526 258.351 179.526 258.003C179.526 257.798 179.466 257.616 179.346 257.456C179.232 257.291 179.016 257.123 178.697 256.952C178.383 256.775 177.922 256.564 177.312 256.319C176.714 256.08 176.209 255.841 175.799 255.601C175.389 255.362 175.078 255.074 174.867 254.738C174.656 254.396 174.551 253.96 174.551 253.43C174.551 252.593 174.881 251.957 175.542 251.524C176.209 251.085 177.09 250.866 178.184 250.866C178.765 250.866 179.312 250.926 179.825 251.045C180.344 251.159 180.851 251.327 181.346 251.55L180.714 253.063C180.287 252.875 179.856 252.721 179.423 252.601C178.996 252.476 178.56 252.413 178.115 252.413C177.597 252.413 177.201 252.493 176.927 252.652C176.659 252.812 176.525 253.04 176.525 253.336C176.525 253.558 176.591 253.746 176.722 253.9C176.853 254.054 177.078 254.208 177.397 254.362C177.722 254.516 178.172 254.707 178.748 254.935C179.312 255.151 179.799 255.379 180.21 255.618C180.626 255.852 180.945 256.14 181.167 256.482C181.389 256.824 181.5 257.265 181.5 257.807ZM185.68 251.045V260.508H183.671V251.045H185.68ZM184.689 247.421C184.996 247.421 185.261 247.504 185.484 247.669C185.712 247.834 185.826 248.119 185.826 248.524C185.826 248.923 185.712 249.208 185.484 249.379C185.261 249.544 184.996 249.626 184.689 249.626C184.37 249.626 184.099 249.544 183.877 249.379C183.66 249.208 183.552 248.923 183.552 248.524C183.552 248.119 183.66 247.834 183.877 247.669C184.099 247.504 184.37 247.421 184.689 247.421ZM192.373 260.679C191.479 260.679 190.704 260.505 190.048 260.157C189.393 259.81 188.889 259.277 188.535 258.559C188.182 257.841 188.005 256.929 188.005 255.824C188.005 254.672 188.199 253.732 188.586 253.003C188.974 252.273 189.51 251.735 190.193 251.387C190.883 251.04 191.672 250.866 192.561 250.866C193.125 250.866 193.635 250.923 194.091 251.037C194.553 251.145 194.943 251.279 195.262 251.439L194.664 253.046C194.316 252.903 193.96 252.783 193.596 252.687C193.231 252.59 192.88 252.541 192.544 252.541C191.991 252.541 191.53 252.664 191.159 252.909C190.795 253.154 190.521 253.519 190.339 254.003C190.162 254.487 190.074 255.088 190.074 255.807C190.074 256.502 190.165 257.089 190.347 257.567C190.53 258.04 190.8 258.399 191.159 258.644C191.518 258.884 191.96 259.003 192.484 259.003C193.003 259.003 193.467 258.941 193.878 258.815C194.288 258.69 194.675 258.528 195.04 258.328V260.072C194.681 260.277 194.296 260.428 193.886 260.525C193.476 260.627 192.972 260.679 192.373 260.679ZM199.271 251.045V260.508H197.263V251.045H199.271ZM198.28 247.421C198.587 247.421 198.852 247.504 199.075 247.669C199.303 247.834 199.417 248.119 199.417 248.524C199.417 248.923 199.303 249.208 199.075 249.379C198.852 249.544 198.587 249.626 198.28 249.626C197.961 249.626 197.69 249.544 197.468 249.379C197.251 249.208 197.143 248.923 197.143 248.524C197.143 248.119 197.251 247.834 197.468 247.669C197.69 247.504 197.961 247.421 198.28 247.421ZM205.862 250.866C207.058 250.866 207.962 251.131 208.571 251.661C209.187 252.191 209.495 253.017 209.495 254.14V260.508H208.067L207.682 259.166H207.614C207.346 259.508 207.07 259.79 206.785 260.012C206.5 260.234 206.169 260.4 205.793 260.508C205.423 260.622 204.97 260.679 204.434 260.679C203.87 260.679 203.366 260.576 202.921 260.371C202.477 260.16 202.126 259.841 201.87 259.414C201.613 258.986 201.485 258.445 201.485 257.79C201.485 256.815 201.847 256.083 202.571 255.593C203.3 255.103 204.4 254.832 205.87 254.781L207.511 254.721V254.225C207.511 253.57 207.358 253.103 207.05 252.823C206.748 252.544 206.32 252.404 205.768 252.404C205.295 252.404 204.836 252.473 204.391 252.61C203.947 252.746 203.514 252.914 203.092 253.114L202.443 251.695C202.904 251.45 203.428 251.251 204.015 251.097C204.608 250.943 205.223 250.866 205.862 250.866ZM207.503 255.986L206.281 256.029C205.278 256.063 204.574 256.234 204.169 256.542C203.765 256.849 203.562 257.271 203.562 257.807C203.562 258.274 203.702 258.616 203.981 258.832C204.26 259.043 204.628 259.149 205.084 259.149C205.779 259.149 206.355 258.952 206.81 258.559C207.272 258.16 207.503 257.576 207.503 256.807V255.986ZM217.239 250.866C218.304 250.866 219.134 251.142 219.726 251.695C220.325 252.242 220.624 253.122 220.624 254.336V260.508H218.615V254.712C218.615 253.977 218.464 253.427 218.162 253.063C217.86 252.692 217.393 252.507 216.76 252.507C215.843 252.507 215.204 252.789 214.845 253.353C214.492 253.917 214.315 254.735 214.315 255.807V260.508H212.307V251.045H213.871L214.153 252.328H214.264C214.469 251.997 214.723 251.726 215.025 251.515C215.333 251.299 215.675 251.137 216.051 251.028C216.433 250.92 216.829 250.866 217.239 250.866Z" fill="#C9E4D2"/>
<path d="M301.429 175.715C301.429 187.155 292.155 196.429 280.715 196.429C269.274 196.429 260 187.155 260 175.715C260 164.274 269.274 155 280.715 155C292.155 155 301.429 164.274 301.429 175.715Z" fill="#C9E4D2"/>
<path d="M301.429 368.648C301.429 380.089 292.155 389.363 280.715 389.363C269.274 389.363 260 380.089 260 368.648C260 357.208 269.274 347.934 280.715 347.934C292.155 347.934 301.429 357.208 301.429 368.648Z" fill="#C9E4D2"/>
<path d="M80.747 364.508H78.6869V353.755H75.0285V352.011H84.3969V353.755H80.747V364.508ZM89.8162 354.866C91.0129 354.866 91.9161 355.131 92.5259 355.661C93.1413 356.191 93.449 357.017 93.449 358.14V364.508H92.0216L91.6369 363.166H91.5685C91.3007 363.508 91.0243 363.79 90.7394 364.012C90.4545 364.234 90.1239 364.4 89.7478 364.508C89.3774 364.622 88.9244 364.679 88.3887 364.679C87.8246 364.679 87.3202 364.576 86.8758 364.371C86.4313 364.16 86.0808 363.841 85.8244 363.414C85.5679 362.986 85.4397 362.445 85.4397 361.79C85.4397 360.815 85.8016 360.083 86.5253 359.593C87.2547 359.103 88.3545 358.832 89.8248 358.781L91.4659 358.721V358.225C91.4659 357.57 91.3121 357.103 91.0044 356.823C90.7023 356.544 90.275 356.404 89.7222 356.404C89.2492 356.404 88.7905 356.473 88.346 356.61C87.9015 356.746 87.4684 356.914 87.0467 357.114L86.3971 355.695C86.8587 355.45 87.3829 355.251 87.9699 355.097C88.5625 354.943 89.178 354.866 89.8162 354.866ZM91.4574 359.986L90.2351 360.029C89.2321 360.063 88.5283 360.234 88.1237 360.542C87.7191 360.849 87.5168 361.271 87.5168 361.807C87.5168 362.274 87.6565 362.616 87.9357 362.832C88.2149 363.043 88.5825 363.149 89.0384 363.149C89.7336 363.149 90.3091 362.952 90.765 362.559C91.2266 362.16 91.4574 361.576 91.4574 360.807V359.986ZM101.116 354.866C102.239 354.866 103.139 355.276 103.818 356.097C104.501 356.917 104.843 358.137 104.843 359.755C104.843 360.827 104.684 361.73 104.365 362.465C104.051 363.194 103.61 363.747 103.04 364.123C102.476 364.494 101.817 364.679 101.065 364.679C100.586 364.679 100.17 364.616 99.8172 364.491C99.4639 364.365 99.1619 364.203 98.9111 364.003C98.6604 363.798 98.4495 363.576 98.2786 363.337H98.1589C98.1874 363.565 98.213 363.818 98.2358 364.098C98.2643 364.371 98.2786 364.622 98.2786 364.85V368.705H96.2613V355.045H97.9025L98.1845 356.353H98.2786C98.4552 356.085 98.6689 355.837 98.9197 355.61C99.1761 355.382 99.4838 355.202 99.8428 355.071C100.208 354.934 100.632 354.866 101.116 354.866ZM100.578 356.507C100.025 356.507 99.5807 356.618 99.2445 356.84C98.914 357.057 98.6718 357.385 98.5179 357.823C98.3698 358.262 98.29 358.812 98.2786 359.473V359.755C98.2786 360.456 98.3498 361.052 98.4923 361.542C98.6404 362.026 98.8826 362.396 99.2188 362.653C99.5608 362.904 100.022 363.029 100.604 363.029C101.094 363.029 101.498 362.895 101.817 362.627C102.142 362.359 102.384 361.978 102.544 361.482C102.704 360.986 102.783 360.402 102.783 359.73C102.783 358.71 102.601 357.917 102.236 357.353C101.877 356.789 101.324 356.507 100.578 356.507ZM112.024 354.866C113.146 354.866 114.046 355.276 114.725 356.097C115.408 356.917 115.75 358.137 115.75 359.755C115.75 360.827 115.591 361.73 115.272 362.465C114.958 363.194 114.517 363.747 113.947 364.123C113.383 364.494 112.724 364.679 111.972 364.679C111.494 364.679 111.078 364.616 110.724 364.491C110.371 364.365 110.069 364.203 109.818 364.003C109.567 363.798 109.357 363.576 109.186 363.337H109.066C109.094 363.565 109.12 363.818 109.143 364.098C109.171 364.371 109.186 364.622 109.186 364.85V368.705H107.168V355.045H108.81L109.092 356.353H109.186C109.362 356.085 109.576 355.837 109.827 355.61C110.083 355.382 110.391 355.202 110.75 355.071C111.115 354.934 111.539 354.866 112.024 354.866ZM111.485 356.507C110.932 356.507 110.488 356.618 110.152 356.84C109.821 357.057 109.579 357.385 109.425 357.823C109.277 358.262 109.197 358.812 109.186 359.473V359.755C109.186 360.456 109.257 361.052 109.399 361.542C109.547 362.026 109.79 362.396 110.126 362.653C110.468 362.904 110.929 363.029 111.511 363.029C112.001 363.029 112.405 362.895 112.724 362.627C113.049 362.359 113.291 361.978 113.451 361.482C113.611 360.986 113.69 360.402 113.69 359.73C113.69 358.71 113.508 357.917 113.143 357.353C112.784 356.789 112.231 356.507 111.485 356.507ZM121.845 354.866C122.688 354.866 123.412 355.04 124.016 355.387C124.62 355.735 125.085 356.228 125.409 356.866C125.734 357.504 125.897 358.268 125.897 359.157V360.234H119.58C119.603 361.151 119.848 361.858 120.315 362.354C120.788 362.85 121.449 363.097 122.298 363.097C122.902 363.097 123.443 363.04 123.922 362.926C124.406 362.807 124.905 362.633 125.418 362.405V364.038C124.945 364.26 124.463 364.422 123.973 364.525C123.483 364.627 122.896 364.679 122.213 364.679C121.284 364.679 120.466 364.499 119.759 364.14C119.058 363.776 118.508 363.234 118.11 362.516C117.716 361.798 117.52 360.906 117.52 359.841C117.52 358.781 117.699 357.88 118.058 357.14C118.417 356.399 118.922 355.835 119.571 355.447C120.221 355.06 120.979 354.866 121.845 354.866ZM121.845 356.379C121.212 356.379 120.7 356.584 120.306 356.994C119.919 357.405 119.691 358.006 119.623 358.798H123.931C123.925 358.325 123.845 357.906 123.691 357.541C123.543 357.177 123.315 356.892 123.007 356.687C122.705 356.481 122.318 356.379 121.845 356.379ZM132.957 354.866C133.117 354.866 133.291 354.874 133.479 354.891C133.667 354.909 133.829 354.931 133.966 354.96L133.778 356.84C133.658 356.806 133.51 356.781 133.333 356.763C133.162 356.746 133.008 356.738 132.872 356.738C132.513 356.738 132.171 356.798 131.846 356.917C131.521 357.031 131.233 357.208 130.983 357.447C130.732 357.681 130.535 357.974 130.393 358.328C130.25 358.681 130.179 359.091 130.179 359.559V364.508H128.162V355.045H129.735L130.008 356.712H130.102C130.29 356.376 130.524 356.068 130.803 355.789C131.082 355.51 131.401 355.288 131.76 355.122C132.125 354.951 132.524 354.866 132.957 354.866ZM137.727 355.045V364.508H135.718V355.045H137.727ZM136.735 351.421C137.043 351.421 137.308 351.504 137.53 351.669C137.758 351.834 137.872 352.119 137.872 352.524C137.872 352.923 137.758 353.208 137.53 353.379C137.308 353.544 137.043 353.626 136.735 353.626C136.416 353.626 136.146 353.544 135.923 353.379C135.707 353.208 135.598 352.923 135.598 352.524C135.598 352.119 135.707 351.834 135.923 351.669C136.146 351.504 136.416 351.421 136.735 351.421ZM145.54 354.866C146.605 354.866 147.434 355.142 148.027 355.695C148.625 356.242 148.925 357.122 148.925 358.336V364.508H146.916V358.712C146.916 357.977 146.765 357.427 146.463 357.063C146.161 356.692 145.693 356.507 145.061 356.507C144.143 356.507 143.505 356.789 143.146 357.353C142.793 357.917 142.616 358.735 142.616 359.807V364.508H140.607V355.045H142.172L142.454 356.328H142.565C142.77 355.997 143.024 355.726 143.326 355.515C143.633 355.299 143.975 355.137 144.351 355.028C144.733 354.92 145.129 354.866 145.54 354.866ZM154.438 368.713C153.156 368.713 152.173 368.483 151.489 368.021C150.805 367.559 150.463 366.913 150.463 366.081C150.463 365.499 150.645 365.006 151.01 364.602C151.375 364.203 151.896 363.927 152.574 363.773C152.318 363.659 152.096 363.482 151.908 363.243C151.725 362.998 151.634 362.727 151.634 362.431C151.634 362.077 151.734 361.775 151.933 361.525C152.133 361.274 152.432 361.032 152.831 360.798C152.335 360.587 151.936 360.245 151.634 359.772C151.338 359.294 151.19 358.732 151.19 358.088C151.19 357.405 151.335 356.823 151.626 356.345C151.916 355.86 152.341 355.493 152.899 355.242C153.458 354.986 154.133 354.857 154.925 354.857C155.096 354.857 155.281 354.869 155.481 354.891C155.686 354.909 155.874 354.931 156.045 354.96C156.222 354.983 156.355 355.008 156.447 355.037H159.72V356.157L158.113 356.456C158.267 356.672 158.39 356.92 158.481 357.199C158.572 357.473 158.618 357.772 158.618 358.097C158.618 359.077 158.279 359.849 157.601 360.413C156.928 360.972 155.999 361.251 154.814 361.251C154.529 361.24 154.253 361.217 153.985 361.183C153.78 361.308 153.623 361.448 153.515 361.602C153.406 361.75 153.352 361.918 153.352 362.106C153.352 362.26 153.406 362.385 153.515 362.482C153.623 362.573 153.783 362.642 153.993 362.687C154.21 362.733 154.472 362.756 154.78 362.756H156.412C157.45 362.756 158.242 362.975 158.789 363.414C159.336 363.852 159.609 364.496 159.609 365.346C159.609 366.423 159.165 367.252 158.276 367.833C157.387 368.42 156.108 368.713 154.438 368.713ZM154.515 367.303C155.216 367.303 155.806 367.235 156.284 367.098C156.763 366.961 157.125 366.764 157.37 366.508C157.615 366.257 157.737 365.958 157.737 365.61C157.737 365.303 157.66 365.066 157.507 364.901C157.353 364.736 157.122 364.622 156.814 364.559C156.506 364.496 156.125 364.465 155.669 364.465H154.181C153.811 364.465 153.483 364.522 153.198 364.636C152.914 364.756 152.691 364.927 152.532 365.149C152.378 365.371 152.301 365.639 152.301 365.952C152.301 366.385 152.492 366.719 152.874 366.952C153.261 367.186 153.808 367.303 154.515 367.303ZM154.908 359.935C155.495 359.935 155.931 359.775 156.216 359.456C156.501 359.131 156.643 358.675 156.643 358.088C156.643 357.45 156.495 356.971 156.199 356.652C155.908 356.333 155.475 356.174 154.899 356.174C154.335 356.174 153.905 356.336 153.609 356.661C153.318 356.986 153.173 357.467 153.173 358.105C153.173 358.681 153.318 359.131 153.609 359.456C153.905 359.775 154.338 359.935 154.908 359.935ZM161.156 363.448C161.156 362.981 161.276 362.653 161.515 362.465C161.761 362.271 162.057 362.174 162.404 362.174C162.752 362.174 163.048 362.271 163.293 362.465C163.544 362.653 163.67 362.981 163.67 363.448C163.67 363.904 163.544 364.234 163.293 364.439C163.048 364.639 162.752 364.739 162.404 364.739C162.057 364.739 161.761 364.639 161.515 364.439C161.276 364.234 161.156 363.904 161.156 363.448ZM161.156 356.131C161.156 355.658 161.276 355.325 161.515 355.131C161.761 354.937 162.057 354.84 162.404 354.84C162.752 354.84 163.048 354.937 163.293 355.131C163.544 355.325 163.67 355.658 163.67 356.131C163.67 356.581 163.544 356.909 163.293 357.114C163.048 357.313 162.752 357.413 162.404 357.413C162.057 357.413 161.761 357.313 161.515 357.114C161.276 356.909 161.156 356.581 161.156 356.131ZM177.158 361.807C177.158 362.428 177.007 362.952 176.705 363.379C176.403 363.807 175.961 364.132 175.38 364.354C174.805 364.57 174.098 364.679 173.26 364.679C172.599 364.679 172.029 364.63 171.551 364.533C171.078 364.442 170.63 364.3 170.209 364.106V362.371C170.659 362.582 171.163 362.764 171.722 362.918C172.286 363.072 172.819 363.149 173.32 363.149C173.981 363.149 174.457 363.046 174.748 362.841C175.038 362.63 175.183 362.351 175.183 362.003C175.183 361.798 175.124 361.616 175.004 361.456C174.89 361.291 174.673 361.123 174.354 360.952C174.041 360.775 173.579 360.564 172.97 360.319C172.371 360.08 171.867 359.841 171.457 359.601C171.046 359.362 170.736 359.074 170.525 358.738C170.314 358.396 170.209 357.96 170.209 357.43C170.209 356.593 170.539 355.957 171.2 355.524C171.867 355.085 172.747 354.866 173.841 354.866C174.423 354.866 174.97 354.926 175.483 355.045C176.001 355.159 176.508 355.327 177.004 355.55L176.372 357.063C175.944 356.875 175.514 356.721 175.081 356.601C174.654 356.476 174.218 356.413 173.773 356.413C173.255 356.413 172.858 356.493 172.585 356.652C172.317 356.812 172.183 357.04 172.183 357.336C172.183 357.558 172.249 357.746 172.38 357.9C172.511 358.054 172.736 358.208 173.055 358.362C173.38 358.516 173.83 358.707 174.406 358.935C174.97 359.151 175.457 359.379 175.867 359.618C176.283 359.852 176.602 360.14 176.825 360.482C177.047 360.824 177.158 361.265 177.158 361.807ZM181.346 364.508H179.329V351.207H181.346V364.508ZM192.595 359.755C192.595 360.542 192.493 361.24 192.288 361.849C192.083 362.459 191.783 362.975 191.39 363.397C190.997 363.813 190.524 364.132 189.971 364.354C189.418 364.57 188.794 364.679 188.099 364.679C187.45 364.679 186.854 364.57 186.313 364.354C185.771 364.132 185.301 363.813 184.902 363.397C184.509 362.975 184.204 362.459 183.988 361.849C183.771 361.24 183.663 360.542 183.663 359.755C183.663 358.712 183.842 357.829 184.201 357.105C184.566 356.376 185.085 355.82 185.757 355.439C186.43 355.057 187.23 354.866 188.159 354.866C189.031 354.866 189.8 355.057 190.467 355.439C191.134 355.82 191.655 356.376 192.031 357.105C192.407 357.835 192.595 358.718 192.595 359.755ZM185.732 359.755C185.732 360.445 185.814 361.035 185.979 361.525C186.15 362.015 186.412 362.391 186.766 362.653C187.119 362.909 187.575 363.038 188.133 363.038C188.692 363.038 189.148 362.909 189.501 362.653C189.854 362.391 190.114 362.015 190.279 361.525C190.444 361.035 190.527 360.445 190.527 359.755C190.527 359.066 190.444 358.482 190.279 358.003C190.114 357.519 189.854 357.151 189.501 356.9C189.148 356.644 188.689 356.516 188.125 356.516C187.293 356.516 186.686 356.795 186.304 357.353C185.922 357.912 185.732 358.712 185.732 359.755ZM202.639 364.499L201.442 360.097C201.385 359.881 201.317 359.618 201.237 359.311C201.158 359.003 201.078 358.687 200.998 358.362C200.918 358.031 200.844 357.727 200.776 357.447C200.713 357.168 200.665 356.952 200.63 356.798H200.562C200.534 356.952 200.488 357.168 200.425 357.447C200.363 357.727 200.291 358.031 200.212 358.362C200.132 358.692 200.052 359.014 199.972 359.328C199.898 359.641 199.83 359.909 199.767 360.131L198.511 364.499H196.305L193.655 355.037H195.69L196.921 359.738C197 360.057 197.077 360.402 197.151 360.772C197.231 361.143 197.3 361.496 197.357 361.832C197.414 362.169 197.456 362.445 197.485 362.661H197.553C197.576 362.508 197.607 362.314 197.647 362.08C197.687 361.841 197.733 361.593 197.784 361.337C197.835 361.074 197.887 360.829 197.938 360.601C197.989 360.368 198.038 360.18 198.083 360.037L199.536 355.037H201.733L203.126 360.037C203.189 360.254 203.257 360.527 203.332 360.858C203.406 361.183 203.471 361.51 203.528 361.841C203.591 362.166 203.631 362.436 203.648 362.653H203.716C203.739 362.459 203.779 362.197 203.836 361.867C203.899 361.53 203.97 361.174 204.05 360.798C204.129 360.416 204.212 360.063 204.297 359.738L205.554 355.037H207.554L204.887 364.499H202.639ZM211.196 364.508H209.178V351.207H211.196V364.508ZM212.64 355.045H214.828L216.769 360.448C216.854 360.693 216.931 360.935 217 361.174C217.074 361.408 217.136 361.639 217.188 361.867C217.245 362.094 217.29 362.322 217.324 362.55H217.376C217.433 362.254 217.512 361.924 217.615 361.559C217.723 361.188 217.843 360.818 217.974 360.448L219.837 355.045H222L217.94 365.807C217.706 366.423 217.418 366.947 217.076 367.38C216.74 367.819 216.341 368.149 215.88 368.371C215.418 368.599 214.891 368.713 214.298 368.713C214.013 368.713 213.766 368.696 213.555 368.662C213.344 368.634 213.164 368.602 213.016 368.568V366.961C213.136 366.99 213.287 367.015 213.469 367.038C213.652 367.061 213.84 367.072 214.033 367.072C214.392 367.072 214.703 367.001 214.965 366.858C215.227 366.716 215.449 366.514 215.632 366.252C215.814 365.995 215.965 365.702 216.085 365.371L216.418 364.482L212.64 355.045ZM61.7109 388.679C60.5826 388.679 59.6765 388.268 58.9927 387.448C58.3146 386.622 57.9755 385.405 57.9755 383.798C57.9755 382.174 58.3203 380.946 59.0098 380.114C59.705 379.282 60.6197 378.866 61.7537 378.866C62.2323 378.866 62.6512 378.931 63.0102 379.062C63.3692 379.188 63.6769 379.359 63.9334 379.575C64.1955 379.792 64.4177 380.034 64.6001 380.302H64.6941C64.6656 380.125 64.6314 379.872 64.5915 379.541C64.5574 379.205 64.5403 378.894 64.5403 378.609V375.207H66.5576V388.508H64.9847L64.6257 387.217H64.5403C64.3693 387.491 64.1528 387.739 63.8906 387.961C63.6342 388.177 63.3265 388.351 62.9675 388.482C62.6141 388.613 62.1953 388.679 61.7109 388.679ZM62.2751 387.046C63.1356 387.046 63.7425 386.798 64.0958 386.302C64.4491 385.807 64.6314 385.063 64.6428 384.071V383.807C64.6428 382.747 64.4719 381.935 64.13 381.37C63.7881 380.801 63.1641 380.516 62.258 380.516C61.5343 380.516 60.9815 380.809 60.5997 381.396C60.2236 381.977 60.0355 382.789 60.0355 383.832C60.0355 384.875 60.2236 385.673 60.5997 386.226C60.9815 386.773 61.54 387.046 62.2751 387.046ZM73.2078 378.866C74.0512 378.866 74.7749 379.04 75.3789 379.387C75.983 379.735 76.4474 380.228 76.7722 380.866C77.097 381.504 77.2594 382.268 77.2594 383.157V384.234H70.9426C70.9654 385.151 71.2104 385.858 71.6777 386.354C72.1507 386.85 72.8117 387.097 73.6608 387.097C74.2649 387.097 74.8062 387.04 75.2849 386.926C75.7693 386.807 76.2679 386.633 76.7808 386.405V388.038C76.3078 388.26 75.8263 388.422 75.3362 388.525C74.8461 388.627 74.2592 388.679 73.5753 388.679C72.6465 388.679 71.8287 388.499 71.1221 388.14C70.4212 387.776 69.8713 387.234 69.4724 386.516C69.0792 385.798 68.8826 384.906 68.8826 383.841C68.8826 382.781 69.0621 381.88 69.4211 381.14C69.7801 380.399 70.2844 379.835 70.934 379.447C71.5837 379.06 72.3416 378.866 73.2078 378.866ZM73.2078 380.379C72.5752 380.379 72.0624 380.584 71.6692 380.994C71.2817 381.405 71.0537 382.006 70.9853 382.798H75.2934C75.2877 382.325 75.208 381.906 75.0541 381.541C74.9059 381.177 74.678 380.892 74.3703 380.687C74.0683 380.481 73.6808 380.379 73.2078 380.379ZM83.337 388.679C82.4423 388.679 81.6673 388.505 81.0119 388.157C80.3566 387.81 79.8523 387.277 79.499 386.559C79.1457 385.841 78.969 384.929 78.969 383.824C78.969 382.672 79.1628 381.732 79.5503 381.003C79.9378 380.273 80.4734 379.735 81.1573 379.387C81.8468 379.04 82.636 378.866 83.525 378.866C84.0892 378.866 84.5992 378.923 85.0551 379.037C85.5167 379.145 85.907 379.279 86.2261 379.439L85.6278 381.046C85.2802 380.903 84.924 380.783 84.5593 380.687C84.1946 380.59 83.8441 380.541 83.5079 380.541C82.9552 380.541 82.4936 380.664 82.1232 380.909C81.7585 381.154 81.4849 381.519 81.3026 382.003C81.1259 382.487 81.0376 383.088 81.0376 383.807C81.0376 384.502 81.1288 385.089 81.3111 385.567C81.4935 386.04 81.7642 386.399 82.1232 386.644C82.4822 386.884 82.9238 387.003 83.4481 387.003C83.9666 387.003 84.4311 386.941 84.8414 386.815C85.2517 386.69 85.6392 386.528 86.0039 386.328V388.072C85.6449 388.277 85.2602 388.428 84.8499 388.525C84.4396 388.627 83.9353 388.679 83.337 388.679ZM93.0217 378.866C93.1812 378.866 93.355 378.874 93.5431 378.891C93.7311 378.909 93.8935 378.931 94.0303 378.96L93.8423 380.84C93.7226 380.806 93.5744 380.781 93.3978 380.763C93.2268 380.746 93.0729 380.738 92.9362 380.738C92.5772 380.738 92.2353 380.798 91.9104 380.917C91.5856 381.031 91.2978 381.208 91.0471 381.447C90.7964 381.681 90.5998 381.974 90.4573 382.328C90.3148 382.681 90.2436 383.091 90.2436 383.559V388.508H88.2263V379.045H89.7991L90.0727 380.712H90.1667C90.3547 380.376 90.5884 380.068 90.8676 379.789C91.1468 379.51 91.466 379.288 91.825 379.122C92.1897 378.951 92.5886 378.866 93.0217 378.866ZM99.5522 378.866C100.396 378.866 101.119 379.04 101.723 379.387C102.327 379.735 102.792 380.228 103.117 380.866C103.441 381.504 103.604 382.268 103.604 383.157V384.234H97.287C97.3098 385.151 97.5549 385.858 98.0221 386.354C98.4951 386.85 99.1562 387.097 100.005 387.097C100.609 387.097 101.151 387.04 101.629 386.926C102.114 386.807 102.612 386.633 103.125 386.405V388.038C102.652 388.26 102.171 388.422 101.681 388.525C101.191 388.627 100.604 388.679 99.9198 388.679C98.9909 388.679 98.1732 388.499 97.4665 388.14C96.7656 387.776 96.2157 387.234 95.8168 386.516C95.4236 385.798 95.227 384.906 95.227 383.841C95.227 382.781 95.4065 381.88 95.7655 381.14C96.1245 380.399 96.6288 379.835 97.2785 379.447C97.9281 379.06 98.686 378.866 99.5522 378.866ZM99.5522 380.379C98.9197 380.379 98.4068 380.584 98.0136 380.994C97.6261 381.405 97.3982 382.006 97.3298 382.798H101.638C101.632 382.325 101.552 381.906 101.399 381.541C101.25 381.177 101.022 380.892 100.715 380.687C100.413 380.481 100.025 380.379 99.5522 380.379ZM109.579 378.866C110.776 378.866 111.679 379.131 112.288 379.661C112.904 380.191 113.212 381.017 113.212 382.14V388.508H111.784L111.4 387.166H111.331C111.063 387.508 110.787 387.79 110.502 388.012C110.217 388.234 109.887 388.4 109.51 388.508C109.14 388.622 108.687 388.679 108.151 388.679C107.587 388.679 107.083 388.576 106.638 388.371C106.194 388.16 105.843 387.841 105.587 387.414C105.331 386.986 105.202 386.445 105.202 385.79C105.202 384.815 105.564 384.083 106.288 383.593C107.017 383.103 108.117 382.832 109.587 382.781L111.229 382.721V382.225C111.229 381.57 111.075 381.103 110.767 380.823C110.465 380.544 110.038 380.404 109.485 380.404C109.012 380.404 108.553 380.473 108.109 380.61C107.664 380.746 107.231 380.914 106.809 381.114L106.16 379.695C106.621 379.45 107.146 379.251 107.732 379.097C108.325 378.943 108.941 378.866 109.579 378.866ZM111.22 383.986L109.998 384.029C108.995 384.063 108.291 384.234 107.886 384.542C107.482 384.849 107.279 385.271 107.279 385.807C107.279 386.274 107.419 386.616 107.698 386.832C107.978 387.043 108.345 387.149 108.801 387.149C109.496 387.149 110.072 386.952 110.528 386.559C110.989 386.16 111.22 385.576 111.22 384.807V383.986ZM122.383 385.807C122.383 386.428 122.232 386.952 121.93 387.379C121.628 387.807 121.187 388.132 120.606 388.354C120.03 388.57 119.323 388.679 118.486 388.679C117.825 388.679 117.255 388.63 116.776 388.533C116.303 388.442 115.856 388.3 115.434 388.106V386.371C115.884 386.582 116.389 386.764 116.947 386.918C117.511 387.072 118.044 387.149 118.546 387.149C119.207 387.149 119.682 387.046 119.973 386.841C120.264 386.63 120.409 386.351 120.409 386.003C120.409 385.798 120.349 385.616 120.229 385.456C120.115 385.291 119.899 385.123 119.58 384.952C119.266 384.775 118.805 384.564 118.195 384.319C117.597 384.08 117.092 383.841 116.682 383.601C116.272 383.362 115.961 383.074 115.75 382.738C115.54 382.396 115.434 381.96 115.434 381.43C115.434 380.593 115.765 379.957 116.426 379.524C117.092 379.085 117.973 378.866 119.067 378.866C119.648 378.866 120.195 378.926 120.708 379.045C121.227 379.159 121.734 379.327 122.23 379.55L121.597 381.063C121.17 380.875 120.739 380.721 120.306 380.601C119.879 380.476 119.443 380.413 118.999 380.413C118.48 380.413 118.084 380.493 117.81 380.652C117.543 380.812 117.409 381.04 117.409 381.336C117.409 381.558 117.474 381.746 117.605 381.9C117.736 382.054 117.961 382.208 118.281 382.362C118.605 382.516 119.056 382.707 119.631 382.935C120.195 383.151 120.682 383.379 121.093 383.618C121.509 383.852 121.828 384.14 122.05 384.482C122.272 384.824 122.383 385.265 122.383 385.807ZM126.563 379.045V388.508H124.555V379.045H126.563ZM125.572 375.421C125.88 375.421 126.145 375.504 126.367 375.669C126.595 375.834 126.709 376.119 126.709 376.524C126.709 376.923 126.595 377.208 126.367 377.379C126.145 377.544 125.88 377.626 125.572 377.626C125.253 377.626 124.982 377.544 124.76 377.379C124.543 377.208 124.435 376.923 124.435 376.524C124.435 376.119 124.543 375.834 124.76 375.669C124.982 375.504 125.253 375.421 125.572 375.421ZM134.376 378.866C135.442 378.866 136.271 379.142 136.864 379.695C137.462 380.242 137.761 381.122 137.761 382.336V388.508H135.752V382.712C135.752 381.977 135.601 381.427 135.299 381.063C134.997 380.692 134.53 380.507 133.897 380.507C132.98 380.507 132.342 380.789 131.983 381.353C131.629 381.917 131.453 382.735 131.453 383.807V388.508H129.444V379.045H131.008L131.29 380.328H131.401C131.607 379.997 131.86 379.726 132.162 379.515C132.47 379.299 132.812 379.137 133.188 379.028C133.57 378.92 133.966 378.866 134.376 378.866ZM143.274 392.713C141.992 392.713 141.009 392.483 140.325 392.021C139.642 391.559 139.3 390.913 139.3 390.081C139.3 389.499 139.482 389.006 139.847 388.602C140.211 388.203 140.733 387.927 141.411 387.773C141.155 387.659 140.932 387.482 140.744 387.243C140.562 386.998 140.471 386.727 140.471 386.431C140.471 386.077 140.57 385.775 140.77 385.525C140.969 385.274 141.269 385.032 141.667 384.798C141.172 384.587 140.773 384.245 140.471 383.772C140.174 383.294 140.026 382.732 140.026 382.088C140.026 381.405 140.172 380.823 140.462 380.345C140.753 379.86 141.177 379.493 141.736 379.242C142.294 378.986 142.97 378.857 143.762 378.857C143.933 378.857 144.118 378.869 144.317 378.891C144.522 378.909 144.71 378.931 144.881 378.96C145.058 378.983 145.192 379.008 145.283 379.037H148.557V380.157L146.95 380.456C147.104 380.672 147.226 380.92 147.318 381.199C147.409 381.473 147.454 381.772 147.454 382.097C147.454 383.077 147.115 383.849 146.437 384.413C145.765 384.972 144.836 385.251 143.651 385.251C143.366 385.24 143.089 385.217 142.821 385.183C142.616 385.308 142.46 385.448 142.351 385.602C142.243 385.75 142.189 385.918 142.189 386.106C142.189 386.26 142.243 386.385 142.351 386.482C142.46 386.573 142.619 386.642 142.83 386.687C143.046 386.733 143.309 386.756 143.616 386.756H145.249C146.286 386.756 147.078 386.975 147.625 387.414C148.172 387.852 148.446 388.496 148.446 389.346C148.446 390.423 148.001 391.252 147.112 391.833C146.223 392.42 144.944 392.713 143.274 392.713ZM143.351 391.303C144.052 391.303 144.642 391.235 145.121 391.098C145.599 390.961 145.961 390.764 146.206 390.508C146.451 390.257 146.574 389.958 146.574 389.61C146.574 389.303 146.497 389.066 146.343 388.901C146.189 388.736 145.958 388.622 145.651 388.559C145.343 388.496 144.961 388.465 144.505 388.465H143.018C142.648 388.465 142.32 388.522 142.035 388.636C141.75 388.756 141.528 388.927 141.368 389.149C141.214 389.371 141.137 389.639 141.137 389.952C141.137 390.385 141.328 390.719 141.71 390.952C142.098 391.186 142.645 391.303 143.351 391.303ZM143.745 383.935C144.331 383.935 144.767 383.775 145.052 383.456C145.337 383.131 145.48 382.675 145.48 382.088C145.48 381.45 145.332 380.971 145.035 380.652C144.745 380.333 144.312 380.174 143.736 380.174C143.172 380.174 142.742 380.336 142.445 380.661C142.155 380.986 142.009 381.467 142.009 382.105C142.009 382.681 142.155 383.131 142.445 383.456C142.742 383.775 143.175 383.935 143.745 383.935ZM158.011 388.679C156.883 388.679 155.976 388.268 155.293 387.448C154.615 386.622 154.275 385.405 154.275 383.798C154.275 382.174 154.62 380.946 155.31 380.114C156.005 379.282 156.92 378.866 158.054 378.866C158.532 378.866 158.951 378.931 159.31 379.062C159.669 379.188 159.977 379.359 160.233 379.575C160.495 379.792 160.718 380.034 160.9 380.302H160.994C160.966 380.125 160.931 379.872 160.891 379.541C160.857 379.205 160.84 378.894 160.84 378.609V375.207H162.857V388.508H161.285L160.926 387.217H160.84C160.669 387.491 160.453 387.739 160.191 387.961C159.934 388.177 159.626 388.351 159.267 388.482C158.914 388.613 158.495 388.679 158.011 388.679ZM158.575 387.046C159.436 387.046 160.042 386.798 160.396 386.302C160.749 385.807 160.931 385.063 160.943 384.071V383.807C160.943 382.747 160.772 381.935 160.43 381.37C160.088 380.801 159.464 380.516 158.558 380.516C157.834 380.516 157.281 380.809 156.9 381.396C156.524 381.977 156.335 382.789 156.335 383.832C156.335 384.875 156.524 385.673 156.9 386.226C157.281 386.773 157.84 387.046 158.575 387.046ZM174.115 383.755C174.115 384.542 174.012 385.24 173.807 385.849C173.602 386.459 173.303 386.975 172.91 387.397C172.517 387.813 172.044 388.132 171.491 388.354C170.938 388.57 170.314 388.679 169.619 388.679C168.969 388.679 168.374 388.57 167.832 388.354C167.291 388.132 166.821 387.813 166.422 387.397C166.029 386.975 165.724 386.459 165.507 385.849C165.291 385.24 165.183 384.542 165.183 383.755C165.183 382.712 165.362 381.829 165.721 381.105C166.086 380.376 166.604 379.82 167.277 379.439C167.949 379.057 168.75 378.866 169.679 378.866C170.551 378.866 171.32 379.057 171.987 379.439C172.653 379.82 173.175 380.376 173.551 381.105C173.927 381.835 174.115 382.718 174.115 383.755ZM167.251 383.755C167.251 384.445 167.334 385.035 167.499 385.525C167.67 386.015 167.932 386.391 168.285 386.653C168.639 386.909 169.095 387.038 169.653 387.038C170.211 387.038 170.667 386.909 171.021 386.653C171.374 386.391 171.633 386.015 171.799 385.525C171.964 385.035 172.046 384.445 172.046 383.755C172.046 383.066 171.964 382.482 171.799 382.003C171.633 381.519 171.374 381.151 171.021 380.9C170.667 380.644 170.209 380.516 169.644 380.516C168.813 380.516 168.206 380.795 167.824 381.353C167.442 381.912 167.251 382.712 167.251 383.755ZM182.783 385.807C182.783 386.428 182.631 386.952 182.329 387.379C182.027 387.807 181.586 388.132 181.005 388.354C180.429 388.57 179.722 388.679 178.885 388.679C178.224 388.679 177.654 388.63 177.175 388.533C176.702 388.442 176.255 388.3 175.833 388.106V386.371C176.283 386.582 176.788 386.764 177.346 386.918C177.91 387.072 178.443 387.149 178.945 387.149C179.606 387.149 180.081 387.046 180.372 386.841C180.663 386.63 180.808 386.351 180.808 386.003C180.808 385.798 180.748 385.616 180.628 385.456C180.514 385.291 180.298 385.123 179.979 384.952C179.665 384.775 179.204 384.564 178.594 384.319C177.996 384.08 177.491 383.841 177.081 383.601C176.671 383.362 176.36 383.074 176.149 382.738C175.939 382.396 175.833 381.96 175.833 381.43C175.833 380.593 176.164 379.957 176.825 379.524C177.491 379.085 178.372 378.866 179.466 378.866C180.047 378.866 180.594 378.926 181.107 379.045C181.626 379.159 182.133 379.327 182.629 379.55L181.996 381.063C181.569 380.875 181.138 380.721 180.705 380.601C180.278 380.476 179.842 380.413 179.398 380.413C178.879 380.413 178.483 380.493 178.209 380.652C177.942 380.812 177.808 381.04 177.808 381.336C177.808 381.558 177.873 381.746 178.004 381.9C178.135 382.054 178.36 382.208 178.68 382.362C179.004 382.516 179.455 382.707 180.03 382.935C180.594 383.151 181.081 383.379 181.492 383.618C181.908 383.852 182.227 384.14 182.449 384.482C182.671 384.824 182.783 385.265 182.783 385.807ZM188.663 378.866C189.86 378.866 190.763 379.131 191.373 379.661C191.989 380.191 192.296 381.017 192.296 382.14V388.508H190.869L190.484 387.166H190.416C190.148 387.508 189.872 387.79 189.587 388.012C189.302 388.234 188.971 388.4 188.595 388.508C188.225 388.622 187.772 388.679 187.236 388.679C186.672 388.679 186.167 388.576 185.723 388.371C185.278 388.16 184.928 387.841 184.672 387.414C184.415 386.986 184.287 386.445 184.287 385.79C184.287 384.815 184.649 384.083 185.373 383.593C186.102 383.103 187.202 382.832 188.672 382.781L190.313 382.721V382.225C190.313 381.57 190.159 381.103 189.852 380.823C189.55 380.544 189.122 380.404 188.569 380.404C188.096 380.404 187.638 380.473 187.193 380.61C186.749 380.746 186.316 380.914 185.894 381.114L185.244 379.695C185.706 379.45 186.23 379.251 186.817 379.097C187.41 378.943 188.025 378.866 188.663 378.866ZM190.305 383.986L189.082 384.029C188.079 384.063 187.376 384.234 186.971 384.542C186.566 384.849 186.364 385.271 186.364 385.807C186.364 386.274 186.504 386.616 186.783 386.832C187.062 387.043 187.43 387.149 187.886 387.149C188.581 387.149 189.156 386.952 189.612 386.559C190.074 386.16 190.305 385.576 190.305 384.807V383.986ZM197.81 392.713C196.527 392.713 195.544 392.483 194.861 392.021C194.177 391.559 193.835 390.913 193.835 390.081C193.835 389.499 194.017 389.006 194.382 388.602C194.747 388.203 195.268 387.927 195.946 387.773C195.69 387.659 195.468 387.482 195.279 387.243C195.097 386.998 195.006 386.727 195.006 386.431C195.006 386.077 195.106 385.775 195.305 385.525C195.505 385.274 195.804 385.032 196.203 384.798C195.707 384.587 195.308 384.245 195.006 383.772C194.71 383.294 194.561 382.732 194.561 382.088C194.561 381.405 194.707 380.823 194.997 380.345C195.288 379.86 195.713 379.493 196.271 379.242C196.829 378.986 197.505 378.857 198.297 378.857C198.468 378.857 198.653 378.869 198.852 378.891C199.058 378.909 199.246 378.931 199.417 378.96C199.593 378.983 199.727 379.008 199.818 379.037H203.092V380.157L201.485 380.456C201.639 380.672 201.762 380.92 201.853 381.199C201.944 381.473 201.99 381.772 201.99 382.097C201.99 383.077 201.65 383.849 200.972 384.413C200.3 384.972 199.371 385.251 198.186 385.251C197.901 385.24 197.624 385.217 197.357 385.183C197.151 385.308 196.995 385.448 196.886 385.602C196.778 385.75 196.724 385.918 196.724 386.106C196.724 386.26 196.778 386.385 196.886 386.482C196.995 386.573 197.154 386.642 197.365 386.687C197.582 386.733 197.844 386.756 198.152 386.756H199.784C200.821 386.756 201.613 386.975 202.16 387.414C202.708 387.852 202.981 388.496 202.981 389.346C202.981 390.423 202.537 391.252 201.648 391.833C200.759 392.42 199.479 392.713 197.81 392.713ZM197.887 391.303C198.587 391.303 199.177 391.235 199.656 391.098C200.135 390.961 200.496 390.764 200.742 390.508C200.987 390.257 201.109 389.958 201.109 389.61C201.109 389.303 201.032 389.066 200.878 388.901C200.724 388.736 200.494 388.622 200.186 388.559C199.878 388.496 199.496 388.465 199.04 388.465H197.553C197.183 388.465 196.855 388.522 196.57 388.636C196.285 388.756 196.063 388.927 195.903 389.149C195.75 389.371 195.673 389.639 195.673 389.952C195.673 390.385 195.864 390.719 196.245 390.952C196.633 391.186 197.18 391.303 197.887 391.303ZM198.28 383.935C198.867 383.935 199.303 383.775 199.588 383.456C199.872 383.131 200.015 382.675 200.015 382.088C200.015 381.45 199.867 380.971 199.57 380.652C199.28 380.333 198.847 380.174 198.271 380.174C197.707 380.174 197.277 380.336 196.98 380.661C196.69 380.986 196.545 381.467 196.545 382.105C196.545 382.681 196.69 383.131 196.98 383.456C197.277 383.775 197.71 383.935 198.28 383.935ZM208.588 378.866C209.432 378.866 210.156 379.04 210.76 379.387C211.364 379.735 211.828 380.228 212.153 380.866C212.478 381.504 212.64 382.268 212.64 383.157V384.234H206.323C206.346 385.151 206.591 385.858 207.058 386.354C207.531 386.85 208.192 387.097 209.041 387.097C209.646 387.097 210.187 387.04 210.666 386.926C211.15 386.807 211.649 386.633 212.161 386.405V388.038C211.688 388.26 211.207 388.422 210.717 388.525C210.227 388.627 209.64 388.679 208.956 388.679C208.027 388.679 207.209 388.499 206.503 388.14C205.802 387.776 205.252 387.234 204.853 386.516C204.46 385.798 204.263 384.906 204.263 383.841C204.263 382.781 204.443 381.88 204.802 381.14C205.161 380.399 205.665 379.835 206.315 379.447C206.964 379.06 207.722 378.866 208.588 378.866ZM208.588 380.379C207.956 380.379 207.443 380.584 207.05 380.994C206.662 381.405 206.434 382.006 206.366 382.798H210.674C210.668 382.325 210.589 381.906 210.435 381.541C210.287 381.177 210.059 380.892 209.751 380.687C209.449 380.481 209.061 380.379 208.588 380.379ZM221.265 385.807C221.265 386.428 221.114 386.952 220.812 387.379C220.51 387.807 220.068 388.132 219.487 388.354C218.911 388.57 218.205 388.679 217.367 388.679C216.706 388.679 216.136 388.63 215.658 388.533C215.185 388.442 214.737 388.3 214.315 388.106V386.371C214.766 386.582 215.27 386.764 215.828 386.918C216.393 387.072 216.925 387.149 217.427 387.149C218.088 387.149 218.564 387.046 218.854 386.841C219.145 386.63 219.29 386.351 219.29 386.003C219.29 385.798 219.23 385.616 219.111 385.456C218.997 385.291 218.78 385.123 218.461 384.952C218.148 384.775 217.686 384.564 217.076 384.319C216.478 384.08 215.974 383.841 215.563 383.601C215.153 383.362 214.843 383.074 214.632 382.738C214.421 382.396 214.315 381.96 214.315 381.43C214.315 380.593 214.646 379.957 215.307 379.524C215.974 379.085 216.854 378.866 217.948 378.866C218.53 378.866 219.077 378.926 219.59 379.045C220.108 379.159 220.615 379.327 221.111 379.55L220.478 381.063C220.051 380.875 219.621 380.721 219.188 380.601C218.76 380.476 218.324 380.413 217.88 380.413C217.361 380.413 216.965 380.493 216.692 380.652C216.424 380.812 216.29 381.04 216.29 381.336C216.29 381.558 216.356 381.746 216.487 381.9C216.618 382.054 216.843 382.208 217.162 382.362C217.487 382.516 217.937 382.707 218.512 382.935C219.077 383.151 219.564 383.379 219.974 383.618C220.39 383.852 220.709 384.14 220.932 384.482C221.154 384.824 221.265 385.265 221.265 385.807Z" fill="#C9E4D2"/>
</svg>
