<svg width="303" height="493" viewBox="0 0 303 493" fill="none" xmlns="http://www.w3.org/2000/svg">
<path d="M300.833 20.9165C300.833 32.4683 291.468 41.8329 279.916 41.8329C268.365 41.8329 259 32.4683 259 20.9165C259 9.36462 268.365 0 279.916 0C291.468 0 300.833 9.36462 300.833 20.9165Z" fill="#CEDAEF"/>
<path d="M123.49 25H114.945V23.4723L118.216 20.1581C118.849 19.5137 119.37 18.9584 119.779 18.4924C120.187 18.0206 120.489 17.5746 120.685 17.1546C120.886 16.7346 120.987 16.2771 120.987 15.7823C120.987 15.1724 120.811 14.7121 120.46 14.4014C120.109 14.0849 119.646 13.9267 119.071 13.9267C118.524 13.9267 118.018 14.036 117.552 14.2546C117.092 14.4675 116.614 14.7725 116.119 15.1695L115.006 13.8317C115.357 13.5325 115.731 13.2592 116.128 13.0118C116.531 12.7644 116.979 12.5688 117.474 12.4249C117.969 12.2753 118.533 12.2005 119.166 12.2005C119.966 12.2005 120.656 12.3444 121.237 12.6321C121.818 12.914 122.264 13.3081 122.575 13.8145C122.891 14.3208 123.05 14.9106 123.05 15.5838C123.05 16.2627 122.914 16.8899 122.644 17.4653C122.374 18.0407 121.988 18.6103 121.488 19.1742C120.987 19.7323 120.391 20.3394 119.701 20.9953L117.517 23.1271V23.2221H123.49V25ZM133.605 18.6823C133.605 19.7007 133.525 20.6127 133.364 21.4182C133.208 22.218 132.961 22.897 132.621 23.4551C132.282 24.0132 131.839 24.439 131.292 24.7324C130.746 25.0259 130.084 25.1726 129.307 25.1726C128.335 25.1726 127.532 24.9166 126.899 24.4045C126.266 23.8866 125.797 23.1444 125.492 22.1777C125.187 21.2053 125.035 20.0402 125.035 18.6823C125.035 17.3243 125.173 16.1621 125.449 15.1954C125.731 14.223 126.186 13.4779 126.813 12.96C127.44 12.4422 128.271 12.1833 129.307 12.1833C130.285 12.1833 131.091 12.4422 131.724 12.96C132.362 13.4721 132.834 14.2144 133.139 15.1868C133.45 16.1534 133.605 17.3186 133.605 18.6823ZM127.08 18.6823C127.08 19.7467 127.149 20.6357 127.287 21.3492C127.431 22.0626 127.667 22.5978 127.995 22.9545C128.323 23.3055 128.76 23.481 129.307 23.481C129.854 23.481 130.291 23.3055 130.619 22.9545C130.947 22.6035 131.183 22.0713 131.327 21.3578C131.476 20.6443 131.551 19.7525 131.551 18.6823C131.551 17.6235 131.479 16.7374 131.335 16.024C131.191 15.3105 130.956 14.7754 130.628 14.4186C130.3 14.0561 129.859 13.8749 129.307 13.8749C128.755 13.8749 128.314 14.0561 127.987 14.4186C127.664 14.7754 127.431 15.3105 127.287 16.024C127.149 16.7374 127.08 17.6235 127.08 18.6823ZM144.204 18.1385L147.199 12.3818H149.434L145.24 20.0977V25H143.177V20.1754L138.974 12.3818H141.226L144.204 18.1385ZM154.69 15.2645C155.542 15.2645 156.273 15.4399 156.882 15.7909C157.492 16.1419 157.961 16.6396 158.289 17.2841C158.617 17.9285 158.781 18.6995 158.781 19.5971V20.6846H152.403C152.426 21.611 152.674 22.3245 153.145 22.825C153.623 23.3256 154.29 23.5759 155.148 23.5759C155.758 23.5759 156.304 23.5184 156.788 23.4033C157.277 23.2825 157.78 23.107 158.298 22.8768V24.5253C157.82 24.7497 157.334 24.9137 156.839 25.0173C156.344 25.1208 155.752 25.1726 155.061 25.1726C154.123 25.1726 153.298 24.9914 152.584 24.6289C151.877 24.2606 151.321 23.714 150.919 22.989C150.522 22.264 150.323 21.3636 150.323 20.2876C150.323 19.2174 150.504 18.3082 150.867 17.5602C151.229 16.8122 151.738 16.2426 152.394 15.8513C153.05 15.4601 153.816 15.2645 154.69 15.2645ZM154.69 16.7921C154.052 16.7921 153.534 16.9992 153.137 17.4135C152.745 17.8278 152.515 18.4348 152.446 19.2346H156.796C156.79 18.7571 156.71 18.3341 156.554 17.9659C156.405 17.5976 156.175 17.31 155.864 17.1028C155.559 16.8957 155.168 16.7921 154.69 16.7921ZM164.814 15.2645C166.022 15.2645 166.934 15.532 167.55 16.0671C168.172 16.6022 168.482 17.4365 168.482 18.5701V25H167.041L166.653 23.645H166.583C166.313 23.9902 166.034 24.275 165.746 24.4994C165.459 24.7238 165.125 24.8907 164.745 25C164.371 25.1151 163.914 25.1726 163.373 25.1726C162.803 25.1726 162.294 25.069 161.845 24.8619C161.396 24.649 161.043 24.3268 160.784 23.8953C160.525 23.4637 160.395 22.9171 160.395 22.2554C160.395 21.2715 160.761 20.5321 161.491 20.0373C162.228 19.5425 163.338 19.2691 164.823 19.2174L166.48 19.1569V18.6564C166.48 17.9947 166.325 17.5228 166.014 17.2409C165.709 16.959 165.277 16.818 164.719 16.818C164.242 16.818 163.778 16.887 163.33 17.0251C162.881 17.1632 162.444 17.333 162.018 17.5344L161.362 16.1016C161.828 15.8542 162.357 15.6528 162.95 15.4975C163.548 15.3421 164.17 15.2645 164.814 15.2645ZM166.471 20.4343L165.237 20.4775C164.224 20.512 163.514 20.6846 163.105 20.9953C162.697 21.306 162.492 21.7318 162.492 22.2727C162.492 22.7445 162.633 23.0897 162.915 23.3084C163.197 23.5213 163.568 23.6277 164.029 23.6277C164.731 23.6277 165.312 23.4292 165.772 23.0322C166.238 22.6294 166.471 22.0396 166.471 21.2629V20.4343ZM176.164 15.2645C176.325 15.2645 176.5 15.2731 176.69 15.2903C176.88 15.3076 177.044 15.3306 177.182 15.3594L176.992 17.2582C176.871 17.2236 176.722 17.1978 176.543 17.1805C176.371 17.1632 176.215 17.1546 176.077 17.1546C175.715 17.1546 175.37 17.215 175.042 17.3358C174.714 17.4509 174.423 17.6293 174.17 17.871C173.917 18.1069 173.718 18.4032 173.574 18.7599C173.431 19.1167 173.359 19.5309 173.359 20.0028V25H171.322V15.4457H172.91L173.186 17.1287H173.281C173.471 16.7892 173.707 16.4785 173.989 16.1966C174.271 15.9146 174.593 15.6902 174.955 15.5234C175.324 15.3508 175.726 15.2645 176.164 15.2645ZM185.373 22.2727C185.373 22.8998 185.22 23.4292 184.915 23.8607C184.61 24.2923 184.164 24.6202 183.578 24.8446C182.996 25.0633 182.283 25.1726 181.437 25.1726C180.77 25.1726 180.194 25.1237 179.711 25.0259C179.233 24.9338 178.782 24.79 178.356 24.5944V22.8423C178.81 23.0552 179.32 23.2393 179.884 23.3947C180.453 23.55 180.991 23.6277 181.498 23.6277C182.165 23.6277 182.645 23.5241 182.939 23.317C183.232 23.1041 183.379 22.8222 183.379 22.4712C183.379 22.264 183.319 22.0799 183.198 21.9188C183.083 21.7519 182.864 21.5822 182.542 21.4096C182.225 21.2312 181.759 21.0183 181.144 20.7709C180.539 20.5292 180.03 20.2876 179.616 20.0459C179.202 19.8043 178.888 19.5137 178.675 19.1742C178.462 18.829 178.356 18.3888 178.356 17.8537C178.356 17.0079 178.69 16.3663 179.357 15.929C180.03 15.486 180.919 15.2645 182.024 15.2645C182.611 15.2645 183.163 15.3249 183.681 15.4457C184.205 15.5608 184.717 15.7305 185.217 15.9549L184.579 17.4826C184.147 17.2927 183.713 17.1373 183.275 17.0165C182.844 16.8899 182.404 16.8266 181.955 16.8266C181.431 16.8266 181.031 16.9072 180.755 17.0683C180.485 17.2294 180.35 17.4596 180.35 17.7588C180.35 17.9832 180.416 18.173 180.548 18.3284C180.68 18.4837 180.908 18.6391 181.23 18.7945C181.558 18.9498 182.012 19.1426 182.594 19.3727C183.163 19.5914 183.655 19.8215 184.069 20.0632C184.49 20.2991 184.812 20.5897 185.036 20.9349C185.261 21.2801 185.373 21.726 185.373 22.2727ZM203.566 18.6736C203.566 19.646 203.443 20.5321 203.195 21.3319C202.954 22.1259 202.588 22.8107 202.099 23.386C201.61 23.9557 200.997 24.3958 200.261 24.7066C199.524 25.0173 198.661 25.1726 197.672 25.1726C196.665 25.1726 195.79 25.0173 195.048 24.7066C194.311 24.3958 193.699 23.9528 193.21 23.3774C192.726 22.802 192.364 22.1144 192.122 21.3146C191.88 20.5149 191.76 19.6288 191.76 18.6564C191.76 17.356 191.972 16.2225 192.398 15.2558C192.83 14.2834 193.483 13.5297 194.357 12.9946C195.238 12.4537 196.348 12.1833 197.689 12.1833C199.001 12.1833 200.091 12.4508 200.96 12.9859C201.829 13.521 202.479 14.2748 202.911 15.2472C203.348 16.2138 203.566 17.356 203.566 18.6736ZM193.935 18.6736C193.935 19.646 194.067 20.489 194.332 21.2024C194.596 21.9102 195.002 22.4568 195.548 22.8423C196.101 23.2221 196.809 23.4119 197.672 23.4119C198.54 23.4119 199.248 23.2221 199.795 22.8423C200.341 22.4568 200.744 21.9102 201.003 21.2024C201.262 20.489 201.392 19.646 201.392 18.6736C201.392 17.1949 201.095 16.0383 200.503 15.204C199.916 14.364 198.978 13.9439 197.689 13.9439C196.826 13.9439 196.115 14.1338 195.557 14.5136C195.005 14.8933 194.596 15.4371 194.332 16.1448C194.067 16.8468 193.935 17.6897 193.935 18.6736ZM208.106 25H206.069V11.5705H208.106V25ZM214.217 25.1726C213.078 25.1726 212.163 24.7583 211.472 23.9298C210.788 23.0955 210.445 21.867 210.445 20.2444C210.445 18.6046 210.793 17.3646 211.49 16.5245C212.192 15.6845 213.115 15.2645 214.26 15.2645C214.743 15.2645 215.166 15.3306 215.529 15.463C215.891 15.5895 216.202 15.7622 216.461 15.9808C216.726 16.1995 216.95 16.444 217.134 16.7144H217.229C217.2 16.5361 217.166 16.28 217.125 15.9463C217.091 15.6068 217.074 15.2932 217.074 15.0055V11.5705H219.111V25H217.522L217.16 23.6967H217.074C216.901 23.9729 216.682 24.2232 216.418 24.4476C216.159 24.6663 215.848 24.8418 215.486 24.9741C215.129 25.1064 214.706 25.1726 214.217 25.1726ZM214.787 23.5241C215.655 23.5241 216.268 23.2738 216.625 22.7733C216.982 22.2727 217.166 21.5218 217.177 20.5206V20.2531C217.177 19.1828 217.005 18.3629 216.659 17.7933C216.314 17.2179 215.684 16.9302 214.769 16.9302C214.039 16.9302 213.48 17.2265 213.095 17.8192C212.715 18.4061 212.525 19.226 212.525 20.2789C212.525 21.3319 212.715 22.1374 213.095 22.6956C213.48 23.2479 214.044 23.5241 214.787 23.5241Z" fill="#FDF5E0"/>
<path d="M143.8 42.2405C143.196 42.2405 142.655 42.3498 142.177 42.5685C141.705 42.7871 141.305 43.1036 140.977 43.5179C140.649 43.9264 140.399 44.4241 140.227 45.011C140.054 45.5921 139.968 46.2481 139.968 46.9788C139.968 47.957 140.106 48.7999 140.382 49.5076C140.658 50.2096 141.078 50.7505 141.642 51.1302C142.206 51.5042 142.919 51.6912 143.782 51.6912C144.318 51.6912 144.838 51.6394 145.345 51.5359C145.851 51.4323 146.375 51.2913 146.915 51.113V52.8736C146.403 53.075 145.885 53.2218 145.362 53.3138C144.838 53.4059 144.234 53.4519 143.549 53.4519C142.261 53.4519 141.19 53.1844 140.339 52.6492C139.493 52.1141 138.86 51.3604 138.44 50.388C138.026 49.4156 137.819 48.2763 137.819 46.9702C137.819 46.015 137.951 45.1404 138.216 44.3464C138.48 43.5524 138.866 42.8677 139.372 42.2923C139.878 41.7111 140.503 41.2652 141.245 40.9545C141.993 40.638 142.847 40.4798 143.808 40.4798C144.441 40.4798 145.063 40.5517 145.673 40.6956C146.288 40.8337 146.858 41.0322 147.381 41.2911L146.656 43C146.219 42.7929 145.762 42.6145 145.284 42.4649C144.807 42.3153 144.312 42.2405 143.8 42.2405ZM157.877 48.4806C157.877 49.2746 157.773 49.9795 157.566 50.5951C157.359 51.2108 157.057 51.7315 156.66 52.1573C156.263 52.5773 155.785 52.8995 155.227 53.1239C154.669 53.3426 154.039 53.4519 153.337 53.4519C152.681 53.4519 152.08 53.3426 151.533 53.1239C150.986 52.8995 150.512 52.5773 150.109 52.1573C149.712 51.7315 149.404 51.2108 149.185 50.5951C148.967 49.9795 148.857 49.2746 148.857 48.4806C148.857 47.4276 149.039 46.5358 149.401 45.805C149.769 45.0685 150.293 44.5075 150.972 44.122C151.651 43.7365 152.459 43.5437 153.397 43.5437C154.277 43.5437 155.054 43.7365 155.727 44.122C156.401 44.5075 156.927 45.0685 157.307 45.805C157.687 46.5415 157.877 47.4334 157.877 48.4806ZM150.946 48.4806C150.946 49.1768 151.029 49.7723 151.196 50.2671C151.369 50.762 151.634 51.1417 151.99 51.4064C152.347 51.6653 152.807 51.7948 153.371 51.7948C153.935 51.7948 154.395 51.6653 154.752 51.4064C155.109 51.1417 155.371 50.762 155.538 50.2671C155.704 49.7723 155.788 49.1768 155.788 48.4806C155.788 47.7844 155.704 47.1946 155.538 46.7113C155.371 46.2222 155.109 45.8511 154.752 45.5979C154.395 45.339 153.932 45.2095 153.363 45.2095C152.523 45.2095 151.91 45.4914 151.524 46.0553C151.139 46.6192 150.946 47.4276 150.946 48.4806ZM165.187 43.5437C166.263 43.5437 167.1 43.8228 167.698 44.3809C168.303 44.9333 168.605 45.8223 168.605 47.0479V53.2793H166.576V47.4276C166.576 46.6854 166.424 46.1301 166.119 45.7619C165.814 45.3879 165.342 45.2009 164.703 45.2009C163.777 45.2009 163.133 45.4857 162.77 46.0553C162.413 46.6249 162.235 47.4506 162.235 48.5324V53.2793H160.207V43.725H161.786L162.071 45.0196H162.183C162.39 44.6859 162.646 44.4126 162.951 44.1997C163.262 43.981 163.607 43.8171 163.987 43.7077C164.373 43.5984 164.773 43.5437 165.187 43.5437ZM177.865 50.552C177.865 51.1791 177.713 51.7085 177.408 52.14C177.103 52.5716 176.657 52.8995 176.07 53.1239C175.489 53.3426 174.776 53.4519 173.93 53.4519C173.262 53.4519 172.687 53.403 172.204 53.3052C171.726 53.2131 171.274 53.0693 170.849 52.8736V51.1216C171.303 51.3345 171.812 51.5186 172.376 51.674C172.946 51.8293 173.484 51.907 173.99 51.907C174.658 51.907 175.138 51.8034 175.432 51.5963C175.725 51.3834 175.872 51.1015 175.872 50.7505C175.872 50.5433 175.811 50.3592 175.691 50.1981C175.575 50.0312 175.357 49.8615 175.035 49.6889C174.718 49.5105 174.252 49.2976 173.636 49.0502C173.032 48.8085 172.523 48.5669 172.109 48.3252C171.694 48.0836 171.381 47.793 171.168 47.4535C170.955 47.1083 170.849 46.6681 170.849 46.133C170.849 45.2872 171.182 44.6456 171.85 44.2083C172.523 43.7653 173.412 43.5437 174.517 43.5437C175.104 43.5437 175.656 43.6042 176.174 43.725C176.697 43.8401 177.21 44.0098 177.71 44.2342L177.071 45.7619C176.64 45.572 176.205 45.4166 175.768 45.2958C175.337 45.1692 174.896 45.1059 174.448 45.1059C173.924 45.1059 173.524 45.1865 173.248 45.3476C172.978 45.5087 172.842 45.7389 172.842 46.0381C172.842 46.2625 172.909 46.4523 173.041 46.6077C173.173 46.763 173.4 46.9184 173.723 47.0737C174.051 47.2291 174.505 47.4219 175.086 47.652C175.656 47.8707 176.148 48.1008 176.562 48.3425C176.982 48.5784 177.304 48.869 177.529 49.2142C177.753 49.5594 177.865 50.0053 177.865 50.552ZM182.086 43.725V53.2793H180.058V43.725H182.086ZM181.085 40.0655C181.395 40.0655 181.663 40.149 181.887 40.3158C182.118 40.4827 182.233 40.7704 182.233 41.1789C182.233 41.5817 182.118 41.8694 181.887 42.042C181.663 42.2089 181.395 42.2923 181.085 42.2923C180.763 42.2923 180.489 42.2089 180.265 42.042C180.046 41.8694 179.937 41.5817 179.937 41.1789C179.937 40.7704 180.046 40.4827 180.265 40.3158C180.489 40.149 180.763 40.0655 181.085 40.0655ZM188.205 53.4519C187.066 53.4519 186.151 53.0376 185.461 52.2091C184.776 51.3748 184.434 50.1463 184.434 48.5237C184.434 46.8839 184.782 45.6439 185.478 44.8038C186.18 43.9638 187.103 43.5437 188.248 43.5437C188.732 43.5437 189.155 43.6099 189.517 43.7423C189.88 43.8688 190.19 44.0415 190.449 44.2601C190.714 44.4788 190.938 44.7233 191.122 44.9937H191.217C191.189 44.8154 191.154 44.5593 191.114 44.2256C191.079 43.8861 191.062 43.5725 191.062 43.2848V39.8498H193.099V53.2793H191.511L191.148 51.976H191.062C190.889 52.2522 190.671 52.5025 190.406 52.7269C190.147 52.9456 189.836 53.1211 189.474 53.2534C189.117 53.3857 188.694 53.4519 188.205 53.4519ZM188.775 51.8034C189.644 51.8034 190.256 51.5531 190.613 51.0525C190.97 50.552 191.154 49.8011 191.166 48.7999V48.5324C191.166 47.4621 190.993 46.6422 190.648 46.0726C190.302 45.4972 189.672 45.2095 188.758 45.2095C188.027 45.2095 187.469 45.5058 187.083 46.0985C186.703 46.6854 186.514 47.5053 186.514 48.5582C186.514 49.6112 186.703 50.4167 187.083 50.9749C187.469 51.5272 188.033 51.8034 188.775 51.8034ZM199.814 43.5437C200.665 43.5437 201.396 43.7192 202.006 44.0702C202.616 44.4212 203.085 44.9189 203.413 45.5634C203.741 46.2078 203.905 46.9788 203.905 47.8764V48.9639H197.526C197.549 49.8903 197.797 50.6037 198.269 51.1043C198.746 51.6049 199.414 51.8552 200.271 51.8552C200.881 51.8552 201.428 51.7977 201.911 51.6826C202.4 51.5618 202.903 51.3863 203.421 51.1561V52.8046C202.944 53.029 202.458 53.193 201.963 53.2966C201.468 53.4001 200.875 53.4519 200.185 53.4519C199.247 53.4519 198.421 53.2707 197.708 52.9082C197 52.5399 196.445 51.9933 196.042 51.2683C195.645 50.5433 195.446 49.6429 195.446 48.5669C195.446 47.4967 195.628 46.5875 195.99 45.8395C196.353 45.0915 196.862 44.5219 197.518 44.1306C198.174 43.7394 198.939 43.5437 199.814 43.5437ZM199.814 45.0714C199.175 45.0714 198.657 45.2785 198.26 45.6928C197.869 46.1071 197.639 46.7141 197.57 47.5139H201.92C201.914 47.0363 201.833 46.6134 201.678 46.2452C201.528 45.8769 201.298 45.5892 200.987 45.3821C200.682 45.175 200.291 45.0714 199.814 45.0714ZM211.034 43.5437C211.195 43.5437 211.37 43.5524 211.56 43.5696C211.75 43.5869 211.914 43.6099 212.052 43.6387L211.862 45.5375C211.741 45.5029 211.592 45.477 211.413 45.4598C211.241 45.4425 211.085 45.4339 210.947 45.4339C210.585 45.4339 210.24 45.4943 209.912 45.6151C209.584 45.7302 209.293 45.9086 209.04 46.1503C208.787 46.3862 208.588 46.6825 208.444 47.0392C208.301 47.396 208.229 47.8102 208.229 48.2821V53.2793H206.192V43.725H207.78L208.056 45.408H208.151C208.341 45.0685 208.577 44.7578 208.859 44.4759C209.141 44.1939 209.463 43.9695 209.825 43.8027C210.194 43.6301 210.596 43.5437 211.034 43.5437ZM220.243 50.552C220.243 51.1791 220.09 51.7085 219.785 52.14C219.48 52.5716 219.034 52.8995 218.448 53.1239C217.866 53.3426 217.153 53.4519 216.307 53.4519C215.64 53.4519 215.064 53.403 214.581 53.3052C214.103 53.2131 213.652 53.0693 213.226 52.8736V51.1216C213.68 51.3345 214.19 51.5186 214.754 51.674C215.323 51.8293 215.861 51.907 216.367 51.907C217.035 51.907 217.515 51.8034 217.809 51.5963C218.102 51.3834 218.249 51.1015 218.249 50.7505C218.249 50.5433 218.189 50.3592 218.068 50.1981C217.953 50.0312 217.734 49.8615 217.412 49.6889C217.095 49.5105 216.629 49.2976 216.014 49.0502C215.409 48.8085 214.9 48.5669 214.486 48.3252C214.072 48.0836 213.758 47.793 213.545 47.4535C213.332 47.1083 213.226 46.6681 213.226 46.133C213.226 45.2872 213.56 44.6456 214.227 44.2083C214.9 43.7653 215.789 43.5437 216.894 43.5437C217.481 43.5437 218.033 43.6042 218.551 43.725C219.075 43.8401 219.587 44.0098 220.087 44.2342L219.449 45.7619C219.017 45.572 218.583 45.4166 218.145 45.2958C217.714 45.1692 217.274 45.1059 216.825 45.1059C216.301 45.1059 215.901 45.1865 215.625 45.3476C215.355 45.5087 215.22 45.7389 215.22 46.0381C215.22 46.2625 215.286 46.4523 215.418 46.6077C215.55 46.763 215.778 46.9184 216.1 47.0737C216.428 47.2291 216.882 47.4219 217.464 47.652C218.033 47.8707 218.525 48.1008 218.939 48.3425C219.36 48.5784 219.682 48.869 219.906 49.2142C220.131 49.5594 220.243 50.0053 220.243 50.552ZM138.664 75.8121C138.929 75.8121 139.191 75.789 139.45 75.743C139.709 75.6912 139.945 75.6308 140.157 75.5618V77.098C139.933 77.1959 139.643 77.2793 139.286 77.3483C138.929 77.4174 138.558 77.4519 138.172 77.4519C137.632 77.4519 137.145 77.3627 136.714 77.1844C136.282 77.0002 135.94 76.6866 135.687 76.2436C135.434 75.8006 135.307 75.1878 135.307 74.4052V69.2699H134.004V68.3637L135.402 67.6473L136.066 65.6018H137.344V67.725H140.08V69.2699H137.344V74.3793C137.344 74.8627 137.465 75.2223 137.706 75.4582C137.948 75.6941 138.267 75.8121 138.664 75.8121ZM146.941 67.5437C147.102 67.5437 147.278 67.5524 147.468 67.5696C147.658 67.5869 147.822 67.6099 147.96 67.6387L147.77 69.5375C147.649 69.5029 147.499 69.477 147.321 69.4598C147.148 69.4425 146.993 69.4339 146.855 69.4339C146.492 69.4339 146.147 69.4943 145.819 69.6151C145.491 69.7302 145.201 69.9086 144.948 70.1503C144.694 70.3862 144.496 70.6825 144.352 71.0392C144.208 71.396 144.136 71.8102 144.136 72.2821V77.2793H142.099V67.725H143.687L143.964 69.408H144.059C144.248 69.0685 144.484 68.7578 144.766 68.4759C145.048 68.1939 145.37 67.9695 145.733 67.8027C146.101 67.6301 146.504 67.5437 146.941 67.5437ZM153.535 67.5437C154.387 67.5437 155.118 67.7192 155.727 68.0702C156.337 68.4212 156.806 68.9189 157.134 69.5634C157.462 70.2078 157.626 70.9788 157.626 71.8764V72.9639H151.248C151.271 73.8903 151.518 74.6037 151.99 75.1043C152.468 75.6049 153.135 75.8552 153.993 75.8552C154.603 75.8552 155.149 75.7977 155.633 75.6826C156.122 75.5618 156.625 75.3863 157.143 75.1561V76.8046C156.665 77.029 156.179 77.193 155.684 77.2966C155.189 77.4001 154.597 77.4519 153.906 77.4519C152.968 77.4519 152.143 77.2707 151.429 76.9082C150.722 76.5399 150.166 75.9933 149.764 75.2683C149.367 74.5433 149.168 73.6429 149.168 72.5669C149.168 71.4967 149.349 70.5875 149.712 69.8395C150.074 69.0915 150.583 68.5219 151.239 68.1306C151.895 67.7394 152.661 67.5437 153.535 67.5437ZM153.535 69.0714C152.897 69.0714 152.379 69.2785 151.982 69.6928C151.59 70.1071 151.36 70.7141 151.291 71.5139H155.641C155.635 71.0363 155.555 70.6134 155.399 70.2452C155.25 69.8769 155.02 69.5892 154.709 69.3821C154.404 69.175 154.013 69.0714 153.535 69.0714ZM163.659 67.5437C164.867 67.5437 165.779 67.8113 166.395 68.3464C167.017 68.8815 167.327 69.7158 167.327 70.8493V77.2793H165.886L165.498 75.9243H165.428C165.158 76.2695 164.879 76.5543 164.591 76.7787C164.304 77.0031 163.97 77.17 163.59 77.2793C163.216 77.3944 162.759 77.4519 162.218 77.4519C161.648 77.4519 161.139 77.3483 160.69 77.1412C160.241 76.9283 159.887 76.6061 159.629 76.1746C159.37 75.743 159.24 75.1964 159.24 74.5347C159.24 73.5508 159.606 72.8114 160.336 72.3166C161.073 71.8218 162.183 71.5484 163.668 71.4967L165.325 71.4362V70.9357C165.325 70.274 165.17 69.8021 164.859 69.5202C164.554 69.2383 164.122 69.0973 163.564 69.0973C163.087 69.0973 162.623 69.1663 162.175 69.3044C161.726 69.4425 161.289 69.6123 160.863 69.8137L160.207 68.3809C160.673 68.1335 161.202 67.9321 161.795 67.7768C162.393 67.6214 163.015 67.5437 163.659 67.5437ZM165.316 72.7136L164.082 72.7568C163.069 72.7913 162.359 72.9639 161.95 73.2746C161.542 73.5853 161.337 74.0111 161.337 74.552C161.337 75.0238 161.478 75.369 161.76 75.5877C162.042 75.8006 162.413 75.907 162.874 75.907C163.576 75.907 164.157 75.7085 164.617 75.3115C165.083 74.9087 165.316 74.3189 165.316 73.5422V72.7136ZM173.723 75.8121C173.987 75.8121 174.249 75.789 174.508 75.743C174.767 75.6912 175.003 75.6308 175.216 75.5618V77.098C174.991 77.1959 174.701 77.2793 174.344 77.3483C173.987 77.4174 173.616 77.4519 173.231 77.4519C172.69 77.4519 172.204 77.3627 171.772 77.1844C171.341 77.0002 170.998 76.6866 170.745 76.2436C170.492 75.8006 170.365 75.1878 170.365 74.4052V69.2699H169.062V68.3637L170.46 67.6473L171.125 65.6018H172.402V67.725H175.138V69.2699H172.402V74.3793C172.402 74.8627 172.523 75.2223 172.765 75.4582C173.006 75.6941 173.326 75.8121 173.723 75.8121ZM187.955 67.5437C189.025 67.5437 189.831 67.8199 190.372 68.3723C190.918 68.9247 191.191 69.8108 191.191 71.0306V77.2793H189.163V71.3931C189.163 70.6681 189.022 70.1215 188.74 69.7532C188.458 69.385 188.03 69.2009 187.454 69.2009C186.649 69.2009 186.068 69.4598 185.711 69.9776C185.36 70.4897 185.184 71.2349 185.184 72.213V77.2793H183.156V71.3931C183.156 70.9098 183.093 70.507 182.966 70.1848C182.845 69.8568 182.658 69.6123 182.405 69.4512C182.152 69.2843 181.833 69.2009 181.447 69.2009C180.889 69.2009 180.443 69.3274 180.109 69.5806C179.782 69.8338 179.546 70.2078 179.402 70.7026C179.258 71.1917 179.186 71.793 179.186 72.5065V77.2793H177.158V67.725H178.737L179.022 69.011H179.134C179.33 68.6773 179.571 68.404 179.859 68.1911C180.153 67.9724 180.478 67.8113 180.834 67.7077C181.191 67.5984 181.562 67.5437 181.948 67.5437C182.661 67.5437 183.263 67.6703 183.752 67.9235C184.241 68.1709 184.606 68.5507 184.848 69.0628H185.003C185.302 68.5449 185.72 68.1623 186.255 67.9149C186.79 67.6675 187.356 67.5437 187.955 67.5437ZM197.829 67.5437C198.68 67.5437 199.411 67.7192 200.021 68.0702C200.631 68.4212 201.1 68.9189 201.428 69.5634C201.756 70.2078 201.92 70.9788 201.92 71.8764V72.9639H195.541C195.564 73.8903 195.812 74.6037 196.284 75.1043C196.761 75.6049 197.429 75.8552 198.286 75.8552C198.896 75.8552 199.442 75.7977 199.926 75.6826C200.415 75.5618 200.918 75.3863 201.436 75.1561V76.8046C200.959 77.029 200.472 77.193 199.978 77.2966C199.483 77.4001 198.89 77.4519 198.2 77.4519C197.262 77.4519 196.436 77.2707 195.723 76.9082C195.015 76.5399 194.46 75.9933 194.057 75.2683C193.66 74.5433 193.461 73.6429 193.461 72.5669C193.461 71.4967 193.643 70.5875 194.005 69.8395C194.368 69.0915 194.877 68.5219 195.533 68.1306C196.189 67.7394 196.954 67.5437 197.829 67.5437ZM197.829 69.0714C197.19 69.0714 196.672 69.2785 196.275 69.6928C195.884 70.1071 195.654 70.7141 195.585 71.5139H199.934C199.929 71.0363 199.848 70.6134 199.693 70.2452C199.543 69.8769 199.313 69.5892 199.002 69.3821C198.697 69.175 198.306 69.0714 197.829 69.0714ZM209.187 67.5437C210.263 67.5437 211.1 67.8228 211.698 68.3809C212.302 68.9333 212.604 69.8223 212.604 71.0479V77.2793H210.576V71.4276C210.576 70.6854 210.424 70.1301 210.119 69.7619C209.814 69.3879 209.342 69.2009 208.703 69.2009C207.777 69.2009 207.133 69.4857 206.77 70.0553C206.413 70.6249 206.235 71.4506 206.235 72.5324V77.2793H204.207V67.725H205.786L206.071 69.0196H206.183C206.39 68.6859 206.646 68.4126 206.951 68.1997C207.262 67.981 207.607 67.8171 207.987 67.7077C208.372 67.5984 208.772 67.5437 209.187 67.5437ZM219 75.8121C219.265 75.8121 219.526 75.789 219.785 75.743C220.044 75.6912 220.28 75.6308 220.493 75.5618V77.098C220.269 77.1959 219.978 77.2793 219.621 77.3483C219.265 77.4174 218.893 77.4519 218.508 77.4519C217.967 77.4519 217.481 77.3627 217.049 77.1844C216.618 77.0002 216.275 76.6866 216.022 76.2436C215.769 75.8006 215.643 75.1878 215.643 74.4052V69.2699H214.339V68.3637L215.737 67.6473L216.402 65.6018H217.679V67.725H220.415V69.2699H217.679V74.3793C217.679 74.8627 217.8 75.2223 218.042 75.4582C218.284 75.6941 218.603 75.8121 219 75.8121Z" fill="#CEDAEF"/>
<path d="M302.013 168.241C302.013 179.793 292.648 189.157 281.096 189.157C269.544 189.157 260.18 179.793 260.18 168.241C260.18 156.689 269.544 147.324 281.096 147.324C292.648 147.324 302.013 156.689 302.013 168.241Z" fill="#CEDAEF"/>
<path d="M123.49 173.236H114.945V171.709L118.216 168.394C118.849 167.75 119.37 167.195 119.779 166.729C120.187 166.257 120.489 165.811 120.685 165.391C120.886 164.971 120.987 164.513 120.987 164.019C120.987 163.409 120.811 162.948 120.46 162.638C120.109 162.321 119.646 162.163 119.071 162.163C118.524 162.163 118.018 162.272 117.552 162.491C117.092 162.704 116.614 163.009 116.119 163.406L115.006 162.068C115.357 161.769 115.731 161.496 116.128 161.248C116.531 161.001 116.979 160.805 117.474 160.661C117.969 160.512 118.533 160.437 119.166 160.437C119.966 160.437 120.656 160.581 121.237 160.868C121.818 161.15 122.264 161.544 122.575 162.051C122.891 162.557 123.05 163.147 123.05 163.82C123.05 164.499 122.914 165.126 122.644 165.702C122.374 166.277 121.988 166.847 121.488 167.411C120.987 167.969 120.391 168.576 119.701 169.232L117.517 171.363V171.458H123.49V173.236ZM131.025 173.236H128.988V165.115C128.988 164.844 128.991 164.574 128.996 164.303C129.002 164.033 129.008 163.768 129.014 163.509C129.025 163.25 129.039 163.003 129.057 162.767C128.936 162.9 128.786 163.043 128.608 163.199C128.435 163.354 128.251 163.515 128.056 163.682L126.606 164.839L125.587 163.553L129.333 160.618H131.025V173.236ZM144.204 166.375L147.199 160.618H149.434L145.24 168.334V173.236H143.177V168.412L138.974 160.618H141.226L144.204 166.375ZM154.69 163.501C155.542 163.501 156.273 163.676 156.882 164.027C157.492 164.378 157.961 164.876 158.289 165.52C158.617 166.165 158.781 166.936 158.781 167.833V168.921H152.403C152.426 169.847 152.674 170.561 153.145 171.061C153.623 171.562 154.29 171.812 155.148 171.812C155.758 171.812 156.304 171.755 156.788 171.64C157.277 171.519 157.78 171.343 158.298 171.113V172.762C157.82 172.986 157.334 173.15 156.839 173.254C156.344 173.357 155.752 173.409 155.061 173.409C154.123 173.409 153.298 173.228 152.584 172.865C151.877 172.497 151.321 171.95 150.919 171.225C150.522 170.5 150.323 169.6 150.323 168.524C150.323 167.454 150.504 166.545 150.867 165.797C151.229 165.049 151.738 164.479 152.394 164.088C153.05 163.696 153.816 163.501 154.69 163.501ZM154.69 165.028C154.052 165.028 153.534 165.236 153.137 165.65C152.745 166.064 152.515 166.671 152.446 167.471H156.796C156.79 166.993 156.71 166.57 156.554 166.202C156.405 165.834 156.175 165.546 155.864 165.339C155.559 165.132 155.168 165.028 154.69 165.028ZM164.814 163.501C166.022 163.501 166.934 163.768 167.55 164.303C168.172 164.839 168.482 165.673 168.482 166.806V173.236H167.041L166.653 171.881H166.583C166.313 172.227 166.034 172.511 165.746 172.736C165.459 172.96 165.125 173.127 164.745 173.236C164.371 173.351 163.914 173.409 163.373 173.409C162.803 173.409 162.294 173.305 161.845 173.098C161.396 172.885 161.043 172.563 160.784 172.132C160.525 171.7 160.395 171.153 160.395 170.492C160.395 169.508 160.761 168.768 161.491 168.274C162.228 167.779 163.338 167.505 164.823 167.454L166.48 167.393V166.893C166.48 166.231 166.325 165.759 166.014 165.477C165.709 165.195 165.277 165.054 164.719 165.054C164.242 165.054 163.778 165.123 163.33 165.261C162.881 165.4 162.444 165.569 162.018 165.771L161.362 164.338C161.828 164.091 162.357 163.889 162.95 163.734C163.548 163.578 164.17 163.501 164.814 163.501ZM166.471 168.671L165.237 168.714C164.224 168.748 163.514 168.921 163.105 169.232C162.697 169.542 162.492 169.968 162.492 170.509C162.492 170.981 162.633 171.326 162.915 171.545C163.197 171.758 163.568 171.864 164.029 171.864C164.731 171.864 165.312 171.666 165.772 171.269C166.238 170.866 166.471 170.276 166.471 169.499V168.671ZM176.164 163.501C176.325 163.501 176.5 163.509 176.69 163.527C176.88 163.544 177.044 163.567 177.182 163.596L176.992 165.494C176.871 165.46 176.722 165.434 176.543 165.417C176.371 165.4 176.215 165.391 176.077 165.391C175.715 165.391 175.37 165.451 175.042 165.572C174.714 165.687 174.423 165.866 174.17 166.107C173.917 166.343 173.718 166.64 173.574 166.996C173.431 167.353 173.359 167.767 173.359 168.239V173.236H171.322V163.682H172.91L173.186 165.365H173.281C173.471 165.026 173.707 164.715 173.989 164.433C174.271 164.151 174.593 163.927 174.955 163.76C175.324 163.587 175.726 163.501 176.164 163.501ZM185.373 170.509C185.373 171.136 185.22 171.666 184.915 172.097C184.61 172.529 184.164 172.857 183.578 173.081C182.996 173.3 182.283 173.409 181.437 173.409C180.77 173.409 180.194 173.36 179.711 173.262C179.233 173.17 178.782 173.026 178.356 172.831V171.079C178.81 171.292 179.32 171.476 179.884 171.631C180.453 171.786 180.991 171.864 181.498 171.864C182.165 171.864 182.645 171.76 182.939 171.553C183.232 171.34 183.379 171.058 183.379 170.708C183.379 170.5 183.319 170.316 183.198 170.155C183.083 169.988 182.864 169.819 182.542 169.646C182.225 169.468 181.759 169.255 181.144 169.007C180.539 168.766 180.03 168.524 179.616 168.282C179.202 168.041 178.888 167.75 178.675 167.411C178.462 167.065 178.356 166.625 178.356 166.09C178.356 165.244 178.69 164.603 179.357 164.165C180.03 163.722 180.919 163.501 182.024 163.501C182.611 163.501 183.163 163.561 183.681 163.682C184.205 163.797 184.717 163.967 185.217 164.191L184.579 165.719C184.147 165.529 183.713 165.374 183.275 165.253C182.844 165.126 182.404 165.063 181.955 165.063C181.431 165.063 181.031 165.144 180.755 165.305C180.485 165.466 180.35 165.696 180.35 165.995C180.35 166.219 180.416 166.409 180.548 166.565C180.68 166.72 180.908 166.875 181.23 167.031C181.558 167.186 182.012 167.379 182.594 167.609C183.163 167.828 183.655 168.058 184.069 168.3C184.49 168.535 184.812 168.826 185.036 169.171C185.261 169.516 185.373 169.962 185.373 170.509ZM203.566 166.91C203.566 167.882 203.443 168.768 203.195 169.568C202.954 170.362 202.588 171.047 202.099 171.622C201.61 172.192 200.997 172.632 200.261 172.943C199.524 173.254 198.661 173.409 197.672 173.409C196.665 173.409 195.79 173.254 195.048 172.943C194.311 172.632 193.699 172.189 193.21 171.614C192.726 171.038 192.364 170.351 192.122 169.551C191.88 168.751 191.76 167.865 191.76 166.893C191.76 165.592 191.972 164.459 192.398 163.492C192.83 162.52 193.483 161.766 194.357 161.231C195.238 160.69 196.348 160.42 197.689 160.42C199.001 160.42 200.091 160.687 200.96 161.222C201.829 161.757 202.479 162.511 202.911 163.484C203.348 164.45 203.566 165.592 203.566 166.91ZM193.935 166.91C193.935 167.882 194.067 168.725 194.332 169.439C194.596 170.147 195.002 170.693 195.548 171.079C196.101 171.458 196.809 171.648 197.672 171.648C198.54 171.648 199.248 171.458 199.795 171.079C200.341 170.693 200.744 170.147 201.003 169.439C201.262 168.725 201.392 167.882 201.392 166.91C201.392 165.431 201.095 164.275 200.503 163.44C199.916 162.6 198.978 162.18 197.689 162.18C196.826 162.18 196.115 162.37 195.557 162.75C195.005 163.13 194.596 163.673 194.332 164.381C194.067 165.083 193.935 165.926 193.935 166.91ZM208.106 173.236H206.069V159.807H208.106V173.236ZM214.217 173.409C213.078 173.409 212.163 172.995 211.472 172.166C210.788 171.332 210.445 170.103 210.445 168.481C210.445 166.841 210.793 165.601 211.49 164.761C212.192 163.921 213.115 163.501 214.26 163.501C214.743 163.501 215.166 163.567 215.529 163.699C215.891 163.826 216.202 163.998 216.461 164.217C216.726 164.436 216.95 164.68 217.134 164.951H217.229C217.2 164.772 217.166 164.516 217.125 164.183C217.091 163.843 217.074 163.53 217.074 163.242V159.807H219.111V173.236H217.522L217.16 171.933H217.074C216.901 172.209 216.682 172.46 216.418 172.684C216.159 172.903 215.848 173.078 215.486 173.21C215.129 173.343 214.706 173.409 214.217 173.409ZM214.787 171.76C215.655 171.76 216.268 171.51 216.625 171.01C216.982 170.509 217.166 169.758 217.177 168.757V168.489C217.177 167.419 217.005 166.599 216.659 166.03C216.314 165.454 215.684 165.167 214.769 165.167C214.039 165.167 213.48 165.463 213.095 166.055C212.715 166.642 212.525 167.462 212.525 168.515C212.525 169.568 212.715 170.374 213.095 170.932C213.48 171.484 214.044 171.76 214.787 171.76Z" fill="#FDF5E0"/>
<path d="M142.982 195.779C142.982 196.751 142.858 197.638 142.611 198.437C142.369 199.231 142.004 199.916 141.515 200.492C141.026 201.061 140.413 201.501 139.676 201.812C138.94 202.123 138.077 202.278 137.087 202.278C136.08 202.278 135.206 202.123 134.463 201.812C133.727 201.501 133.114 201.058 132.625 200.483C132.142 199.907 131.779 199.22 131.537 198.42C131.296 197.62 131.175 196.734 131.175 195.762C131.175 194.461 131.388 193.328 131.814 192.361C132.245 191.389 132.898 190.635 133.773 190.1C134.653 189.559 135.764 189.289 137.104 189.289C138.416 189.289 139.507 189.556 140.375 190.091C141.244 190.626 141.894 191.38 142.326 192.353C142.763 193.319 142.982 194.461 142.982 195.779ZM133.35 195.779C133.35 196.751 133.482 197.594 133.747 198.308C134.012 199.016 134.417 199.562 134.964 199.948C135.516 200.328 136.224 200.517 137.087 200.517C137.956 200.517 138.664 200.328 139.21 199.948C139.757 199.562 140.16 199.016 140.419 198.308C140.677 197.594 140.807 196.751 140.807 195.779C140.807 194.3 140.511 193.144 139.918 192.31C139.331 191.469 138.393 191.049 137.104 191.049C136.241 191.049 135.531 191.239 134.973 191.619C134.42 191.999 134.012 192.543 133.747 193.25C133.482 193.952 133.35 194.795 133.35 195.779ZM147.668 202.105L144.035 192.551H146.184L148.152 198.161C148.278 198.518 148.393 198.903 148.497 199.318C148.601 199.732 148.672 200.08 148.713 200.362H148.782C148.822 200.069 148.9 199.718 149.015 199.309C149.13 198.895 149.248 198.512 149.369 198.161L151.337 192.551H153.477L149.843 202.105H147.668ZM158.733 192.37C159.585 192.37 160.315 192.545 160.925 192.896C161.535 193.247 162.004 193.745 162.332 194.39C162.66 195.034 162.824 195.805 162.824 196.703V197.79H156.446C156.469 198.716 156.716 199.43 157.188 199.931C157.666 200.431 158.333 200.681 159.191 200.681C159.8 200.681 160.347 200.624 160.83 200.509C161.319 200.388 161.823 200.212 162.341 199.982V201.631C161.863 201.855 161.377 202.019 160.882 202.123C160.387 202.226 159.795 202.278 159.104 202.278C158.166 202.278 157.341 202.097 156.627 201.734C155.919 201.366 155.364 200.819 154.961 200.094C154.564 199.37 154.366 198.469 154.366 197.393C154.366 196.323 154.547 195.414 154.91 194.666C155.272 193.918 155.781 193.348 156.437 192.957C157.093 192.566 157.859 192.37 158.733 192.37ZM158.733 193.898C158.094 193.898 157.577 194.105 157.18 194.519C156.788 194.933 156.558 195.54 156.489 196.34H160.839C160.833 195.863 160.753 195.44 160.597 195.071C160.448 194.703 160.218 194.415 159.907 194.208C159.602 194.001 159.211 193.898 158.733 193.898ZM169.953 192.37C170.114 192.37 170.29 192.379 170.48 192.396C170.67 192.413 170.834 192.436 170.972 192.465L170.782 194.364C170.661 194.329 170.511 194.303 170.333 194.286C170.16 194.269 170.005 194.26 169.867 194.26C169.504 194.26 169.159 194.32 168.831 194.441C168.503 194.556 168.213 194.735 167.959 194.976C167.706 195.212 167.508 195.509 167.364 195.865C167.22 196.222 167.148 196.636 167.148 197.108V202.105H165.111V192.551H166.699L166.976 194.234H167.07C167.26 193.895 167.496 193.584 167.778 193.302C168.06 193.02 168.382 192.796 168.745 192.629C169.113 192.456 169.516 192.37 169.953 192.37ZM175.952 202.278C174.812 202.278 173.897 201.864 173.207 201.035C172.522 200.201 172.18 198.972 172.18 197.35C172.18 195.71 172.528 194.47 173.224 193.63C173.926 192.79 174.85 192.37 175.995 192.37C176.478 192.37 176.901 192.436 177.263 192.568C177.626 192.695 177.937 192.868 178.196 193.086C178.46 193.305 178.685 193.549 178.869 193.82H178.964C178.935 193.642 178.9 193.385 178.86 193.052C178.826 192.712 178.808 192.399 178.808 192.111V188.676H180.845V202.105H179.257L178.895 200.802H178.808C178.636 201.078 178.417 201.329 178.152 201.553C177.894 201.772 177.583 201.947 177.22 202.08C176.864 202.212 176.441 202.278 175.952 202.278ZM176.521 200.63C177.39 200.63 178.003 200.379 178.36 199.879C178.716 199.378 178.9 198.627 178.912 197.626V197.359C178.912 196.288 178.739 195.468 178.394 194.899C178.049 194.323 177.419 194.036 176.504 194.036C175.773 194.036 175.215 194.332 174.83 194.925C174.45 195.512 174.26 196.331 174.26 197.384C174.26 198.437 174.45 199.243 174.83 199.801C175.215 200.353 175.779 200.63 176.521 200.63ZM192.212 197.307C192.212 198.101 192.108 198.806 191.901 199.421C191.694 200.037 191.392 200.558 190.995 200.983C190.598 201.403 190.12 201.726 189.562 201.95C189.004 202.169 188.374 202.278 187.672 202.278C187.016 202.278 186.415 202.169 185.868 201.95C185.322 201.726 184.847 201.403 184.444 200.983C184.047 200.558 183.739 200.037 183.521 199.421C183.302 198.806 183.193 198.101 183.193 197.307C183.193 196.254 183.374 195.362 183.737 194.631C184.105 193.895 184.628 193.334 185.307 192.948C185.986 192.563 186.795 192.37 187.733 192.37C188.613 192.37 189.39 192.563 190.063 192.948C190.736 193.334 191.263 193.895 191.642 194.631C192.022 195.368 192.212 196.26 192.212 197.307ZM185.281 197.307C185.281 198.003 185.365 198.598 185.532 199.093C185.704 199.588 185.969 199.968 186.326 200.233C186.683 200.492 187.143 200.621 187.707 200.621C188.271 200.621 188.731 200.492 189.088 200.233C189.444 199.968 189.706 199.588 189.873 199.093C190.04 198.598 190.123 198.003 190.123 197.307C190.123 196.611 190.04 196.021 189.873 195.537C189.706 195.048 189.444 194.677 189.088 194.424C188.731 194.165 188.268 194.036 187.698 194.036C186.858 194.036 186.245 194.318 185.86 194.881C185.474 195.445 185.281 196.254 185.281 197.307ZM200.964 199.378C200.964 200.005 200.811 200.535 200.506 200.966C200.201 201.398 199.755 201.726 199.168 201.95C198.587 202.169 197.874 202.278 197.028 202.278C196.361 202.278 195.785 202.229 195.302 202.131C194.824 202.039 194.373 201.895 193.947 201.7V199.948C194.401 200.161 194.911 200.345 195.474 200.5C196.044 200.655 196.582 200.733 197.088 200.733C197.756 200.733 198.236 200.63 198.53 200.422C198.823 200.21 198.97 199.928 198.97 199.577C198.97 199.37 198.91 199.185 198.789 199.024C198.674 198.857 198.455 198.688 198.133 198.515C197.816 198.337 197.35 198.124 196.735 197.876C196.13 197.635 195.621 197.393 195.207 197.151C194.793 196.91 194.479 196.619 194.266 196.28C194.053 195.934 193.947 195.494 193.947 194.959C193.947 194.113 194.281 193.472 194.948 193.034C195.621 192.591 196.51 192.37 197.615 192.37C198.202 192.37 198.754 192.43 199.272 192.551C199.796 192.666 200.308 192.836 200.808 193.06L200.17 194.588C199.738 194.398 199.304 194.243 198.866 194.122C198.435 193.995 197.995 193.932 197.546 193.932C197.022 193.932 196.622 194.013 196.346 194.174C196.076 194.335 195.941 194.565 195.941 194.864C195.941 195.089 196.007 195.279 196.139 195.434C196.271 195.589 196.499 195.745 196.821 195.9C197.149 196.055 197.603 196.248 198.185 196.478C198.754 196.697 199.246 196.927 199.66 197.169C200.08 197.405 200.403 197.695 200.627 198.04C200.851 198.386 200.964 198.832 200.964 199.378ZM206.962 192.37C207.814 192.37 208.544 192.545 209.154 192.896C209.764 193.247 210.233 193.745 210.561 194.39C210.889 195.034 211.053 195.805 211.053 196.703V197.79H204.675C204.698 198.716 204.945 199.43 205.417 199.931C205.895 200.431 206.562 200.681 207.42 200.681C208.029 200.681 208.576 200.624 209.059 200.509C209.548 200.388 210.052 200.212 210.57 199.982V201.631C210.092 201.855 209.606 202.019 209.111 202.123C208.616 202.226 208.024 202.278 207.333 202.278C206.395 202.278 205.57 202.097 204.856 201.734C204.148 201.366 203.593 200.819 203.19 200.094C202.793 199.37 202.595 198.469 202.595 197.393C202.595 196.323 202.776 195.414 203.139 194.666C203.501 193.918 204.01 193.348 204.666 192.957C205.322 192.566 206.087 192.37 206.962 192.37ZM206.962 193.898C206.323 193.898 205.806 194.105 205.409 194.519C205.017 194.933 204.787 195.54 204.718 196.34H209.068C209.062 195.863 208.982 195.44 208.826 195.071C208.677 194.703 208.447 194.415 208.136 194.208C207.831 194.001 207.44 193.898 206.962 193.898ZM219.762 199.378C219.762 200.005 219.609 200.535 219.304 200.966C218.999 201.398 218.553 201.726 217.966 201.95C217.385 202.169 216.672 202.278 215.826 202.278C215.158 202.278 214.583 202.229 214.1 202.131C213.622 202.039 213.17 201.895 212.745 201.7V199.948C213.199 200.161 213.708 200.345 214.272 200.5C214.842 200.655 215.38 200.733 215.886 200.733C216.554 200.733 217.034 200.63 217.328 200.422C217.621 200.21 217.768 199.928 217.768 199.577C217.768 199.37 217.707 199.185 217.587 199.024C217.472 198.857 217.253 198.688 216.931 198.515C216.614 198.337 216.148 198.124 215.532 197.876C214.928 197.635 214.419 197.393 214.005 197.151C213.591 196.91 213.277 196.619 213.064 196.28C212.851 195.934 212.745 195.494 212.745 194.959C212.745 194.113 213.078 193.472 213.746 193.034C214.419 192.591 215.308 192.37 216.413 192.37C217 192.37 217.552 192.43 218.07 192.551C218.594 192.666 219.106 192.836 219.606 193.06L218.968 194.588C218.536 194.398 218.102 194.243 217.664 194.122C217.233 193.995 216.793 193.932 216.344 193.932C215.82 193.932 215.42 194.013 215.144 194.174C214.874 194.335 214.738 194.565 214.738 194.864C214.738 195.089 214.805 195.279 214.937 195.434C215.069 195.589 215.297 195.745 215.619 195.9C215.947 196.055 216.401 196.248 216.982 196.478C217.552 196.697 218.044 196.927 218.458 197.169C218.878 197.405 219.201 197.695 219.425 198.04C219.649 198.386 219.762 198.832 219.762 199.378Z" fill="#CEDAEF"/>
<path d="M301.423 291.731C301.423 303.283 292.058 312.647 280.506 312.647C268.954 312.647 259.59 303.283 259.59 291.731C259.59 280.179 268.954 270.814 280.506 270.814C292.058 270.814 301.423 280.179 301.423 291.731Z" fill="#CEDAEF"/>
<path d="M75.1912 299.844H68.0449V287.226H75.1912V288.969H70.1163V292.395H74.8718V294.13H70.1163V298.092H75.1912V299.844ZM83.3646 299.844L79.731 289.306H79.6533C79.6706 289.541 79.6907 289.864 79.7137 290.272C79.7367 290.681 79.7569 291.118 79.7741 291.584C79.7914 292.05 79.8 292.496 79.8 292.922V299.844H77.9185V287.226H80.8271L84.3226 297.298H84.3744L87.9907 287.226H90.8906V299.844H88.9142V292.818C88.9142 292.433 88.9199 292.016 88.9314 291.567C88.9487 291.118 88.9659 290.692 88.9832 290.289C89.0062 289.887 89.0235 289.564 89.035 289.323H88.9659L85.1943 299.844H83.3646ZM98.5893 299.844H96.5093V288.986H92.8153V287.226H102.275V288.986H98.5893V299.844ZM112.338 290.108C113.546 290.108 114.458 290.376 115.074 290.911C115.696 291.446 116.006 292.28 116.006 293.414V299.844H114.565L114.177 298.489H114.107C113.837 298.834 113.558 299.119 113.27 299.343C112.983 299.568 112.649 299.734 112.269 299.844C111.895 299.959 111.438 300.016 110.897 300.016C110.327 300.016 109.818 299.913 109.369 299.706C108.92 299.493 108.567 299.171 108.308 298.739C108.049 298.307 107.919 297.761 107.919 297.099C107.919 296.115 108.285 295.376 109.015 294.881C109.752 294.386 110.862 294.113 112.347 294.061L114.004 294.001V293.5C114.004 292.838 113.849 292.367 113.538 292.085C113.233 291.803 112.801 291.662 112.243 291.662C111.766 291.662 111.302 291.731 110.854 291.869C110.405 292.007 109.968 292.177 109.542 292.378L108.886 290.945C109.352 290.698 109.881 290.497 110.474 290.341C111.072 290.186 111.694 290.108 112.338 290.108ZM113.995 295.278L112.761 295.321C111.748 295.356 111.038 295.528 110.629 295.839C110.221 296.15 110.016 296.576 110.016 297.116C110.016 297.588 110.157 297.933 110.439 298.152C110.721 298.365 111.092 298.471 111.553 298.471C112.255 298.471 112.836 298.273 113.296 297.876C113.762 297.473 113.995 296.883 113.995 296.107V295.278ZM122.056 300.016C120.917 300.016 120.002 299.602 119.312 298.774C118.627 297.939 118.285 296.711 118.285 295.088C118.285 293.448 118.633 292.208 119.329 291.368C120.031 290.528 120.955 290.108 122.1 290.108C122.583 290.108 123.006 290.174 123.368 290.307C123.731 290.433 124.042 290.606 124.3 290.825C124.565 291.043 124.79 291.288 124.974 291.558H125.069C125.04 291.38 125.005 291.124 124.965 290.79C124.931 290.451 124.913 290.137 124.913 289.849V286.414H126.95V299.844H125.362L125 298.54H124.913C124.741 298.817 124.522 299.067 124.257 299.291C123.998 299.51 123.688 299.686 123.325 299.818C122.968 299.95 122.546 300.016 122.056 300.016ZM122.626 298.368C123.495 298.368 124.108 298.118 124.464 297.617C124.821 297.116 125.005 296.366 125.017 295.364V295.097C125.017 294.027 124.844 293.207 124.499 292.637C124.154 292.062 123.524 291.774 122.609 291.774C121.878 291.774 121.32 292.07 120.934 292.663C120.555 293.25 120.365 294.07 120.365 295.123C120.365 296.176 120.555 296.981 120.934 297.539C121.32 298.092 121.884 298.368 122.626 298.368ZM140.656 290.108C141.726 290.108 142.532 290.384 143.072 290.937C143.619 291.489 143.892 292.375 143.892 293.595V299.844H141.864V293.958C141.864 293.233 141.723 292.686 141.441 292.318C141.159 291.949 140.731 291.765 140.155 291.765C139.35 291.765 138.769 292.024 138.412 292.542C138.061 293.054 137.885 293.799 137.885 294.777V299.844H135.857V293.958C135.857 293.474 135.794 293.071 135.667 292.749C135.546 292.421 135.359 292.177 135.106 292.016C134.853 291.849 134.534 291.765 134.148 291.765C133.59 291.765 133.144 291.892 132.81 292.145C132.482 292.398 132.247 292.772 132.103 293.267C131.959 293.756 131.887 294.357 131.887 295.071V299.844H129.859V290.289H131.438L131.723 291.575H131.835C132.031 291.242 132.272 290.968 132.56 290.756C132.854 290.537 133.179 290.376 133.535 290.272C133.892 290.163 134.263 290.108 134.649 290.108C135.362 290.108 135.964 290.235 136.453 290.488C136.942 290.735 137.307 291.115 137.549 291.627H137.704C138.003 291.109 138.42 290.727 138.956 290.479C139.491 290.232 140.057 290.108 140.656 290.108ZM148.752 290.289V299.844H146.723V290.289H148.752ZM147.75 286.63C148.061 286.63 148.329 286.713 148.553 286.88C148.783 287.047 148.898 287.335 148.898 287.743C148.898 288.146 148.783 288.434 148.553 288.606C148.329 288.773 148.061 288.857 147.75 288.857C147.428 288.857 147.155 288.773 146.93 288.606C146.712 288.434 146.602 288.146 146.602 287.743C146.602 287.335 146.712 287.047 146.93 286.88C147.155 286.713 147.428 286.63 147.75 286.63ZM156.64 290.108C157.716 290.108 158.553 290.387 159.152 290.945C159.756 291.498 160.058 292.387 160.058 293.612V299.844H158.03V293.992C158.03 293.25 157.877 292.695 157.572 292.326C157.267 291.952 156.795 291.765 156.157 291.765C155.23 291.765 154.586 292.05 154.223 292.62C153.867 293.189 153.688 294.015 153.688 295.097V299.844H151.66V290.289H153.24L153.524 291.584H153.637C153.844 291.25 154.1 290.977 154.405 290.764C154.715 290.545 155.061 290.382 155.44 290.272C155.826 290.163 156.226 290.108 156.64 290.108ZM164.926 290.289V299.844H162.897V290.289H164.926ZM163.924 286.63C164.235 286.63 164.503 286.713 164.727 286.88C164.957 287.047 165.072 287.335 165.072 287.743C165.072 288.146 164.957 288.434 164.727 288.606C164.503 288.773 164.235 288.857 163.924 288.857C163.602 288.857 163.329 288.773 163.105 288.606C162.886 288.434 162.777 288.146 162.777 287.743C162.777 287.335 162.886 287.047 163.105 286.88C163.329 286.713 163.602 286.63 163.924 286.63ZM174.256 297.116C174.256 297.744 174.103 298.273 173.798 298.704C173.493 299.136 173.047 299.464 172.46 299.688C171.879 299.907 171.166 300.016 170.32 300.016C169.652 300.016 169.077 299.967 168.594 299.87C168.116 299.778 167.664 299.634 167.239 299.438V297.686C167.693 297.899 168.202 298.083 168.766 298.238C169.336 298.394 169.874 298.471 170.38 298.471C171.048 298.471 171.528 298.368 171.822 298.161C172.115 297.948 172.262 297.666 172.262 297.315C172.262 297.108 172.201 296.924 172.081 296.763C171.966 296.596 171.747 296.426 171.425 296.253C171.108 296.075 170.642 295.862 170.026 295.615C169.422 295.373 168.913 295.131 168.499 294.89C168.085 294.648 167.771 294.357 167.558 294.018C167.345 293.673 167.239 293.233 167.239 292.697C167.239 291.852 167.572 291.21 168.24 290.773C168.913 290.33 169.802 290.108 170.907 290.108C171.494 290.108 172.046 290.169 172.564 290.289C173.088 290.405 173.6 290.574 174.1 290.799L173.462 292.326C173.03 292.136 172.596 291.981 172.158 291.86C171.727 291.734 171.287 291.67 170.838 291.67C170.314 291.67 169.914 291.751 169.638 291.912C169.368 292.073 169.232 292.303 169.232 292.603C169.232 292.827 169.299 293.017 169.431 293.172C169.563 293.327 169.791 293.483 170.113 293.638C170.441 293.794 170.895 293.986 171.476 294.216C172.046 294.435 172.538 294.665 172.952 294.907C173.372 295.143 173.695 295.433 173.919 295.779C174.143 296.124 174.256 296.57 174.256 297.116ZM180.004 298.377C180.268 298.377 180.53 298.353 180.789 298.307C181.048 298.256 181.284 298.195 181.497 298.126V299.663C181.272 299.76 180.982 299.844 180.625 299.913C180.268 299.982 179.897 300.016 179.512 300.016C178.971 300.016 178.485 299.927 178.053 299.749C177.622 299.565 177.279 299.251 177.026 298.808C176.773 298.365 176.646 297.752 176.646 296.97V291.834H175.343V290.928L176.741 290.212L177.406 288.166H178.683V290.289H181.419V291.834H178.683V296.944C178.683 297.427 178.804 297.787 179.046 298.023C179.287 298.259 179.607 298.377 180.004 298.377ZM187.245 290.108C188.096 290.108 188.827 290.284 189.437 290.635C190.047 290.986 190.516 291.483 190.844 292.128C191.172 292.772 191.336 293.543 191.336 294.441V295.528H184.958C184.981 296.455 185.228 297.168 185.7 297.669C186.178 298.169 186.845 298.42 187.702 298.42C188.312 298.42 188.859 298.362 189.342 298.247C189.831 298.126 190.335 297.951 190.853 297.721V299.369C190.375 299.593 189.889 299.757 189.394 299.861C188.899 299.965 188.307 300.016 187.616 300.016C186.678 300.016 185.852 299.835 185.139 299.473C184.431 299.104 183.876 298.558 183.473 297.833C183.076 297.108 182.878 296.207 182.878 295.131C182.878 294.061 183.059 293.152 183.421 292.404C183.784 291.656 184.293 291.086 184.949 290.695C185.605 290.304 186.37 290.108 187.245 290.108ZM187.245 291.636C186.606 291.636 186.088 291.843 185.691 292.257C185.3 292.672 185.07 293.279 185.001 294.078H189.351C189.345 293.601 189.265 293.178 189.109 292.81C188.96 292.441 188.729 292.154 188.419 291.947C188.114 291.739 187.722 291.636 187.245 291.636ZM198.465 290.108C198.626 290.108 198.802 290.117 198.991 290.134C199.181 290.151 199.345 290.174 199.483 290.203L199.294 292.102C199.173 292.067 199.023 292.042 198.845 292.024C198.672 292.007 198.517 291.998 198.379 291.998C198.016 291.998 197.671 292.059 197.343 292.18C197.015 292.295 196.724 292.473 196.471 292.715C196.218 292.951 196.02 293.247 195.876 293.604C195.732 293.96 195.66 294.375 195.66 294.847V299.844H193.623V290.289H195.211L195.487 291.972H195.582C195.772 291.633 196.008 291.322 196.29 291.04C196.572 290.758 196.894 290.534 197.257 290.367C197.625 290.195 198.028 290.108 198.465 290.108ZM205.059 290.108C205.91 290.108 206.641 290.284 207.251 290.635C207.861 290.986 208.33 291.483 208.658 292.128C208.986 292.772 209.15 293.543 209.15 294.441V295.528H202.772C202.795 296.455 203.042 297.168 203.514 297.669C203.992 298.169 204.659 298.42 205.516 298.42C206.126 298.42 206.673 298.362 207.156 298.247C207.645 298.126 208.149 297.951 208.667 297.721V299.369C208.189 299.593 207.703 299.757 207.208 299.861C206.713 299.965 206.12 300.016 205.43 300.016C204.492 300.016 203.666 299.835 202.953 299.473C202.245 299.104 201.69 298.558 201.287 297.833C200.89 297.108 200.692 296.207 200.692 295.131C200.692 294.061 200.873 293.152 201.235 292.404C201.598 291.656 202.107 291.086 202.763 290.695C203.419 290.304 204.184 290.108 205.059 290.108ZM205.059 291.636C204.42 291.636 203.902 291.843 203.505 292.257C203.114 292.672 202.884 293.279 202.815 294.078H207.165C207.159 293.601 207.079 293.178 206.923 292.81C206.774 292.441 206.543 292.154 206.233 291.947C205.928 291.739 205.536 291.636 205.059 291.636ZM214.648 300.016C213.508 300.016 212.594 299.602 211.903 298.774C211.218 297.939 210.876 296.711 210.876 295.088C210.876 293.448 211.224 292.208 211.92 291.368C212.622 290.528 213.546 290.108 214.691 290.108C215.174 290.108 215.597 290.174 215.96 290.307C216.322 290.433 216.633 290.606 216.892 290.825C217.156 291.043 217.381 291.288 217.565 291.558H217.66C217.631 291.38 217.597 291.124 217.556 290.79C217.522 290.451 217.505 290.137 217.505 289.849V286.414H219.541V299.844H217.953L217.591 298.54H217.505C217.332 298.817 217.113 299.067 216.849 299.291C216.59 299.51 216.279 299.686 215.916 299.818C215.56 299.95 215.137 300.016 214.648 300.016ZM215.217 298.368C216.086 298.368 216.699 298.118 217.056 297.617C217.412 297.116 217.597 296.366 217.608 295.364V295.097C217.608 294.027 217.435 293.207 217.09 292.637C216.745 292.062 216.115 291.774 215.2 291.774C214.469 291.774 213.911 292.07 213.526 292.663C213.146 293.25 212.956 294.07 212.956 295.123C212.956 296.176 213.146 296.981 213.526 297.539C213.911 298.092 214.475 298.368 215.217 298.368ZM55.3662 314.108C56.4422 314.108 57.2794 314.387 57.8778 314.945C58.4819 315.498 58.784 316.387 58.784 317.612V323.844H56.7558V317.992C56.7558 317.25 56.6033 316.695 56.2984 316.326C55.9934 315.952 55.5216 315.765 54.8829 315.765C53.9565 315.765 53.3121 316.05 52.9496 316.62C52.5929 317.189 52.4145 318.015 52.4145 319.097V323.844H50.3863V314.289H51.9657L52.2505 315.584H52.3627C52.5698 315.25 52.8259 314.977 53.1309 314.764C53.4416 314.545 53.7868 314.382 54.1665 314.272C54.5521 314.163 54.952 314.108 55.3662 314.108ZM65.3693 314.108C66.5776 314.108 67.4896 314.376 68.1053 314.911C68.7267 315.446 69.0374 316.28 69.0374 317.414V323.844H67.5961L67.2077 322.489H67.1386C66.8682 322.834 66.5892 323.119 66.3015 323.343C66.0138 323.568 65.68 323.734 65.3003 323.844C64.9263 323.959 64.4689 324.016 63.928 324.016C63.3584 324.016 62.8491 323.913 62.4003 323.706C61.9515 323.493 61.5977 323.171 61.3387 322.739C61.0798 322.307 60.9504 321.761 60.9504 321.099C60.9504 320.115 61.3157 319.376 62.0465 318.881C62.783 318.386 63.8935 318.113 65.378 318.061L67.0351 318.001V317.5C67.0351 316.838 66.8797 316.367 66.569 316.085C66.2641 315.803 65.8325 315.662 65.2744 315.662C64.7968 315.662 64.3336 315.731 63.8848 315.869C63.436 316.007 62.9987 316.177 62.573 316.378L61.917 314.945C62.3831 314.698 62.9124 314.497 63.5051 314.341C64.1035 314.186 64.7249 314.108 65.3693 314.108ZM67.0264 319.278L65.7922 319.321C64.7796 319.356 64.069 319.528 63.6604 319.839C63.2519 320.15 63.0476 320.576 63.0476 321.116C63.0476 321.588 63.1886 321.933 63.4706 322.152C63.7525 322.365 64.1236 322.471 64.5839 322.471C65.2859 322.471 65.867 322.273 66.3274 321.876C66.7934 321.473 67.0264 320.883 67.0264 320.107V319.278ZM76.7188 314.108C76.8799 314.108 77.0554 314.117 77.2453 314.134C77.4352 314.151 77.5992 314.174 77.7373 314.203L77.5474 316.102C77.4266 316.067 77.277 316.042 77.0986 316.024C76.926 316.007 76.7706 315.998 76.6325 315.998C76.27 315.998 75.9248 316.059 75.5968 316.18C75.2689 316.295 74.9783 316.473 74.7251 316.715C74.472 316.951 74.2734 317.247 74.1296 317.604C73.9858 317.96 73.9138 318.375 73.9138 318.847V323.844H71.877V314.289H73.465L73.7412 315.972H73.8362C74.026 315.633 74.2619 315.322 74.5439 315.04C74.8258 314.758 75.148 314.534 75.5105 314.367C75.8788 314.195 76.2815 314.108 76.7188 314.108ZM83.3559 324.016C82.4526 324.016 81.67 323.841 81.0083 323.49C80.3467 323.139 79.8374 322.601 79.4807 321.876C79.124 321.151 78.9456 320.23 78.9456 319.114C78.9456 317.952 79.1412 317.002 79.5325 316.266C79.9237 315.529 80.4646 314.986 81.1551 314.635C81.8513 314.284 82.6482 314.108 83.5458 314.108C84.1154 314.108 84.6304 314.166 85.0907 314.281C85.5568 314.39 85.9509 314.525 86.2731 314.686L85.669 316.309C85.318 316.165 84.9584 316.044 84.5901 315.947C84.2219 315.849 83.868 315.8 83.5285 315.8C82.9704 315.8 82.5044 315.924 82.1304 316.171C81.7621 316.418 81.4859 316.787 81.3018 317.276C81.1234 317.765 81.0342 318.372 81.0342 319.097C81.0342 319.799 81.1263 320.391 81.3104 320.875C81.4946 321.352 81.7679 321.715 82.1304 321.962C82.4928 322.204 82.9388 322.325 83.4681 322.325C83.9917 322.325 84.4607 322.261 84.8749 322.135C85.2892 322.008 85.6805 321.844 86.0487 321.643V323.404C85.6862 323.611 85.2979 323.763 84.8836 323.861C84.4693 323.965 83.9601 324.016 83.3559 324.016ZM92.0385 314.108C93.2468 314.108 94.1588 314.376 94.7745 314.911C95.3959 315.446 95.7066 316.28 95.7066 317.414V323.844H94.2653L93.8769 322.489H93.8078C93.5374 322.834 93.2583 323.119 92.9706 323.343C92.683 323.568 92.3492 323.734 91.9695 323.844C91.5955 323.959 91.138 324.016 90.5972 324.016C90.0275 324.016 89.5183 323.913 89.0695 323.706C88.6207 323.493 88.2669 323.171 88.0079 322.739C87.749 322.307 87.6195 321.761 87.6195 321.099C87.6195 320.115 87.9849 319.376 88.7157 318.881C89.4522 318.386 90.5627 318.113 92.0471 318.061L93.7043 318.001V317.5C93.7043 316.838 93.5489 316.367 93.2382 316.085C92.9332 315.803 92.5017 315.662 91.9436 315.662C91.466 315.662 91.0028 315.731 90.554 315.869C90.1052 316.007 89.6679 316.177 89.2421 316.378L88.5862 314.945C89.0523 314.698 89.5816 314.497 90.1743 314.341C90.7727 314.186 91.3941 314.108 92.0385 314.108ZM93.6956 319.278L92.4614 319.321C91.4487 319.356 90.7381 319.528 90.3296 319.839C89.9211 320.15 89.7168 320.576 89.7168 321.116C89.7168 321.588 89.8578 321.933 90.1397 322.152C90.4217 322.365 90.7928 322.471 91.2531 322.471C91.9551 322.471 92.5362 322.273 92.9965 321.876C93.4626 321.473 93.6956 320.883 93.6956 320.107V319.278ZM103.526 314.108C104.602 314.108 105.439 314.387 106.038 314.945C106.642 315.498 106.944 316.387 106.944 317.612V323.844H104.916V317.992C104.916 317.25 104.763 316.695 104.458 316.326C104.153 315.952 103.681 315.765 103.043 315.765C102.116 315.765 101.472 316.05 101.109 316.62C100.753 317.189 100.574 318.015 100.574 319.097V323.844H98.5461V314.289H100.126L100.41 315.584H100.523C100.73 315.25 100.986 314.977 101.291 314.764C101.601 314.545 101.947 314.382 102.326 314.272C102.712 314.163 103.112 314.108 103.526 314.108ZM113.633 319.002C113.633 318.035 113.725 317.092 113.909 316.171C114.099 315.25 114.387 314.373 114.772 313.539C115.158 312.704 115.644 311.933 116.231 311.226H118C117.177 312.325 116.556 313.541 116.136 314.876C115.721 316.211 115.514 317.581 115.514 318.985C115.514 319.899 115.606 320.806 115.79 321.703C115.975 322.601 116.251 323.464 116.619 324.293C116.987 325.127 117.442 325.909 117.983 326.64H116.231C115.644 325.95 115.158 325.196 114.772 324.379C114.387 323.562 114.099 322.699 113.909 321.79C113.725 320.881 113.633 319.951 113.633 319.002ZM124.965 314.108C126.041 314.108 126.878 314.387 127.477 314.945C128.081 315.498 128.383 316.387 128.383 317.612V323.844H126.355V317.992C126.355 317.25 126.202 316.695 125.897 316.326C125.592 315.952 125.12 315.765 124.482 315.765C123.555 315.765 122.911 316.05 122.548 316.62C122.192 317.189 122.013 318.015 122.013 319.097V323.844H119.985V314.289H121.565L121.849 315.584H121.962C122.169 315.25 122.425 314.977 122.73 314.764C123.04 314.545 123.386 314.382 123.765 314.272C124.151 314.163 124.551 314.108 124.965 314.108ZM134.968 314.108C136.176 314.108 137.088 314.376 137.704 314.911C138.326 315.446 138.636 316.28 138.636 317.414V323.844H137.195L136.807 322.489H136.737C136.467 322.834 136.188 323.119 135.9 323.343C135.613 323.568 135.279 323.734 134.899 323.844C134.525 323.959 134.068 324.016 133.527 324.016C132.957 324.016 132.448 323.913 131.999 323.706C131.55 323.493 131.196 323.171 130.938 322.739C130.679 322.307 130.549 321.761 130.549 321.099C130.549 320.115 130.915 319.376 131.645 318.881C132.382 318.386 133.492 318.113 134.977 318.061L136.634 318.001V317.5C136.634 316.838 136.479 316.367 136.168 316.085C135.863 315.803 135.431 315.662 134.873 315.662C134.396 315.662 133.932 315.731 133.484 315.869C133.035 316.007 132.598 316.177 132.172 316.378L131.516 314.945C131.982 314.698 132.511 314.497 133.104 314.341C133.702 314.186 134.324 314.108 134.968 314.108ZM136.625 319.278L135.391 319.321C134.378 319.356 133.668 319.528 133.259 319.839C132.851 320.15 132.646 320.576 132.646 321.116C132.646 321.588 132.787 321.933 133.069 322.152C133.351 322.365 133.722 322.471 134.183 322.471C134.885 322.471 135.466 322.273 135.926 321.876C136.392 321.473 136.625 320.883 136.625 320.107V319.278ZM147.897 321.116C147.897 321.744 147.745 322.273 147.44 322.704C147.135 323.136 146.689 323.464 146.102 323.688C145.521 323.907 144.807 324.016 143.961 324.016C143.294 324.016 142.719 323.967 142.235 323.87C141.758 323.778 141.306 323.634 140.88 323.438V321.686C141.335 321.899 141.844 322.083 142.408 322.238C142.978 322.394 143.516 322.471 144.022 322.471C144.689 322.471 145.17 322.368 145.463 322.161C145.757 321.948 145.903 321.666 145.903 321.315C145.903 321.108 145.843 320.924 145.722 320.763C145.607 320.596 145.388 320.426 145.066 320.253C144.75 320.075 144.284 319.862 143.668 319.615C143.064 319.373 142.555 319.131 142.14 318.89C141.726 318.648 141.412 318.357 141.2 318.018C140.987 317.673 140.88 317.233 140.88 316.697C140.88 315.852 141.214 315.21 141.881 314.773C142.555 314.33 143.444 314.108 144.548 314.108C145.135 314.108 145.688 314.169 146.205 314.289C146.729 314.405 147.241 314.574 147.742 314.799L147.103 316.326C146.672 316.136 146.237 315.981 145.8 315.86C145.368 315.734 144.928 315.67 144.479 315.67C143.956 315.67 143.556 315.751 143.28 315.912C143.009 316.073 142.874 316.303 142.874 316.603C142.874 316.827 142.94 317.017 143.072 317.172C143.205 317.327 143.432 317.483 143.754 317.638C144.082 317.794 144.537 317.986 145.118 318.216C145.688 318.435 146.18 318.665 146.594 318.907C147.014 319.143 147.336 319.433 147.56 319.779C147.785 320.124 147.897 320.57 147.897 321.116ZM153.835 314.108C155.043 314.108 155.955 314.376 156.571 314.911C157.192 315.446 157.503 316.28 157.503 317.414V323.844H156.062L155.673 322.489H155.604C155.334 322.834 155.055 323.119 154.767 323.343C154.48 323.568 154.146 323.734 153.766 323.844C153.392 323.959 152.935 324.016 152.394 324.016C151.824 324.016 151.315 323.913 150.866 323.706C150.417 323.493 150.063 323.171 149.804 322.739C149.546 322.307 149.416 321.761 149.416 321.099C149.416 320.115 149.781 319.376 150.512 318.881C151.249 318.386 152.359 318.113 153.844 318.061L155.501 318.001V317.5C155.501 316.838 155.345 316.367 155.035 316.085C154.73 315.803 154.298 315.662 153.74 315.662C153.263 315.662 152.799 315.731 152.351 315.869C151.902 316.007 151.464 316.177 151.039 316.378L150.383 314.945C150.849 314.698 151.378 314.497 151.971 314.341C152.569 314.186 153.191 314.108 153.835 314.108ZM155.492 319.278L154.258 319.321C153.245 319.356 152.535 319.528 152.126 319.839C151.718 320.15 151.513 320.576 151.513 321.116C151.513 321.588 151.654 321.933 151.936 322.152C152.218 322.365 152.589 322.471 153.05 322.471C153.752 322.471 154.333 322.273 154.793 321.876C155.259 321.473 155.492 320.883 155.492 320.107V319.278ZM162.38 323.844H160.343V310.414H162.38V323.844ZM176.292 321.116C176.292 321.744 176.14 322.273 175.835 322.704C175.53 323.136 175.084 323.464 174.497 323.688C173.916 323.907 173.203 324.016 172.357 324.016C171.689 324.016 171.114 323.967 170.631 323.87C170.153 323.778 169.701 323.634 169.276 323.438V321.686C169.73 321.899 170.239 322.083 170.803 322.238C171.373 322.394 171.911 322.471 172.417 322.471C173.085 322.471 173.565 322.368 173.859 322.161C174.152 321.948 174.299 321.666 174.299 321.315C174.299 321.108 174.238 320.924 174.117 320.763C174.002 320.596 173.784 320.426 173.462 320.253C173.145 320.075 172.679 319.862 172.063 319.615C171.459 319.373 170.95 319.131 170.536 318.89C170.121 318.648 169.808 318.357 169.595 318.018C169.382 317.673 169.276 317.233 169.276 316.697C169.276 315.852 169.609 315.21 170.277 314.773C170.95 314.33 171.839 314.108 172.944 314.108C173.531 314.108 174.083 314.169 174.601 314.289C175.124 314.405 175.636 314.574 176.137 314.799L175.498 316.326C175.067 316.136 174.632 315.981 174.195 315.86C173.764 315.734 173.323 315.67 172.875 315.67C172.351 315.67 171.951 315.751 171.675 315.912C171.405 316.073 171.269 316.303 171.269 316.603C171.269 316.827 171.335 317.017 171.468 317.172C171.6 317.327 171.827 317.483 172.15 317.638C172.478 317.794 172.932 317.986 173.513 318.216C174.083 318.435 174.575 318.665 174.989 318.907C175.409 319.143 175.731 319.433 175.956 319.779C176.18 320.124 176.292 320.57 176.292 321.116ZM183.387 314.108C184.52 314.108 185.43 314.522 186.114 315.351C186.805 316.18 187.15 317.411 187.15 319.045C187.15 320.127 186.989 321.039 186.667 321.781C186.35 322.517 185.904 323.076 185.329 323.455C184.759 323.829 184.095 324.016 183.335 324.016C182.852 324.016 182.432 323.953 182.075 323.826C181.718 323.7 181.413 323.536 181.16 323.335C180.907 323.127 180.694 322.903 180.522 322.661H180.401C180.429 322.891 180.455 323.148 180.478 323.429C180.507 323.706 180.522 323.959 180.522 324.189V328.081H178.485V314.289H180.142L180.427 315.61H180.522C180.7 315.34 180.916 315.089 181.169 314.859C181.428 314.629 181.738 314.448 182.101 314.315C182.469 314.177 182.898 314.108 183.387 314.108ZM182.843 315.765C182.285 315.765 181.836 315.878 181.497 316.102C181.163 316.321 180.919 316.651 180.763 317.094C180.614 317.538 180.533 318.093 180.522 318.76V319.045C180.522 319.753 180.593 320.354 180.737 320.849C180.887 321.338 181.131 321.712 181.471 321.971C181.816 322.224 182.282 322.351 182.869 322.351C183.364 322.351 183.772 322.215 184.095 321.945C184.423 321.675 184.667 321.289 184.828 320.788C184.989 320.288 185.07 319.698 185.07 319.019C185.07 317.989 184.886 317.189 184.518 316.62C184.155 316.05 183.597 315.765 182.843 315.765ZM194.339 314.108C194.501 314.108 194.676 314.117 194.866 314.134C195.056 314.151 195.22 314.174 195.358 314.203L195.168 316.102C195.047 316.067 194.898 316.042 194.719 316.024C194.547 316.007 194.391 315.998 194.253 315.998C193.891 315.998 193.545 316.059 193.217 316.18C192.889 316.295 192.599 316.473 192.346 316.715C192.093 316.951 191.894 317.247 191.75 317.604C191.606 317.96 191.534 318.375 191.534 318.847V323.844H189.498V314.289H191.086L191.362 315.972H191.457C191.647 315.633 191.883 315.322 192.164 315.04C192.446 314.758 192.769 314.534 193.131 314.367C193.499 314.195 193.902 314.108 194.339 314.108ZM200.873 314.108C202.081 314.108 202.993 314.376 203.609 314.911C204.23 315.446 204.541 316.28 204.541 317.414V323.844H203.1L202.711 322.489H202.642C202.372 322.834 202.093 323.119 201.805 323.343C201.517 323.568 201.184 323.734 200.804 323.844C200.43 323.959 199.972 324.016 199.432 324.016C198.862 324.016 198.353 323.913 197.904 323.706C197.455 323.493 197.101 323.171 196.842 322.739C196.583 322.307 196.454 321.761 196.454 321.099C196.454 320.115 196.819 319.376 197.55 318.881C198.287 318.386 199.397 318.113 200.882 318.061L202.539 318.001V317.5C202.539 316.838 202.383 316.367 202.073 316.085C201.768 315.803 201.336 315.662 200.778 315.662C200.3 315.662 199.837 315.731 199.388 315.869C198.94 316.007 198.502 316.177 198.077 316.378L197.421 314.945C197.887 314.698 198.416 314.497 199.009 314.341C199.607 314.186 200.229 314.108 200.873 314.108ZM202.53 319.278L201.296 319.321C200.283 319.356 199.573 319.528 199.164 319.839C198.756 320.15 198.551 320.576 198.551 321.116C198.551 321.588 198.692 321.933 198.974 322.152C199.256 322.365 199.627 322.471 200.088 322.471C200.79 322.471 201.371 322.273 201.831 321.876C202.297 321.473 202.53 320.883 202.53 320.107V319.278ZM205.939 314.289H208.149L210.108 319.744C210.194 319.992 210.272 320.236 210.341 320.478C210.416 320.714 210.479 320.947 210.531 321.177C210.588 321.407 210.634 321.637 210.669 321.867H210.721C210.778 321.568 210.859 321.234 210.962 320.866C211.072 320.492 211.193 320.118 211.325 319.744L213.206 314.289H215.39L211.29 325.156C211.054 325.777 210.764 326.306 210.419 326.744C210.079 327.187 209.676 327.52 209.21 327.745C208.744 327.975 208.212 328.09 207.614 328.09C207.326 328.09 207.076 328.073 206.863 328.038C206.65 328.01 206.469 327.978 206.319 327.943V326.321C206.44 326.35 206.592 326.375 206.776 326.398C206.961 326.421 207.15 326.433 207.346 326.433C207.709 326.433 208.022 326.361 208.287 326.217C208.552 326.073 208.776 325.869 208.96 325.604C209.144 325.346 209.297 325.049 209.417 324.715L209.754 323.818L205.939 314.289ZM220.284 318.993C220.284 319.948 220.192 320.881 220.007 321.79C219.823 322.699 219.539 323.562 219.153 324.379C218.773 325.196 218.284 325.95 217.686 326.64H215.942C216.483 325.909 216.938 325.127 217.306 324.293C217.674 323.458 217.95 322.592 218.135 321.695C218.319 320.797 218.411 319.891 218.411 318.976C218.411 318.044 218.316 317.123 218.126 316.214C217.942 315.305 217.666 314.43 217.297 313.59C216.929 312.745 216.472 311.956 215.925 311.226H217.686C218.284 311.933 218.773 312.704 219.153 313.539C219.539 314.373 219.823 315.25 220.007 316.171C220.192 317.086 220.284 318.027 220.284 318.993Z" fill="#CEDAEF"/>
<path d="M301.423 410.03C301.423 421.582 292.058 430.946 280.506 430.946C268.954 430.946 259.59 421.582 259.59 410.03C259.59 398.478 268.954 389.113 280.506 389.113C292.058 389.113 301.423 398.478 301.423 410.03Z" fill="#CEDAEF"/>
<path d="M119.944 403.844H117.864V392.986H114.17V391.226H123.629V392.986H119.944V403.844ZM129.101 394.108C130.309 394.108 131.221 394.376 131.837 394.911C132.458 395.446 132.769 396.28 132.769 397.414V403.844H131.328L130.939 402.489H130.87C130.6 402.834 130.321 403.119 130.033 403.343C129.745 403.568 129.412 403.734 129.032 403.844C128.658 403.959 128.2 404.016 127.66 404.016C127.09 404.016 126.581 403.913 126.132 403.706C125.683 403.493 125.329 403.171 125.07 402.739C124.811 402.307 124.682 401.761 124.682 401.099C124.682 400.115 125.047 399.376 125.778 398.881C126.515 398.386 127.625 398.113 129.11 398.061L130.767 398.001V397.5C130.767 396.838 130.611 396.367 130.301 396.085C129.996 395.803 129.564 395.662 129.006 395.662C128.528 395.662 128.065 395.731 127.616 395.869C127.168 396.007 126.73 396.177 126.305 396.378L125.649 394.945C126.115 394.698 126.644 394.497 127.237 394.341C127.835 394.186 128.456 394.108 129.101 394.108ZM130.758 399.278L129.524 399.321C128.511 399.356 127.801 399.528 127.392 399.839C126.983 400.15 126.779 400.576 126.779 401.116C126.779 401.588 126.92 401.933 127.202 402.152C127.484 402.365 127.855 402.471 128.315 402.471C129.017 402.471 129.599 402.273 130.059 401.876C130.525 401.473 130.758 400.883 130.758 400.107V399.278ZM137.637 390.414V396.905C137.637 397.198 137.625 397.52 137.602 397.871C137.579 398.216 137.556 398.542 137.533 398.847H137.576C137.726 398.645 137.904 398.409 138.111 398.139C138.324 397.868 138.526 397.632 138.716 397.431L141.633 394.289H143.963L140.14 398.398L144.213 403.844H141.831L138.776 399.649L137.637 400.624V403.844H135.609V390.414H137.637ZM149.547 394.108C150.399 394.108 151.13 394.284 151.739 394.635C152.349 394.986 152.818 395.483 153.146 396.128C153.474 396.772 153.638 397.543 153.638 398.441V399.528H147.26C147.283 400.455 147.531 401.168 148.002 401.669C148.48 402.169 149.147 402.42 150.005 402.42C150.615 402.42 151.161 402.362 151.645 402.247C152.134 402.126 152.637 401.951 153.155 401.721V403.369C152.677 403.593 152.191 403.757 151.696 403.861C151.202 403.965 150.609 404.016 149.918 404.016C148.981 404.016 148.155 403.835 147.441 403.473C146.734 403.104 146.178 402.558 145.776 401.833C145.379 401.108 145.18 400.207 145.18 399.131C145.18 398.061 145.361 397.152 145.724 396.404C146.086 395.656 146.596 395.086 147.251 394.695C147.907 394.304 148.673 394.108 149.547 394.108ZM149.547 395.636C148.909 395.636 148.391 395.843 147.994 396.257C147.602 396.672 147.372 397.279 147.303 398.078H151.653C151.647 397.601 151.567 397.178 151.412 396.81C151.262 396.441 151.032 396.154 150.721 395.947C150.416 395.739 150.025 395.636 149.547 395.636ZM160.905 394.108C161.981 394.108 162.819 394.387 163.417 394.945C164.021 395.498 164.323 396.387 164.323 397.612V403.844H162.295V397.992C162.295 397.25 162.142 396.695 161.838 396.326C161.533 395.952 161.061 395.765 160.422 395.765C159.496 395.765 158.851 396.05 158.489 396.62C158.132 397.189 157.954 398.015 157.954 399.097V403.844H155.925V394.289H157.505L157.79 395.584H157.902C158.109 395.25 158.365 394.977 158.67 394.764C158.981 394.545 159.326 394.382 159.706 394.272C160.091 394.163 160.491 394.108 160.905 394.108ZM175.31 402.377C175.575 402.377 175.837 402.353 176.096 402.307C176.355 402.256 176.59 402.195 176.803 402.126V403.663C176.579 403.76 176.288 403.844 175.932 403.913C175.575 403.982 175.204 404.016 174.818 404.016C174.277 404.016 173.791 403.927 173.36 403.749C172.928 403.565 172.586 403.251 172.333 402.808C172.079 402.365 171.953 401.752 171.953 400.97V395.834H170.65V394.928L172.048 394.212L172.712 392.166H173.99V394.289H176.726V395.834H173.99V400.944C173.99 401.427 174.111 401.787 174.352 402.023C174.594 402.259 174.913 402.377 175.31 402.377ZM187.203 399.045C187.203 399.839 187.1 400.544 186.893 401.16C186.686 401.775 186.384 402.296 185.987 402.722C185.59 403.142 185.112 403.464 184.554 403.688C183.996 403.907 183.366 404.016 182.664 404.016C182.008 404.016 181.406 403.907 180.86 403.688C180.313 403.464 179.839 403.142 179.436 402.722C179.039 402.296 178.731 401.775 178.512 401.16C178.294 400.544 178.184 399.839 178.184 399.045C178.184 397.992 178.366 397.1 178.728 396.369C179.096 395.633 179.62 395.072 180.299 394.686C180.978 394.301 181.786 394.108 182.724 394.108C183.604 394.108 184.381 394.301 185.054 394.686C185.728 395.072 186.254 395.633 186.634 396.369C187.014 397.106 187.203 397.998 187.203 399.045ZM180.273 399.045C180.273 399.741 180.356 400.337 180.523 400.832C180.696 401.326 180.961 401.706 181.317 401.971C181.674 402.23 182.134 402.359 182.698 402.359C183.262 402.359 183.722 402.23 184.079 401.971C184.436 401.706 184.698 401.326 184.865 400.832C185.031 400.337 185.115 399.741 185.115 399.045C185.115 398.349 185.031 397.759 184.865 397.276C184.698 396.787 184.436 396.416 184.079 396.162C183.722 395.903 183.259 395.774 182.69 395.774C181.849 395.774 181.237 396.056 180.851 396.62C180.466 397.184 180.273 397.992 180.273 399.045ZM197.681 402.377C197.946 402.377 198.208 402.353 198.467 402.307C198.726 402.256 198.962 402.195 199.174 402.126V403.663C198.95 403.76 198.659 403.844 198.303 403.913C197.946 403.982 197.575 404.016 197.189 404.016C196.648 404.016 196.162 403.927 195.731 403.749C195.299 403.565 194.957 403.251 194.704 402.808C194.45 402.365 194.324 401.752 194.324 400.97V395.834H193.021V394.928L194.419 394.212L195.083 392.166H196.361V394.289H199.097V395.834H196.361V400.944C196.361 401.427 196.482 401.787 196.723 402.023C196.965 402.259 197.284 402.377 197.681 402.377ZM203.145 390.414V393.789C203.145 394.14 203.133 394.482 203.11 394.816C203.093 395.15 203.073 395.409 203.05 395.593H203.162C203.363 395.259 203.611 394.986 203.904 394.773C204.198 394.554 204.526 394.39 204.888 394.281C205.256 394.171 205.648 394.117 206.062 394.117C206.793 394.117 207.414 394.241 207.926 394.488C208.438 394.73 208.829 395.106 209.1 395.619C209.376 396.131 209.514 396.795 209.514 397.612V403.844H207.486V397.992C207.486 397.25 207.333 396.695 207.028 396.326C206.723 395.952 206.252 395.765 205.613 395.765C204.997 395.765 204.508 395.895 204.146 396.154C203.789 396.407 203.533 396.784 203.378 397.284C203.222 397.779 203.145 398.383 203.145 399.097V403.844H201.116V390.414H203.145ZM216.16 394.108C217.011 394.108 217.742 394.284 218.352 394.635C218.962 394.986 219.431 395.483 219.759 396.128C220.087 396.772 220.251 397.543 220.251 398.441V399.528H213.873C213.896 400.455 214.143 401.168 214.615 401.669C215.092 402.169 215.76 402.42 216.617 402.42C217.227 402.42 217.774 402.362 218.257 402.247C218.746 402.126 219.25 401.951 219.768 401.721V403.369C219.29 403.593 218.804 403.757 218.309 403.861C217.814 403.965 217.221 404.016 216.531 404.016C215.593 404.016 214.767 403.835 214.054 403.473C213.346 403.104 212.791 402.558 212.388 401.833C211.991 401.108 211.793 400.207 211.793 399.131C211.793 398.061 211.974 397.152 212.336 396.404C212.699 395.656 213.208 395.086 213.864 394.695C214.52 394.304 215.285 394.108 216.16 394.108ZM216.16 395.636C215.521 395.636 215.003 395.843 214.606 396.257C214.215 396.672 213.985 397.279 213.916 398.078H218.266C218.26 397.601 218.179 397.178 218.024 396.81C217.874 396.441 217.644 396.154 217.334 395.947C217.029 395.739 216.637 395.636 216.16 395.636ZM132.009 418.108C132.861 418.108 133.592 418.284 134.202 418.635C134.812 418.986 135.281 419.483 135.609 420.128C135.936 420.772 136.1 421.543 136.1 422.441V423.528H129.722C129.745 424.455 129.993 425.168 130.465 425.669C130.942 426.169 131.61 426.42 132.467 426.42C133.077 426.42 133.623 426.362 134.107 426.247C134.596 426.126 135.099 425.951 135.617 425.721V427.369C135.14 427.593 134.653 427.757 134.159 427.861C133.664 427.965 133.071 428.016 132.381 428.016C131.443 428.016 130.617 427.835 129.904 427.473C129.196 427.104 128.641 426.558 128.238 425.833C127.841 425.108 127.642 424.207 127.642 423.131C127.642 422.061 127.824 421.152 128.186 420.404C128.549 419.656 129.058 419.086 129.714 418.695C130.37 418.304 131.135 418.108 132.009 418.108ZM132.009 419.636C131.371 419.636 130.853 419.843 130.456 420.257C130.065 420.672 129.835 421.279 129.765 422.078H134.115C134.11 421.601 134.029 421.178 133.874 420.81C133.724 420.441 133.494 420.154 133.183 419.947C132.878 419.739 132.487 419.636 132.009 419.636ZM149.185 418.108C150.255 418.108 151.061 418.384 151.601 418.937C152.148 419.489 152.421 420.375 152.421 421.595V427.844H150.393V421.958C150.393 421.233 150.252 420.686 149.97 420.318C149.688 419.949 149.26 419.765 148.684 419.765C147.879 419.765 147.298 420.024 146.941 420.542C146.59 421.054 146.414 421.799 146.414 422.777V427.844H144.386V421.958C144.386 421.474 144.323 421.071 144.196 420.749C144.075 420.421 143.888 420.177 143.635 420.016C143.382 419.849 143.063 419.765 142.677 419.765C142.119 419.765 141.673 419.892 141.339 420.145C141.011 420.398 140.775 420.772 140.632 421.267C140.488 421.756 140.416 422.357 140.416 423.071V427.844H138.388V418.289H139.967L140.252 419.575H140.364C140.56 419.242 140.801 418.968 141.089 418.756C141.383 418.537 141.708 418.376 142.064 418.272C142.421 418.163 142.792 418.108 143.178 418.108C143.891 418.108 144.492 418.235 144.982 418.488C145.471 418.735 145.836 419.115 146.078 419.627H146.233C146.532 419.109 146.949 418.727 147.485 418.479C148.02 418.232 148.586 418.108 149.185 418.108ZM159.058 418.108C159.91 418.108 160.641 418.284 161.251 418.635C161.861 418.986 162.329 419.483 162.657 420.128C162.985 420.772 163.149 421.543 163.149 422.441V423.528H156.771C156.794 424.455 157.042 425.168 157.514 425.669C157.991 426.169 158.659 426.42 159.516 426.42C160.126 426.42 160.672 426.362 161.156 426.247C161.645 426.126 162.148 425.951 162.666 425.721V427.369C162.189 427.593 161.702 427.757 161.207 427.861C160.713 427.965 160.12 428.016 159.43 428.016C158.492 428.016 157.666 427.835 156.953 427.473C156.245 427.104 155.69 426.558 155.287 425.833C154.89 425.108 154.691 424.207 154.691 423.131C154.691 422.061 154.872 421.152 155.235 420.404C155.597 419.656 156.107 419.086 156.763 418.695C157.419 418.304 158.184 418.108 159.058 418.108ZM159.058 419.636C158.42 419.636 157.902 419.843 157.505 420.257C157.114 420.672 156.883 421.279 156.814 422.078H161.164C161.159 421.601 161.078 421.178 160.923 420.81C160.773 420.441 160.543 420.154 160.232 419.947C159.927 419.739 159.536 419.636 159.058 419.636ZM170.278 418.108C170.44 418.108 170.615 418.117 170.805 418.134C170.995 418.151 171.159 418.174 171.297 418.203L171.107 420.102C170.986 420.067 170.837 420.042 170.658 420.024C170.486 420.007 170.33 419.998 170.192 419.998C169.83 419.998 169.484 420.059 169.156 420.18C168.828 420.295 168.538 420.473 168.285 420.715C168.032 420.951 167.833 421.247 167.689 421.604C167.545 421.96 167.473 422.375 167.473 422.847V427.844H165.437V418.289H167.025L167.301 419.972H167.396C167.586 419.633 167.822 419.322 168.104 419.04C168.385 418.758 168.708 418.534 169.07 418.367C169.438 418.195 169.841 418.108 170.278 418.108ZM175.794 432.09C174.499 432.09 173.506 431.857 172.816 431.391C172.125 430.925 171.78 430.272 171.78 429.432C171.78 428.845 171.964 428.347 172.333 427.939C172.701 427.536 173.227 427.257 173.912 427.102C173.653 426.986 173.429 426.808 173.239 426.566C173.055 426.319 172.963 426.046 172.963 425.746C172.963 425.39 173.063 425.085 173.265 424.832C173.466 424.578 173.768 424.334 174.171 424.098C173.67 423.885 173.268 423.54 172.963 423.062C172.663 422.579 172.514 422.012 172.514 421.362C172.514 420.672 172.661 420.085 172.954 419.601C173.247 419.112 173.676 418.741 174.24 418.488C174.804 418.229 175.486 418.1 176.286 418.1C176.458 418.1 176.645 418.111 176.847 418.134C177.054 418.151 177.244 418.174 177.416 418.203C177.595 418.226 177.73 418.252 177.822 418.281H181.127V419.411L179.505 419.714C179.66 419.932 179.784 420.182 179.876 420.464C179.968 420.741 180.014 421.043 180.014 421.371C180.014 422.36 179.672 423.14 178.987 423.71C178.308 424.273 177.37 424.555 176.173 424.555C175.886 424.544 175.607 424.521 175.336 424.486C175.129 424.613 174.971 424.754 174.861 424.909C174.752 425.059 174.697 425.229 174.697 425.418C174.697 425.574 174.752 425.7 174.861 425.798C174.971 425.89 175.132 425.959 175.345 426.005C175.563 426.051 175.828 426.074 176.139 426.074H177.787C178.834 426.074 179.634 426.296 180.187 426.739C180.739 427.182 181.015 427.832 181.015 428.69C181.015 429.777 180.566 430.614 179.669 431.201C178.771 431.794 177.479 432.09 175.794 432.09ZM175.871 430.666C176.579 430.666 177.174 430.597 177.658 430.459C178.141 430.321 178.507 430.122 178.754 429.863C179.001 429.61 179.125 429.308 179.125 428.957C179.125 428.646 179.047 428.408 178.892 428.241C178.737 428.074 178.504 427.959 178.193 427.896C177.882 427.832 177.497 427.801 177.036 427.801H175.535C175.161 427.801 174.83 427.858 174.542 427.973C174.254 428.094 174.03 428.267 173.869 428.491C173.714 428.715 173.636 428.986 173.636 429.302C173.636 429.74 173.829 430.076 174.214 430.312C174.605 430.548 175.158 430.666 175.871 430.666ZM176.268 423.226C176.861 423.226 177.301 423.065 177.589 422.743C177.876 422.415 178.02 421.955 178.02 421.362C178.02 420.718 177.871 420.234 177.571 419.912C177.278 419.59 176.841 419.429 176.26 419.429C175.69 419.429 175.256 419.593 174.956 419.921C174.663 420.249 174.516 420.735 174.516 421.379C174.516 421.96 174.663 422.415 174.956 422.743C175.256 423.065 175.693 423.226 176.268 423.226ZM186.677 418.108C187.529 418.108 188.259 418.284 188.869 418.635C189.479 418.986 189.948 419.483 190.276 420.128C190.604 420.772 190.768 421.543 190.768 422.441V423.528H184.39C184.413 424.455 184.66 425.168 185.132 425.669C185.61 426.169 186.277 426.42 187.134 426.42C187.744 426.42 188.291 426.362 188.774 426.247C189.263 426.126 189.767 425.951 190.285 425.721V427.369C189.807 427.593 189.321 427.757 188.826 427.861C188.331 427.965 187.739 428.016 187.048 428.016C186.11 428.016 185.285 427.835 184.571 427.473C183.863 427.104 183.308 426.558 182.905 425.833C182.508 425.108 182.31 424.207 182.31 423.131C182.31 422.061 182.491 421.152 182.854 420.404C183.216 419.656 183.725 419.086 184.381 418.695C185.037 418.304 185.802 418.108 186.677 418.108ZM186.677 419.636C186.038 419.636 185.52 419.843 185.123 420.257C184.732 420.672 184.502 421.279 184.433 422.078H188.783C188.777 421.601 188.697 421.178 188.541 420.81C188.392 420.441 188.161 420.154 187.851 419.947C187.546 419.739 187.155 419.636 186.677 419.636ZM198.035 418.108C199.111 418.108 199.948 418.387 200.547 418.945C201.151 419.498 201.453 420.387 201.453 421.612V427.844H199.425V421.992C199.425 421.25 199.272 420.695 198.967 420.326C198.662 419.952 198.19 419.765 197.552 419.765C196.625 419.765 195.981 420.05 195.619 420.62C195.262 421.189 195.083 422.015 195.083 423.097V427.844H193.055V418.289H194.635L194.919 419.584H195.032C195.239 419.25 195.495 418.977 195.8 418.764C196.11 418.545 196.456 418.382 196.835 418.272C197.221 418.163 197.621 418.108 198.035 418.108ZM208.142 428.016C207.238 428.016 206.456 427.841 205.794 427.49C205.133 427.139 204.623 426.601 204.267 425.876C203.91 425.151 203.731 424.23 203.731 423.114C203.731 421.952 203.927 421.002 204.318 420.266C204.71 419.529 205.25 418.986 205.941 418.635C206.637 418.284 207.434 418.108 208.332 418.108C208.901 418.108 209.416 418.166 209.877 418.281C210.343 418.39 210.737 418.525 211.059 418.686L210.455 420.309C210.104 420.165 209.744 420.044 209.376 419.947C209.008 419.849 208.654 419.8 208.314 419.8C207.756 419.8 207.29 419.924 206.916 420.171C206.548 420.418 206.272 420.787 206.088 421.276C205.909 421.765 205.82 422.372 205.82 423.097C205.82 423.799 205.912 424.391 206.096 424.875C206.28 425.352 206.554 425.715 206.916 425.962C207.279 426.204 207.725 426.325 208.254 426.325C208.778 426.325 209.247 426.261 209.661 426.135C210.075 426.008 210.466 425.844 210.835 425.643V427.404C210.472 427.611 210.084 427.763 209.669 427.861C209.255 427.965 208.746 428.016 208.142 428.016ZM211.637 418.289H213.847L215.806 423.744C215.892 423.992 215.97 424.236 216.039 424.478C216.114 424.714 216.177 424.947 216.229 425.177C216.286 425.407 216.332 425.637 216.367 425.867H216.419C216.476 425.568 216.557 425.234 216.66 424.866C216.77 424.492 216.891 424.118 217.023 423.744L218.904 418.289H221.088L216.988 429.156C216.752 429.777 216.462 430.306 216.117 430.744C215.777 431.187 215.374 431.52 214.908 431.745C214.442 431.975 213.91 432.09 213.312 432.09C213.024 432.09 212.774 432.073 212.561 432.038C212.348 432.01 212.167 431.978 212.017 431.943V430.321C212.138 430.35 212.29 430.375 212.474 430.398C212.659 430.421 212.848 430.433 213.044 430.433C213.407 430.433 213.72 430.361 213.985 430.217C214.25 430.073 214.474 429.869 214.658 429.604C214.842 429.346 214.995 429.049 215.115 428.715L215.452 427.818L211.637 418.289ZM181.309 442.108C181.47 442.108 181.645 442.117 181.835 442.134C182.025 442.151 182.189 442.174 182.327 442.203L182.137 444.102C182.016 444.067 181.867 444.042 181.688 444.024C181.516 444.007 181.36 443.998 181.222 443.998C180.86 443.998 180.515 444.059 180.187 444.18C179.859 444.295 179.568 444.473 179.315 444.715C179.062 444.951 178.863 445.247 178.719 445.604C178.576 445.96 178.504 446.375 178.504 446.847V451.844H176.467V442.289H178.055L178.331 443.972H178.426C178.616 443.633 178.852 443.322 179.134 443.04C179.416 442.758 179.738 442.534 180.1 442.367C180.469 442.195 180.871 442.108 181.309 442.108ZM192.555 447.045C192.555 447.839 192.451 448.544 192.244 449.16C192.037 449.775 191.735 450.296 191.338 450.722C190.941 451.142 190.463 451.464 189.905 451.688C189.347 451.907 188.717 452.016 188.015 452.016C187.359 452.016 186.758 451.907 186.211 451.688C185.664 451.464 185.19 451.142 184.787 450.722C184.39 450.296 184.082 449.775 183.863 449.16C183.645 448.544 183.535 447.839 183.535 447.045C183.535 445.992 183.717 445.1 184.079 444.369C184.447 443.633 184.971 443.072 185.65 442.686C186.329 442.301 187.137 442.108 188.075 442.108C188.956 442.108 189.732 442.301 190.406 442.686C191.079 443.072 191.605 443.633 191.985 444.369C192.365 445.106 192.555 445.998 192.555 447.045ZM185.624 447.045C185.624 447.741 185.707 448.337 185.874 448.832C186.047 449.326 186.312 449.706 186.668 449.971C187.025 450.23 187.485 450.359 188.049 450.359C188.613 450.359 189.073 450.23 189.43 449.971C189.787 449.706 190.049 449.326 190.216 448.832C190.382 448.337 190.466 447.741 190.466 447.045C190.466 446.349 190.382 445.759 190.216 445.276C190.049 444.787 189.787 444.416 189.43 444.162C189.073 443.903 188.61 443.774 188.041 443.774C187.201 443.774 186.588 444.056 186.202 444.62C185.817 445.184 185.624 445.992 185.624 447.045ZM203.343 447.045C203.343 447.839 203.24 448.544 203.032 449.16C202.825 449.775 202.523 450.296 202.126 450.722C201.729 451.142 201.252 451.464 200.693 451.688C200.135 451.907 199.505 452.016 198.803 452.016C198.147 452.016 197.546 451.907 196.999 451.688C196.453 451.464 195.978 451.142 195.575 450.722C195.178 450.296 194.871 449.775 194.652 449.16C194.433 448.544 194.324 447.839 194.324 447.045C194.324 445.992 194.505 445.1 194.868 444.369C195.236 443.633 195.759 443.072 196.438 442.686C197.117 442.301 197.926 442.108 198.864 442.108C199.744 442.108 200.521 442.301 201.194 442.686C201.867 443.072 202.394 443.633 202.773 444.369C203.153 445.106 203.343 445.998 203.343 447.045ZM196.413 447.045C196.413 447.741 196.496 448.337 196.663 448.832C196.835 449.326 197.1 449.706 197.457 449.971C197.814 450.23 198.274 450.359 198.838 450.359C199.402 450.359 199.862 450.23 200.219 449.971C200.575 449.706 200.837 449.326 201.004 448.832C201.171 448.337 201.254 447.741 201.254 447.045C201.254 446.349 201.171 445.759 201.004 445.276C200.837 444.787 200.575 444.416 200.219 444.162C199.862 443.903 199.399 443.774 198.829 443.774C197.989 443.774 197.376 444.056 196.991 444.62C196.605 445.184 196.413 445.992 196.413 447.045ZM216.471 442.108C217.541 442.108 218.346 442.384 218.887 442.937C219.434 443.489 219.707 444.375 219.707 445.595V451.844H217.679V445.958C217.679 445.233 217.538 444.686 217.256 444.318C216.974 443.949 216.545 443.765 215.97 443.765C215.164 443.765 214.583 444.024 214.227 444.542C213.876 445.054 213.7 445.799 213.7 446.777V451.844H211.672V445.958C211.672 445.474 211.609 445.071 211.482 444.749C211.361 444.421 211.174 444.177 210.921 444.016C210.668 443.849 210.348 443.765 209.963 443.765C209.405 443.765 208.959 443.892 208.625 444.145C208.297 444.398 208.061 444.772 207.917 445.267C207.774 445.756 207.702 446.357 207.702 447.071V451.844H205.673V442.289H207.253L207.538 443.575H207.65C207.845 443.242 208.087 442.968 208.375 442.756C208.668 442.537 208.993 442.376 209.35 442.272C209.707 442.163 210.078 442.108 210.463 442.108C211.177 442.108 211.778 442.235 212.267 442.488C212.756 442.735 213.122 443.115 213.363 443.627H213.519C213.818 443.109 214.235 442.727 214.77 442.479C215.305 442.232 215.872 442.108 216.471 442.108Z" fill="#CEDAEF"/>
<path fill-rule="evenodd" clip-rule="evenodd" d="M278 418L278 10L281 10L281 418L278 418Z" fill="#CEDAEF"/>
</svg>
