<svg width="303" height="773" viewBox="0 0 303 773" fill="none" xmlns="http://www.w3.org/2000/svg">
<path d="M300.833 20.9165C300.833 32.4683 291.468 41.8329 279.916 41.8329C268.365 41.8329 259 32.4683 259 20.9165C259 9.36462 268.365 0 279.916 0C291.468 0 300.833 9.36462 300.833 20.9165Z" fill="#CEDAEF"/>
<path d="M302.013 256.004C302.013 267.556 292.648 276.921 281.096 276.921C269.544 276.921 260.18 267.556 260.18 256.004C260.18 244.453 269.544 235.088 281.096 235.088C292.648 235.088 302.013 244.453 302.013 256.004Z" fill="#CEDAEF"/>
<path d="M301.423 436.887C301.423 448.439 292.058 457.804 280.506 457.804C268.954 457.804 259.59 448.439 259.59 436.887C259.59 425.335 268.954 415.971 280.506 415.971C292.058 415.971 301.423 425.335 301.423 436.887Z" fill="#CEDAEF"/>
<path d="M123.49 25H114.945V23.4723L118.216 20.1581C118.849 19.5137 119.37 18.9584 119.779 18.4924C120.187 18.0206 120.489 17.5746 120.685 17.1546C120.886 16.7346 120.987 16.2771 120.987 15.7823C120.987 15.1724 120.811 14.7121 120.46 14.4014C120.109 14.0849 119.646 13.9267 119.071 13.9267C118.524 13.9267 118.018 14.036 117.552 14.2546C117.092 14.4675 116.614 14.7725 116.119 15.1695L115.006 13.8317C115.357 13.5325 115.731 13.2592 116.128 13.0118C116.531 12.7644 116.979 12.5688 117.474 12.4249C117.969 12.2753 118.533 12.2005 119.166 12.2005C119.966 12.2005 120.656 12.3444 121.237 12.6321C121.818 12.914 122.264 13.3081 122.575 13.8145C122.891 14.3208 123.05 14.9106 123.05 15.5838C123.05 16.2627 122.914 16.8899 122.644 17.4653C122.374 18.0407 121.988 18.6103 121.488 19.1742C120.987 19.7323 120.391 20.3394 119.701 20.9953L117.517 23.1271V23.2221H123.49V25ZM133.605 18.6823C133.605 19.7007 133.525 20.6127 133.364 21.4182C133.208 22.218 132.961 22.897 132.621 23.4551C132.282 24.0132 131.839 24.439 131.292 24.7324C130.746 25.0259 130.084 25.1726 129.307 25.1726C128.335 25.1726 127.532 24.9166 126.899 24.4045C126.266 23.8866 125.797 23.1444 125.492 22.1777C125.187 21.2053 125.035 20.0402 125.035 18.6823C125.035 17.3243 125.173 16.1621 125.449 15.1954C125.731 14.223 126.186 13.4779 126.813 12.96C127.44 12.4422 128.271 12.1833 129.307 12.1833C130.285 12.1833 131.091 12.4422 131.724 12.96C132.362 13.4721 132.834 14.2144 133.139 15.1868C133.45 16.1534 133.605 17.3186 133.605 18.6823ZM127.08 18.6823C127.08 19.7467 127.149 20.6357 127.287 21.3492C127.431 22.0626 127.667 22.5978 127.995 22.9545C128.323 23.3055 128.76 23.481 129.307 23.481C129.854 23.481 130.291 23.3055 130.619 22.9545C130.947 22.6035 131.183 22.0713 131.327 21.3578C131.476 20.6443 131.551 19.7525 131.551 18.6823C131.551 17.6235 131.479 16.7374 131.335 16.024C131.191 15.3105 130.956 14.7754 130.628 14.4186C130.3 14.0561 129.859 13.8749 129.307 13.8749C128.755 13.8749 128.314 14.0561 127.987 14.4186C127.664 14.7754 127.431 15.3105 127.287 16.024C127.149 16.7374 127.08 17.6235 127.08 18.6823ZM144.204 18.1385L147.199 12.3818H149.434L145.24 20.0977V25H143.177V20.1754L138.974 12.3818H141.226L144.204 18.1385ZM154.69 15.2645C155.542 15.2645 156.273 15.4399 156.882 15.7909C157.492 16.1419 157.961 16.6396 158.289 17.2841C158.617 17.9285 158.781 18.6995 158.781 19.5971V20.6846H152.403C152.426 21.611 152.674 22.3245 153.145 22.825C153.623 23.3256 154.29 23.5759 155.148 23.5759C155.758 23.5759 156.304 23.5184 156.788 23.4033C157.277 23.2825 157.78 23.107 158.298 22.8768V24.5253C157.82 24.7497 157.334 24.9137 156.839 25.0173C156.344 25.1208 155.752 25.1726 155.061 25.1726C154.123 25.1726 153.298 24.9914 152.584 24.6289C151.877 24.2606 151.321 23.714 150.919 22.989C150.522 22.264 150.323 21.3636 150.323 20.2876C150.323 19.2174 150.504 18.3082 150.867 17.5602C151.229 16.8122 151.738 16.2426 152.394 15.8513C153.05 15.4601 153.816 15.2645 154.69 15.2645ZM154.69 16.7921C154.052 16.7921 153.534 16.9992 153.137 17.4135C152.745 17.8278 152.515 18.4348 152.446 19.2346H156.796C156.79 18.7571 156.71 18.3341 156.554 17.9659C156.405 17.5976 156.175 17.31 155.864 17.1028C155.559 16.8957 155.168 16.7921 154.69 16.7921ZM164.814 15.2645C166.022 15.2645 166.934 15.532 167.55 16.0671C168.172 16.6022 168.482 17.4365 168.482 18.5701V25H167.041L166.653 23.645H166.583C166.313 23.9902 166.034 24.275 165.746 24.4994C165.459 24.7238 165.125 24.8907 164.745 25C164.371 25.1151 163.914 25.1726 163.373 25.1726C162.803 25.1726 162.294 25.069 161.845 24.8619C161.396 24.649 161.043 24.3268 160.784 23.8953C160.525 23.4637 160.395 22.9171 160.395 22.2554C160.395 21.2715 160.761 20.5321 161.491 20.0373C162.228 19.5425 163.338 19.2691 164.823 19.2174L166.48 19.1569V18.6564C166.48 17.9947 166.325 17.5228 166.014 17.2409C165.709 16.959 165.277 16.818 164.719 16.818C164.242 16.818 163.778 16.887 163.33 17.0251C162.881 17.1632 162.444 17.333 162.018 17.5344L161.362 16.1016C161.828 15.8542 162.357 15.6528 162.95 15.4975C163.548 15.3421 164.17 15.2645 164.814 15.2645ZM166.471 20.4343L165.237 20.4775C164.224 20.512 163.514 20.6846 163.105 20.9953C162.697 21.306 162.492 21.7318 162.492 22.2727C162.492 22.7445 162.633 23.0897 162.915 23.3084C163.197 23.5213 163.568 23.6277 164.029 23.6277C164.731 23.6277 165.312 23.4292 165.772 23.0322C166.238 22.6294 166.471 22.0396 166.471 21.2629V20.4343ZM176.164 15.2645C176.325 15.2645 176.5 15.2731 176.69 15.2903C176.88 15.3076 177.044 15.3306 177.182 15.3594L176.992 17.2582C176.871 17.2236 176.722 17.1978 176.543 17.1805C176.371 17.1632 176.215 17.1546 176.077 17.1546C175.715 17.1546 175.37 17.215 175.042 17.3358C174.714 17.4509 174.423 17.6293 174.17 17.871C173.917 18.1069 173.718 18.4032 173.574 18.7599C173.431 19.1167 173.359 19.5309 173.359 20.0028V25H171.322V15.4457H172.91L173.186 17.1287H173.281C173.471 16.7892 173.707 16.4785 173.989 16.1966C174.271 15.9146 174.593 15.6902 174.955 15.5234C175.324 15.3508 175.726 15.2645 176.164 15.2645ZM185.373 22.2727C185.373 22.8998 185.22 23.4292 184.915 23.8607C184.61 24.2923 184.164 24.6202 183.578 24.8446C182.996 25.0633 182.283 25.1726 181.437 25.1726C180.77 25.1726 180.194 25.1237 179.711 25.0259C179.233 24.9338 178.782 24.79 178.356 24.5944V22.8423C178.81 23.0552 179.32 23.2393 179.884 23.3947C180.453 23.55 180.991 23.6277 181.498 23.6277C182.165 23.6277 182.645 23.5241 182.939 23.317C183.232 23.1041 183.379 22.8222 183.379 22.4712C183.379 22.264 183.319 22.0799 183.198 21.9188C183.083 21.7519 182.864 21.5822 182.542 21.4096C182.225 21.2312 181.759 21.0183 181.144 20.7709C180.539 20.5292 180.03 20.2876 179.616 20.0459C179.202 19.8043 178.888 19.5137 178.675 19.1742C178.462 18.829 178.356 18.3888 178.356 17.8537C178.356 17.0079 178.69 16.3663 179.357 15.929C180.03 15.486 180.919 15.2645 182.024 15.2645C182.611 15.2645 183.163 15.3249 183.681 15.4457C184.205 15.5608 184.717 15.7305 185.217 15.9549L184.579 17.4826C184.147 17.2927 183.713 17.1373 183.275 17.0165C182.844 16.8899 182.404 16.8266 181.955 16.8266C181.431 16.8266 181.031 16.9072 180.755 17.0683C180.485 17.2294 180.35 17.4596 180.35 17.7588C180.35 17.9832 180.416 18.173 180.548 18.3284C180.68 18.4837 180.908 18.6391 181.23 18.7945C181.558 18.9498 182.012 19.1426 182.594 19.3727C183.163 19.5914 183.655 19.8215 184.069 20.0632C184.49 20.2991 184.812 20.5897 185.036 20.9349C185.261 21.2801 185.373 21.726 185.373 22.2727ZM203.566 18.6736C203.566 19.646 203.443 20.5321 203.195 21.3319C202.954 22.1259 202.588 22.8107 202.099 23.386C201.61 23.9557 200.997 24.3958 200.261 24.7066C199.524 25.0173 198.661 25.1726 197.672 25.1726C196.665 25.1726 195.79 25.0173 195.048 24.7066C194.311 24.3958 193.699 23.9528 193.21 23.3774C192.726 22.802 192.364 22.1144 192.122 21.3146C191.88 20.5149 191.76 19.6288 191.76 18.6564C191.76 17.356 191.972 16.2225 192.398 15.2558C192.83 14.2834 193.483 13.5297 194.357 12.9946C195.238 12.4537 196.348 12.1833 197.689 12.1833C199.001 12.1833 200.091 12.4508 200.96 12.9859C201.829 13.521 202.479 14.2748 202.911 15.2472C203.348 16.2138 203.566 17.356 203.566 18.6736ZM193.935 18.6736C193.935 19.646 194.067 20.489 194.332 21.2024C194.596 21.9102 195.002 22.4568 195.548 22.8423C196.101 23.2221 196.809 23.4119 197.672 23.4119C198.54 23.4119 199.248 23.2221 199.795 22.8423C200.341 22.4568 200.744 21.9102 201.003 21.2024C201.262 20.489 201.392 19.646 201.392 18.6736C201.392 17.1949 201.095 16.0383 200.503 15.204C199.916 14.364 198.978 13.9439 197.689 13.9439C196.826 13.9439 196.115 14.1338 195.557 14.5136C195.005 14.8933 194.596 15.4371 194.332 16.1448C194.067 16.8468 193.935 17.6897 193.935 18.6736ZM208.106 25H206.069V11.5705H208.106V25ZM214.217 25.1726C213.078 25.1726 212.163 24.7583 211.472 23.9298C210.788 23.0955 210.445 21.867 210.445 20.2444C210.445 18.6046 210.793 17.3646 211.49 16.5245C212.192 15.6845 213.115 15.2645 214.26 15.2645C214.743 15.2645 215.166 15.3306 215.529 15.463C215.891 15.5895 216.202 15.7622 216.461 15.9808C216.726 16.1995 216.95 16.444 217.134 16.7144H217.229C217.2 16.5361 217.166 16.28 217.125 15.9463C217.091 15.6068 217.074 15.2932 217.074 15.0055V11.5705H219.111V25H217.522L217.16 23.6967H217.074C216.901 23.9729 216.682 24.2232 216.418 24.4476C216.159 24.6663 215.848 24.8418 215.486 24.9741C215.129 25.1064 214.706 25.1726 214.217 25.1726ZM214.787 23.5241C215.655 23.5241 216.268 23.2738 216.625 22.7733C216.982 22.2727 217.166 21.5218 217.177 20.5206V20.2531C217.177 19.1828 217.005 18.3629 216.659 17.7933C216.314 17.2179 215.684 16.9302 214.769 16.9302C214.039 16.9302 213.48 17.2265 213.095 17.8192C212.715 18.4061 212.525 19.226 212.525 20.2789C212.525 21.3319 212.715 22.1374 213.095 22.6956C213.48 23.2479 214.044 23.5241 214.787 23.5241Z" fill="#FDF5E0"/>
<path d="M123.49 250.66H114.945V249.133L118.216 245.818C118.849 245.174 119.37 244.619 119.779 244.153C120.187 243.681 120.489 243.235 120.685 242.815C120.886 242.395 120.987 241.937 120.987 241.442C120.987 240.833 120.811 240.372 120.46 240.062C120.109 239.745 119.646 239.587 119.071 239.587C118.524 239.587 118.018 239.696 117.552 239.915C117.092 240.128 116.614 240.433 116.119 240.83L115.006 239.492C115.357 239.193 115.731 238.919 116.128 238.672C116.531 238.425 116.979 238.229 117.474 238.085C117.969 237.935 118.533 237.861 119.166 237.861C119.966 237.861 120.656 238.005 121.237 238.292C121.818 238.574 122.264 238.968 122.575 239.475C122.891 239.981 123.05 240.571 123.05 241.244C123.05 241.923 122.914 242.55 122.644 243.125C122.374 243.701 121.988 244.27 121.488 244.834C120.987 245.392 120.391 246 119.701 246.655L117.517 248.787V248.882H123.49V250.66ZM131.025 250.66H128.988V242.539C128.988 242.268 128.991 241.998 128.996 241.727C129.002 241.457 129.008 241.192 129.014 240.933C129.025 240.674 129.039 240.427 129.057 240.191C128.936 240.323 128.786 240.467 128.608 240.623C128.435 240.778 128.251 240.939 128.056 241.106L126.606 242.262L125.587 240.976L129.333 238.042H131.025V250.66ZM144.204 243.799L147.199 238.042H149.434L145.24 245.758V250.66H143.177V245.836L138.974 238.042H141.226L144.204 243.799ZM154.69 240.925C155.542 240.925 156.273 241.1 156.882 241.451C157.492 241.802 157.961 242.3 158.289 242.944C158.617 243.589 158.781 244.36 158.781 245.257V246.345H152.403C152.426 247.271 152.674 247.985 153.145 248.485C153.623 248.986 154.29 249.236 155.148 249.236C155.758 249.236 156.304 249.179 156.788 249.063C157.277 248.943 157.78 248.767 158.298 248.537V250.185C157.82 250.41 157.334 250.574 156.839 250.677C156.344 250.781 155.752 250.833 155.061 250.833C154.123 250.833 153.298 250.652 152.584 250.289C151.877 249.921 151.321 249.374 150.919 248.649C150.522 247.924 150.323 247.024 150.323 245.948C150.323 244.878 150.504 243.968 150.867 243.22C151.229 242.472 151.738 241.903 152.394 241.512C153.05 241.12 153.816 240.925 154.69 240.925ZM154.69 242.452C154.052 242.452 153.534 242.659 153.137 243.074C152.745 243.488 152.515 244.095 152.446 244.895H156.796C156.79 244.417 156.71 243.994 156.554 243.626C156.405 243.258 156.175 242.97 155.864 242.763C155.559 242.556 155.168 242.452 154.69 242.452ZM164.814 240.925C166.022 240.925 166.934 241.192 167.55 241.727C168.172 242.262 168.482 243.097 168.482 244.23V250.66H167.041L166.653 249.305H166.583C166.313 249.65 166.034 249.935 165.746 250.16C165.459 250.384 165.125 250.551 164.745 250.66C164.371 250.775 163.914 250.833 163.373 250.833C162.803 250.833 162.294 250.729 161.845 250.522C161.396 250.309 161.043 249.987 160.784 249.555C160.525 249.124 160.395 248.577 160.395 247.916C160.395 246.932 160.761 246.192 161.491 245.697C162.228 245.203 163.338 244.929 164.823 244.878L166.48 244.817V244.317C166.48 243.655 166.325 243.183 166.014 242.901C165.709 242.619 165.277 242.478 164.719 242.478C164.242 242.478 163.778 242.547 163.33 242.685C162.881 242.823 162.444 242.993 162.018 243.195L161.362 241.762C161.828 241.514 162.357 241.313 162.95 241.158C163.548 241.002 164.17 240.925 164.814 240.925ZM166.471 246.094L165.237 246.138C164.224 246.172 163.514 246.345 163.105 246.655C162.697 246.966 162.492 247.392 162.492 247.933C162.492 248.405 162.633 248.75 162.915 248.969C163.197 249.181 163.568 249.288 164.029 249.288C164.731 249.288 165.312 249.089 165.772 248.692C166.238 248.29 166.471 247.7 166.471 246.923V246.094ZM176.164 240.925C176.325 240.925 176.5 240.933 176.69 240.951C176.88 240.968 177.044 240.991 177.182 241.02L176.992 242.918C176.871 242.884 176.722 242.858 176.543 242.841C176.371 242.823 176.215 242.815 176.077 242.815C175.715 242.815 175.37 242.875 175.042 242.996C174.714 243.111 174.423 243.289 174.17 243.531C173.917 243.767 173.718 244.063 173.574 244.42C173.431 244.777 173.359 245.191 173.359 245.663V250.66H171.322V241.106H172.91L173.186 242.789H173.281C173.471 242.449 173.707 242.139 173.989 241.857C174.271 241.575 174.593 241.35 174.955 241.184C175.324 241.011 175.726 240.925 176.164 240.925ZM185.373 247.933C185.373 248.56 185.22 249.089 184.915 249.521C184.61 249.952 184.164 250.28 183.578 250.505C182.996 250.723 182.283 250.833 181.437 250.833C180.77 250.833 180.194 250.784 179.711 250.686C179.233 250.594 178.782 250.45 178.356 250.255V248.502C178.81 248.715 179.32 248.899 179.884 249.055C180.453 249.21 180.991 249.288 181.498 249.288C182.165 249.288 182.645 249.184 182.939 248.977C183.232 248.764 183.379 248.482 183.379 248.131C183.379 247.924 183.319 247.74 183.198 247.579C183.083 247.412 182.864 247.242 182.542 247.07C182.225 246.891 181.759 246.678 181.144 246.431C180.539 246.189 180.03 245.948 179.616 245.706C179.202 245.464 178.888 245.174 178.675 244.834C178.462 244.489 178.356 244.049 178.356 243.514C178.356 242.668 178.69 242.026 179.357 241.589C180.03 241.146 180.919 240.925 182.024 240.925C182.611 240.925 183.163 240.985 183.681 241.106C184.205 241.221 184.717 241.391 185.217 241.615L184.579 243.143C184.147 242.953 183.713 242.797 183.275 242.677C182.844 242.55 182.404 242.487 181.955 242.487C181.431 242.487 181.031 242.567 180.755 242.728C180.485 242.89 180.35 243.12 180.35 243.419C180.35 243.643 180.416 243.833 180.548 243.989C180.68 244.144 180.908 244.299 181.23 244.455C181.558 244.61 182.012 244.803 182.594 245.033C183.163 245.252 183.655 245.482 184.069 245.723C184.49 245.959 184.812 246.25 185.036 246.595C185.261 246.94 185.373 247.386 185.373 247.933ZM203.566 244.334C203.566 245.306 203.443 246.192 203.195 246.992C202.954 247.786 202.588 248.471 202.099 249.046C201.61 249.616 200.997 250.056 200.261 250.367C199.524 250.677 198.661 250.833 197.672 250.833C196.665 250.833 195.79 250.677 195.048 250.367C194.311 250.056 193.699 249.613 193.21 249.038C192.726 248.462 192.364 247.775 192.122 246.975C191.88 246.175 191.76 245.289 191.76 244.317C191.76 243.016 191.972 241.883 192.398 240.916C192.83 239.944 193.483 239.19 194.357 238.655C195.238 238.114 196.348 237.843 197.689 237.843C199.001 237.843 200.091 238.111 200.96 238.646C201.829 239.181 202.479 239.935 202.911 240.907C203.348 241.874 203.566 243.016 203.566 244.334ZM193.935 244.334C193.935 245.306 194.067 246.149 194.332 246.863C194.596 247.57 195.002 248.117 195.548 248.502C196.101 248.882 196.809 249.072 197.672 249.072C198.54 249.072 199.248 248.882 199.795 248.502C200.341 248.117 200.744 247.57 201.003 246.863C201.262 246.149 201.392 245.306 201.392 244.334C201.392 242.855 201.095 241.699 200.503 240.864C199.916 240.024 198.978 239.604 197.689 239.604C196.826 239.604 196.115 239.794 195.557 240.174C195.005 240.553 194.596 241.097 194.332 241.805C194.067 242.507 193.935 243.35 193.935 244.334ZM208.106 250.66H206.069V237.231H208.106V250.66ZM214.217 250.833C213.078 250.833 212.163 250.418 211.472 249.59C210.788 248.756 210.445 247.527 210.445 245.905C210.445 244.265 210.793 243.025 211.49 242.185C212.192 241.345 213.115 240.925 214.26 240.925C214.743 240.925 215.166 240.991 215.529 241.123C215.891 241.25 216.202 241.422 216.461 241.641C216.726 241.86 216.95 242.104 217.134 242.375H217.229C217.2 242.196 217.166 241.94 217.125 241.606C217.091 241.267 217.074 240.953 217.074 240.666V237.231H219.111V250.66H217.522L217.16 249.357H217.074C216.901 249.633 216.682 249.883 216.418 250.108C216.159 250.326 215.848 250.502 215.486 250.634C215.129 250.767 214.706 250.833 214.217 250.833ZM214.787 249.184C215.655 249.184 216.268 248.934 216.625 248.433C216.982 247.933 217.166 247.182 217.177 246.181V245.913C217.177 244.843 217.005 244.023 216.659 243.453C216.314 242.878 215.684 242.59 214.769 242.59C214.039 242.59 213.48 242.887 213.095 243.479C212.715 244.066 212.525 244.886 212.525 245.939C212.525 246.992 212.715 247.798 213.095 248.356C213.48 248.908 214.044 249.184 214.787 249.184Z" fill="#FDF5E0"/>
<path d="M143.8 42.2405C143.196 42.2405 142.655 42.3498 142.177 42.5685C141.705 42.7871 141.305 43.1036 140.977 43.5179C140.649 43.9264 140.399 44.4241 140.227 45.011C140.054 45.5921 139.968 46.2481 139.968 46.9788C139.968 47.957 140.106 48.7999 140.382 49.5076C140.658 50.2096 141.078 50.7505 141.642 51.1302C142.206 51.5042 142.919 51.6912 143.782 51.6912C144.318 51.6912 144.838 51.6394 145.345 51.5359C145.851 51.4323 146.375 51.2913 146.915 51.113V52.8736C146.403 53.075 145.885 53.2218 145.362 53.3138C144.838 53.4059 144.234 53.4519 143.549 53.4519C142.261 53.4519 141.19 53.1844 140.339 52.6492C139.493 52.1141 138.86 51.3604 138.44 50.388C138.026 49.4156 137.819 48.2763 137.819 46.9702C137.819 46.015 137.951 45.1404 138.216 44.3464C138.48 43.5524 138.866 42.8677 139.372 42.2923C139.878 41.7111 140.503 41.2652 141.245 40.9545C141.993 40.638 142.847 40.4798 143.808 40.4798C144.441 40.4798 145.063 40.5517 145.673 40.6956C146.288 40.8337 146.858 41.0322 147.381 41.2911L146.656 43C146.219 42.7929 145.762 42.6145 145.284 42.4649C144.807 42.3153 144.312 42.2405 143.8 42.2405ZM157.877 48.4806C157.877 49.2746 157.773 49.9795 157.566 50.5951C157.359 51.2108 157.057 51.7315 156.66 52.1573C156.263 52.5773 155.785 52.8995 155.227 53.1239C154.669 53.3426 154.039 53.4519 153.337 53.4519C152.681 53.4519 152.08 53.3426 151.533 53.1239C150.986 52.8995 150.512 52.5773 150.109 52.1573C149.712 51.7315 149.404 51.2108 149.185 50.5951C148.967 49.9795 148.857 49.2746 148.857 48.4806C148.857 47.4276 149.039 46.5358 149.401 45.805C149.769 45.0685 150.293 44.5075 150.972 44.122C151.651 43.7365 152.459 43.5437 153.397 43.5437C154.277 43.5437 155.054 43.7365 155.727 44.122C156.401 44.5075 156.927 45.0685 157.307 45.805C157.687 46.5415 157.877 47.4334 157.877 48.4806ZM150.946 48.4806C150.946 49.1768 151.029 49.7723 151.196 50.2671C151.369 50.762 151.634 51.1417 151.99 51.4064C152.347 51.6653 152.807 51.7948 153.371 51.7948C153.935 51.7948 154.395 51.6653 154.752 51.4064C155.109 51.1417 155.371 50.762 155.538 50.2671C155.704 49.7723 155.788 49.1768 155.788 48.4806C155.788 47.7844 155.704 47.1946 155.538 46.7113C155.371 46.2222 155.109 45.8511 154.752 45.5979C154.395 45.339 153.932 45.2095 153.363 45.2095C152.523 45.2095 151.91 45.4914 151.524 46.0553C151.139 46.6192 150.946 47.4276 150.946 48.4806ZM165.187 43.5437C166.263 43.5437 167.1 43.8228 167.698 44.3809C168.303 44.9333 168.605 45.8223 168.605 47.0479V53.2793H166.576V47.4276C166.576 46.6854 166.424 46.1301 166.119 45.7619C165.814 45.3879 165.342 45.2009 164.703 45.2009C163.777 45.2009 163.133 45.4857 162.77 46.0553C162.413 46.6249 162.235 47.4506 162.235 48.5324V53.2793H160.207V43.725H161.786L162.071 45.0196H162.183C162.39 44.6859 162.646 44.4126 162.951 44.1997C163.262 43.981 163.607 43.8171 163.987 43.7077C164.373 43.5984 164.773 43.5437 165.187 43.5437ZM177.865 50.552C177.865 51.1791 177.713 51.7085 177.408 52.14C177.103 52.5716 176.657 52.8995 176.07 53.1239C175.489 53.3426 174.776 53.4519 173.93 53.4519C173.262 53.4519 172.687 53.403 172.204 53.3052C171.726 53.2131 171.274 53.0693 170.849 52.8736V51.1216C171.303 51.3345 171.812 51.5186 172.376 51.674C172.946 51.8293 173.484 51.907 173.99 51.907C174.658 51.907 175.138 51.8034 175.432 51.5963C175.725 51.3834 175.872 51.1015 175.872 50.7505C175.872 50.5433 175.811 50.3592 175.691 50.1981C175.575 50.0312 175.357 49.8615 175.035 49.6889C174.718 49.5105 174.252 49.2976 173.636 49.0502C173.032 48.8085 172.523 48.5669 172.109 48.3252C171.694 48.0836 171.381 47.793 171.168 47.4535C170.955 47.1083 170.849 46.6681 170.849 46.133C170.849 45.2872 171.182 44.6456 171.85 44.2083C172.523 43.7653 173.412 43.5437 174.517 43.5437C175.104 43.5437 175.656 43.6042 176.174 43.725C176.697 43.8401 177.21 44.0098 177.71 44.2342L177.071 45.7619C176.64 45.572 176.205 45.4166 175.768 45.2958C175.337 45.1692 174.896 45.1059 174.448 45.1059C173.924 45.1059 173.524 45.1865 173.248 45.3476C172.978 45.5087 172.842 45.7389 172.842 46.0381C172.842 46.2625 172.909 46.4523 173.041 46.6077C173.173 46.763 173.4 46.9184 173.723 47.0737C174.051 47.2291 174.505 47.4219 175.086 47.652C175.656 47.8707 176.148 48.1008 176.562 48.3425C176.982 48.5784 177.304 48.869 177.529 49.2142C177.753 49.5594 177.865 50.0053 177.865 50.552ZM182.086 43.725V53.2793H180.058V43.725H182.086ZM181.085 40.0655C181.395 40.0655 181.663 40.149 181.887 40.3158C182.118 40.4827 182.233 40.7704 182.233 41.1789C182.233 41.5817 182.118 41.8694 181.887 42.042C181.663 42.2089 181.395 42.2923 181.085 42.2923C180.763 42.2923 180.489 42.2089 180.265 42.042C180.046 41.8694 179.937 41.5817 179.937 41.1789C179.937 40.7704 180.046 40.4827 180.265 40.3158C180.489 40.149 180.763 40.0655 181.085 40.0655ZM188.205 53.4519C187.066 53.4519 186.151 53.0376 185.461 52.2091C184.776 51.3748 184.434 50.1463 184.434 48.5237C184.434 46.8839 184.782 45.6439 185.478 44.8038C186.18 43.9638 187.103 43.5437 188.248 43.5437C188.732 43.5437 189.155 43.6099 189.517 43.7423C189.88 43.8688 190.19 44.0415 190.449 44.2601C190.714 44.4788 190.938 44.7233 191.122 44.9937H191.217C191.189 44.8154 191.154 44.5593 191.114 44.2256C191.079 43.8861 191.062 43.5725 191.062 43.2848V39.8498H193.099V53.2793H191.511L191.148 51.976H191.062C190.889 52.2522 190.671 52.5025 190.406 52.7269C190.147 52.9456 189.836 53.1211 189.474 53.2534C189.117 53.3857 188.694 53.4519 188.205 53.4519ZM188.775 51.8034C189.644 51.8034 190.256 51.5531 190.613 51.0525C190.97 50.552 191.154 49.8011 191.166 48.7999V48.5324C191.166 47.4621 190.993 46.6422 190.648 46.0726C190.302 45.4972 189.672 45.2095 188.758 45.2095C188.027 45.2095 187.469 45.5058 187.083 46.0985C186.703 46.6854 186.514 47.5053 186.514 48.5582C186.514 49.6112 186.703 50.4167 187.083 50.9749C187.469 51.5272 188.033 51.8034 188.775 51.8034ZM199.814 43.5437C200.665 43.5437 201.396 43.7192 202.006 44.0702C202.616 44.4212 203.085 44.9189 203.413 45.5634C203.741 46.2078 203.905 46.9788 203.905 47.8764V48.9639H197.526C197.549 49.8903 197.797 50.6037 198.269 51.1043C198.746 51.6049 199.414 51.8552 200.271 51.8552C200.881 51.8552 201.428 51.7977 201.911 51.6826C202.4 51.5618 202.903 51.3863 203.421 51.1561V52.8046C202.944 53.029 202.458 53.193 201.963 53.2966C201.468 53.4001 200.875 53.4519 200.185 53.4519C199.247 53.4519 198.421 53.2707 197.708 52.9082C197 52.5399 196.445 51.9933 196.042 51.2683C195.645 50.5433 195.446 49.6429 195.446 48.5669C195.446 47.4967 195.628 46.5875 195.99 45.8395C196.353 45.0915 196.862 44.5219 197.518 44.1306C198.174 43.7394 198.939 43.5437 199.814 43.5437ZM199.814 45.0714C199.175 45.0714 198.657 45.2785 198.26 45.6928C197.869 46.1071 197.639 46.7141 197.57 47.5139H201.92C201.914 47.0363 201.833 46.6134 201.678 46.2452C201.528 45.8769 201.298 45.5892 200.987 45.3821C200.682 45.175 200.291 45.0714 199.814 45.0714ZM211.034 43.5437C211.195 43.5437 211.37 43.5524 211.56 43.5696C211.75 43.5869 211.914 43.6099 212.052 43.6387L211.862 45.5375C211.741 45.5029 211.592 45.477 211.413 45.4598C211.241 45.4425 211.085 45.4339 210.947 45.4339C210.585 45.4339 210.24 45.4943 209.912 45.6151C209.584 45.7302 209.293 45.9086 209.04 46.1503C208.787 46.3862 208.588 46.6825 208.444 47.0392C208.301 47.396 208.229 47.8102 208.229 48.2821V53.2793H206.192V43.725H207.78L208.056 45.408H208.151C208.341 45.0685 208.577 44.7578 208.859 44.4759C209.141 44.1939 209.463 43.9695 209.825 43.8027C210.194 43.6301 210.596 43.5437 211.034 43.5437ZM220.243 50.552C220.243 51.1791 220.09 51.7085 219.785 52.14C219.48 52.5716 219.034 52.8995 218.448 53.1239C217.866 53.3426 217.153 53.4519 216.307 53.4519C215.64 53.4519 215.064 53.403 214.581 53.3052C214.103 53.2131 213.652 53.0693 213.226 52.8736V51.1216C213.68 51.3345 214.19 51.5186 214.754 51.674C215.323 51.8293 215.861 51.907 216.367 51.907C217.035 51.907 217.515 51.8034 217.809 51.5963C218.102 51.3834 218.249 51.1015 218.249 50.7505C218.249 50.5433 218.189 50.3592 218.068 50.1981C217.953 50.0312 217.734 49.8615 217.412 49.6889C217.095 49.5105 216.629 49.2976 216.014 49.0502C215.409 48.8085 214.9 48.5669 214.486 48.3252C214.072 48.0836 213.758 47.793 213.545 47.4535C213.332 47.1083 213.226 46.6681 213.226 46.133C213.226 45.2872 213.56 44.6456 214.227 44.2083C214.9 43.7653 215.789 43.5437 216.894 43.5437C217.481 43.5437 218.033 43.6042 218.551 43.725C219.075 43.8401 219.587 44.0098 220.087 44.2342L219.449 45.7619C219.017 45.572 218.583 45.4166 218.145 45.2958C217.714 45.1692 217.274 45.1059 216.825 45.1059C216.301 45.1059 215.901 45.1865 215.625 45.3476C215.355 45.5087 215.22 45.7389 215.22 46.0381C215.22 46.2625 215.286 46.4523 215.418 46.6077C215.55 46.763 215.778 46.9184 216.1 47.0737C216.428 47.2291 216.882 47.4219 217.464 47.652C218.033 47.8707 218.525 48.1008 218.939 48.3425C219.36 48.5784 219.682 48.869 219.906 49.2142C220.131 49.5594 220.243 50.0053 220.243 50.552ZM138.664 75.8121C138.929 75.8121 139.191 75.789 139.45 75.743C139.709 75.6912 139.945 75.6308 140.157 75.5618V77.098C139.933 77.1959 139.643 77.2793 139.286 77.3483C138.929 77.4174 138.558 77.4519 138.172 77.4519C137.632 77.4519 137.145 77.3627 136.714 77.1844C136.282 77.0002 135.94 76.6866 135.687 76.2436C135.434 75.8006 135.307 75.1878 135.307 74.4052V69.2699H134.004V68.3637L135.402 67.6473L136.066 65.6018H137.344V67.725H140.08V69.2699H137.344V74.3793C137.344 74.8627 137.465 75.2223 137.706 75.4582C137.948 75.6941 138.267 75.8121 138.664 75.8121ZM146.941 67.5437C147.102 67.5437 147.278 67.5524 147.468 67.5696C147.658 67.5869 147.822 67.6099 147.96 67.6387L147.77 69.5375C147.649 69.5029 147.499 69.477 147.321 69.4598C147.148 69.4425 146.993 69.4339 146.855 69.4339C146.492 69.4339 146.147 69.4943 145.819 69.6151C145.491 69.7302 145.201 69.9086 144.948 70.1503C144.694 70.3862 144.496 70.6825 144.352 71.0392C144.208 71.396 144.136 71.8102 144.136 72.2821V77.2793H142.099V67.725H143.687L143.964 69.408H144.059C144.248 69.0685 144.484 68.7578 144.766 68.4759C145.048 68.1939 145.37 67.9695 145.733 67.8027C146.101 67.6301 146.504 67.5437 146.941 67.5437ZM153.535 67.5437C154.387 67.5437 155.118 67.7192 155.727 68.0702C156.337 68.4212 156.806 68.9189 157.134 69.5634C157.462 70.2078 157.626 70.9788 157.626 71.8764V72.9639H151.248C151.271 73.8903 151.518 74.6037 151.99 75.1043C152.468 75.6049 153.135 75.8552 153.993 75.8552C154.603 75.8552 155.149 75.7977 155.633 75.6826C156.122 75.5618 156.625 75.3863 157.143 75.1561V76.8046C156.665 77.029 156.179 77.193 155.684 77.2966C155.189 77.4001 154.597 77.4519 153.906 77.4519C152.968 77.4519 152.143 77.2707 151.429 76.9082C150.722 76.5399 150.166 75.9933 149.764 75.2683C149.367 74.5433 149.168 73.6429 149.168 72.5669C149.168 71.4967 149.349 70.5875 149.712 69.8395C150.074 69.0915 150.583 68.5219 151.239 68.1306C151.895 67.7394 152.661 67.5437 153.535 67.5437ZM153.535 69.0714C152.897 69.0714 152.379 69.2785 151.982 69.6928C151.59 70.1071 151.36 70.7141 151.291 71.5139H155.641C155.635 71.0363 155.555 70.6134 155.399 70.2452C155.25 69.8769 155.02 69.5892 154.709 69.3821C154.404 69.175 154.013 69.0714 153.535 69.0714ZM163.659 67.5437C164.867 67.5437 165.779 67.8113 166.395 68.3464C167.017 68.8815 167.327 69.7158 167.327 70.8493V77.2793H165.886L165.498 75.9243H165.428C165.158 76.2695 164.879 76.5543 164.591 76.7787C164.304 77.0031 163.97 77.17 163.59 77.2793C163.216 77.3944 162.759 77.4519 162.218 77.4519C161.648 77.4519 161.139 77.3483 160.69 77.1412C160.241 76.9283 159.887 76.6061 159.629 76.1746C159.37 75.743 159.24 75.1964 159.24 74.5347C159.24 73.5508 159.606 72.8114 160.336 72.3166C161.073 71.8218 162.183 71.5484 163.668 71.4967L165.325 71.4362V70.9357C165.325 70.274 165.17 69.8021 164.859 69.5202C164.554 69.2383 164.122 69.0973 163.564 69.0973C163.087 69.0973 162.623 69.1663 162.175 69.3044C161.726 69.4425 161.289 69.6123 160.863 69.8137L160.207 68.3809C160.673 68.1335 161.202 67.9321 161.795 67.7768C162.393 67.6214 163.015 67.5437 163.659 67.5437ZM165.316 72.7136L164.082 72.7568C163.069 72.7913 162.359 72.9639 161.95 73.2746C161.542 73.5853 161.337 74.0111 161.337 74.552C161.337 75.0238 161.478 75.369 161.76 75.5877C162.042 75.8006 162.413 75.907 162.874 75.907C163.576 75.907 164.157 75.7085 164.617 75.3115C165.083 74.9087 165.316 74.3189 165.316 73.5422V72.7136ZM173.723 75.8121C173.987 75.8121 174.249 75.789 174.508 75.743C174.767 75.6912 175.003 75.6308 175.216 75.5618V77.098C174.991 77.1959 174.701 77.2793 174.344 77.3483C173.987 77.4174 173.616 77.4519 173.231 77.4519C172.69 77.4519 172.204 77.3627 171.772 77.1844C171.341 77.0002 170.998 76.6866 170.745 76.2436C170.492 75.8006 170.365 75.1878 170.365 74.4052V69.2699H169.062V68.3637L170.46 67.6473L171.125 65.6018H172.402V67.725H175.138V69.2699H172.402V74.3793C172.402 74.8627 172.523 75.2223 172.765 75.4582C173.006 75.6941 173.326 75.8121 173.723 75.8121ZM187.955 67.5437C189.025 67.5437 189.831 67.8199 190.372 68.3723C190.918 68.9247 191.191 69.8108 191.191 71.0306V77.2793H189.163V71.3931C189.163 70.6681 189.022 70.1215 188.74 69.7532C188.458 69.385 188.03 69.2009 187.454 69.2009C186.649 69.2009 186.068 69.4598 185.711 69.9776C185.36 70.4897 185.184 71.2349 185.184 72.213V77.2793H183.156V71.3931C183.156 70.9098 183.093 70.507 182.966 70.1848C182.845 69.8568 182.658 69.6123 182.405 69.4512C182.152 69.2843 181.833 69.2009 181.447 69.2009C180.889 69.2009 180.443 69.3274 180.109 69.5806C179.782 69.8338 179.546 70.2078 179.402 70.7026C179.258 71.1917 179.186 71.793 179.186 72.5065V77.2793H177.158V67.725H178.737L179.022 69.011H179.134C179.33 68.6773 179.571 68.404 179.859 68.1911C180.153 67.9724 180.478 67.8113 180.834 67.7077C181.191 67.5984 181.562 67.5437 181.948 67.5437C182.661 67.5437 183.263 67.6703 183.752 67.9235C184.241 68.1709 184.606 68.5507 184.848 69.0628H185.003C185.302 68.5449 185.72 68.1623 186.255 67.9149C186.79 67.6675 187.356 67.5437 187.955 67.5437ZM197.829 67.5437C198.68 67.5437 199.411 67.7192 200.021 68.0702C200.631 68.4212 201.1 68.9189 201.428 69.5634C201.756 70.2078 201.92 70.9788 201.92 71.8764V72.9639H195.541C195.564 73.8903 195.812 74.6037 196.284 75.1043C196.761 75.6049 197.429 75.8552 198.286 75.8552C198.896 75.8552 199.442 75.7977 199.926 75.6826C200.415 75.5618 200.918 75.3863 201.436 75.1561V76.8046C200.959 77.029 200.472 77.193 199.978 77.2966C199.483 77.4001 198.89 77.4519 198.2 77.4519C197.262 77.4519 196.436 77.2707 195.723 76.9082C195.015 76.5399 194.46 75.9933 194.057 75.2683C193.66 74.5433 193.461 73.6429 193.461 72.5669C193.461 71.4967 193.643 70.5875 194.005 69.8395C194.368 69.0915 194.877 68.5219 195.533 68.1306C196.189 67.7394 196.954 67.5437 197.829 67.5437ZM197.829 69.0714C197.19 69.0714 196.672 69.2785 196.275 69.6928C195.884 70.1071 195.654 70.7141 195.585 71.5139H199.934C199.929 71.0363 199.848 70.6134 199.693 70.2452C199.543 69.8769 199.313 69.5892 199.002 69.3821C198.697 69.175 198.306 69.0714 197.829 69.0714ZM209.187 67.5437C210.263 67.5437 211.1 67.8228 211.698 68.3809C212.302 68.9333 212.604 69.8223 212.604 71.0479V77.2793H210.576V71.4276C210.576 70.6854 210.424 70.1301 210.119 69.7619C209.814 69.3879 209.342 69.2009 208.703 69.2009C207.777 69.2009 207.133 69.4857 206.77 70.0553C206.413 70.6249 206.235 71.4506 206.235 72.5324V77.2793H204.207V67.725H205.786L206.071 69.0196H206.183C206.39 68.6859 206.646 68.4126 206.951 68.1997C207.262 67.981 207.607 67.8171 207.987 67.7077C208.372 67.5984 208.772 67.5437 209.187 67.5437ZM219 75.8121C219.265 75.8121 219.526 75.789 219.785 75.743C220.044 75.6912 220.28 75.6308 220.493 75.5618V77.098C220.269 77.1959 219.978 77.2793 219.621 77.3483C219.265 77.4174 218.893 77.4519 218.508 77.4519C217.967 77.4519 217.481 77.3627 217.049 77.1844C216.618 77.0002 216.275 76.6866 216.022 76.2436C215.769 75.8006 215.643 75.1878 215.643 74.4052V69.2699H214.339V68.3637L215.737 67.6473L216.402 65.6018H217.679V67.725H220.415V69.2699H217.679V74.3793C217.679 74.8627 217.8 75.2223 218.042 75.4582C218.284 75.6941 218.603 75.8121 219 75.8121Z" fill="#CEDAEF"/>
<path d="M142.982 273.203C142.982 274.175 142.858 275.061 142.611 275.861C142.369 276.655 142.004 277.34 141.515 277.915C141.026 278.485 140.413 278.925 139.676 279.236C138.94 279.547 138.077 279.702 137.087 279.702C136.08 279.702 135.206 279.547 134.463 279.236C133.727 278.925 133.114 278.482 132.625 277.907C132.142 277.331 131.779 276.644 131.537 275.844C131.296 275.044 131.175 274.158 131.175 273.186C131.175 271.885 131.388 270.752 131.814 269.785C132.245 268.813 132.898 268.059 133.773 267.524C134.653 266.983 135.764 266.713 137.104 266.713C138.416 266.713 139.507 266.98 140.375 267.515C141.244 268.05 141.894 268.804 142.326 269.776C142.763 270.743 142.982 271.885 142.982 273.203ZM133.35 273.203C133.35 274.175 133.482 275.018 133.747 275.732C134.012 276.439 134.417 276.986 134.964 277.372C135.516 277.751 136.224 277.941 137.087 277.941C137.956 277.941 138.664 277.751 139.21 277.372C139.757 276.986 140.16 276.439 140.419 275.732C140.677 275.018 140.807 274.175 140.807 273.203C140.807 271.724 140.511 270.568 139.918 269.733C139.331 268.893 138.393 268.473 137.104 268.473C136.241 268.473 135.531 268.663 134.973 269.043C134.42 269.423 134.012 269.966 133.747 270.674C133.482 271.376 133.35 272.219 133.35 273.203ZM147.668 279.529L144.035 269.975H146.184L148.152 275.585C148.278 275.942 148.393 276.327 148.497 276.742C148.601 277.156 148.672 277.504 148.713 277.786H148.782C148.822 277.492 148.9 277.141 149.015 276.733C149.13 276.319 149.248 275.936 149.369 275.585L151.337 269.975H153.477L149.843 279.529H147.668ZM158.733 269.794C159.585 269.794 160.315 269.969 160.925 270.32C161.535 270.671 162.004 271.169 162.332 271.813C162.66 272.458 162.824 273.229 162.824 274.126V275.214H156.446C156.469 276.14 156.716 276.854 157.188 277.354C157.666 277.855 158.333 278.105 159.191 278.105C159.8 278.105 160.347 278.048 160.83 277.933C161.319 277.812 161.823 277.636 162.341 277.406V279.055C161.863 279.279 161.377 279.443 160.882 279.547C160.387 279.65 159.795 279.702 159.104 279.702C158.166 279.702 157.341 279.521 156.627 279.158C155.919 278.79 155.364 278.243 154.961 277.518C154.564 276.793 154.366 275.893 154.366 274.817C154.366 273.747 154.547 272.838 154.91 272.09C155.272 271.342 155.781 270.772 156.437 270.381C157.093 269.989 157.859 269.794 158.733 269.794ZM158.733 271.321C158.094 271.321 157.577 271.529 157.18 271.943C156.788 272.357 156.558 272.964 156.489 273.764H160.839C160.833 273.286 160.753 272.863 160.597 272.495C160.448 272.127 160.218 271.839 159.907 271.632C159.602 271.425 159.211 271.321 158.733 271.321ZM169.953 269.794C170.114 269.794 170.29 269.802 170.48 269.82C170.67 269.837 170.834 269.86 170.972 269.889L170.782 271.787C170.661 271.753 170.511 271.727 170.333 271.71C170.16 271.693 170.005 271.684 169.867 271.684C169.504 271.684 169.159 271.744 168.831 271.865C168.503 271.98 168.213 272.159 167.959 272.4C167.706 272.636 167.508 272.932 167.364 273.289C167.22 273.646 167.148 274.06 167.148 274.532V279.529H165.111V269.975H166.699L166.976 271.658H167.07C167.26 271.319 167.496 271.008 167.778 270.726C168.06 270.444 168.382 270.22 168.745 270.053C169.113 269.88 169.516 269.794 169.953 269.794ZM175.952 279.702C174.812 279.702 173.897 279.288 173.207 278.459C172.522 277.625 172.18 276.396 172.18 274.774C172.18 273.134 172.528 271.894 173.224 271.054C173.926 270.214 174.85 269.794 175.995 269.794C176.478 269.794 176.901 269.86 177.263 269.992C177.626 270.119 177.937 270.291 178.196 270.51C178.46 270.729 178.685 270.973 178.869 271.244H178.964C178.935 271.065 178.9 270.809 178.86 270.476C178.826 270.136 178.808 269.823 178.808 269.535V266.1H180.845V279.529H179.257L178.895 278.226H178.808C178.636 278.502 178.417 278.753 178.152 278.977C177.894 279.196 177.583 279.371 177.22 279.503C176.864 279.636 176.441 279.702 175.952 279.702ZM176.521 278.053C177.39 278.053 178.003 277.803 178.36 277.303C178.716 276.802 178.9 276.051 178.912 275.05V274.782C178.912 273.712 178.739 272.892 178.394 272.323C178.049 271.747 177.419 271.459 176.504 271.459C175.773 271.459 175.215 271.756 174.83 272.348C174.45 272.935 174.26 273.755 174.26 274.808C174.26 275.861 174.45 276.667 174.83 277.225C175.215 277.777 175.779 278.053 176.521 278.053ZM192.212 274.731C192.212 275.525 192.108 276.229 191.901 276.845C191.694 277.461 191.392 277.982 190.995 278.407C190.598 278.827 190.12 279.15 189.562 279.374C189.004 279.593 188.374 279.702 187.672 279.702C187.016 279.702 186.415 279.593 185.868 279.374C185.322 279.15 184.847 278.827 184.444 278.407C184.047 277.982 183.739 277.461 183.521 276.845C183.302 276.229 183.193 275.525 183.193 274.731C183.193 273.678 183.374 272.786 183.737 272.055C184.105 271.319 184.628 270.758 185.307 270.372C185.986 269.987 186.795 269.794 187.733 269.794C188.613 269.794 189.39 269.987 190.063 270.372C190.736 270.758 191.263 271.319 191.642 272.055C192.022 272.792 192.212 273.683 192.212 274.731ZM185.281 274.731C185.281 275.427 185.365 276.022 185.532 276.517C185.704 277.012 185.969 277.392 186.326 277.656C186.683 277.915 187.143 278.045 187.707 278.045C188.271 278.045 188.731 277.915 189.088 277.656C189.444 277.392 189.706 277.012 189.873 276.517C190.04 276.022 190.123 275.427 190.123 274.731C190.123 274.034 190.04 273.445 189.873 272.961C189.706 272.472 189.444 272.101 189.088 271.848C188.731 271.589 188.268 271.459 187.698 271.459C186.858 271.459 186.245 271.741 185.86 272.305C185.474 272.869 185.281 273.678 185.281 274.731ZM200.964 276.802C200.964 277.429 200.811 277.958 200.506 278.39C200.201 278.822 199.755 279.15 199.168 279.374C198.587 279.593 197.874 279.702 197.028 279.702C196.361 279.702 195.785 279.653 195.302 279.555C194.824 279.463 194.373 279.319 193.947 279.124V277.372C194.401 277.584 194.911 277.769 195.474 277.924C196.044 278.079 196.582 278.157 197.088 278.157C197.756 278.157 198.236 278.053 198.53 277.846C198.823 277.633 198.97 277.351 198.97 277C198.97 276.793 198.91 276.609 198.789 276.448C198.674 276.281 198.455 276.111 198.133 275.939C197.816 275.761 197.35 275.548 196.735 275.3C196.13 275.059 195.621 274.817 195.207 274.575C194.793 274.334 194.479 274.043 194.266 273.704C194.053 273.358 193.947 272.918 193.947 272.383C193.947 271.537 194.281 270.896 194.948 270.458C195.621 270.015 196.51 269.794 197.615 269.794C198.202 269.794 198.754 269.854 199.272 269.975C199.796 270.09 200.308 270.26 200.808 270.484L200.17 272.012C199.738 271.822 199.304 271.667 198.866 271.546C198.435 271.419 197.995 271.356 197.546 271.356C197.022 271.356 196.622 271.436 196.346 271.598C196.076 271.759 195.941 271.989 195.941 272.288C195.941 272.512 196.007 272.702 196.139 272.858C196.271 273.013 196.499 273.168 196.821 273.324C197.149 273.479 197.603 273.672 198.185 273.902C198.754 274.121 199.246 274.351 199.66 274.592C200.08 274.828 200.403 275.119 200.627 275.464C200.851 275.809 200.964 276.255 200.964 276.802ZM206.962 269.794C207.814 269.794 208.544 269.969 209.154 270.32C209.764 270.671 210.233 271.169 210.561 271.813C210.889 272.458 211.053 273.229 211.053 274.126V275.214H204.675C204.698 276.14 204.945 276.854 205.417 277.354C205.895 277.855 206.562 278.105 207.42 278.105C208.029 278.105 208.576 278.048 209.059 277.933C209.548 277.812 210.052 277.636 210.57 277.406V279.055C210.092 279.279 209.606 279.443 209.111 279.547C208.616 279.65 208.024 279.702 207.333 279.702C206.395 279.702 205.57 279.521 204.856 279.158C204.148 278.79 203.593 278.243 203.19 277.518C202.793 276.793 202.595 275.893 202.595 274.817C202.595 273.747 202.776 272.838 203.139 272.09C203.501 271.342 204.01 270.772 204.666 270.381C205.322 269.989 206.087 269.794 206.962 269.794ZM206.962 271.321C206.323 271.321 205.806 271.529 205.409 271.943C205.017 272.357 204.787 272.964 204.718 273.764H209.068C209.062 273.286 208.982 272.863 208.826 272.495C208.677 272.127 208.447 271.839 208.136 271.632C207.831 271.425 207.44 271.321 206.962 271.321ZM219.762 276.802C219.762 277.429 219.609 277.958 219.304 278.39C218.999 278.822 218.553 279.15 217.966 279.374C217.385 279.593 216.672 279.702 215.826 279.702C215.158 279.702 214.583 279.653 214.1 279.555C213.622 279.463 213.17 279.319 212.745 279.124V277.372C213.199 277.584 213.708 277.769 214.272 277.924C214.842 278.079 215.38 278.157 215.886 278.157C216.554 278.157 217.034 278.053 217.328 277.846C217.621 277.633 217.768 277.351 217.768 277C217.768 276.793 217.707 276.609 217.587 276.448C217.472 276.281 217.253 276.111 216.931 275.939C216.614 275.761 216.148 275.548 215.532 275.3C214.928 275.059 214.419 274.817 214.005 274.575C213.591 274.334 213.277 274.043 213.064 273.704C212.851 273.358 212.745 272.918 212.745 272.383C212.745 271.537 213.078 270.896 213.746 270.458C214.419 270.015 215.308 269.794 216.413 269.794C217 269.794 217.552 269.854 218.07 269.975C218.594 270.09 219.106 270.26 219.606 270.484L218.968 272.012C218.536 271.822 218.102 271.667 217.664 271.546C217.233 271.419 216.793 271.356 216.344 271.356C215.82 271.356 215.42 271.436 215.144 271.598C214.874 271.759 214.738 271.989 214.738 272.288C214.738 272.512 214.805 272.702 214.937 272.858C215.069 273.013 215.297 273.168 215.619 273.324C215.947 273.479 216.401 273.672 216.982 273.902C217.552 274.121 218.044 274.351 218.458 274.592C218.878 274.828 219.201 275.119 219.425 275.464C219.649 275.809 219.762 276.255 219.762 276.802Z" fill="#CEDAEF"/>
<path d="M75.1912 422H68.0449V409.382H75.1912V411.125H70.1163V414.552H74.8718V416.286H70.1163V420.248H75.1912V422ZM83.3646 422L79.731 411.462H79.6533C79.6706 411.698 79.6907 412.02 79.7137 412.428C79.7367 412.837 79.7569 413.274 79.7741 413.74C79.7914 414.206 79.8 414.652 79.8 415.078V422H77.9185V409.382H80.8271L84.3226 419.454H84.3744L87.9907 409.382H90.8906V422H88.9142V414.975C88.9142 414.589 88.9199 414.172 88.9314 413.723C88.9487 413.274 88.9659 412.848 88.9832 412.446C89.0062 412.043 89.0235 411.721 89.035 411.479H88.9659L85.1943 422H83.3646ZM98.5893 422H96.5093V411.142H92.8153V409.382H102.275V411.142H98.5893V422ZM112.338 412.264C113.546 412.264 114.458 412.532 115.074 413.067C115.696 413.602 116.006 414.437 116.006 415.57V422H114.565L114.177 420.645H114.107C113.837 420.99 113.558 421.275 113.27 421.499C112.983 421.724 112.649 421.891 112.269 422C111.895 422.115 111.438 422.173 110.897 422.173C110.327 422.173 109.818 422.069 109.369 421.862C108.92 421.649 108.567 421.327 108.308 420.895C108.049 420.464 107.919 419.917 107.919 419.255C107.919 418.271 108.285 417.532 109.015 417.037C109.752 416.542 110.862 416.269 112.347 416.217L114.004 416.157V415.656C114.004 414.995 113.849 414.523 113.538 414.241C113.233 413.959 112.801 413.818 112.243 413.818C111.766 413.818 111.302 413.887 110.854 414.025C110.405 414.163 109.968 414.333 109.542 414.534L108.886 413.102C109.352 412.854 109.881 412.653 110.474 412.497C111.072 412.342 111.694 412.264 112.338 412.264ZM113.995 417.434L112.761 417.477C111.748 417.512 111.038 417.685 110.629 417.995C110.221 418.306 110.016 418.732 110.016 419.273C110.016 419.744 110.157 420.09 110.439 420.308C110.721 420.521 111.092 420.628 111.553 420.628C112.255 420.628 112.836 420.429 113.296 420.032C113.762 419.629 113.995 419.04 113.995 418.263V417.434ZM122.056 422.173C120.917 422.173 120.002 421.758 119.312 420.93C118.627 420.095 118.285 418.867 118.285 417.244C118.285 415.605 118.633 414.365 119.329 413.525C120.031 412.684 120.955 412.264 122.1 412.264C122.583 412.264 123.006 412.331 123.368 412.463C123.731 412.59 124.042 412.762 124.3 412.981C124.565 413.199 124.79 413.444 124.974 413.714H125.069C125.04 413.536 125.005 413.28 124.965 412.946C124.931 412.607 124.913 412.293 124.913 412.006V408.57H126.95V422H125.362L125 420.697H124.913C124.741 420.973 124.522 421.223 124.257 421.448C123.998 421.666 123.688 421.842 123.325 421.974C122.968 422.106 122.546 422.173 122.056 422.173ZM122.626 420.524C123.495 420.524 124.108 420.274 124.464 419.773C124.821 419.273 125.005 418.522 125.017 417.521V417.253C125.017 416.183 124.844 415.363 124.499 414.793C124.154 414.218 123.524 413.93 122.609 413.93C121.878 413.93 121.32 414.227 120.934 414.819C120.555 415.406 120.365 416.226 120.365 417.279C120.365 418.332 120.555 419.137 120.934 419.696C121.32 420.248 121.884 420.524 122.626 420.524ZM140.656 412.264C141.726 412.264 142.532 412.541 143.072 413.093C143.619 413.645 143.892 414.531 143.892 415.751V422H141.864V416.114C141.864 415.389 141.723 414.842 141.441 414.474C141.159 414.106 140.731 413.922 140.155 413.922C139.35 413.922 138.769 414.18 138.412 414.698C138.061 415.21 137.885 415.956 137.885 416.934V422H135.857V416.114C135.857 415.63 135.794 415.228 135.667 414.905C135.546 414.578 135.359 414.333 135.106 414.172C134.853 414.005 134.534 413.922 134.148 413.922C133.59 413.922 133.144 414.048 132.81 414.301C132.482 414.554 132.247 414.928 132.103 415.423C131.959 415.912 131.887 416.514 131.887 417.227V422H129.859V412.446H131.438L131.723 413.732H131.835C132.031 413.398 132.272 413.125 132.56 412.912C132.854 412.693 133.179 412.532 133.535 412.428C133.892 412.319 134.263 412.264 134.649 412.264C135.362 412.264 135.964 412.391 136.453 412.644C136.942 412.892 137.307 413.271 137.549 413.783H137.704C138.003 413.266 138.42 412.883 138.956 412.636C139.491 412.388 140.057 412.264 140.656 412.264ZM148.752 412.446V422H146.723V412.446H148.752ZM147.75 408.786C148.061 408.786 148.329 408.87 148.553 409.037C148.783 409.203 148.898 409.491 148.898 409.9C148.898 410.302 148.783 410.59 148.553 410.763C148.329 410.93 148.061 411.013 147.75 411.013C147.428 411.013 147.155 410.93 146.93 410.763C146.712 410.59 146.602 410.302 146.602 409.9C146.602 409.491 146.712 409.203 146.93 409.037C147.155 408.87 147.428 408.786 147.75 408.786ZM156.64 412.264C157.716 412.264 158.553 412.544 159.152 413.102C159.756 413.654 160.058 414.543 160.058 415.769V422H158.03V416.148C158.03 415.406 157.877 414.851 157.572 414.483C157.267 414.109 156.795 413.922 156.157 413.922C155.23 413.922 154.586 414.206 154.223 414.776C153.867 415.346 153.688 416.171 153.688 417.253V422H151.66V412.446H153.24L153.524 413.74H153.637C153.844 413.407 154.1 413.133 154.405 412.92C154.715 412.702 155.061 412.538 155.44 412.428C155.826 412.319 156.226 412.264 156.64 412.264ZM164.926 412.446V422H162.897V412.446H164.926ZM163.924 408.786C164.235 408.786 164.503 408.87 164.727 409.037C164.957 409.203 165.072 409.491 165.072 409.9C165.072 410.302 164.957 410.59 164.727 410.763C164.503 410.93 164.235 411.013 163.924 411.013C163.602 411.013 163.329 410.93 163.105 410.763C162.886 410.59 162.777 410.302 162.777 409.9C162.777 409.491 162.886 409.203 163.105 409.037C163.329 408.87 163.602 408.786 163.924 408.786ZM174.256 419.273C174.256 419.9 174.103 420.429 173.798 420.861C173.493 421.292 173.047 421.62 172.46 421.845C171.879 422.063 171.166 422.173 170.32 422.173C169.652 422.173 169.077 422.124 168.594 422.026C168.116 421.934 167.664 421.79 167.239 421.594V419.842C167.693 420.055 168.202 420.239 168.766 420.395C169.336 420.55 169.874 420.628 170.38 420.628C171.048 420.628 171.528 420.524 171.822 420.317C172.115 420.104 172.262 419.822 172.262 419.471C172.262 419.264 172.201 419.08 172.081 418.919C171.966 418.752 171.747 418.582 171.425 418.41C171.108 418.231 170.642 418.018 170.026 417.771C169.422 417.529 168.913 417.288 168.499 417.046C168.085 416.804 167.771 416.514 167.558 416.174C167.345 415.829 167.239 415.389 167.239 414.854C167.239 414.008 167.572 413.366 168.24 412.929C168.913 412.486 169.802 412.264 170.907 412.264C171.494 412.264 172.046 412.325 172.564 412.446C173.088 412.561 173.6 412.731 174.1 412.955L173.462 414.483C173.03 414.293 172.596 414.137 172.158 414.017C171.727 413.89 171.287 413.827 170.838 413.827C170.314 413.827 169.914 413.907 169.638 414.068C169.368 414.229 169.232 414.46 169.232 414.759C169.232 414.983 169.299 415.173 169.431 415.328C169.563 415.484 169.791 415.639 170.113 415.794C170.441 415.95 170.895 416.143 171.476 416.373C172.046 416.591 172.538 416.822 172.952 417.063C173.372 417.299 173.695 417.59 173.919 417.935C174.143 418.28 174.256 418.726 174.256 419.273ZM180.004 420.533C180.268 420.533 180.53 420.51 180.789 420.464C181.048 420.412 181.284 420.352 181.497 420.282V421.819C181.272 421.917 180.982 422 180.625 422.069C180.268 422.138 179.897 422.173 179.512 422.173C178.971 422.173 178.485 422.083 178.053 421.905C177.622 421.721 177.279 421.407 177.026 420.964C176.773 420.521 176.646 419.908 176.646 419.126V413.991H175.343V413.084L176.741 412.368L177.406 410.323H178.683V412.446H181.419V413.991H178.683V419.1C178.683 419.583 178.804 419.943 179.046 420.179C179.287 420.415 179.607 420.533 180.004 420.533ZM187.245 412.264C188.096 412.264 188.827 412.44 189.437 412.791C190.047 413.142 190.516 413.64 190.844 414.284C191.172 414.928 191.336 415.7 191.336 416.597V417.685H184.958C184.981 418.611 185.228 419.324 185.7 419.825C186.178 420.326 186.845 420.576 187.702 420.576C188.312 420.576 188.859 420.518 189.342 420.403C189.831 420.282 190.335 420.107 190.853 419.877V421.525C190.375 421.75 189.889 421.914 189.394 422.017C188.899 422.121 188.307 422.173 187.616 422.173C186.678 422.173 185.852 421.991 185.139 421.629C184.431 421.261 183.876 420.714 183.473 419.989C183.076 419.264 182.878 418.364 182.878 417.288C182.878 416.217 183.059 415.308 183.421 414.56C183.784 413.812 184.293 413.243 184.949 412.851C185.605 412.46 186.37 412.264 187.245 412.264ZM187.245 413.792C186.606 413.792 186.088 413.999 185.691 414.414C185.3 414.828 185.07 415.435 185.001 416.235H189.351C189.345 415.757 189.265 415.334 189.109 414.966C188.96 414.598 188.729 414.31 188.419 414.103C188.114 413.896 187.722 413.792 187.245 413.792ZM198.465 412.264C198.626 412.264 198.802 412.273 198.991 412.29C199.181 412.308 199.345 412.331 199.483 412.359L199.294 414.258C199.173 414.224 199.023 414.198 198.845 414.18C198.672 414.163 198.517 414.155 198.379 414.155C198.016 414.155 197.671 414.215 197.343 414.336C197.015 414.451 196.724 414.629 196.471 414.871C196.218 415.107 196.02 415.403 195.876 415.76C195.732 416.117 195.66 416.531 195.66 417.003V422H193.623V412.446H195.211L195.487 414.129H195.582C195.772 413.789 196.008 413.479 196.29 413.197C196.572 412.915 196.894 412.69 197.257 412.523C197.625 412.351 198.028 412.264 198.465 412.264ZM205.059 412.264C205.91 412.264 206.641 412.44 207.251 412.791C207.861 413.142 208.33 413.64 208.658 414.284C208.986 414.928 209.15 415.7 209.15 416.597V417.685H202.772C202.795 418.611 203.042 419.324 203.514 419.825C203.992 420.326 204.659 420.576 205.516 420.576C206.126 420.576 206.673 420.518 207.156 420.403C207.645 420.282 208.149 420.107 208.667 419.877V421.525C208.189 421.75 207.703 421.914 207.208 422.017C206.713 422.121 206.12 422.173 205.43 422.173C204.492 422.173 203.666 421.991 202.953 421.629C202.245 421.261 201.69 420.714 201.287 419.989C200.89 419.264 200.692 418.364 200.692 417.288C200.692 416.217 200.873 415.308 201.235 414.56C201.598 413.812 202.107 413.243 202.763 412.851C203.419 412.46 204.184 412.264 205.059 412.264ZM205.059 413.792C204.42 413.792 203.902 413.999 203.505 414.414C203.114 414.828 202.884 415.435 202.815 416.235H207.165C207.159 415.757 207.079 415.334 206.923 414.966C206.774 414.598 206.543 414.31 206.233 414.103C205.928 413.896 205.536 413.792 205.059 413.792ZM214.648 422.173C213.508 422.173 212.594 421.758 211.903 420.93C211.218 420.095 210.876 418.867 210.876 417.244C210.876 415.605 211.224 414.365 211.92 413.525C212.622 412.684 213.546 412.264 214.691 412.264C215.174 412.264 215.597 412.331 215.96 412.463C216.322 412.59 216.633 412.762 216.892 412.981C217.156 413.199 217.381 413.444 217.565 413.714H217.66C217.631 413.536 217.597 413.28 217.556 412.946C217.522 412.607 217.505 412.293 217.505 412.006V408.57H219.541V422H217.953L217.591 420.697H217.505C217.332 420.973 217.113 421.223 216.849 421.448C216.59 421.666 216.279 421.842 215.916 421.974C215.56 422.106 215.137 422.173 214.648 422.173ZM215.217 420.524C216.086 420.524 216.699 420.274 217.056 419.773C217.412 419.273 217.597 418.522 217.608 417.521V417.253C217.608 416.183 217.435 415.363 217.09 414.793C216.745 414.218 216.115 413.93 215.2 413.93C214.469 413.93 213.911 414.227 213.526 414.819C213.146 415.406 212.956 416.226 212.956 417.279C212.956 418.332 213.146 419.137 213.526 419.696C213.911 420.248 214.475 420.524 215.217 420.524ZM112.537 436.264C113.613 436.264 114.45 436.544 115.048 437.102C115.652 437.654 115.954 438.543 115.954 439.769V446H113.926V440.148C113.926 439.406 113.774 438.851 113.469 438.483C113.164 438.109 112.692 437.922 112.053 437.922C111.127 437.922 110.483 438.206 110.12 438.776C109.763 439.346 109.585 440.171 109.585 441.253V446H107.557V436.446H109.136L109.421 437.74H109.533C109.74 437.407 109.996 437.133 110.301 436.92C110.612 436.702 110.957 436.538 111.337 436.428C111.723 436.319 112.122 436.264 112.537 436.264ZM122.54 436.264C123.748 436.264 124.66 436.532 125.276 437.067C125.897 437.602 126.208 438.437 126.208 439.57V446H124.767L124.378 444.645H124.309C124.039 444.99 123.76 445.275 123.472 445.499C123.184 445.724 122.85 445.891 122.471 446C122.097 446.115 121.639 446.173 121.098 446.173C120.529 446.173 120.02 446.069 119.571 445.862C119.122 445.649 118.768 445.327 118.509 444.895C118.25 444.464 118.121 443.917 118.121 443.255C118.121 442.271 118.486 441.532 119.217 441.037C119.953 440.542 121.064 440.269 122.548 440.217L124.206 440.157V439.656C124.206 438.995 124.05 438.523 123.739 438.241C123.435 437.959 123.003 437.818 122.445 437.818C121.967 437.818 121.504 437.887 121.055 438.025C120.606 438.163 120.169 438.333 119.743 438.534L119.087 437.102C119.554 436.854 120.083 436.653 120.676 436.497C121.274 436.342 121.895 436.264 122.54 436.264ZM124.197 441.434L122.963 441.477C121.95 441.512 121.239 441.685 120.831 441.995C120.422 442.306 120.218 442.732 120.218 443.273C120.218 443.744 120.359 444.09 120.641 444.308C120.923 444.521 121.294 444.628 121.754 444.628C122.456 444.628 123.037 444.429 123.498 444.032C123.964 443.629 124.197 443.04 124.197 442.263V441.434ZM133.889 436.264C134.05 436.264 134.226 436.273 134.416 436.29C134.606 436.308 134.77 436.331 134.908 436.359L134.718 438.258C134.597 438.224 134.447 438.198 134.269 438.18C134.096 438.163 133.941 438.155 133.803 438.155C133.44 438.155 133.095 438.215 132.767 438.336C132.439 438.451 132.149 438.629 131.896 438.871C131.642 439.107 131.444 439.403 131.3 439.76C131.156 440.117 131.084 440.531 131.084 441.003V446H129.047V436.446H130.635L130.912 438.129H131.007C131.196 437.789 131.432 437.479 131.714 437.197C131.996 436.915 132.318 436.69 132.681 436.523C133.049 436.351 133.452 436.264 133.889 436.264ZM140.526 446.173C139.623 446.173 138.84 445.997 138.179 445.646C137.517 445.295 137.008 444.757 136.651 444.032C136.294 443.307 136.116 442.387 136.116 441.27C136.116 440.108 136.312 439.159 136.703 438.422C137.094 437.686 137.635 437.142 138.326 436.791C139.022 436.44 139.819 436.264 140.716 436.264C141.286 436.264 141.801 436.322 142.261 436.437C142.727 436.546 143.121 436.682 143.444 436.843L142.839 438.465C142.488 438.321 142.129 438.201 141.761 438.103C141.392 438.005 141.038 437.956 140.699 437.956C140.141 437.956 139.675 438.08 139.301 438.327C138.933 438.575 138.656 438.943 138.472 439.432C138.294 439.921 138.205 440.528 138.205 441.253C138.205 441.955 138.297 442.548 138.481 443.031C138.665 443.509 138.938 443.871 139.301 444.118C139.663 444.36 140.109 444.481 140.639 444.481C141.162 444.481 141.631 444.418 142.045 444.291C142.46 444.165 142.851 444.001 143.219 443.799V445.56C142.857 445.767 142.468 445.919 142.054 446.017C141.64 446.121 141.131 446.173 140.526 446.173ZM149.209 436.264C150.417 436.264 151.329 436.532 151.945 437.067C152.566 437.602 152.877 438.437 152.877 439.57V446H151.436L151.047 444.645H150.978C150.708 444.99 150.429 445.275 150.141 445.499C149.853 445.724 149.52 445.891 149.14 446C148.766 446.115 148.308 446.173 147.768 446.173C147.198 446.173 146.689 446.069 146.24 445.862C145.791 445.649 145.437 445.327 145.178 444.895C144.919 444.464 144.79 443.917 144.79 443.255C144.79 442.271 145.155 441.532 145.886 441.037C146.623 440.542 147.733 440.269 149.218 440.217L150.875 440.157V439.656C150.875 438.995 150.719 438.523 150.409 438.241C150.104 437.959 149.672 437.818 149.114 437.818C148.636 437.818 148.173 437.887 147.724 438.025C147.276 438.163 146.838 438.333 146.413 438.534L145.757 437.102C146.223 436.854 146.752 436.653 147.345 436.497C147.943 436.342 148.565 436.264 149.209 436.264ZM150.866 441.434L149.632 441.477C148.619 441.512 147.909 441.685 147.5 441.995C147.092 442.306 146.887 442.732 146.887 443.273C146.887 443.744 147.028 444.09 147.31 444.308C147.592 444.521 147.963 444.628 148.424 444.628C149.126 444.628 149.707 444.429 150.167 444.032C150.633 443.629 150.866 443.04 150.866 442.263V441.434ZM160.697 436.264C161.773 436.264 162.61 436.544 163.208 437.102C163.812 437.654 164.114 438.543 164.114 439.769V446H162.086V440.148C162.086 439.406 161.934 438.851 161.629 438.483C161.324 438.109 160.852 437.922 160.213 437.922C159.287 437.922 158.642 438.206 158.28 438.776C157.923 439.346 157.745 440.171 157.745 441.253V446H155.717V436.446H157.296L157.581 437.74H157.693C157.9 437.407 158.156 437.133 158.461 436.92C158.772 436.702 159.117 436.538 159.497 436.428C159.882 436.319 160.282 436.264 160.697 436.264ZM170.803 441.158C170.803 440.191 170.895 439.248 171.079 438.327C171.269 437.407 171.557 436.529 171.943 435.695C172.328 434.861 172.814 434.089 173.401 433.382H175.17C174.348 434.481 173.726 435.698 173.306 437.033C172.892 438.367 172.685 439.737 172.685 441.141C172.685 442.056 172.777 442.962 172.961 443.86C173.145 444.757 173.421 445.62 173.789 446.449C174.158 447.283 174.612 448.066 175.153 448.796H173.401C172.814 448.106 172.328 447.352 171.943 446.535C171.557 445.718 171.269 444.855 171.079 443.946C170.895 443.037 170.803 442.108 170.803 441.158ZM182.135 436.264C183.211 436.264 184.049 436.544 184.647 437.102C185.251 437.654 185.553 438.543 185.553 439.769V446H183.525V440.148C183.525 439.406 183.373 438.851 183.068 438.483C182.763 438.109 182.291 437.922 181.652 437.922C180.726 437.922 180.081 438.206 179.719 438.776C179.362 439.346 179.184 440.171 179.184 441.253V446H177.156V436.446H178.735L179.02 437.74H179.132C179.339 437.407 179.595 437.133 179.9 436.92C180.211 436.702 180.556 436.538 180.936 436.428C181.321 436.319 181.721 436.264 182.135 436.264ZM192.139 436.264C193.347 436.264 194.259 436.532 194.875 437.067C195.496 437.602 195.807 438.437 195.807 439.57V446H194.365L193.977 444.645H193.908C193.637 444.99 193.358 445.275 193.071 445.499C192.783 445.724 192.449 445.891 192.07 446C191.696 446.115 191.238 446.173 190.697 446.173C190.128 446.173 189.618 446.069 189.17 445.862C188.721 445.649 188.367 445.327 188.108 444.895C187.849 444.464 187.72 443.917 187.72 443.255C187.72 442.271 188.085 441.532 188.816 441.037C189.552 440.542 190.663 440.269 192.147 440.217L193.804 440.157V439.656C193.804 438.995 193.649 438.523 193.338 438.241C193.033 437.959 192.602 437.818 192.044 437.818C191.566 437.818 191.103 437.887 190.654 438.025C190.205 438.163 189.768 438.333 189.342 438.534L188.686 437.102C189.152 436.854 189.682 436.653 190.274 436.497C190.873 436.342 191.494 436.264 192.139 436.264ZM193.796 441.434L192.561 441.477C191.549 441.512 190.838 441.685 190.43 441.995C190.021 442.306 189.817 442.732 189.817 443.273C189.817 443.744 189.958 444.09 190.24 444.308C190.522 444.521 190.893 444.628 191.353 444.628C192.055 444.628 192.636 444.429 193.097 444.032C193.563 443.629 193.796 443.04 193.796 442.263V441.434ZM205.068 443.273C205.068 443.9 204.915 444.429 204.61 444.861C204.305 445.292 203.859 445.62 203.272 445.845C202.691 446.063 201.978 446.173 201.132 446.173C200.464 446.173 199.889 446.124 199.406 446.026C198.928 445.934 198.476 445.79 198.051 445.594V443.842C198.505 444.055 199.014 444.239 199.578 444.395C200.148 444.55 200.686 444.628 201.192 444.628C201.86 444.628 202.34 444.524 202.634 444.317C202.927 444.104 203.074 443.822 203.074 443.471C203.074 443.264 203.013 443.08 202.893 442.919C202.777 442.752 202.559 442.582 202.237 442.41C201.92 442.231 201.454 442.018 200.838 441.771C200.234 441.529 199.725 441.288 199.311 441.046C198.897 440.804 198.583 440.514 198.37 440.174C198.157 439.829 198.051 439.389 198.051 438.854C198.051 438.008 198.384 437.366 199.052 436.929C199.725 436.486 200.614 436.264 201.719 436.264C202.306 436.264 202.858 436.325 203.376 436.446C203.9 436.561 204.412 436.731 204.912 436.955L204.274 438.483C203.842 438.293 203.408 438.137 202.97 438.017C202.539 437.89 202.099 437.827 201.65 437.827C201.126 437.827 200.726 437.907 200.45 438.068C200.18 438.229 200.044 438.46 200.044 438.759C200.044 438.983 200.111 439.173 200.243 439.328C200.375 439.484 200.603 439.639 200.925 439.794C201.253 439.95 201.707 440.143 202.288 440.373C202.858 440.591 203.35 440.822 203.764 441.063C204.184 441.299 204.507 441.59 204.731 441.935C204.955 442.28 205.068 442.726 205.068 443.273ZM211.006 436.264C212.214 436.264 213.126 436.532 213.741 437.067C214.363 437.602 214.674 438.437 214.674 439.57V446H213.232L212.844 444.645H212.775C212.504 444.99 212.225 445.275 211.938 445.499C211.65 445.724 211.316 445.891 210.936 446C210.562 446.115 210.105 446.173 209.564 446.173C208.995 446.173 208.485 446.069 208.037 445.862C207.588 445.649 207.234 445.327 206.975 444.895C206.716 444.464 206.587 443.917 206.587 443.255C206.587 442.271 206.952 441.532 207.683 441.037C208.419 440.542 209.53 440.269 211.014 440.217L212.671 440.157V439.656C212.671 438.995 212.516 438.523 212.205 438.241C211.9 437.959 211.469 437.818 210.911 437.818C210.433 437.818 209.97 437.887 209.521 438.025C209.072 438.163 208.635 438.333 208.209 438.534L207.553 437.102C208.019 436.854 208.549 436.653 209.141 436.497C209.74 436.342 210.361 436.264 211.006 436.264ZM212.663 441.434L211.428 441.477C210.416 441.512 209.705 441.685 209.297 441.995C208.888 442.306 208.684 442.732 208.684 443.273C208.684 443.744 208.825 444.09 209.107 444.308C209.389 444.521 209.76 444.628 210.22 444.628C210.922 444.628 211.503 444.429 211.964 444.032C212.43 443.629 212.663 443.04 212.663 442.263V441.434ZM219.55 446H217.513V432.57H219.55V446ZM176.292 467.273C176.292 467.9 176.14 468.429 175.835 468.861C175.53 469.292 175.084 469.62 174.497 469.845C173.916 470.063 173.203 470.173 172.357 470.173C171.689 470.173 171.114 470.124 170.631 470.026C170.153 469.934 169.701 469.79 169.276 469.594V467.842C169.73 468.055 170.239 468.239 170.803 468.395C171.373 468.55 171.911 468.628 172.417 468.628C173.085 468.628 173.565 468.524 173.859 468.317C174.152 468.104 174.299 467.822 174.299 467.471C174.299 467.264 174.238 467.08 174.117 466.919C174.002 466.752 173.784 466.582 173.462 466.41C173.145 466.231 172.679 466.018 172.063 465.771C171.459 465.529 170.95 465.288 170.536 465.046C170.121 464.804 169.808 464.514 169.595 464.174C169.382 463.829 169.276 463.389 169.276 462.854C169.276 462.008 169.609 461.366 170.277 460.929C170.95 460.486 171.839 460.264 172.944 460.264C173.531 460.264 174.083 460.325 174.601 460.446C175.124 460.561 175.636 460.731 176.137 460.955L175.498 462.483C175.067 462.293 174.632 462.137 174.195 462.017C173.764 461.89 173.323 461.827 172.875 461.827C172.351 461.827 171.951 461.907 171.675 462.068C171.405 462.229 171.269 462.46 171.269 462.759C171.269 462.983 171.335 463.173 171.468 463.328C171.6 463.484 171.827 463.639 172.15 463.794C172.478 463.95 172.932 464.143 173.513 464.373C174.083 464.591 174.575 464.822 174.989 465.063C175.409 465.299 175.731 465.59 175.956 465.935C176.18 466.28 176.292 466.726 176.292 467.273ZM183.387 460.264C184.52 460.264 185.43 460.679 186.114 461.507C186.805 462.336 187.15 463.567 187.15 465.201C187.15 466.283 186.989 467.195 186.667 467.937C186.35 468.674 185.904 469.232 185.329 469.612C184.759 469.986 184.095 470.173 183.335 470.173C182.852 470.173 182.432 470.109 182.075 469.983C181.718 469.856 181.413 469.692 181.16 469.491C180.907 469.284 180.694 469.059 180.522 468.818H180.401C180.429 469.048 180.455 469.304 180.478 469.586C180.507 469.862 180.522 470.115 180.522 470.345V474.238H178.485V460.446H180.142L180.427 461.766H180.522C180.7 461.496 180.916 461.245 181.169 461.015C181.428 460.785 181.738 460.604 182.101 460.472C182.469 460.333 182.898 460.264 183.387 460.264ZM182.843 461.922C182.285 461.922 181.836 462.034 181.497 462.258C181.163 462.477 180.919 462.808 180.763 463.251C180.614 463.694 180.533 464.249 180.522 464.916V465.201C180.522 465.909 180.593 466.51 180.737 467.005C180.887 467.494 181.131 467.868 181.471 468.127C181.816 468.38 182.282 468.507 182.869 468.507C183.364 468.507 183.772 468.372 184.095 468.101C184.423 467.831 184.667 467.445 184.828 466.945C184.989 466.444 185.07 465.854 185.07 465.175C185.07 464.145 184.886 463.346 184.518 462.776C184.155 462.206 183.597 461.922 182.843 461.922ZM194.339 460.264C194.501 460.264 194.676 460.273 194.866 460.29C195.056 460.308 195.22 460.331 195.358 460.359L195.168 462.258C195.047 462.224 194.898 462.198 194.719 462.18C194.547 462.163 194.391 462.155 194.253 462.155C193.891 462.155 193.545 462.215 193.217 462.336C192.889 462.451 192.599 462.629 192.346 462.871C192.093 463.107 191.894 463.403 191.75 463.76C191.606 464.117 191.534 464.531 191.534 465.003V470H189.498V460.446H191.086L191.362 462.129H191.457C191.647 461.789 191.883 461.479 192.164 461.197C192.446 460.915 192.769 460.69 193.131 460.523C193.499 460.351 193.902 460.264 194.339 460.264ZM200.873 460.264C202.081 460.264 202.993 460.532 203.609 461.067C204.23 461.602 204.541 462.437 204.541 463.57V470H203.1L202.711 468.645H202.642C202.372 468.99 202.093 469.275 201.805 469.499C201.517 469.724 201.184 469.891 200.804 470C200.43 470.115 199.972 470.173 199.432 470.173C198.862 470.173 198.353 470.069 197.904 469.862C197.455 469.649 197.101 469.327 196.842 468.895C196.583 468.464 196.454 467.917 196.454 467.255C196.454 466.271 196.819 465.532 197.55 465.037C198.287 464.542 199.397 464.269 200.882 464.217L202.539 464.157V463.656C202.539 462.995 202.383 462.523 202.073 462.241C201.768 461.959 201.336 461.818 200.778 461.818C200.3 461.818 199.837 461.887 199.388 462.025C198.94 462.163 198.502 462.333 198.077 462.534L197.421 461.102C197.887 460.854 198.416 460.653 199.009 460.497C199.607 460.342 200.229 460.264 200.873 460.264ZM202.53 465.434L201.296 465.477C200.283 465.512 199.573 465.685 199.164 465.995C198.756 466.306 198.551 466.732 198.551 467.273C198.551 467.744 198.692 468.09 198.974 468.308C199.256 468.521 199.627 468.628 200.088 468.628C200.79 468.628 201.371 468.429 201.831 468.032C202.297 467.629 202.53 467.04 202.53 466.263V465.434ZM205.939 460.446H208.149L210.108 465.9C210.194 466.148 210.272 466.392 210.341 466.634C210.416 466.87 210.479 467.103 210.531 467.333C210.588 467.563 210.634 467.793 210.669 468.024H210.721C210.778 467.724 210.859 467.391 210.962 467.022C211.072 466.648 211.193 466.274 211.325 465.9L213.206 460.446H215.39L211.29 471.312C211.054 471.933 210.764 472.463 210.419 472.9C210.079 473.343 209.676 473.677 209.21 473.901C208.744 474.131 208.212 474.246 207.614 474.246C207.326 474.246 207.076 474.229 206.863 474.195C206.65 474.166 206.469 474.134 206.319 474.1V472.477C206.44 472.506 206.592 472.532 206.776 472.555C206.961 472.578 207.15 472.589 207.346 472.589C207.709 472.589 208.022 472.517 208.287 472.373C208.552 472.23 208.776 472.025 208.96 471.761C209.144 471.502 209.297 471.205 209.417 470.872L209.754 469.974L205.939 460.446ZM220.284 465.149C220.284 466.105 220.192 467.037 220.007 467.946C219.823 468.855 219.539 469.718 219.153 470.535C218.773 471.352 218.284 472.106 217.686 472.796H215.942C216.483 472.066 216.938 471.283 217.306 470.449C217.674 469.614 217.95 468.749 218.135 467.851C218.319 466.953 218.411 466.047 218.411 465.132C218.411 464.2 218.316 463.279 218.126 462.37C217.942 461.461 217.666 460.587 217.297 459.747C216.929 458.901 216.472 458.113 215.925 457.382H217.686C218.284 458.089 218.773 458.861 219.153 459.695C219.539 460.529 219.823 461.407 220.007 462.327C220.192 463.242 220.284 464.183 220.284 465.149Z" fill="#CEDAEF"/>
<path d="M301.423 693.186C301.423 704.738 292.058 714.102 280.506 714.102C268.954 714.102 259.59 704.738 259.59 693.186C259.59 681.634 268.954 672.27 280.506 672.27C292.058 672.27 301.423 681.634 301.423 693.186Z" fill="#CEDAEF"/>
<path d="M119.944 671.346H117.864V660.488H114.17V658.727H123.629V660.488H119.944V671.346ZM129.101 661.61C130.309 661.61 131.221 661.878 131.837 662.413C132.458 662.948 132.769 663.782 132.769 664.916V671.346H131.328L130.939 669.991H130.87C130.6 670.336 130.321 670.621 130.033 670.845C129.745 671.07 129.412 671.236 129.032 671.346C128.658 671.461 128.2 671.518 127.66 671.518C127.09 671.518 126.581 671.415 126.132 671.208C125.683 670.995 125.329 670.673 125.07 670.241C124.811 669.809 124.682 669.263 124.682 668.601C124.682 667.617 125.047 666.878 125.778 666.383C126.515 665.888 127.625 665.615 129.11 665.563L130.767 665.503V665.002C130.767 664.34 130.611 663.869 130.301 663.587C129.996 663.305 129.564 663.164 129.006 663.164C128.528 663.164 128.065 663.233 127.616 663.371C127.168 663.509 126.73 663.679 126.305 663.88L125.649 662.447C126.115 662.2 126.644 661.999 127.237 661.843C127.835 661.688 128.456 661.61 129.101 661.61ZM130.758 666.78L129.524 666.823C128.511 666.858 127.801 667.03 127.392 667.341C126.983 667.652 126.779 668.078 126.779 668.618C126.779 669.09 126.92 669.435 127.202 669.654C127.484 669.867 127.855 669.973 128.315 669.973C129.017 669.973 129.599 669.775 130.059 669.378C130.525 668.975 130.758 668.385 130.758 667.609V666.78ZM137.637 657.916V664.407C137.637 664.7 137.625 665.022 137.602 665.373C137.579 665.718 137.556 666.044 137.533 666.348H137.576C137.726 666.147 137.904 665.911 138.111 665.641C138.324 665.37 138.526 665.134 138.716 664.933L141.633 661.791H143.963L140.14 665.9L144.213 671.346H141.831L138.776 667.151L137.637 668.126V671.346H135.609V657.916H137.637ZM149.547 661.61C150.399 661.61 151.13 661.786 151.739 662.137C152.349 662.488 152.818 662.985 153.146 663.63C153.474 664.274 153.638 665.045 153.638 665.943V667.03H147.26C147.283 667.957 147.531 668.67 148.002 669.171C148.48 669.671 149.147 669.922 150.005 669.922C150.615 669.922 151.161 669.864 151.645 669.749C152.134 669.628 152.637 669.453 153.155 669.223V670.871C152.677 671.095 152.191 671.259 151.696 671.363C151.202 671.467 150.609 671.518 149.918 671.518C148.981 671.518 148.155 671.337 147.441 670.975C146.734 670.606 146.178 670.06 145.776 669.335C145.379 668.61 145.18 667.709 145.18 666.633C145.18 665.563 145.361 664.654 145.724 663.906C146.086 663.158 146.596 662.588 147.251 662.197C147.907 661.806 148.673 661.61 149.547 661.61ZM149.547 663.138C148.909 663.138 148.391 663.345 147.994 663.759C147.602 664.174 147.372 664.781 147.303 665.58H151.653C151.647 665.103 151.567 664.68 151.412 664.312C151.262 663.943 151.032 663.656 150.721 663.449C150.416 663.241 150.025 663.138 149.547 663.138ZM160.905 661.61C161.981 661.61 162.819 661.889 163.417 662.447C164.021 663 164.323 663.889 164.323 665.114V671.346H162.295V665.494C162.295 664.752 162.142 664.197 161.838 663.828C161.533 663.454 161.061 663.267 160.422 663.267C159.496 663.267 158.851 663.552 158.489 664.122C158.132 664.691 157.954 665.517 157.954 666.599V671.346H155.925V661.791H157.505L157.79 663.086H157.902C158.109 662.752 158.365 662.479 158.67 662.266C158.981 662.047 159.326 661.883 159.706 661.774C160.091 661.665 160.491 661.61 160.905 661.61ZM175.31 669.878C175.575 669.878 175.837 669.855 176.096 669.809C176.355 669.758 176.59 669.697 176.803 669.628V671.164C176.579 671.262 176.288 671.346 175.932 671.415C175.575 671.484 175.204 671.518 174.818 671.518C174.277 671.518 173.791 671.429 173.36 671.251C172.928 671.067 172.586 670.753 172.333 670.31C172.079 669.867 171.953 669.254 171.953 668.472V663.336H170.65V662.43L172.048 661.714L172.712 659.668H173.99V661.791H176.726V663.336H173.99V668.446C173.99 668.929 174.111 669.289 174.352 669.525C174.594 669.761 174.913 669.878 175.31 669.878ZM187.203 666.547C187.203 667.341 187.1 668.046 186.893 668.662C186.686 669.277 186.384 669.798 185.987 670.224C185.59 670.644 185.112 670.966 184.554 671.19C183.996 671.409 183.366 671.518 182.664 671.518C182.008 671.518 181.406 671.409 180.86 671.19C180.313 670.966 179.839 670.644 179.436 670.224C179.039 669.798 178.731 669.277 178.512 668.662C178.294 668.046 178.184 667.341 178.184 666.547C178.184 665.494 178.366 664.602 178.728 663.871C179.096 663.135 179.62 662.574 180.299 662.188C180.978 661.803 181.786 661.61 182.724 661.61C183.604 661.61 184.381 661.803 185.054 662.188C185.728 662.574 186.254 663.135 186.634 663.871C187.014 664.608 187.203 665.5 187.203 666.547ZM180.273 666.547C180.273 667.243 180.356 667.839 180.523 668.334C180.696 668.828 180.961 669.208 181.317 669.473C181.674 669.732 182.134 669.861 182.698 669.861C183.262 669.861 183.722 669.732 184.079 669.473C184.436 669.208 184.698 668.828 184.865 668.334C185.031 667.839 185.115 667.243 185.115 666.547C185.115 665.851 185.031 665.261 184.865 664.778C184.698 664.289 184.436 663.917 184.079 663.664C183.722 663.405 183.259 663.276 182.69 663.276C181.849 663.276 181.237 663.558 180.851 664.122C180.466 664.686 180.273 665.494 180.273 666.547ZM197.681 669.878C197.946 669.878 198.208 669.855 198.467 669.809C198.726 669.758 198.962 669.697 199.174 669.628V671.164C198.95 671.262 198.659 671.346 198.303 671.415C197.946 671.484 197.575 671.518 197.189 671.518C196.648 671.518 196.162 671.429 195.731 671.251C195.299 671.067 194.957 670.753 194.704 670.31C194.45 669.867 194.324 669.254 194.324 668.472V663.336H193.021V662.43L194.419 661.714L195.083 659.668H196.361V661.791H199.097V663.336H196.361V668.446C196.361 668.929 196.482 669.289 196.723 669.525C196.965 669.761 197.284 669.878 197.681 669.878ZM203.145 657.916V661.291C203.145 661.642 203.133 661.984 203.11 662.318C203.093 662.652 203.073 662.911 203.05 663.095H203.162C203.363 662.761 203.611 662.488 203.904 662.275C204.198 662.056 204.526 661.892 204.888 661.783C205.256 661.673 205.648 661.619 206.062 661.619C206.793 661.619 207.414 661.742 207.926 661.99C208.438 662.232 208.829 662.608 209.1 663.121C209.376 663.633 209.514 664.297 209.514 665.114V671.346H207.486V665.494C207.486 664.752 207.333 664.197 207.028 663.828C206.723 663.454 206.252 663.267 205.613 663.267C204.997 663.267 204.508 663.397 204.146 663.656C203.789 663.909 203.533 664.286 203.378 664.786C203.222 665.281 203.145 665.885 203.145 666.599V671.346H201.116V657.916H203.145ZM216.16 661.61C217.011 661.61 217.742 661.786 218.352 662.137C218.962 662.488 219.431 662.985 219.759 663.63C220.087 664.274 220.251 665.045 220.251 665.943V667.03H213.873C213.896 667.957 214.143 668.67 214.615 669.171C215.092 669.671 215.76 669.922 216.617 669.922C217.227 669.922 217.774 669.864 218.257 669.749C218.746 669.628 219.25 669.453 219.768 669.223V670.871C219.29 671.095 218.804 671.259 218.309 671.363C217.814 671.467 217.221 671.518 216.531 671.518C215.593 671.518 214.767 671.337 214.054 670.975C213.346 670.606 212.791 670.06 212.388 669.335C211.991 668.61 211.793 667.709 211.793 666.633C211.793 665.563 211.974 664.654 212.336 663.906C212.699 663.158 213.208 662.588 213.864 662.197C214.52 661.806 215.285 661.61 216.16 661.61ZM216.16 663.138C215.521 663.138 215.003 663.345 214.606 663.759C214.215 664.174 213.985 664.781 213.916 665.58H218.266C218.26 665.103 218.179 664.68 218.024 664.312C217.874 663.943 217.644 663.656 217.334 663.449C217.029 663.241 216.637 663.138 216.16 663.138ZM132.009 685.61C132.861 685.61 133.592 685.786 134.202 686.137C134.812 686.488 135.281 686.985 135.609 687.63C135.936 688.274 136.1 689.045 136.1 689.943V691.03H129.722C129.745 691.957 129.993 692.67 130.465 693.171C130.942 693.671 131.61 693.922 132.467 693.922C133.077 693.922 133.623 693.864 134.107 693.749C134.596 693.628 135.099 693.453 135.617 693.223V694.871C135.14 695.095 134.653 695.259 134.159 695.363C133.664 695.467 133.071 695.518 132.381 695.518C131.443 695.518 130.617 695.337 129.904 694.975C129.196 694.606 128.641 694.06 128.238 693.335C127.841 692.61 127.642 691.709 127.642 690.633C127.642 689.563 127.824 688.654 128.186 687.906C128.549 687.158 129.058 686.588 129.714 686.197C130.37 685.806 131.135 685.61 132.009 685.61ZM132.009 687.138C131.371 687.138 130.853 687.345 130.456 687.759C130.065 688.174 129.835 688.781 129.765 689.58H134.115C134.11 689.103 134.029 688.68 133.874 688.312C133.724 687.943 133.494 687.656 133.183 687.449C132.878 687.241 132.487 687.138 132.009 687.138ZM149.185 685.61C150.255 685.61 151.061 685.886 151.601 686.439C152.148 686.991 152.421 687.877 152.421 689.097V695.346H150.393V689.459C150.393 688.735 150.252 688.188 149.97 687.82C149.688 687.451 149.26 687.267 148.684 687.267C147.879 687.267 147.298 687.526 146.941 688.044C146.59 688.556 146.414 689.301 146.414 690.279V695.346H144.386V689.459C144.386 688.976 144.323 688.573 144.196 688.251C144.075 687.923 143.888 687.679 143.635 687.518C143.382 687.351 143.063 687.267 142.677 687.267C142.119 687.267 141.673 687.394 141.339 687.647C141.011 687.9 140.775 688.274 140.632 688.769C140.488 689.258 140.416 689.859 140.416 690.573V695.346H138.388V685.791H139.967L140.252 687.077H140.364C140.56 686.744 140.801 686.47 141.089 686.257C141.383 686.039 141.708 685.878 142.064 685.774C142.421 685.665 142.792 685.61 143.178 685.61C143.891 685.61 144.492 685.737 144.982 685.99C145.471 686.237 145.836 686.617 146.078 687.129H146.233C146.532 686.611 146.949 686.229 147.485 685.981C148.02 685.734 148.586 685.61 149.185 685.61ZM159.058 685.61C159.91 685.61 160.641 685.786 161.251 686.137C161.861 686.488 162.329 686.985 162.657 687.63C162.985 688.274 163.149 689.045 163.149 689.943V691.03H156.771C156.794 691.957 157.042 692.67 157.514 693.171C157.991 693.671 158.659 693.922 159.516 693.922C160.126 693.922 160.672 693.864 161.156 693.749C161.645 693.628 162.148 693.453 162.666 693.223V694.871C162.189 695.095 161.702 695.259 161.207 695.363C160.713 695.467 160.12 695.518 159.43 695.518C158.492 695.518 157.666 695.337 156.953 694.975C156.245 694.606 155.69 694.06 155.287 693.335C154.89 692.61 154.691 691.709 154.691 690.633C154.691 689.563 154.872 688.654 155.235 687.906C155.597 687.158 156.107 686.588 156.763 686.197C157.419 685.806 158.184 685.61 159.058 685.61ZM159.058 687.138C158.42 687.138 157.902 687.345 157.505 687.759C157.114 688.174 156.883 688.781 156.814 689.58H161.164C161.159 689.103 161.078 688.68 160.923 688.312C160.773 687.943 160.543 687.656 160.232 687.449C159.927 687.241 159.536 687.138 159.058 687.138ZM170.278 685.61C170.44 685.61 170.615 685.619 170.805 685.636C170.995 685.653 171.159 685.676 171.297 685.705L171.107 687.604C170.986 687.569 170.837 687.543 170.658 687.526C170.486 687.509 170.33 687.5 170.192 687.5C169.83 687.5 169.484 687.561 169.156 687.682C168.828 687.797 168.538 687.975 168.285 688.217C168.032 688.453 167.833 688.749 167.689 689.106C167.545 689.462 167.473 689.877 167.473 690.348V695.346H165.437V685.791H167.025L167.301 687.474H167.396C167.586 687.135 167.822 686.824 168.104 686.542C168.385 686.26 168.708 686.036 169.07 685.869C169.438 685.696 169.841 685.61 170.278 685.61ZM175.794 699.592C174.499 699.592 173.506 699.359 172.816 698.893C172.125 698.427 171.78 697.774 171.78 696.934C171.78 696.347 171.964 695.849 172.333 695.441C172.701 695.038 173.227 694.759 173.912 694.603C173.653 694.488 173.429 694.31 173.239 694.068C173.055 693.821 172.963 693.548 172.963 693.248C172.963 692.892 173.063 692.587 173.265 692.334C173.466 692.08 173.768 691.836 174.171 691.6C173.67 691.387 173.268 691.042 172.963 690.564C172.663 690.081 172.514 689.514 172.514 688.864C172.514 688.174 172.661 687.587 172.954 687.103C173.247 686.614 173.676 686.243 174.24 685.99C174.804 685.731 175.486 685.602 176.286 685.602C176.458 685.602 176.645 685.613 176.847 685.636C177.054 685.653 177.244 685.676 177.416 685.705C177.595 685.728 177.73 685.754 177.822 685.783H181.127V686.913L179.505 687.215C179.66 687.434 179.784 687.684 179.876 687.966C179.968 688.243 180.014 688.545 180.014 688.873C180.014 689.862 179.672 690.642 178.987 691.212C178.308 691.775 177.37 692.057 176.173 692.057C175.886 692.046 175.607 692.023 175.336 691.988C175.129 692.115 174.971 692.256 174.861 692.411C174.752 692.561 174.697 692.731 174.697 692.92C174.697 693.076 174.752 693.202 174.861 693.3C174.971 693.392 175.132 693.461 175.345 693.507C175.563 693.553 175.828 693.576 176.139 693.576H177.787C178.834 693.576 179.634 693.798 180.187 694.241C180.739 694.684 181.015 695.334 181.015 696.192C181.015 697.279 180.566 698.116 179.669 698.703C178.771 699.296 177.479 699.592 175.794 699.592ZM175.871 698.168C176.579 698.168 177.174 698.099 177.658 697.961C178.141 697.823 178.507 697.624 178.754 697.365C179.001 697.112 179.125 696.81 179.125 696.459C179.125 696.148 179.047 695.91 178.892 695.743C178.737 695.576 178.504 695.461 178.193 695.397C177.882 695.334 177.497 695.303 177.036 695.303H175.535C175.161 695.303 174.83 695.36 174.542 695.475C174.254 695.596 174.03 695.769 173.869 695.993C173.714 696.217 173.636 696.488 173.636 696.804C173.636 697.242 173.829 697.578 174.214 697.814C174.605 698.05 175.158 698.168 175.871 698.168ZM176.268 690.728C176.861 690.728 177.301 690.567 177.589 690.245C177.876 689.917 178.02 689.457 178.02 688.864C178.02 688.22 177.871 687.736 177.571 687.414C177.278 687.092 176.841 686.931 176.26 686.931C175.69 686.931 175.256 687.095 174.956 687.423C174.663 687.751 174.516 688.237 174.516 688.881C174.516 689.462 174.663 689.917 174.956 690.245C175.256 690.567 175.693 690.728 176.268 690.728ZM186.677 685.61C187.529 685.61 188.259 685.786 188.869 686.137C189.479 686.488 189.948 686.985 190.276 687.63C190.604 688.274 190.768 689.045 190.768 689.943V691.03H184.39C184.413 691.957 184.66 692.67 185.132 693.171C185.61 693.671 186.277 693.922 187.134 693.922C187.744 693.922 188.291 693.864 188.774 693.749C189.263 693.628 189.767 693.453 190.285 693.223V694.871C189.807 695.095 189.321 695.259 188.826 695.363C188.331 695.467 187.739 695.518 187.048 695.518C186.11 695.518 185.285 695.337 184.571 694.975C183.863 694.606 183.308 694.06 182.905 693.335C182.508 692.61 182.31 691.709 182.31 690.633C182.31 689.563 182.491 688.654 182.854 687.906C183.216 687.158 183.725 686.588 184.381 686.197C185.037 685.806 185.802 685.61 186.677 685.61ZM186.677 687.138C186.038 687.138 185.52 687.345 185.123 687.759C184.732 688.174 184.502 688.781 184.433 689.58H188.783C188.777 689.103 188.697 688.68 188.541 688.312C188.392 687.943 188.161 687.656 187.851 687.449C187.546 687.241 187.155 687.138 186.677 687.138ZM198.035 685.61C199.111 685.61 199.948 685.889 200.547 686.447C201.151 687 201.453 687.889 201.453 689.114V695.346H199.425V689.494C199.425 688.752 199.272 688.197 198.967 687.828C198.662 687.454 198.19 687.267 197.552 687.267C196.625 687.267 195.981 687.552 195.619 688.122C195.262 688.691 195.083 689.517 195.083 690.599V695.346H193.055V685.791H194.635L194.919 687.086H195.032C195.239 686.752 195.495 686.479 195.8 686.266C196.11 686.047 196.456 685.883 196.835 685.774C197.221 685.665 197.621 685.61 198.035 685.61ZM208.142 695.518C207.238 695.518 206.456 695.343 205.794 694.992C205.133 694.641 204.623 694.103 204.267 693.378C203.91 692.653 203.731 691.732 203.731 690.616C203.731 689.454 203.927 688.504 204.318 687.768C204.71 687.031 205.25 686.488 205.941 686.137C206.637 685.786 207.434 685.61 208.332 685.61C208.901 685.61 209.416 685.668 209.877 685.783C210.343 685.892 210.737 686.027 211.059 686.188L210.455 687.811C210.104 687.667 209.744 687.546 209.376 687.449C209.008 687.351 208.654 687.302 208.314 687.302C207.756 687.302 207.29 687.426 206.916 687.673C206.548 687.92 206.272 688.289 206.088 688.778C205.909 689.267 205.82 689.874 205.82 690.599C205.82 691.301 205.912 691.893 206.096 692.377C206.28 692.854 206.554 693.217 206.916 693.464C207.279 693.706 207.725 693.827 208.254 693.827C208.778 693.827 209.247 693.763 209.661 693.637C210.075 693.51 210.466 693.346 210.835 693.145V694.906C210.472 695.113 210.084 695.265 209.669 695.363C209.255 695.467 208.746 695.518 208.142 695.518ZM211.637 685.791H213.847L215.806 691.246C215.892 691.493 215.97 691.738 216.039 691.98C216.114 692.216 216.177 692.449 216.229 692.679C216.286 692.909 216.332 693.139 216.367 693.369H216.419C216.476 693.07 216.557 692.736 216.66 692.368C216.77 691.994 216.891 691.62 217.023 691.246L218.904 685.791H221.088L216.988 696.658C216.752 697.279 216.462 697.808 216.117 698.246C215.777 698.689 215.374 699.022 214.908 699.247C214.442 699.477 213.91 699.592 213.312 699.592C213.024 699.592 212.774 699.575 212.561 699.54C212.348 699.512 212.167 699.48 212.017 699.445V697.823C212.138 697.852 212.29 697.877 212.474 697.9C212.659 697.923 212.848 697.935 213.044 697.935C213.407 697.935 213.72 697.863 213.985 697.719C214.25 697.575 214.474 697.371 214.658 697.106C214.842 696.847 214.995 696.551 215.115 696.217L215.452 695.32L211.637 685.791ZM181.309 709.61C181.47 709.61 181.645 709.619 181.835 709.636C182.025 709.653 182.189 709.676 182.327 709.705L182.137 711.604C182.016 711.569 181.867 711.543 181.688 711.526C181.516 711.509 181.36 711.5 181.222 711.5C180.86 711.5 180.515 711.561 180.187 711.682C179.859 711.797 179.568 711.975 179.315 712.217C179.062 712.453 178.863 712.749 178.719 713.106C178.576 713.462 178.504 713.877 178.504 714.348V719.346H176.467V709.791H178.055L178.331 711.474H178.426C178.616 711.135 178.852 710.824 179.134 710.542C179.416 710.26 179.738 710.036 180.1 709.869C180.469 709.696 180.871 709.61 181.309 709.61ZM192.555 714.547C192.555 715.341 192.451 716.046 192.244 716.662C192.037 717.277 191.735 717.798 191.338 718.224C190.941 718.644 190.463 718.966 189.905 719.19C189.347 719.409 188.717 719.518 188.015 719.518C187.359 719.518 186.758 719.409 186.211 719.19C185.664 718.966 185.19 718.644 184.787 718.224C184.39 717.798 184.082 717.277 183.863 716.662C183.645 716.046 183.535 715.341 183.535 714.547C183.535 713.494 183.717 712.602 184.079 711.871C184.447 711.135 184.971 710.574 185.65 710.188C186.329 709.803 187.137 709.61 188.075 709.61C188.956 709.61 189.732 709.803 190.406 710.188C191.079 710.574 191.605 711.135 191.985 711.871C192.365 712.608 192.555 713.5 192.555 714.547ZM185.624 714.547C185.624 715.243 185.707 715.839 185.874 716.334C186.047 716.828 186.312 717.208 186.668 717.473C187.025 717.732 187.485 717.861 188.049 717.861C188.613 717.861 189.073 717.732 189.43 717.473C189.787 717.208 190.049 716.828 190.216 716.334C190.382 715.839 190.466 715.243 190.466 714.547C190.466 713.851 190.382 713.261 190.216 712.778C190.049 712.289 189.787 711.917 189.43 711.664C189.073 711.405 188.61 711.276 188.041 711.276C187.201 711.276 186.588 711.558 186.202 712.122C185.817 712.686 185.624 713.494 185.624 714.547ZM203.343 714.547C203.343 715.341 203.24 716.046 203.032 716.662C202.825 717.277 202.523 717.798 202.126 718.224C201.729 718.644 201.252 718.966 200.693 719.19C200.135 719.409 199.505 719.518 198.803 719.518C198.147 719.518 197.546 719.409 196.999 719.19C196.453 718.966 195.978 718.644 195.575 718.224C195.178 717.798 194.871 717.277 194.652 716.662C194.433 716.046 194.324 715.341 194.324 714.547C194.324 713.494 194.505 712.602 194.868 711.871C195.236 711.135 195.759 710.574 196.438 710.188C197.117 709.803 197.926 709.61 198.864 709.61C199.744 709.61 200.521 709.803 201.194 710.188C201.867 710.574 202.394 711.135 202.773 711.871C203.153 712.608 203.343 713.5 203.343 714.547ZM196.413 714.547C196.413 715.243 196.496 715.839 196.663 716.334C196.835 716.828 197.1 717.208 197.457 717.473C197.814 717.732 198.274 717.861 198.838 717.861C199.402 717.861 199.862 717.732 200.219 717.473C200.575 717.208 200.837 716.828 201.004 716.334C201.171 715.839 201.254 715.243 201.254 714.547C201.254 713.851 201.171 713.261 201.004 712.778C200.837 712.289 200.575 711.917 200.219 711.664C199.862 711.405 199.399 711.276 198.829 711.276C197.989 711.276 197.376 711.558 196.991 712.122C196.605 712.686 196.413 713.494 196.413 714.547ZM216.471 709.61C217.541 709.61 218.346 709.886 218.887 710.439C219.434 710.991 219.707 711.877 219.707 713.097V719.346H217.679V713.459C217.679 712.735 217.538 712.188 217.256 711.82C216.974 711.451 216.545 711.267 215.97 711.267C215.164 711.267 214.583 711.526 214.227 712.044C213.876 712.556 213.7 713.301 213.7 714.279V719.346H211.672V713.459C211.672 712.976 211.609 712.573 211.482 712.251C211.361 711.923 211.174 711.679 210.921 711.518C210.668 711.351 210.348 711.267 209.963 711.267C209.405 711.267 208.959 711.394 208.625 711.647C208.297 711.9 208.061 712.274 207.917 712.769C207.774 713.258 207.702 713.859 207.702 714.573V719.346H205.673V709.791H207.253L207.538 711.077H207.65C207.845 710.744 208.087 710.47 208.375 710.257C208.668 710.039 208.993 709.878 209.35 709.774C209.707 709.665 210.078 709.61 210.463 709.61C211.177 709.61 211.778 709.737 212.267 709.99C212.756 710.237 213.122 710.617 213.363 711.129H213.519C213.818 710.611 214.235 710.229 214.77 709.981C215.305 709.734 215.872 709.61 216.471 709.61Z" fill="#CEDAEF"/>
</svg>
