<svg width="302" height="589" viewBox="0 0 302 589" fill="none" xmlns="http://www.w3.org/2000/svg">
<path d="M126.146 25H117.684V23.487L120.923 20.2047C121.55 19.5664 122.066 19.0165 122.47 18.5549C122.875 18.0876 123.174 17.646 123.368 17.23C123.567 16.814 123.667 16.361 123.667 15.8709C123.667 15.2669 123.493 14.811 123.146 14.5033C122.798 14.1898 122.339 14.0331 121.769 14.0331C121.228 14.0331 120.727 14.1414 120.265 14.3579C119.809 14.5688 119.336 14.8708 118.846 15.264L117.743 13.9391C118.091 13.6428 118.461 13.3721 118.855 13.1271C119.254 12.882 119.698 12.6883 120.188 12.5458C120.678 12.3976 121.237 12.3236 121.863 12.3236C122.656 12.3236 123.339 12.466 123.915 12.7509C124.491 13.0302 124.932 13.4205 125.24 13.922C125.553 14.4235 125.71 15.0076 125.71 15.6743C125.71 16.3467 125.576 16.9679 125.308 17.5377C125.04 18.1076 124.659 18.6718 124.163 19.2302C123.667 19.783 123.077 20.3842 122.393 21.0338L120.231 23.1451V23.2391H126.146V25ZM136.164 25H127.702V23.487L130.941 20.2047C131.568 19.5664 132.084 19.0165 132.488 18.5549C132.893 18.0876 133.192 17.646 133.386 17.23C133.585 16.814 133.685 16.361 133.685 15.8709C133.685 15.2669 133.511 14.811 133.164 14.5033C132.816 14.1898 132.357 14.0331 131.788 14.0331C131.246 14.0331 130.745 14.1414 130.283 14.3579C129.827 14.5688 129.354 14.8708 128.864 15.264L127.761 13.9391C128.109 13.6428 128.479 13.3721 128.873 13.1271C129.272 12.882 129.716 12.6883 130.206 12.5458C130.696 12.3976 131.255 12.3236 131.882 12.3236C132.674 12.3236 133.357 12.466 133.933 12.7509C134.509 13.0302 134.95 13.4205 135.258 13.922C135.571 14.4235 135.728 15.0076 135.728 15.6743C135.728 16.3467 135.594 16.9679 135.326 17.5377C135.058 18.1076 134.677 18.6718 134.181 19.2302C133.685 19.783 133.095 20.3842 132.411 21.0338L130.249 23.1451V23.2391H136.164V25ZM146.661 18.2045L149.627 12.5031H151.841L147.686 20.1448V25H145.644V20.2218L141.481 12.5031H143.712L146.661 18.2045ZM157.046 15.358C157.89 15.358 158.613 15.5318 159.218 15.8795C159.822 16.2271 160.286 16.72 160.611 17.3582C160.936 17.9965 161.098 18.7601 161.098 19.6491V20.7261H154.781C154.804 21.6435 155.049 22.3502 155.516 22.8459C155.989 23.3417 156.65 23.5896 157.499 23.5896C158.103 23.5896 158.645 23.5326 159.123 23.4186C159.608 23.299 160.106 23.1252 160.619 22.8972V24.5299C160.146 24.7521 159.665 24.9145 159.175 25.0171C158.685 25.1197 158.098 25.171 157.414 25.171C156.485 25.171 155.667 24.9915 154.961 24.6324C154.26 24.2677 153.71 23.7264 153.311 23.0084C152.918 22.2903 152.721 21.3985 152.721 20.3329C152.721 19.2729 152.901 18.3726 153.26 17.6318C153.619 16.891 154.123 16.3268 154.773 15.9393C155.422 15.5518 156.18 15.358 157.046 15.358ZM157.046 16.871C156.414 16.871 155.901 17.0762 155.508 17.4864C155.12 17.8967 154.892 18.4979 154.824 19.29H159.132C159.126 18.8171 159.047 18.3982 158.893 18.0335C158.745 17.6688 158.517 17.3839 158.209 17.1787C157.907 16.9736 157.519 16.871 157.046 16.871ZM167.073 15.358C168.27 15.358 169.173 15.623 169.783 16.153C170.398 16.683 170.706 17.5092 170.706 18.6319V25H169.278L168.894 23.658H168.825C168.557 23.9999 168.281 24.282 167.996 24.5042C167.711 24.7265 167.381 24.8917 167.005 25C166.634 25.114 166.181 25.171 165.645 25.171C165.081 25.171 164.577 25.0684 164.133 24.8632C163.688 24.6524 163.338 24.3333 163.081 23.9059C162.825 23.4785 162.696 22.9371 162.696 22.2818C162.696 21.3073 163.058 20.5751 163.782 20.085C164.511 19.5949 165.611 19.3242 167.082 19.2729L168.723 19.2131V18.7173C168.723 18.062 168.569 17.5947 168.261 17.3155C167.959 17.0363 167.532 16.8966 166.979 16.8966C166.506 16.8966 166.047 16.965 165.603 17.1018C165.158 17.2386 164.725 17.4067 164.303 17.6061L163.654 16.1872C164.115 15.9421 164.64 15.7427 165.227 15.5888C165.819 15.435 166.435 15.358 167.073 15.358ZM168.714 20.4782L167.492 20.5209C166.489 20.5551 165.785 20.7261 165.381 21.0338C164.976 21.3415 164.774 21.7632 164.774 22.2989C164.774 22.7662 164.913 23.1081 165.192 23.3246C165.472 23.5355 165.839 23.6409 166.295 23.6409C166.99 23.6409 167.566 23.4443 168.022 23.0511C168.483 22.6522 168.714 22.0681 168.714 21.2988V20.4782ZM178.313 15.358C178.473 15.358 178.647 15.3666 178.835 15.3837C179.023 15.4008 179.185 15.4236 179.322 15.4521L179.134 17.3326C179.014 17.2984 178.866 17.2728 178.689 17.2557C178.519 17.2386 178.365 17.23 178.228 17.23C177.869 17.23 177.527 17.2898 177.202 17.4095C176.877 17.5235 176.59 17.7001 176.339 17.9395C176.088 18.1731 175.892 18.4666 175.749 18.8199C175.607 19.1732 175.535 19.5835 175.535 20.0508V25H173.518V15.5375H175.091L175.364 17.2044H175.458C175.646 16.8682 175.88 16.5604 176.159 16.2812C176.439 16.002 176.758 15.7797 177.117 15.6145C177.481 15.4435 177.88 15.358 178.313 15.358ZM187.434 22.2989C187.434 22.92 187.283 23.4443 186.981 23.8717C186.679 24.2991 186.237 24.6239 185.656 24.8461C185.08 25.0627 184.374 25.171 183.536 25.171C182.875 25.171 182.305 25.1225 181.827 25.0256C181.354 24.9345 180.906 24.792 180.485 24.5983V22.863C180.935 23.0739 181.439 23.2562 181.998 23.4101C182.562 23.564 183.094 23.6409 183.596 23.6409C184.257 23.6409 184.733 23.5383 185.023 23.3332C185.314 23.1223 185.459 22.8431 185.459 22.4955C185.459 22.2903 185.4 22.108 185.28 21.9484C185.166 21.7832 184.949 21.6151 184.63 21.4441C184.317 21.2674 183.855 21.0566 183.245 20.8116C182.647 20.5722 182.143 20.3329 181.733 20.0935C181.322 19.8542 181.012 19.5664 180.801 19.2302C180.59 18.8883 180.485 18.4524 180.485 17.9224C180.485 17.0847 180.815 16.4493 181.476 16.0162C182.143 15.5774 183.023 15.358 184.117 15.358C184.699 15.358 185.246 15.4179 185.759 15.5375C186.277 15.6515 186.784 15.8196 187.28 16.0419L186.648 17.5548C186.22 17.3668 185.79 17.2129 185.357 17.0932C184.929 16.9679 184.493 16.9052 184.049 16.9052C183.53 16.9052 183.134 16.985 182.861 17.1445C182.593 17.3041 182.459 17.532 182.459 17.8284C182.459 18.0506 182.525 18.2387 182.656 18.3925C182.787 18.5464 183.012 18.7002 183.331 18.8541C183.656 19.008 184.106 19.1989 184.682 19.4268C185.246 19.6434 185.733 19.8713 186.143 20.1106C186.559 20.3443 186.878 20.6321 187.101 20.974C187.323 21.3159 187.434 21.7575 187.434 22.2989ZM205.453 18.7344C205.453 19.6975 205.33 20.5751 205.085 21.3672C204.846 22.1536 204.484 22.8317 204 23.4016C203.515 23.9657 202.908 24.4017 202.179 24.7094C201.45 25.0171 200.595 25.171 199.615 25.171C198.617 25.171 197.751 25.0171 197.016 24.7094C196.287 24.4017 195.68 23.9629 195.195 23.393C194.717 22.8232 194.358 22.1422 194.118 21.3501C193.879 20.558 193.759 19.6804 193.759 18.7173C193.759 17.4295 193.97 16.3068 194.392 15.3495C194.819 14.3864 195.466 13.6399 196.332 13.11C197.204 12.5743 198.304 12.3065 199.632 12.3065C200.931 12.3065 202.011 12.5714 202.871 13.1014C203.732 13.6314 204.376 14.3779 204.803 15.3409C205.236 16.2983 205.453 17.4295 205.453 18.7344ZM195.913 18.7344C195.913 19.6975 196.044 20.5323 196.307 21.239C196.569 21.9399 196.97 22.4812 197.512 22.863C198.059 23.2391 198.76 23.4272 199.615 23.4272C200.475 23.4272 201.176 23.2391 201.717 22.863C202.259 22.4812 202.658 21.9399 202.914 21.239C203.171 20.5323 203.299 19.6975 203.299 18.7344C203.299 17.2699 203.005 16.1245 202.418 15.2982C201.837 14.4662 200.908 14.0502 199.632 14.0502C198.777 14.0502 198.073 14.2383 197.52 14.6144C196.973 14.9905 196.569 15.529 196.307 16.2299C196.044 16.9251 195.913 17.76 195.913 18.7344ZM209.949 25H207.932V11.6996H209.949V25ZM216.001 25.171C214.872 25.171 213.966 24.7607 213.283 23.9401C212.604 23.1138 212.265 21.8971 212.265 20.2901C212.265 18.6661 212.61 17.438 213.3 16.606C213.995 15.774 214.91 15.358 216.044 15.358C216.522 15.358 216.941 15.4236 217.3 15.5546C217.659 15.68 217.967 15.851 218.223 16.0675C218.485 16.2841 218.708 16.5262 218.89 16.7941H218.984C218.956 16.6174 218.921 16.3638 218.881 16.0333C218.847 15.6971 218.83 15.3865 218.83 15.1016V11.6996H220.847V25H219.275L218.916 23.7093H218.83C218.659 23.9828 218.443 24.2307 218.181 24.4529C217.924 24.6695 217.616 24.8433 217.257 24.9744C216.904 25.1054 216.485 25.171 216.001 25.171ZM216.565 23.5383C217.425 23.5383 218.032 23.2904 218.386 22.7947C218.739 22.2989 218.921 21.5552 218.933 20.5637V20.2987C218.933 19.2388 218.762 18.4267 218.42 17.8626C218.078 17.2927 217.454 17.0078 216.548 17.0078C215.824 17.0078 215.271 17.3012 214.89 17.8882C214.513 18.4695 214.325 19.2815 214.325 20.3243C214.325 21.3672 214.513 22.165 214.89 22.7177C215.271 23.2648 215.83 23.5383 216.565 23.5383Z" fill="#FDF5E0"/>
<path d="M126.146 263.664H117.684V262.151L120.923 258.869C121.55 258.23 122.066 257.681 122.47 257.219C122.875 256.752 123.174 256.31 123.368 255.894C123.567 255.478 123.667 255.025 123.667 254.535C123.667 253.931 123.493 253.475 123.146 253.167C122.798 252.854 122.339 252.697 121.769 252.697C121.228 252.697 120.727 252.805 120.265 253.022C119.809 253.233 119.336 253.535 118.846 253.928L117.743 252.603C118.091 252.307 118.461 252.036 118.855 251.791C119.254 251.546 119.698 251.352 120.188 251.21C120.678 251.062 121.237 250.988 121.863 250.988C122.656 250.988 123.339 251.13 123.915 251.415C124.491 251.694 124.932 252.085 125.24 252.586C125.553 253.088 125.71 253.672 125.71 254.338C125.71 255.011 125.576 255.632 125.308 256.202C125.04 256.772 124.659 257.336 124.163 257.894C123.667 258.447 123.077 259.048 122.393 259.698L120.231 261.809V261.903H126.146V263.664ZM135.685 254.022C135.685 254.586 135.571 255.076 135.343 255.492C135.115 255.908 134.802 256.25 134.403 256.518C134.01 256.78 133.554 256.968 133.035 257.082V257.142C134.033 257.267 134.785 257.581 135.292 258.082C135.805 258.584 136.061 259.248 136.061 260.074C136.061 260.798 135.888 261.444 135.54 262.014C135.192 262.578 134.66 263.023 133.942 263.348C133.224 263.673 132.3 263.835 131.172 263.835C130.494 263.835 129.864 263.781 129.283 263.673C128.707 263.564 128.16 263.391 127.642 263.151V261.365C128.172 261.627 128.736 261.829 129.334 261.972C129.933 262.114 130.5 262.185 131.035 262.185C132.078 262.185 132.822 261.992 133.266 261.604C133.711 261.211 133.933 260.669 133.933 259.98C133.933 259.535 133.816 259.171 133.583 258.886C133.355 258.601 132.998 258.387 132.514 258.245C132.035 258.102 131.417 258.031 130.659 258.031H129.557V256.415H130.668C131.391 256.415 131.973 256.33 132.411 256.159C132.85 255.982 133.167 255.74 133.36 255.432C133.56 255.125 133.659 254.766 133.659 254.355C133.659 253.82 133.486 253.404 133.138 253.107C132.79 252.805 132.275 252.654 131.591 252.654C131.169 252.654 130.785 252.703 130.437 252.8C130.095 252.897 129.779 253.019 129.488 253.167C129.198 253.315 128.921 253.475 128.659 253.646L127.693 252.253C128.166 251.899 128.73 251.6 129.386 251.355C130.041 251.11 130.805 250.988 131.676 250.988C132.959 250.988 133.947 251.264 134.642 251.817C135.338 252.364 135.685 253.099 135.685 254.022ZM146.661 256.869L149.627 251.167H151.841L147.686 258.809V263.664H145.644V258.886L141.481 251.167H143.712L146.661 256.869ZM157.046 254.022C157.89 254.022 158.613 254.196 159.218 254.544C159.822 254.891 160.286 255.384 160.611 256.022C160.936 256.661 161.098 257.424 161.098 258.313V259.39H154.781C154.804 260.308 155.049 261.014 155.516 261.51C155.989 262.006 156.65 262.254 157.499 262.254C158.103 262.254 158.645 262.197 159.123 262.083C159.608 261.963 160.106 261.789 160.619 261.561V263.194C160.146 263.416 159.665 263.579 159.175 263.681C158.685 263.784 158.098 263.835 157.414 263.835C156.485 263.835 155.667 263.656 154.961 263.297C154.26 262.932 153.71 262.39 153.311 261.672C152.918 260.954 152.721 260.063 152.721 258.997C152.721 257.937 152.901 257.037 153.26 256.296C153.619 255.555 154.123 254.991 154.773 254.603C155.422 254.216 156.18 254.022 157.046 254.022ZM157.046 255.535C156.414 255.535 155.901 255.74 155.508 256.151C155.12 256.561 154.892 257.162 154.824 257.954H159.132C159.126 257.481 159.047 257.062 158.893 256.698C158.745 256.333 158.517 256.048 158.209 255.843C157.907 255.638 157.519 255.535 157.046 255.535ZM167.073 254.022C168.27 254.022 169.173 254.287 169.783 254.817C170.398 255.347 170.706 256.173 170.706 257.296V263.664H169.278L168.894 262.322H168.825C168.557 262.664 168.281 262.946 167.996 263.168C167.711 263.391 167.381 263.556 167.005 263.664C166.634 263.778 166.181 263.835 165.645 263.835C165.081 263.835 164.577 263.732 164.133 263.527C163.688 263.316 163.338 262.997 163.081 262.57C162.825 262.143 162.696 261.601 162.696 260.946C162.696 259.971 163.058 259.239 163.782 258.749C164.511 258.259 165.611 257.988 167.082 257.937L168.723 257.877V257.381C168.723 256.726 168.569 256.259 168.261 255.98C167.959 255.7 167.532 255.561 166.979 255.561C166.506 255.561 166.047 255.629 165.603 255.766C165.158 255.903 164.725 256.071 164.303 256.27L163.654 254.851C164.115 254.606 164.64 254.407 165.227 254.253C165.819 254.099 166.435 254.022 167.073 254.022ZM168.714 259.142L167.492 259.185C166.489 259.219 165.785 259.39 165.381 259.698C164.976 260.006 164.774 260.427 164.774 260.963C164.774 261.43 164.913 261.772 165.192 261.989C165.472 262.2 165.839 262.305 166.295 262.305C166.99 262.305 167.566 262.108 168.022 261.715C168.483 261.316 168.714 260.732 168.714 259.963V259.142ZM178.313 254.022C178.473 254.022 178.647 254.031 178.835 254.048C179.023 254.065 179.185 254.088 179.322 254.116L179.134 255.997C179.014 255.962 178.866 255.937 178.689 255.92C178.519 255.903 178.365 255.894 178.228 255.894C177.869 255.894 177.527 255.954 177.202 256.074C176.877 256.188 176.59 256.364 176.339 256.604C176.088 256.837 175.892 257.131 175.749 257.484C175.607 257.837 175.535 258.248 175.535 258.715V263.664H173.518V254.202H175.091L175.364 255.868H175.458C175.646 255.532 175.88 255.224 176.159 254.945C176.439 254.666 176.758 254.444 177.117 254.279C177.481 254.108 177.88 254.022 178.313 254.022ZM187.434 260.963C187.434 261.584 187.283 262.108 186.981 262.536C186.679 262.963 186.237 263.288 185.656 263.51C185.08 263.727 184.374 263.835 183.536 263.835C182.875 263.835 182.305 263.787 181.827 263.69C181.354 263.599 180.906 263.456 180.485 263.262V261.527C180.935 261.738 181.439 261.92 181.998 262.074C182.562 262.228 183.094 262.305 183.596 262.305C184.257 262.305 184.733 262.202 185.023 261.997C185.314 261.786 185.459 261.507 185.459 261.16C185.459 260.954 185.4 260.772 185.28 260.612C185.166 260.447 184.949 260.279 184.63 260.108C184.317 259.932 183.855 259.721 183.245 259.476C182.647 259.236 182.143 258.997 181.733 258.758C181.322 258.518 181.012 258.23 180.801 257.894C180.59 257.552 180.485 257.116 180.485 256.586C180.485 255.749 180.815 255.113 181.476 254.68C182.143 254.241 183.023 254.022 184.117 254.022C184.699 254.022 185.246 254.082 185.759 254.202C186.277 254.316 186.784 254.484 187.28 254.706L186.648 256.219C186.22 256.031 185.79 255.877 185.357 255.757C184.929 255.632 184.493 255.569 184.049 255.569C183.53 255.569 183.134 255.649 182.861 255.809C182.593 255.968 182.459 256.196 182.459 256.492C182.459 256.715 182.525 256.903 182.656 257.057C182.787 257.21 183.012 257.364 183.331 257.518C183.656 257.672 184.106 257.863 184.682 258.091C185.246 258.307 185.733 258.535 186.143 258.775C186.559 259.008 186.878 259.296 187.101 259.638C187.323 259.98 187.434 260.422 187.434 260.963ZM205.453 257.398C205.453 258.362 205.33 259.239 205.085 260.031C204.846 260.818 204.484 261.496 204 262.066C203.515 262.63 202.908 263.066 202.179 263.373C201.45 263.681 200.595 263.835 199.615 263.835C198.617 263.835 197.751 263.681 197.016 263.373C196.287 263.066 195.68 262.627 195.195 262.057C194.717 261.487 194.358 260.806 194.118 260.014C193.879 259.222 193.759 258.344 193.759 257.381C193.759 256.094 193.97 254.971 194.392 254.014C194.819 253.05 195.466 252.304 196.332 251.774C197.204 251.238 198.304 250.971 199.632 250.971C200.931 250.971 202.011 251.236 202.871 251.765C203.732 252.295 204.376 253.042 204.803 254.005C205.236 254.962 205.453 256.094 205.453 257.398ZM195.913 257.398C195.913 258.362 196.044 259.196 196.307 259.903C196.569 260.604 196.97 261.145 197.512 261.527C198.059 261.903 198.76 262.091 199.615 262.091C200.475 262.091 201.176 261.903 201.717 261.527C202.259 261.145 202.658 260.604 202.914 259.903C203.171 259.196 203.299 258.362 203.299 257.398C203.299 255.934 203.005 254.789 202.418 253.962C201.837 253.13 200.908 252.714 199.632 252.714C198.777 252.714 198.073 252.902 197.52 253.278C196.973 253.655 196.569 254.193 196.307 254.894C196.044 255.589 195.913 256.424 195.913 257.398ZM209.949 263.664H207.932V250.364H209.949V263.664ZM216.001 263.835C214.872 263.835 213.966 263.425 213.283 262.604C212.604 261.778 212.265 260.561 212.265 258.954C212.265 257.33 212.61 256.102 213.3 255.27C213.995 254.438 214.91 254.022 216.044 254.022C216.522 254.022 216.941 254.088 217.3 254.219C217.659 254.344 217.967 254.515 218.223 254.732C218.485 254.948 218.708 255.19 218.89 255.458H218.984C218.956 255.281 218.921 255.028 218.881 254.697C218.847 254.361 218.83 254.051 218.83 253.766V250.364H220.847V263.664H219.275L218.916 262.373H218.83C218.659 262.647 218.443 262.895 218.181 263.117C217.924 263.334 217.616 263.507 217.257 263.638C216.904 263.769 216.485 263.835 216.001 263.835ZM216.565 262.202C217.425 262.202 218.032 261.954 218.386 261.459C218.739 260.963 218.921 260.219 218.933 259.228V258.963C218.933 257.903 218.762 257.091 218.42 256.527C218.078 255.957 217.454 255.672 216.548 255.672C215.824 255.672 215.271 255.965 214.89 256.552C214.513 257.134 214.325 257.946 214.325 258.988C214.325 260.031 214.513 260.829 214.89 261.382C215.271 261.929 215.83 262.202 216.565 262.202Z" fill="#FDF5E0"/>
<path d="M93.7995 54.598C93.7995 55.3388 93.6172 55.977 93.2525 56.5127C92.8934 57.0483 92.3749 57.4586 91.6967 57.7436C91.0243 58.0285 90.2208 58.171 89.2863 58.171C88.8304 58.171 88.3944 58.1453 87.9784 58.094C87.5624 58.0427 87.1692 57.9687 86.7988 57.8718C86.4341 57.7692 86.1008 57.6467 85.7987 57.5042V55.5724C86.3059 55.7947 86.8729 55.997 87.4998 56.1793C88.1266 56.356 88.7648 56.4443 89.4145 56.4443C89.9444 56.4443 90.3832 56.3759 90.7308 56.2391C91.0842 56.0967 91.3463 55.8972 91.5172 55.6408C91.6882 55.3787 91.7737 55.0738 91.7737 54.7262C91.7737 54.3558 91.674 54.0424 91.4745 53.7859C91.2751 53.5295 90.973 53.2958 90.5684 53.085C90.1695 52.8684 89.6681 52.6377 89.064 52.3926C88.6537 52.2274 88.2605 52.0393 87.8844 51.8285C87.514 51.6176 87.1835 51.3697 86.8929 51.0848C86.6022 50.7999 86.3714 50.4637 86.2005 50.0762C86.0352 49.683 85.9526 49.2214 85.9526 48.6914C85.9526 47.9848 86.1207 47.3807 86.4569 46.8793C86.7988 46.3778 87.2775 45.9931 87.893 45.7253C88.5141 45.4575 89.2378 45.3236 90.0641 45.3236C90.7194 45.3236 91.3349 45.3919 91.9104 45.5287C92.4917 45.6655 93.0616 45.8592 93.62 46.11L92.9704 47.7597C92.4575 47.5488 91.9589 47.3807 91.4745 47.2554C90.9958 47.13 90.5057 47.0673 90.0043 47.0673C89.5712 47.0673 89.2036 47.1328 88.9016 47.2639C88.5996 47.395 88.3688 47.5802 88.2092 47.8195C88.0554 48.0532 87.9784 48.3324 87.9784 48.6572C87.9784 49.0219 88.0668 49.3296 88.2434 49.5804C88.4258 49.8254 88.705 50.0505 89.0811 50.2557C89.4629 50.4608 89.953 50.6887 90.5513 50.9395C91.2409 51.2244 91.825 51.5236 92.3036 51.837C92.788 52.1504 93.1584 52.5265 93.4149 52.9653C93.6713 53.3984 93.7995 53.9426 93.7995 54.598ZM99.5266 56.5469C99.7887 56.5469 100.048 56.5241 100.304 56.4785C100.561 56.4272 100.794 56.3674 101.005 56.299V57.8205C100.783 57.9174 100.495 58 100.142 58.0684C99.7887 58.1368 99.4211 58.171 99.0393 58.171C98.5037 58.171 98.0221 58.0826 97.5948 57.906C97.1674 57.7236 96.8283 57.413 96.5776 56.9743C96.3268 56.5355 96.2015 55.9286 96.2015 55.1536V50.0676H94.9107V49.1701L96.2955 48.4606L96.9537 46.4348H98.2187V48.5375H100.928V50.0676H98.2187V55.1279C98.2187 55.6066 98.3384 55.9628 98.5778 56.1964C98.8171 56.43 99.1334 56.5469 99.5266 56.5469ZM106.638 48.358C107.835 48.358 108.738 48.623 109.348 49.153C109.963 49.683 110.271 50.5092 110.271 51.6319V58H108.844L108.459 56.658H108.391C108.123 56.9999 107.846 57.282 107.562 57.5042C107.277 57.7265 106.946 57.8917 106.57 58C106.2 58.114 105.747 58.171 105.211 58.171C104.647 58.171 104.142 58.0684 103.698 57.8632C103.253 57.6524 102.903 57.3333 102.647 56.9059C102.39 56.4785 102.262 55.9371 102.262 55.2818C102.262 54.3073 102.624 53.5751 103.347 53.085C104.077 52.5949 105.177 52.3242 106.647 52.2729L108.288 52.2131V51.7173C108.288 51.062 108.134 50.5947 107.827 50.3155C107.524 50.0363 107.097 49.8966 106.544 49.8966C106.071 49.8966 105.613 49.965 105.168 50.1018C104.724 50.2386 104.291 50.4067 103.869 50.6061L103.219 49.1872C103.681 48.9421 104.205 48.7427 104.792 48.5888C105.385 48.435 106 48.358 106.638 48.358ZM108.28 53.4782L107.057 53.5209C106.054 53.5551 105.35 53.7261 104.946 54.0338C104.541 54.3415 104.339 54.7632 104.339 55.2989C104.339 55.7662 104.479 56.1081 104.758 56.3246C105.037 56.5355 105.405 56.6409 105.861 56.6409C106.556 56.6409 107.131 56.4443 107.587 56.0511C108.049 55.6522 108.28 55.0681 108.28 54.2988V53.4782ZM117.879 48.358C118.038 48.358 118.212 48.3666 118.4 48.3837C118.588 48.4008 118.751 48.4236 118.887 48.4521L118.699 50.3326C118.58 50.2984 118.432 50.2728 118.255 50.2557C118.084 50.2386 117.93 50.23 117.793 50.23C117.434 50.23 117.092 50.2898 116.768 50.4095C116.443 50.5235 116.155 50.7001 115.904 50.9395C115.653 51.1731 115.457 51.4666 115.314 51.8199C115.172 52.1732 115.101 52.5835 115.101 53.0508V58H113.083V48.5375H114.656L114.93 50.2044H115.024C115.212 49.8682 115.445 49.5604 115.725 49.2812C116.004 49.002 116.323 48.7797 116.682 48.6145C117.047 48.4435 117.446 48.358 117.879 48.358ZM124.161 56.5469C124.424 56.5469 124.683 56.5241 124.939 56.4785C125.196 56.4272 125.429 56.3674 125.64 56.299V57.8205C125.418 57.9174 125.13 58 124.777 58.0684C124.424 58.1368 124.056 58.171 123.674 58.171C123.139 58.171 122.657 58.0826 122.23 57.906C121.802 57.7236 121.463 57.413 121.212 56.9743C120.962 56.5355 120.836 55.9286 120.836 55.1536V50.0676H119.546V49.1701L120.93 48.4606L121.589 46.4348H122.854V48.5375H125.563V50.0676H122.854V55.1279C122.854 55.6066 122.973 55.9628 123.213 56.1964C123.452 56.43 123.768 56.5469 124.161 56.5469ZM133.923 55.2989C133.923 55.92 133.772 56.4443 133.47 56.8717C133.168 57.2991 132.726 57.6239 132.145 57.8461C131.57 58.0627 130.863 58.171 130.025 58.171C129.364 58.171 128.794 58.1225 128.316 58.0256C127.843 57.9345 127.395 57.792 126.974 57.5983V55.863C127.424 56.0739 127.928 56.2562 128.487 56.4101C129.051 56.564 129.584 56.6409 130.085 56.6409C130.746 56.6409 131.222 56.5383 131.513 56.3332C131.803 56.1223 131.949 55.8431 131.949 55.4955C131.949 55.2903 131.889 55.108 131.769 54.9484C131.655 54.7832 131.438 54.6151 131.119 54.4441C130.806 54.2674 130.344 54.0566 129.735 53.8116C129.136 53.5722 128.632 53.3329 128.222 53.0935C127.811 52.8542 127.501 52.5664 127.29 52.2302C127.079 51.8883 126.974 51.4524 126.974 50.9224C126.974 50.0847 127.304 49.4493 127.965 49.0162C128.632 48.5774 129.512 48.358 130.607 48.358C131.188 48.358 131.735 48.4179 132.248 48.5375C132.766 48.6515 133.273 48.8196 133.769 49.0419L133.137 50.5548C132.709 50.3668 132.279 50.2129 131.846 50.0932C131.419 49.9679 130.983 49.9052 130.538 49.9052C130.02 49.9052 129.624 49.985 129.35 50.1445C129.082 50.3041 128.948 50.532 128.948 50.8284C128.948 51.0506 129.014 51.2387 129.145 51.3925C129.276 51.5464 129.501 51.7002 129.82 51.8541C130.145 52.008 130.595 52.1989 131.171 52.4268C131.735 52.6434 132.222 52.8713 132.632 53.1106C133.048 53.3443 133.367 53.6321 133.59 53.974C133.812 54.3159 133.923 54.7575 133.923 55.2989ZM147.001 55.2989C147.001 55.92 146.85 56.4443 146.548 56.8717C146.246 57.2991 145.805 57.6239 145.223 57.8461C144.648 58.0627 143.941 58.171 143.103 58.171C142.442 58.171 141.873 58.1225 141.394 58.0256C140.921 57.9345 140.474 57.792 140.052 57.5983V55.863C140.502 56.0739 141.006 56.2562 141.565 56.4101C142.129 56.564 142.662 56.6409 143.163 56.6409C143.824 56.6409 144.3 56.5383 144.591 56.3332C144.881 56.1223 145.027 55.8431 145.027 55.4955C145.027 55.2903 144.967 55.108 144.847 54.9484C144.733 54.7832 144.517 54.6151 144.198 54.4441C143.884 54.2674 143.423 54.0566 142.813 53.8116C142.214 53.5722 141.71 53.3329 141.3 53.0935C140.89 52.8542 140.579 52.5664 140.368 52.2302C140.157 51.8883 140.052 51.4524 140.052 50.9224C140.052 50.0847 140.382 49.4493 141.043 49.0162C141.71 48.5774 142.591 48.358 143.685 48.358C144.266 48.358 144.813 48.4179 145.326 48.5375C145.844 48.6515 146.352 48.8196 146.847 49.0419L146.215 50.5548C145.787 50.3668 145.357 50.2129 144.924 50.0932C144.497 49.9679 144.061 49.9052 143.616 49.9052C143.098 49.9052 142.702 49.985 142.428 50.1445C142.16 50.3041 142.026 50.532 142.026 50.8284C142.026 51.0506 142.092 51.2387 142.223 51.3925C142.354 51.5464 142.579 51.7002 142.898 51.8541C143.223 52.008 143.673 52.1989 144.249 52.4268C144.813 52.6434 145.3 52.8713 145.711 53.1106C146.127 53.3443 146.446 53.6321 146.668 53.974C146.89 54.3159 147.001 54.7575 147.001 55.2989ZM157.421 48.5375V58H155.84L155.566 56.7264H155.455C155.256 57.0512 155.002 57.3219 154.694 57.5384C154.387 57.7493 154.045 57.906 153.669 58.0085C153.292 58.1168 152.896 58.171 152.48 58.171C151.768 58.171 151.158 58.0513 150.651 57.8119C150.15 57.5669 149.765 57.1908 149.497 56.6836C149.229 56.1765 149.095 55.5211 149.095 54.7176V48.5375H151.113V54.3415C151.113 55.0766 151.261 55.6266 151.557 55.9913C151.859 56.356 152.327 56.5383 152.959 56.5383C153.569 56.5383 154.053 56.413 154.412 56.1622C154.771 55.9115 155.025 55.5411 155.173 55.051C155.327 54.5609 155.404 53.9597 155.404 53.2474V48.5375H157.421ZM162.31 44.6996V47.905C162.31 48.2754 162.299 48.6401 162.276 48.9991C162.259 49.3524 162.242 49.6288 162.225 49.8283H162.31C162.567 49.418 162.923 49.0732 163.379 48.794C163.841 48.509 164.43 48.3666 165.148 48.3666C166.271 48.3666 167.174 48.7797 167.858 49.606C168.542 50.4266 168.884 51.6433 168.884 53.2559C168.884 54.3273 168.727 55.2277 168.414 55.9571C168.1 56.6865 167.659 57.2392 167.089 57.6153C166.525 57.9858 165.861 58.171 165.097 58.171C164.379 58.171 163.798 58.0399 163.353 57.7778C162.914 57.5099 162.57 57.1994 162.319 56.846H162.174L161.806 58H160.302V44.6996H162.31ZM164.618 49.9992C164.049 49.9992 163.595 50.1132 163.259 50.3411C162.929 50.5691 162.689 50.911 162.541 51.3669C162.393 51.8171 162.316 52.3898 162.31 53.085V53.2645C162.31 54.3187 162.476 55.1251 162.806 55.6835C163.142 56.242 163.752 56.5212 164.635 56.5212C165.336 56.5212 165.875 56.2391 166.251 55.675C166.627 55.1051 166.815 54.2902 166.815 53.2303C166.815 52.159 166.627 51.3526 166.251 50.8113C165.881 50.2699 165.336 49.9992 164.618 49.9992ZM179.586 53.2474C179.586 54.0338 179.483 54.7319 179.278 55.3416C179.073 55.9514 178.774 56.4671 178.38 56.8888C177.987 57.3048 177.514 57.6239 176.961 57.8461C176.409 58.0627 175.785 58.171 175.089 58.171C174.44 58.171 173.844 58.0627 173.303 57.8461C172.762 57.6239 172.291 57.3048 171.893 56.8888C171.499 56.4671 171.194 55.9514 170.978 55.3416C170.761 54.7319 170.653 54.0338 170.653 53.2474C170.653 52.2046 170.833 51.3213 171.192 50.5976C171.556 49.8682 172.075 49.3125 172.747 48.9307C173.42 48.5489 174.22 48.358 175.149 48.358C176.021 48.358 176.79 48.5489 177.457 48.9307C178.124 49.3125 178.645 49.8682 179.021 50.5976C179.398 51.327 179.586 52.2103 179.586 53.2474ZM172.722 53.2474C172.722 53.9369 172.804 54.5267 172.97 55.0168C173.141 55.5069 173.403 55.883 173.756 56.1451C174.109 56.4016 174.565 56.5298 175.124 56.5298C175.682 56.5298 176.138 56.4016 176.491 56.1451C176.845 55.883 177.104 55.5069 177.269 55.0168C177.434 54.5267 177.517 53.9369 177.517 53.2474C177.517 52.5579 177.434 51.9738 177.269 51.4951C177.104 51.0107 176.845 50.6432 176.491 50.3924C176.138 50.136 175.679 50.0078 175.115 50.0078C174.283 50.0078 173.676 50.287 173.294 50.8455C172.913 51.4039 172.722 52.2046 172.722 53.2474ZM183.988 53.1619L180.825 48.5375H183.116L185.278 51.8627L187.45 48.5375H189.732L186.552 53.1619L189.894 58H187.595L185.278 54.4526L182.953 58H180.671L183.988 53.1619ZM199.912 53.2474C199.912 54.0338 199.81 54.7319 199.605 55.3416C199.4 55.9514 199.1 56.4671 198.707 56.8888C198.314 57.3048 197.841 57.6239 197.288 57.8461C196.735 58.0627 196.111 58.171 195.416 58.171C194.767 58.171 194.171 58.0627 193.63 57.8461C193.088 57.6239 192.618 57.3048 192.219 56.8888C191.826 56.4671 191.521 55.9514 191.305 55.3416C191.088 54.7319 190.98 54.0338 190.98 53.2474C190.98 52.2046 191.159 51.3213 191.518 50.5976C191.883 49.8682 192.402 49.3125 193.074 48.9307C193.747 48.5489 194.547 48.358 195.476 48.358C196.348 48.358 197.117 48.5489 197.784 48.9307C198.451 49.3125 198.972 49.8682 199.348 50.5976C199.724 51.327 199.912 52.2103 199.912 53.2474ZM193.048 53.2474C193.048 53.9369 193.131 54.5267 193.296 55.0168C193.467 55.5069 193.729 55.883 194.083 56.1451C194.436 56.4016 194.892 56.5298 195.45 56.5298C196.009 56.5298 196.465 56.4016 196.818 56.1451C197.171 55.883 197.431 55.5069 197.596 55.0168C197.761 54.5267 197.844 53.9369 197.844 53.2474C197.844 52.5579 197.761 51.9738 197.596 51.4951C197.431 51.0107 197.171 50.6432 196.818 50.3924C196.465 50.136 196.006 50.0078 195.442 50.0078C194.61 50.0078 194.003 50.287 193.621 50.8455C193.239 51.4039 193.048 52.2046 193.048 53.2474ZM207.152 48.358C208.218 48.358 209.047 48.6344 209.64 49.1872C210.238 49.7342 210.537 50.6147 210.537 51.8285V58H208.529V52.2046C208.529 51.4695 208.378 50.9195 208.076 50.5548C207.774 50.1844 207.306 49.9992 206.674 49.9992C205.756 49.9992 205.118 50.2813 204.759 50.8455C204.406 51.4096 204.229 52.2274 204.229 53.2987V58H202.22V48.5375H203.785L204.067 49.8197H204.178C204.383 49.4892 204.636 49.2185 204.939 49.0077C205.246 48.7911 205.588 48.6287 205.964 48.5204C206.346 48.4122 206.742 48.358 207.152 48.358ZM217.119 48.358C217.963 48.358 218.686 48.5318 219.29 48.8795C219.894 49.2271 220.359 49.72 220.684 50.3582C221.008 50.9965 221.171 51.7601 221.171 52.6491V53.7261H214.854C214.877 54.6435 215.122 55.3502 215.589 55.8459C216.062 56.3417 216.723 56.5896 217.572 56.5896C218.176 56.5896 218.718 56.5326 219.196 56.4186C219.681 56.299 220.179 56.1252 220.692 55.8972V57.5299C220.219 57.7521 219.738 57.9145 219.248 58.0171C218.758 58.1197 218.171 58.171 217.487 58.171C216.558 58.171 215.74 57.9915 215.034 57.6324C214.333 57.2677 213.783 56.7264 213.384 56.0084C212.991 55.2903 212.794 54.3985 212.794 53.3329C212.794 52.2729 212.973 51.3726 213.332 50.6318C213.691 49.891 214.196 49.3268 214.845 48.9393C215.495 48.5518 216.253 48.358 217.119 48.358ZM217.119 49.871C216.487 49.871 215.974 50.0762 215.581 50.4864C215.193 50.8967 214.965 51.4979 214.897 52.29H219.205C219.199 51.8171 219.119 51.3982 218.966 51.0335C218.817 50.6688 218.589 50.3839 218.282 50.1787C217.98 49.9736 217.592 49.871 217.119 49.871Z" fill="#C9E4D2"/>
<path d="M49.5474 287.503C50.6244 287.503 51.5134 287.634 52.2143 287.896C52.9209 288.158 53.4452 288.557 53.7871 289.093C54.1347 289.629 54.3085 290.31 54.3085 291.136C54.3085 291.751 54.1945 292.276 53.9666 292.709C53.7386 293.142 53.4395 293.501 53.0691 293.786C52.6987 294.071 52.3026 294.299 51.8809 294.47L55.4283 300H53.1118L50.0944 294.991H48.0857V300H46.0342V287.503H49.5474ZM49.4106 289.213H48.0857V293.298H49.5046C50.4563 293.298 51.1458 293.122 51.5732 292.769C52.0063 292.415 52.2228 291.894 52.2228 291.204C52.2228 290.481 51.992 289.968 51.5305 289.666C51.0746 289.364 50.3679 289.213 49.4106 289.213ZM60.7792 290.358C61.6226 290.358 62.3463 290.532 62.9504 290.879C63.5544 291.227 64.0188 291.72 64.3437 292.358C64.6685 292.996 64.8309 293.76 64.8309 294.649V295.726H58.514C58.5368 296.644 58.7819 297.35 59.2491 297.846C59.7221 298.342 60.3832 298.59 61.2322 298.59C61.8363 298.59 62.3777 298.533 62.8563 298.419C63.3407 298.299 63.8393 298.125 64.3522 297.897V299.53C63.8792 299.752 63.3977 299.915 62.9076 300.017C62.4175 300.12 61.8306 300.171 61.1468 300.171C60.2179 300.171 59.4002 299.991 58.6935 299.632C57.9926 299.268 57.4427 298.726 57.0438 298.008C56.6506 297.29 56.454 296.399 56.454 295.333C56.454 294.273 56.6335 293.373 56.9925 292.632C57.3515 291.891 57.8559 291.327 58.5055 290.939C59.1551 290.552 59.913 290.358 60.7792 290.358ZM60.7792 291.871C60.1467 291.871 59.6338 292.076 59.2406 292.486C58.8531 292.897 58.6252 293.498 58.5568 294.29H62.8649C62.8592 293.817 62.7794 293.398 62.6255 293.034C62.4774 292.669 62.2494 292.384 61.9417 292.179C61.6397 291.974 61.2522 291.871 60.7792 291.871ZM69.7972 304.206C68.515 304.206 67.532 303.975 66.8482 303.513C66.1644 303.052 65.8224 302.405 65.8224 301.573C65.8224 300.992 66.0048 300.499 66.3695 300.094C66.7342 299.695 67.2556 299.419 67.9338 299.265C67.6773 299.151 67.4551 298.974 67.267 298.735C67.0847 298.49 66.9935 298.219 66.9935 297.923C66.9935 297.57 67.0932 297.268 67.2927 297.017C67.4921 296.766 67.7913 296.524 68.1902 296.29C67.6944 296.079 67.2955 295.737 66.9935 295.264C66.6972 294.786 66.549 294.225 66.549 293.581C66.549 292.897 66.6943 292.315 66.9849 291.837C67.2756 291.352 67.7001 290.985 68.2586 290.734C68.817 290.478 69.4923 290.349 70.2844 290.349C70.4554 290.349 70.6406 290.361 70.84 290.384C71.0452 290.401 71.2332 290.424 71.4042 290.452C71.5808 290.475 71.7147 290.501 71.8059 290.529H75.0797V291.649L73.4728 291.948C73.6266 292.164 73.7491 292.412 73.8403 292.692C73.9315 292.965 73.9771 293.264 73.9771 293.589C73.9771 294.569 73.638 295.341 72.9599 295.906C72.2875 296.464 71.3586 296.743 70.1733 296.743C69.8884 296.732 69.612 296.709 69.3441 296.675C69.139 296.8 68.9823 296.94 68.874 297.094C68.7657 297.242 68.7116 297.41 68.7116 297.598C68.7116 297.752 68.7657 297.877 68.874 297.974C68.9823 298.065 69.1418 298.134 69.3527 298.179C69.5692 298.225 69.8314 298.248 70.1391 298.248H71.7717C72.8089 298.248 73.601 298.467 74.148 298.906C74.6951 299.345 74.9686 299.989 74.9686 300.838C74.9686 301.915 74.5241 302.744 73.6352 303.325C72.7462 303.912 71.4669 304.206 69.7972 304.206ZM69.8741 302.795C70.575 302.795 71.1648 302.727 71.6435 302.59C72.1222 302.453 72.4841 302.257 72.7291 302C72.9741 301.749 73.0966 301.45 73.0966 301.103C73.0966 300.795 73.0197 300.558 72.8659 300.393C72.712 300.228 72.4812 300.114 72.1735 300.051C71.8658 299.989 71.484 299.957 71.0281 299.957H69.5407C69.1703 299.957 68.8427 300.014 68.5577 300.128C68.2728 300.248 68.0506 300.419 67.891 300.641C67.7372 300.863 67.6602 301.131 67.6602 301.445C67.6602 301.878 67.8511 302.211 68.2329 302.445C68.6204 302.678 69.1675 302.795 69.8741 302.795ZM70.2673 295.427C70.8543 295.427 71.2902 295.267 71.5751 294.948C71.8601 294.623 72.0025 294.168 72.0025 293.581C72.0025 292.942 71.8544 292.464 71.558 292.145C71.2674 291.825 70.8343 291.666 70.2588 291.666C69.6946 291.666 69.2644 291.828 68.968 292.153C68.6774 292.478 68.5321 292.959 68.5321 293.598C68.5321 294.173 68.6774 294.623 68.968 294.948C69.2644 295.267 69.6975 295.427 70.2673 295.427ZM85.0551 290.538V300H83.4737L83.2002 298.726H83.0891C82.8896 299.051 82.636 299.322 82.3283 299.538C82.0206 299.749 81.6787 299.906 81.3026 300.009C80.9265 300.117 80.5304 300.171 80.1144 300.171C79.4021 300.171 78.7924 300.051 78.2852 299.812C77.7837 299.567 77.3991 299.191 77.1312 298.684C76.8634 298.176 76.7295 297.521 76.7295 296.718V290.538H78.7468V296.342C78.7468 297.077 78.8949 297.627 79.1913 297.991C79.4933 298.356 79.9606 298.538 80.5931 298.538C81.2028 298.538 81.6872 298.413 82.0462 298.162C82.4052 297.911 82.6588 297.541 82.807 297.051C82.9609 296.561 83.0378 295.96 83.0378 295.247V290.538H85.0551ZM89.953 300H87.9357V286.7H89.953V300ZM96.5348 290.358C97.7315 290.358 98.6347 290.623 99.2445 291.153C99.8599 291.683 100.168 292.509 100.168 293.632V300H98.7402L98.3555 298.658H98.2871C98.0193 299 97.7429 299.282 97.458 299.504C97.1731 299.726 96.8425 299.892 96.4664 300C96.096 300.114 95.643 300.171 95.1073 300.171C94.5432 300.171 94.0389 300.068 93.5944 299.863C93.1499 299.652 92.7994 299.333 92.543 298.906C92.2865 298.478 92.1583 297.937 92.1583 297.282C92.1583 296.307 92.5202 295.575 93.2439 295.085C93.9733 294.595 95.0731 294.324 96.5434 294.273L98.1846 294.213V293.717C98.1846 293.062 98.0307 292.595 97.723 292.315C97.4209 292.036 96.9936 291.897 96.4408 291.897C95.9678 291.897 95.5091 291.965 95.0646 292.102C94.6201 292.239 94.187 292.407 93.7653 292.606L93.1157 291.187C93.5773 290.942 94.1015 290.743 94.6885 290.589C95.2811 290.435 95.8966 290.358 96.5348 290.358ZM98.176 295.478L96.9537 295.521C95.9507 295.555 95.2469 295.726 94.8423 296.034C94.4378 296.342 94.2355 296.763 94.2355 297.299C94.2355 297.766 94.3751 298.108 94.6543 298.325C94.9335 298.535 95.3011 298.641 95.757 298.641C96.4522 298.641 97.0277 298.444 97.4836 298.051C97.9452 297.652 98.176 297.068 98.176 296.299V295.478ZM107.775 290.358C107.935 290.358 108.109 290.367 108.297 290.384C108.485 290.401 108.647 290.424 108.784 290.452L108.596 292.333C108.476 292.298 108.328 292.273 108.151 292.256C107.98 292.239 107.827 292.23 107.69 292.23C107.331 292.23 106.989 292.29 106.664 292.41C106.339 292.523 106.051 292.7 105.801 292.939C105.55 293.173 105.353 293.467 105.211 293.82C105.068 294.173 104.997 294.584 104.997 295.051V300H102.98V290.538H104.553L104.826 292.204H104.92C105.108 291.868 105.342 291.56 105.621 291.281C105.9 291.002 106.22 290.78 106.579 290.614C106.943 290.444 107.342 290.358 107.775 290.358ZM112.553 300H110.536V286.7H112.553V300ZM113.998 290.538H116.186L118.127 295.94C118.212 296.185 118.289 296.427 118.357 296.666C118.432 296.9 118.494 297.131 118.546 297.359C118.602 297.587 118.648 297.815 118.682 298.043H118.734C118.791 297.746 118.87 297.416 118.973 297.051C119.081 296.681 119.201 296.31 119.332 295.94L121.195 290.538H123.358L119.298 301.299C119.064 301.915 118.776 302.439 118.434 302.872C118.098 303.311 117.699 303.641 117.238 303.864C116.776 304.092 116.249 304.206 115.656 304.206C115.371 304.206 115.124 304.188 114.913 304.154C114.702 304.126 114.522 304.094 114.374 304.06V302.453C114.494 302.482 114.645 302.507 114.827 302.53C115.01 302.553 115.198 302.564 115.391 302.564C115.75 302.564 116.061 302.493 116.323 302.351C116.585 302.208 116.807 302.006 116.99 301.744C117.172 301.487 117.323 301.194 117.443 300.863L117.776 299.974L113.998 290.538ZM140.035 290.358C141.095 290.358 141.893 290.632 142.428 291.179C142.97 291.726 143.24 292.603 143.24 293.811V300H141.231V294.17C141.231 293.452 141.092 292.911 140.813 292.546C140.533 292.182 140.109 291.999 139.539 291.999C138.741 291.999 138.166 292.256 137.812 292.769C137.465 293.276 137.291 294.014 137.291 294.982V300H135.282V294.17C135.282 293.692 135.219 293.293 135.094 292.974C134.974 292.649 134.789 292.407 134.539 292.247C134.288 292.082 133.972 291.999 133.59 291.999C133.037 291.999 132.595 292.125 132.265 292.375C131.94 292.626 131.706 292.996 131.564 293.487C131.421 293.971 131.35 294.566 131.35 295.273V300H129.341V290.538H130.906L131.188 291.811H131.299C131.493 291.481 131.732 291.21 132.017 290.999C132.308 290.783 132.629 290.623 132.983 290.52C133.336 290.412 133.704 290.358 134.085 290.358C134.792 290.358 135.388 290.483 135.872 290.734C136.356 290.979 136.718 291.355 136.958 291.862H137.111C137.408 291.35 137.821 290.971 138.351 290.726C138.881 290.481 139.442 290.358 140.035 290.358ZM149.813 290.358C150.657 290.358 151.381 290.532 151.985 290.879C152.589 291.227 153.053 291.72 153.378 292.358C153.703 292.996 153.865 293.76 153.865 294.649V295.726H147.548C147.571 296.644 147.816 297.35 148.283 297.846C148.756 298.342 149.417 298.59 150.267 298.59C150.871 298.59 151.412 298.533 151.891 298.419C152.375 298.299 152.874 298.125 153.386 297.897V299.53C152.914 299.752 152.432 299.915 151.942 300.017C151.452 300.12 150.865 300.171 150.181 300.171C149.252 300.171 148.434 299.991 147.728 299.632C147.027 299.268 146.477 298.726 146.078 298.008C145.685 297.29 145.488 296.399 145.488 295.333C145.488 294.273 145.668 293.373 146.027 292.632C146.386 291.891 146.89 291.327 147.54 290.939C148.189 290.552 148.947 290.358 149.813 290.358ZM149.813 291.871C149.181 291.871 148.668 292.076 148.275 292.486C147.887 292.897 147.659 293.498 147.591 294.29H151.899C151.893 293.817 151.814 293.398 151.66 293.034C151.512 292.669 151.284 292.384 150.976 292.179C150.674 291.974 150.286 291.871 149.813 291.871ZM159.9 290.358C160.743 290.358 161.467 290.532 162.071 290.879C162.675 291.227 163.14 291.72 163.464 292.358C163.789 292.996 163.952 293.76 163.952 294.649V295.726H157.635C157.658 296.644 157.903 297.35 158.37 297.846C158.843 298.342 159.504 298.59 160.353 298.59C160.957 298.59 161.498 298.533 161.977 298.419C162.461 298.299 162.96 298.125 163.473 297.897V299.53C163 299.752 162.518 299.915 162.028 300.017C161.538 300.12 160.951 300.171 160.268 300.171C159.339 300.171 158.521 299.991 157.814 299.632C157.113 299.268 156.563 298.726 156.165 298.008C155.771 297.29 155.575 296.399 155.575 295.333C155.575 294.273 155.754 293.373 156.113 292.632C156.472 291.891 156.977 291.327 157.626 290.939C158.276 290.552 159.034 290.358 159.9 290.358ZM159.9 291.871C159.267 291.871 158.755 292.076 158.361 292.486C157.974 292.897 157.746 293.498 157.678 294.29H161.986C161.98 293.817 161.9 293.398 161.746 293.034C161.598 292.669 161.37 292.384 161.062 292.179C160.76 291.974 160.373 291.871 159.9 291.871ZM169.739 298.547C170.001 298.547 170.26 298.524 170.516 298.478C170.773 298.427 171.006 298.367 171.217 298.299V299.82C170.995 299.917 170.707 300 170.354 300.068C170.001 300.137 169.633 300.171 169.251 300.171C168.716 300.171 168.234 300.083 167.807 299.906C167.379 299.724 167.04 299.413 166.79 298.974C166.539 298.535 166.413 297.929 166.413 297.154V292.068H165.123V291.17L166.507 290.461L167.166 288.435H168.431V290.538H171.14V292.068H168.431V297.128C168.431 297.607 168.55 297.963 168.79 298.196C169.029 298.43 169.345 298.547 169.739 298.547ZM179.5 297.299C179.5 297.92 179.349 298.444 179.047 298.872C178.745 299.299 178.303 299.624 177.722 299.846C177.147 300.063 176.44 300.171 175.602 300.171C174.941 300.171 174.371 300.123 173.893 300.026C173.42 299.934 172.972 299.792 172.551 299.598V297.863C173.001 298.074 173.505 298.256 174.064 298.41C174.628 298.564 175.161 298.641 175.662 298.641C176.323 298.641 176.799 298.538 177.09 298.333C177.38 298.122 177.526 297.843 177.526 297.495C177.526 297.29 177.466 297.108 177.346 296.948C177.232 296.783 177.016 296.615 176.696 296.444C176.383 296.267 175.921 296.057 175.312 295.812C174.713 295.572 174.209 295.333 173.799 295.094C173.388 294.854 173.078 294.566 172.867 294.23C172.656 293.888 172.551 293.452 172.551 292.922C172.551 292.085 172.881 291.449 173.542 291.016C174.209 290.577 175.089 290.358 176.184 290.358C176.765 290.358 177.312 290.418 177.825 290.538C178.343 290.652 178.851 290.82 179.346 291.042L178.714 292.555C178.286 292.367 177.856 292.213 177.423 292.093C176.996 291.968 176.56 291.905 176.115 291.905C175.597 291.905 175.201 291.985 174.927 292.145C174.659 292.304 174.525 292.532 174.525 292.828C174.525 293.051 174.591 293.239 174.722 293.393C174.853 293.546 175.078 293.7 175.397 293.854C175.722 294.008 176.172 294.199 176.748 294.427C177.312 294.643 177.799 294.871 178.209 295.111C178.625 295.344 178.945 295.632 179.167 295.974C179.389 296.316 179.5 296.758 179.5 297.299ZM193.955 299.991L192.758 295.589C192.701 295.373 192.632 295.111 192.553 294.803C192.473 294.495 192.393 294.179 192.313 293.854C192.234 293.524 192.159 293.219 192.091 292.939C192.028 292.66 191.98 292.444 191.946 292.29H191.877C191.849 292.444 191.803 292.66 191.741 292.939C191.678 293.219 191.607 293.524 191.527 293.854C191.447 294.185 191.367 294.507 191.288 294.82C191.214 295.133 191.145 295.401 191.082 295.624L189.826 299.991H187.621L184.971 290.529H187.005L188.236 295.23C188.316 295.549 188.393 295.894 188.467 296.265C188.547 296.635 188.615 296.988 188.672 297.325C188.729 297.661 188.772 297.937 188.8 298.154H188.869C188.891 298 188.923 297.806 188.963 297.572C189.002 297.333 189.048 297.085 189.099 296.829C189.151 296.567 189.202 296.322 189.253 296.094C189.305 295.86 189.353 295.672 189.399 295.529L190.852 290.529H193.048L194.442 295.529C194.504 295.746 194.573 296.02 194.647 296.35C194.721 296.675 194.787 297.003 194.844 297.333C194.906 297.658 194.946 297.929 194.963 298.145H195.032C195.054 297.951 195.094 297.689 195.151 297.359C195.214 297.023 195.285 296.666 195.365 296.29C195.445 295.908 195.527 295.555 195.613 295.23L196.869 290.529H198.87L196.203 299.991H193.955ZM202.502 290.538V300H200.494V290.538H202.502ZM201.511 286.913C201.819 286.913 202.084 286.996 202.306 287.161C202.534 287.326 202.648 287.611 202.648 288.016C202.648 288.415 202.534 288.7 202.306 288.871C202.084 289.036 201.819 289.119 201.511 289.119C201.192 289.119 200.921 289.036 200.699 288.871C200.482 288.7 200.374 288.415 200.374 288.016C200.374 287.611 200.482 287.326 200.699 287.161C200.921 286.996 201.192 286.913 201.511 286.913ZM208.905 298.547C209.167 298.547 209.426 298.524 209.683 298.478C209.939 298.427 210.173 298.367 210.383 298.299V299.82C210.161 299.917 209.873 300 209.52 300.068C209.167 300.137 208.799 300.171 208.417 300.171C207.882 300.171 207.4 300.083 206.973 299.906C206.546 299.724 206.206 299.413 205.956 298.974C205.705 298.535 205.58 297.929 205.58 297.154V292.068H204.289V291.17L205.674 290.461L206.332 288.435H207.597V290.538H210.307V292.068H207.597V297.128C207.597 297.607 207.717 297.963 207.956 298.196C208.195 298.43 208.512 298.547 208.905 298.547ZM214.315 286.7V290.042C214.315 290.389 214.304 290.728 214.281 291.059C214.264 291.389 214.244 291.646 214.221 291.828H214.333C214.532 291.498 214.777 291.227 215.068 291.016C215.358 290.8 215.683 290.637 216.042 290.529C216.407 290.421 216.794 290.367 217.205 290.367C217.928 290.367 218.544 290.489 219.051 290.734C219.558 290.973 219.946 291.347 220.214 291.854C220.487 292.361 220.624 293.019 220.624 293.828V300H218.615V294.205C218.615 293.469 218.464 292.92 218.162 292.555C217.86 292.184 217.393 291.999 216.76 291.999C216.15 291.999 215.666 292.127 215.307 292.384C214.954 292.635 214.7 293.008 214.546 293.504C214.392 293.994 214.315 294.592 214.315 295.299V300H212.307V286.7H214.315ZM120.11 314.358C121.232 314.358 122.133 314.768 122.811 315.589C123.495 316.41 123.837 317.629 123.837 319.247C123.837 320.319 123.677 321.222 123.358 321.957C123.045 322.686 122.603 323.239 122.033 323.615C121.469 323.986 120.811 324.171 120.058 324.171C119.58 324.171 119.164 324.108 118.81 323.983C118.457 323.858 118.155 323.695 117.904 323.496C117.654 323.291 117.443 323.068 117.272 322.829H117.152C117.181 323.057 117.206 323.31 117.229 323.59C117.258 323.863 117.272 324.114 117.272 324.342V328.197H115.255V314.538H116.896L117.178 315.845H117.272C117.449 315.578 117.662 315.33 117.913 315.102C118.169 314.874 118.477 314.694 118.836 314.563C119.201 314.426 119.625 314.358 120.11 314.358ZM119.571 315.999C119.018 315.999 118.574 316.11 118.238 316.333C117.907 316.549 117.665 316.877 117.511 317.316C117.363 317.754 117.283 318.304 117.272 318.965V319.247C117.272 319.948 117.343 320.544 117.486 321.034C117.634 321.518 117.876 321.889 118.212 322.145C118.554 322.396 119.016 322.521 119.597 322.521C120.087 322.521 120.492 322.387 120.811 322.119C121.136 321.852 121.378 321.47 121.537 320.974C121.697 320.478 121.777 319.894 121.777 319.222C121.777 318.202 121.594 317.41 121.23 316.845C120.871 316.281 120.318 315.999 119.571 315.999ZM130.957 314.358C131.117 314.358 131.29 314.367 131.478 314.384C131.666 314.401 131.829 314.424 131.966 314.452L131.778 316.333C131.658 316.298 131.51 316.273 131.333 316.256C131.162 316.239 131.008 316.23 130.871 316.23C130.512 316.23 130.171 316.29 129.846 316.41C129.521 316.523 129.233 316.7 128.982 316.939C128.732 317.173 128.535 317.467 128.393 317.82C128.25 318.173 128.179 318.584 128.179 319.051V324H126.162V314.538H127.734L128.008 316.204H128.102C128.29 315.868 128.524 315.56 128.803 315.281C129.082 315.002 129.401 314.78 129.76 314.614C130.125 314.444 130.524 314.358 130.957 314.358ZM135.727 314.538V324H133.718V314.538H135.727ZM134.735 310.913C135.043 310.913 135.308 310.996 135.53 311.161C135.758 311.326 135.872 311.611 135.872 312.016C135.872 312.415 135.758 312.7 135.53 312.871C135.308 313.036 135.043 313.119 134.735 313.119C134.416 313.119 134.145 313.036 133.923 312.871C133.707 312.7 133.598 312.415 133.598 312.016C133.598 311.611 133.707 311.326 133.923 311.161C134.145 310.996 134.416 310.913 134.735 310.913ZM149.301 314.358C150.361 314.358 151.158 314.632 151.694 315.179C152.235 315.726 152.506 316.603 152.506 317.811V324H150.497V318.17C150.497 317.452 150.358 316.911 150.078 316.546C149.799 316.182 149.375 315.999 148.805 315.999C148.007 315.999 147.432 316.256 147.078 316.769C146.731 317.276 146.557 318.014 146.557 318.982V324H144.548V318.17C144.548 317.692 144.485 317.293 144.36 316.974C144.24 316.649 144.055 316.407 143.804 316.247C143.554 316.082 143.237 315.999 142.856 315.999C142.303 315.999 141.861 316.125 141.531 316.375C141.206 316.626 140.972 316.996 140.83 317.487C140.687 317.971 140.616 318.566 140.616 319.273V324H138.607V314.538H140.172L140.454 315.811H140.565C140.758 315.481 140.998 315.21 141.283 314.999C141.573 314.783 141.895 314.623 142.249 314.52C142.602 314.412 142.97 314.358 143.351 314.358C144.058 314.358 144.653 314.483 145.138 314.734C145.622 314.979 145.984 315.355 146.223 315.862H146.377C146.674 315.35 147.087 314.971 147.617 314.726C148.147 314.481 148.708 314.358 149.301 314.358ZM159.02 314.358C160.216 314.358 161.119 314.623 161.729 315.153C162.345 315.683 162.652 316.509 162.652 317.632V324H161.225L160.84 322.658H160.772C160.504 323 160.228 323.282 159.943 323.504C159.658 323.726 159.327 323.892 158.951 324C158.581 324.114 158.128 324.171 157.592 324.171C157.028 324.171 156.524 324.068 156.079 323.863C155.635 323.652 155.284 323.333 155.028 322.906C154.771 322.478 154.643 321.937 154.643 321.282C154.643 320.307 155.005 319.575 155.729 319.085C156.458 318.595 157.558 318.324 159.028 318.273L160.669 318.213V317.717C160.669 317.062 160.515 316.595 160.208 316.315C159.906 316.036 159.478 315.897 158.925 315.897C158.453 315.897 157.994 315.965 157.549 316.102C157.105 316.239 156.672 316.407 156.25 316.606L155.6 315.187C156.062 314.942 156.586 314.743 157.173 314.589C157.766 314.435 158.381 314.358 159.02 314.358ZM160.661 319.478L159.438 319.521C158.435 319.555 157.732 319.726 157.327 320.034C156.922 320.342 156.72 320.763 156.72 321.299C156.72 321.766 156.86 322.108 157.139 322.325C157.418 322.535 157.786 322.641 158.242 322.641C158.937 322.641 159.512 322.444 159.968 322.051C160.43 321.652 160.661 321.068 160.661 320.299V319.478ZM170.26 314.358C170.419 314.358 170.593 314.367 170.781 314.384C170.969 314.401 171.132 314.424 171.269 314.452L171.081 316.333C170.961 316.298 170.813 316.273 170.636 316.256C170.465 316.239 170.311 316.23 170.174 316.23C169.815 316.23 169.474 316.29 169.149 316.41C168.824 316.523 168.536 316.7 168.285 316.939C168.035 317.173 167.838 317.467 167.696 317.82C167.553 318.173 167.482 318.584 167.482 319.051V324H165.465V314.538H167.037L167.311 316.204H167.405C167.593 315.868 167.827 315.56 168.106 315.281C168.385 315.002 168.704 314.78 169.063 314.614C169.428 314.444 169.827 314.358 170.26 314.358ZM171.593 314.538H173.782L175.722 319.94C175.807 320.185 175.884 320.427 175.953 320.666C176.027 320.9 176.09 321.131 176.141 321.359C176.198 321.587 176.243 321.815 176.278 322.043H176.329C176.386 321.746 176.466 321.416 176.568 321.051C176.677 320.681 176.796 320.31 176.927 319.94L178.791 314.538H180.953L176.893 325.299C176.659 325.915 176.372 326.439 176.03 326.872C175.694 327.311 175.295 327.641 174.833 327.864C174.371 328.092 173.844 328.206 173.252 328.206C172.967 328.206 172.719 328.188 172.508 328.154C172.297 328.126 172.118 328.094 171.969 328.06V326.453C172.089 326.482 172.24 326.507 172.423 326.53C172.605 326.553 172.793 326.564 172.987 326.564C173.346 326.564 173.656 326.493 173.918 326.351C174.181 326.208 174.403 326.006 174.585 325.744C174.767 325.487 174.918 325.194 175.038 324.863L175.372 323.974L171.593 314.538ZM190.749 324.171C189.854 324.171 189.079 323.997 188.424 323.65C187.769 323.302 187.264 322.769 186.911 322.051C186.558 321.333 186.381 320.421 186.381 319.316C186.381 318.165 186.575 317.224 186.962 316.495C187.35 315.766 187.886 315.227 188.569 314.879C189.259 314.532 190.048 314.358 190.937 314.358C191.501 314.358 192.011 314.415 192.467 314.529C192.929 314.637 193.319 314.771 193.638 314.931L193.04 316.538C192.692 316.395 192.336 316.276 191.971 316.179C191.607 316.082 191.256 316.033 190.92 316.033C190.367 316.033 189.906 316.156 189.535 316.401C189.171 316.646 188.897 317.011 188.715 317.495C188.538 317.979 188.45 318.581 188.45 319.299C188.45 319.994 188.541 320.581 188.723 321.06C188.906 321.533 189.176 321.892 189.535 322.137C189.894 322.376 190.336 322.496 190.86 322.496C191.379 322.496 191.843 322.433 192.254 322.308C192.664 322.182 193.051 322.02 193.416 321.82V323.564C193.057 323.769 192.672 323.92 192.262 324.017C191.852 324.12 191.347 324.171 190.749 324.171ZM199.348 314.358C200.545 314.358 201.448 314.623 202.058 315.153C202.673 315.683 202.981 316.509 202.981 317.632V324H201.554L201.169 322.658H201.101C200.833 323 200.556 323.282 200.271 323.504C199.986 323.726 199.656 323.892 199.28 324C198.909 324.114 198.456 324.171 197.921 324.171C197.357 324.171 196.852 324.068 196.408 323.863C195.963 323.652 195.613 323.333 195.356 322.906C195.1 322.478 194.972 321.937 194.972 321.282C194.972 320.307 195.334 319.575 196.057 319.085C196.787 318.595 197.887 318.324 199.357 318.273L200.998 318.213V317.717C200.998 317.062 200.844 316.595 200.536 316.315C200.234 316.036 199.807 315.897 199.254 315.897C198.781 315.897 198.322 315.965 197.878 316.102C197.434 316.239 197 316.407 196.579 316.606L195.929 315.187C196.391 314.942 196.915 314.743 197.502 314.589C198.095 314.435 198.71 314.358 199.348 314.358ZM200.989 319.478L199.767 319.521C198.764 319.555 198.06 319.726 197.656 320.034C197.251 320.342 197.049 320.763 197.049 321.299C197.049 321.766 197.188 322.108 197.468 322.325C197.747 322.535 198.114 322.641 198.57 322.641C199.266 322.641 199.841 322.444 200.297 322.051C200.759 321.652 200.989 321.068 200.989 320.299V319.478ZM210.589 314.358C210.748 314.358 210.922 314.367 211.11 314.384C211.298 314.401 211.461 314.424 211.597 314.452L211.409 316.333C211.29 316.298 211.141 316.273 210.965 316.256C210.794 316.239 210.64 316.23 210.503 316.23C210.144 316.23 209.802 316.29 209.477 316.41C209.153 316.523 208.865 316.7 208.614 316.939C208.363 317.173 208.167 317.467 208.024 317.82C207.882 318.173 207.811 318.584 207.811 319.051V324H205.793V314.538H207.366L207.64 316.204H207.734C207.922 315.868 208.155 315.56 208.435 315.281C208.714 315.002 209.033 314.78 209.392 314.614C209.757 314.444 210.156 314.358 210.589 314.358ZM217.119 314.358C217.963 314.358 218.686 314.532 219.29 314.879C219.894 315.227 220.359 315.72 220.684 316.358C221.008 316.996 221.171 317.76 221.171 318.649V319.726H214.854C214.877 320.644 215.122 321.35 215.589 321.846C216.062 322.342 216.723 322.59 217.572 322.59C218.176 322.59 218.718 322.533 219.196 322.419C219.681 322.299 220.179 322.125 220.692 321.897V323.53C220.219 323.752 219.738 323.915 219.248 324.017C218.758 324.12 218.171 324.171 217.487 324.171C216.558 324.171 215.74 323.991 215.034 323.632C214.333 323.268 213.783 322.726 213.384 322.008C212.991 321.29 212.794 320.399 212.794 319.333C212.794 318.273 212.973 317.373 213.332 316.632C213.691 315.891 214.196 315.327 214.845 314.939C215.495 314.552 216.253 314.358 217.119 314.358ZM217.119 315.871C216.487 315.871 215.974 316.076 215.581 316.486C215.193 316.897 214.965 317.498 214.897 318.29H219.205C219.199 317.817 219.119 317.398 218.966 317.034C218.817 316.669 218.589 316.384 218.282 316.179C217.98 315.974 217.592 315.871 217.119 315.871ZM148.591 338.358C149.714 338.358 150.614 338.768 151.292 339.589C151.976 340.41 152.318 341.629 152.318 343.247C152.318 344.319 152.158 345.222 151.839 345.957C151.526 346.686 151.084 347.239 150.514 347.615C149.95 347.986 149.292 348.171 148.54 348.171C148.061 348.171 147.645 348.108 147.292 347.983C146.939 347.858 146.637 347.695 146.386 347.496C146.135 347.291 145.924 347.068 145.753 346.829H145.634C145.662 347.057 145.688 347.31 145.711 347.59C145.739 347.863 145.753 348.114 145.753 348.342V352.197H143.736V338.538H145.377L145.659 339.845H145.753C145.93 339.578 146.144 339.33 146.394 339.102C146.651 338.874 146.959 338.694 147.318 338.563C147.682 338.426 148.107 338.358 148.591 338.358ZM148.053 339.999C147.5 339.999 147.055 340.11 146.719 340.333C146.389 340.549 146.146 340.877 145.993 341.316C145.844 341.754 145.765 342.304 145.753 342.965V343.247C145.753 343.948 145.825 344.544 145.967 345.034C146.115 345.518 146.357 345.889 146.694 346.145C147.035 346.396 147.497 346.521 148.078 346.521C148.568 346.521 148.973 346.387 149.292 346.119C149.617 345.852 149.859 345.47 150.019 344.974C150.178 344.478 150.258 343.894 150.258 343.222C150.258 342.202 150.076 341.41 149.711 340.845C149.352 340.281 148.799 339.999 148.053 339.999ZM156.652 334.7V338.042C156.652 338.389 156.64 338.728 156.618 339.059C156.6 339.389 156.581 339.646 156.558 339.828H156.669C156.868 339.498 157.113 339.227 157.404 339.016C157.695 338.8 158.019 338.637 158.378 338.529C158.743 338.421 159.131 338.367 159.541 338.367C160.265 338.367 160.88 338.489 161.387 338.734C161.894 338.973 162.282 339.347 162.55 339.854C162.823 340.361 162.96 341.019 162.96 341.828V348H160.951V342.205C160.951 341.469 160.8 340.92 160.498 340.555C160.196 340.184 159.729 339.999 159.096 339.999C158.487 339.999 158.002 340.127 157.643 340.384C157.29 340.635 157.036 341.008 156.883 341.504C156.729 341.994 156.652 342.592 156.652 343.299V348H154.643V334.7H156.652ZM164.345 338.538H166.533L168.473 343.94C168.559 344.185 168.636 344.427 168.704 344.666C168.778 344.9 168.841 345.131 168.892 345.359C168.949 345.587 168.995 345.815 169.029 346.043H169.08C169.137 345.746 169.217 345.416 169.32 345.051C169.428 344.681 169.548 344.31 169.679 343.94L171.542 338.538H173.705L169.644 349.299C169.411 349.915 169.123 350.439 168.781 350.872C168.445 351.311 168.046 351.641 167.584 351.864C167.123 352.092 166.596 352.206 166.003 352.206C165.718 352.206 165.47 352.188 165.259 352.154C165.049 352.126 164.869 352.094 164.721 352.06V350.453C164.841 350.482 164.992 350.507 165.174 350.53C165.356 350.553 165.544 350.564 165.738 350.564C166.097 350.564 166.408 350.493 166.67 350.351C166.932 350.208 167.154 350.006 167.337 349.744C167.519 349.487 167.67 349.194 167.79 348.863L168.123 347.974L164.345 338.538ZM181.5 345.299C181.5 345.92 181.349 346.444 181.047 346.872C180.745 347.299 180.304 347.624 179.722 347.846C179.147 348.063 178.44 348.171 177.603 348.171C176.941 348.171 176.372 348.123 175.893 348.026C175.42 347.934 174.973 347.792 174.551 347.598V345.863C175.001 346.074 175.505 346.256 176.064 346.41C176.628 346.564 177.161 346.641 177.662 346.641C178.323 346.641 178.799 346.538 179.09 346.333C179.38 346.122 179.526 345.843 179.526 345.495C179.526 345.29 179.466 345.108 179.346 344.948C179.232 344.783 179.016 344.615 178.697 344.444C178.383 344.267 177.922 344.057 177.312 343.812C176.714 343.572 176.209 343.333 175.799 343.094C175.389 342.854 175.078 342.566 174.867 342.23C174.656 341.888 174.551 341.452 174.551 340.922C174.551 340.085 174.881 339.449 175.542 339.016C176.209 338.577 177.09 338.358 178.184 338.358C178.765 338.358 179.312 338.418 179.825 338.538C180.344 338.652 180.851 338.82 181.346 339.042L180.714 340.555C180.287 340.367 179.856 340.213 179.423 340.093C178.996 339.968 178.56 339.905 178.115 339.905C177.597 339.905 177.201 339.985 176.927 340.145C176.659 340.304 176.525 340.532 176.525 340.828C176.525 341.051 176.591 341.239 176.722 341.393C176.853 341.546 177.078 341.7 177.397 341.854C177.722 342.008 178.172 342.199 178.748 342.427C179.312 342.643 179.799 342.871 180.21 343.111C180.626 343.344 180.945 343.632 181.167 343.974C181.389 344.316 181.5 344.758 181.5 345.299ZM185.68 338.538V348H183.671V338.538H185.68ZM184.689 334.913C184.996 334.913 185.261 334.996 185.484 335.161C185.712 335.326 185.826 335.611 185.826 336.016C185.826 336.415 185.712 336.7 185.484 336.871C185.261 337.036 184.996 337.119 184.689 337.119C184.37 337.119 184.099 337.036 183.877 336.871C183.66 336.7 183.552 336.415 183.552 336.016C183.552 335.611 183.66 335.326 183.877 335.161C184.099 334.996 184.37 334.913 184.689 334.913ZM192.373 348.171C191.479 348.171 190.704 347.997 190.048 347.65C189.393 347.302 188.889 346.769 188.535 346.051C188.182 345.333 188.005 344.421 188.005 343.316C188.005 342.165 188.199 341.224 188.586 340.495C188.974 339.766 189.51 339.227 190.193 338.879C190.883 338.532 191.672 338.358 192.561 338.358C193.125 338.358 193.635 338.415 194.091 338.529C194.553 338.637 194.943 338.771 195.262 338.931L194.664 340.538C194.316 340.395 193.96 340.276 193.596 340.179C193.231 340.082 192.88 340.033 192.544 340.033C191.991 340.033 191.53 340.156 191.159 340.401C190.795 340.646 190.521 341.011 190.339 341.495C190.162 341.979 190.074 342.581 190.074 343.299C190.074 343.994 190.165 344.581 190.347 345.06C190.53 345.533 190.8 345.892 191.159 346.137C191.518 346.376 191.96 346.496 192.484 346.496C193.003 346.496 193.467 346.433 193.878 346.308C194.288 346.182 194.675 346.02 195.04 345.82V347.564C194.681 347.769 194.296 347.92 193.886 348.017C193.476 348.12 192.972 348.171 192.373 348.171ZM199.271 338.538V348H197.263V338.538H199.271ZM198.28 334.913C198.587 334.913 198.852 334.996 199.075 335.161C199.303 335.326 199.417 335.611 199.417 336.016C199.417 336.415 199.303 336.7 199.075 336.871C198.852 337.036 198.587 337.119 198.28 337.119C197.961 337.119 197.69 337.036 197.468 336.871C197.251 336.7 197.143 336.415 197.143 336.016C197.143 335.611 197.251 335.326 197.468 335.161C197.69 334.996 197.961 334.913 198.28 334.913ZM205.862 338.358C207.058 338.358 207.962 338.623 208.571 339.153C209.187 339.683 209.495 340.509 209.495 341.632V348H208.067L207.682 346.658H207.614C207.346 347 207.07 347.282 206.785 347.504C206.5 347.726 206.169 347.892 205.793 348C205.423 348.114 204.97 348.171 204.434 348.171C203.87 348.171 203.366 348.068 202.921 347.863C202.477 347.652 202.126 347.333 201.87 346.906C201.613 346.478 201.485 345.937 201.485 345.282C201.485 344.307 201.847 343.575 202.571 343.085C203.3 342.595 204.4 342.324 205.87 342.273L207.511 342.213V341.717C207.511 341.062 207.358 340.595 207.05 340.315C206.748 340.036 206.32 339.897 205.768 339.897C205.295 339.897 204.836 339.965 204.391 340.102C203.947 340.239 203.514 340.407 203.092 340.606L202.443 339.187C202.904 338.942 203.428 338.743 204.015 338.589C204.608 338.435 205.223 338.358 205.862 338.358ZM207.503 343.478L206.281 343.521C205.278 343.555 204.574 343.726 204.169 344.034C203.765 344.342 203.562 344.763 203.562 345.299C203.562 345.766 203.702 346.108 203.981 346.325C204.26 346.535 204.628 346.641 205.084 346.641C205.779 346.641 206.355 346.444 206.81 346.051C207.272 345.652 207.503 345.068 207.503 344.299V343.478ZM217.239 338.358C218.304 338.358 219.134 338.634 219.726 339.187C220.325 339.734 220.624 340.615 220.624 341.828V348H218.615V342.205C218.615 341.469 218.464 340.92 218.162 340.555C217.86 340.184 217.393 339.999 216.76 339.999C215.843 339.999 215.204 340.281 214.845 340.845C214.492 341.41 214.315 342.227 214.315 343.299V348H212.307V338.538H213.871L214.153 339.82H214.264C214.469 339.489 214.723 339.219 215.025 339.008C215.333 338.791 215.675 338.629 216.051 338.52C216.433 338.412 216.829 338.358 217.239 338.358Z" fill="#C9E4D2"/>
<path d="M301.429 20.7147C301.429 32.1551 292.155 41.4294 280.715 41.4294C269.274 41.4294 260 32.1551 260 20.7147C260 9.27429 269.274 0 280.715 0C292.155 0 301.429 9.27429 301.429 20.7147Z" fill="#C9E4D2"/>
<path d="M301.429 265.207C301.429 276.647 292.155 285.922 280.715 285.922C269.274 285.922 260 276.647 260 265.207C260 253.766 269.274 244.492 280.715 244.492C292.155 244.492 301.429 253.766 301.429 265.207Z" fill="#C9E4D2"/>
<path d="M301.429 537.14C301.429 548.581 292.155 557.855 280.715 557.855C269.274 557.855 260 548.581 260 537.14C260 525.7 269.274 516.426 280.715 516.426C292.155 516.426 301.429 525.7 301.429 537.14Z" fill="#C9E4D2"/>
<path d="M80.747 533H78.6869V522.247H75.0285V520.503H84.3969V522.247H80.747V533ZM89.8162 523.358C91.0129 523.358 91.9161 523.623 92.5259 524.153C93.1413 524.683 93.449 525.509 93.449 526.632V533H92.0216L91.6369 531.658H91.5685C91.3007 532 91.0243 532.282 90.7394 532.504C90.4545 532.726 90.1239 532.892 89.7478 533C89.3774 533.114 88.9244 533.171 88.3887 533.171C87.8246 533.171 87.3202 533.068 86.8758 532.863C86.4313 532.652 86.0808 532.333 85.8244 531.906C85.5679 531.478 85.4397 530.937 85.4397 530.282C85.4397 529.307 85.8016 528.575 86.5253 528.085C87.2547 527.595 88.3545 527.324 89.8248 527.273L91.4659 527.213V526.717C91.4659 526.062 91.3121 525.595 91.0044 525.315C90.7023 525.036 90.275 524.897 89.7222 524.897C89.2492 524.897 88.7905 524.965 88.346 525.102C87.9015 525.239 87.4684 525.407 87.0467 525.606L86.3971 524.187C86.8587 523.942 87.3829 523.743 87.9699 523.589C88.5625 523.435 89.178 523.358 89.8162 523.358ZM91.4574 528.478L90.2351 528.521C89.2321 528.555 88.5283 528.726 88.1237 529.034C87.7191 529.342 87.5168 529.763 87.5168 530.299C87.5168 530.766 87.6565 531.108 87.9357 531.325C88.2149 531.535 88.5825 531.641 89.0384 531.641C89.7336 531.641 90.3091 531.444 90.765 531.051C91.2266 530.652 91.4574 530.068 91.4574 529.299V528.478ZM101.116 523.358C102.239 523.358 103.139 523.768 103.818 524.589C104.501 525.41 104.843 526.629 104.843 528.247C104.843 529.319 104.684 530.222 104.365 530.957C104.051 531.686 103.61 532.239 103.04 532.615C102.476 532.986 101.817 533.171 101.065 533.171C100.586 533.171 100.17 533.108 99.8172 532.983C99.4639 532.858 99.1619 532.695 98.9111 532.496C98.6604 532.291 98.4495 532.068 98.2786 531.829H98.1589C98.1874 532.057 98.213 532.31 98.2358 532.59C98.2643 532.863 98.2786 533.114 98.2786 533.342V537.197H96.2613V523.538H97.9025L98.1845 524.845H98.2786C98.4552 524.578 98.6689 524.33 98.9197 524.102C99.1761 523.874 99.4838 523.694 99.8428 523.563C100.208 523.426 100.632 523.358 101.116 523.358ZM100.578 524.999C100.025 524.999 99.5807 525.11 99.2445 525.333C98.914 525.549 98.6718 525.877 98.5179 526.316C98.3698 526.754 98.29 527.304 98.2786 527.965V528.247C98.2786 528.948 98.3498 529.544 98.4923 530.034C98.6404 530.518 98.8826 530.889 99.2188 531.145C99.5608 531.396 100.022 531.521 100.604 531.521C101.094 531.521 101.498 531.387 101.817 531.119C102.142 530.852 102.384 530.47 102.544 529.974C102.704 529.478 102.783 528.894 102.783 528.222C102.783 527.202 102.601 526.41 102.236 525.845C101.877 525.281 101.324 524.999 100.578 524.999ZM112.024 523.358C113.146 523.358 114.046 523.768 114.725 524.589C115.408 525.41 115.75 526.629 115.75 528.247C115.75 529.319 115.591 530.222 115.272 530.957C114.958 531.686 114.517 532.239 113.947 532.615C113.383 532.986 112.724 533.171 111.972 533.171C111.494 533.171 111.078 533.108 110.724 532.983C110.371 532.858 110.069 532.695 109.818 532.496C109.567 532.291 109.357 532.068 109.186 531.829H109.066C109.094 532.057 109.12 532.31 109.143 532.59C109.171 532.863 109.186 533.114 109.186 533.342V537.197H107.168V523.538H108.81L109.092 524.845H109.186C109.362 524.578 109.576 524.33 109.827 524.102C110.083 523.874 110.391 523.694 110.75 523.563C111.115 523.426 111.539 523.358 112.024 523.358ZM111.485 524.999C110.932 524.999 110.488 525.11 110.152 525.333C109.821 525.549 109.579 525.877 109.425 526.316C109.277 526.754 109.197 527.304 109.186 527.965V528.247C109.186 528.948 109.257 529.544 109.399 530.034C109.547 530.518 109.79 530.889 110.126 531.145C110.468 531.396 110.929 531.521 111.511 531.521C112.001 531.521 112.405 531.387 112.724 531.119C113.049 530.852 113.291 530.47 113.451 529.974C113.611 529.478 113.69 528.894 113.69 528.222C113.69 527.202 113.508 526.41 113.143 525.845C112.784 525.281 112.231 524.999 111.485 524.999ZM121.845 523.358C122.688 523.358 123.412 523.532 124.016 523.879C124.62 524.227 125.085 524.72 125.409 525.358C125.734 525.996 125.897 526.76 125.897 527.649V528.726H119.58C119.603 529.644 119.848 530.35 120.315 530.846C120.788 531.342 121.449 531.59 122.298 531.59C122.902 531.59 123.443 531.533 123.922 531.419C124.406 531.299 124.905 531.125 125.418 530.897V532.53C124.945 532.752 124.463 532.915 123.973 533.017C123.483 533.12 122.896 533.171 122.213 533.171C121.284 533.171 120.466 532.991 119.759 532.632C119.058 532.268 118.508 531.726 118.11 531.008C117.716 530.29 117.52 529.399 117.52 528.333C117.52 527.273 117.699 526.373 118.058 525.632C118.417 524.891 118.922 524.327 119.571 523.939C120.221 523.552 120.979 523.358 121.845 523.358ZM121.845 524.871C121.212 524.871 120.7 525.076 120.306 525.486C119.919 525.897 119.691 526.498 119.623 527.29H123.931C123.925 526.817 123.845 526.398 123.691 526.034C123.543 525.669 123.315 525.384 123.007 525.179C122.705 524.974 122.318 524.871 121.845 524.871ZM132.957 523.358C133.117 523.358 133.291 523.367 133.479 523.384C133.667 523.401 133.829 523.424 133.966 523.452L133.778 525.333C133.658 525.298 133.51 525.273 133.333 525.256C133.162 525.239 133.008 525.23 132.872 525.23C132.513 525.23 132.171 525.29 131.846 525.41C131.521 525.523 131.233 525.7 130.983 525.939C130.732 526.173 130.535 526.467 130.393 526.82C130.25 527.173 130.179 527.584 130.179 528.051V533H128.162V523.538H129.735L130.008 525.204H130.102C130.29 524.868 130.524 524.56 130.803 524.281C131.082 524.002 131.401 523.78 131.76 523.614C132.125 523.444 132.524 523.358 132.957 523.358ZM137.727 523.538V533H135.718V523.538H137.727ZM136.735 519.913C137.043 519.913 137.308 519.996 137.53 520.161C137.758 520.326 137.872 520.611 137.872 521.016C137.872 521.415 137.758 521.7 137.53 521.871C137.308 522.036 137.043 522.119 136.735 522.119C136.416 522.119 136.146 522.036 135.923 521.871C135.707 521.7 135.598 521.415 135.598 521.016C135.598 520.611 135.707 520.326 135.923 520.161C136.146 519.996 136.416 519.913 136.735 519.913ZM145.54 523.358C146.605 523.358 147.434 523.634 148.027 524.187C148.625 524.734 148.925 525.615 148.925 526.828V533H146.916V527.205C146.916 526.469 146.765 525.92 146.463 525.555C146.161 525.184 145.693 524.999 145.061 524.999C144.143 524.999 143.505 525.281 143.146 525.845C142.793 526.41 142.616 527.227 142.616 528.299V533H140.607V523.538H142.172L142.454 524.82H142.565C142.77 524.489 143.024 524.219 143.326 524.008C143.633 523.791 143.975 523.629 144.351 523.52C144.733 523.412 145.129 523.358 145.54 523.358ZM154.438 537.206C153.156 537.206 152.173 536.975 151.489 536.513C150.805 536.052 150.463 535.405 150.463 534.573C150.463 533.992 150.645 533.499 151.01 533.094C151.375 532.695 151.896 532.419 152.574 532.265C152.318 532.151 152.096 531.974 151.908 531.735C151.725 531.49 151.634 531.219 151.634 530.923C151.634 530.57 151.734 530.268 151.933 530.017C152.133 529.766 152.432 529.524 152.831 529.29C152.335 529.079 151.936 528.737 151.634 528.264C151.338 527.786 151.19 527.225 151.19 526.581C151.19 525.897 151.335 525.315 151.626 524.837C151.916 524.352 152.341 523.985 152.899 523.734C153.458 523.478 154.133 523.349 154.925 523.349C155.096 523.349 155.281 523.361 155.481 523.384C155.686 523.401 155.874 523.424 156.045 523.452C156.222 523.475 156.355 523.501 156.447 523.529H159.72V524.649L158.113 524.948C158.267 525.164 158.39 525.412 158.481 525.692C158.572 525.965 158.618 526.264 158.618 526.589C158.618 527.569 158.279 528.341 157.601 528.906C156.928 529.464 155.999 529.743 154.814 529.743C154.529 529.732 154.253 529.709 153.985 529.675C153.78 529.8 153.623 529.94 153.515 530.094C153.406 530.242 153.352 530.41 153.352 530.598C153.352 530.752 153.406 530.877 153.515 530.974C153.623 531.065 153.783 531.134 153.993 531.179C154.21 531.225 154.472 531.248 154.78 531.248H156.412C157.45 531.248 158.242 531.467 158.789 531.906C159.336 532.345 159.609 532.989 159.609 533.838C159.609 534.915 159.165 535.744 158.276 536.325C157.387 536.912 156.108 537.206 154.438 537.206ZM154.515 535.795C155.216 535.795 155.806 535.727 156.284 535.59C156.763 535.453 157.125 535.257 157.37 535C157.615 534.749 157.737 534.45 157.737 534.103C157.737 533.795 157.66 533.558 157.507 533.393C157.353 533.228 157.122 533.114 156.814 533.051C156.506 532.989 156.125 532.957 155.669 532.957H154.181C153.811 532.957 153.483 533.014 153.198 533.128C152.914 533.248 152.691 533.419 152.532 533.641C152.378 533.863 152.301 534.131 152.301 534.445C152.301 534.878 152.492 535.211 152.874 535.445C153.261 535.678 153.808 535.795 154.515 535.795ZM154.908 528.427C155.495 528.427 155.931 528.267 156.216 527.948C156.501 527.623 156.643 527.168 156.643 526.581C156.643 525.942 156.495 525.464 156.199 525.145C155.908 524.825 155.475 524.666 154.899 524.666C154.335 524.666 153.905 524.828 153.609 525.153C153.318 525.478 153.173 525.959 153.173 526.598C153.173 527.173 153.318 527.623 153.609 527.948C153.905 528.267 154.338 528.427 154.908 528.427ZM161.156 531.94C161.156 531.473 161.276 531.145 161.515 530.957C161.761 530.763 162.057 530.666 162.404 530.666C162.752 530.666 163.048 530.763 163.293 530.957C163.544 531.145 163.67 531.473 163.67 531.94C163.67 532.396 163.544 532.726 163.293 532.932C163.048 533.131 162.752 533.231 162.404 533.231C162.057 533.231 161.761 533.131 161.515 532.932C161.276 532.726 161.156 532.396 161.156 531.94ZM161.156 524.623C161.156 524.15 161.276 523.817 161.515 523.623C161.761 523.429 162.057 523.332 162.404 523.332C162.752 523.332 163.048 523.429 163.293 523.623C163.544 523.817 163.67 524.15 163.67 524.623C163.67 525.073 163.544 525.401 163.293 525.606C163.048 525.806 162.752 525.905 162.404 525.905C162.057 525.905 161.761 525.806 161.515 525.606C161.276 525.401 161.156 525.073 161.156 524.623ZM177.158 530.299C177.158 530.92 177.007 531.444 176.705 531.872C176.403 532.299 175.961 532.624 175.38 532.846C174.805 533.063 174.098 533.171 173.26 533.171C172.599 533.171 172.029 533.123 171.551 533.026C171.078 532.934 170.63 532.792 170.209 532.598V530.863C170.659 531.074 171.163 531.256 171.722 531.41C172.286 531.564 172.819 531.641 173.32 531.641C173.981 531.641 174.457 531.538 174.748 531.333C175.038 531.122 175.183 530.843 175.183 530.495C175.183 530.29 175.124 530.108 175.004 529.948C174.89 529.783 174.673 529.615 174.354 529.444C174.041 529.267 173.579 529.057 172.97 528.812C172.371 528.572 171.867 528.333 171.457 528.094C171.046 527.854 170.736 527.566 170.525 527.23C170.314 526.888 170.209 526.452 170.209 525.922C170.209 525.085 170.539 524.449 171.2 524.016C171.867 523.577 172.747 523.358 173.841 523.358C174.423 523.358 174.97 523.418 175.483 523.538C176.001 523.652 176.508 523.82 177.004 524.042L176.372 525.555C175.944 525.367 175.514 525.213 175.081 525.093C174.654 524.968 174.218 524.905 173.773 524.905C173.255 524.905 172.858 524.985 172.585 525.145C172.317 525.304 172.183 525.532 172.183 525.828C172.183 526.051 172.249 526.239 172.38 526.393C172.511 526.546 172.736 526.7 173.055 526.854C173.38 527.008 173.83 527.199 174.406 527.427C174.97 527.643 175.457 527.871 175.867 528.111C176.283 528.344 176.602 528.632 176.825 528.974C177.047 529.316 177.158 529.758 177.158 530.299ZM181.346 533H179.329V519.7H181.346V533ZM192.595 528.247C192.595 529.034 192.493 529.732 192.288 530.342C192.083 530.951 191.783 531.467 191.39 531.889C190.997 532.305 190.524 532.624 189.971 532.846C189.418 533.063 188.794 533.171 188.099 533.171C187.45 533.171 186.854 533.063 186.313 532.846C185.771 532.624 185.301 532.305 184.902 531.889C184.509 531.467 184.204 530.951 183.988 530.342C183.771 529.732 183.663 529.034 183.663 528.247C183.663 527.205 183.842 526.321 184.201 525.598C184.566 524.868 185.085 524.313 185.757 523.931C186.43 523.549 187.23 523.358 188.159 523.358C189.031 523.358 189.8 523.549 190.467 523.931C191.134 524.313 191.655 524.868 192.031 525.598C192.407 526.327 192.595 527.21 192.595 528.247ZM185.732 528.247C185.732 528.937 185.814 529.527 185.979 530.017C186.15 530.507 186.412 530.883 186.766 531.145C187.119 531.402 187.575 531.53 188.133 531.53C188.692 531.53 189.148 531.402 189.501 531.145C189.854 530.883 190.114 530.507 190.279 530.017C190.444 529.527 190.527 528.937 190.527 528.247C190.527 527.558 190.444 526.974 190.279 526.495C190.114 526.011 189.854 525.643 189.501 525.392C189.148 525.136 188.689 525.008 188.125 525.008C187.293 525.008 186.686 525.287 186.304 525.845C185.922 526.404 185.732 527.205 185.732 528.247ZM202.639 532.991L201.442 528.589C201.385 528.373 201.317 528.111 201.237 527.803C201.158 527.495 201.078 527.179 200.998 526.854C200.918 526.524 200.844 526.219 200.776 525.939C200.713 525.66 200.665 525.444 200.63 525.29H200.562C200.534 525.444 200.488 525.66 200.425 525.939C200.363 526.219 200.291 526.524 200.212 526.854C200.132 527.185 200.052 527.507 199.972 527.82C199.898 528.133 199.83 528.401 199.767 528.624L198.511 532.991H196.305L193.655 523.529H195.69L196.921 528.23C197 528.549 197.077 528.894 197.151 529.265C197.231 529.635 197.3 529.988 197.357 530.325C197.414 530.661 197.456 530.937 197.485 531.154H197.553C197.576 531 197.607 530.806 197.647 530.572C197.687 530.333 197.733 530.085 197.784 529.829C197.835 529.567 197.887 529.322 197.938 529.094C197.989 528.86 198.038 528.672 198.083 528.529L199.536 523.529H201.733L203.126 528.529C203.189 528.746 203.257 529.02 203.332 529.35C203.406 529.675 203.471 530.003 203.528 530.333C203.591 530.658 203.631 530.929 203.648 531.145H203.716C203.739 530.951 203.779 530.689 203.836 530.359C203.899 530.023 203.97 529.666 204.05 529.29C204.129 528.908 204.212 528.555 204.297 528.23L205.554 523.529H207.554L204.887 532.991H202.639ZM211.196 533H209.178V519.7H211.196V533ZM212.64 523.538H214.828L216.769 528.94C216.854 529.185 216.931 529.427 217 529.666C217.074 529.9 217.136 530.131 217.188 530.359C217.245 530.587 217.29 530.815 217.324 531.043H217.376C217.433 530.746 217.512 530.416 217.615 530.051C217.723 529.681 217.843 529.31 217.974 528.94L219.837 523.538H222L217.94 534.299C217.706 534.915 217.418 535.439 217.076 535.872C216.74 536.311 216.341 536.641 215.88 536.864C215.418 537.092 214.891 537.206 214.298 537.206C214.013 537.206 213.766 537.188 213.555 537.154C213.344 537.126 213.164 537.094 213.016 537.06V535.453C213.136 535.482 213.287 535.507 213.469 535.53C213.652 535.553 213.84 535.564 214.033 535.564C214.392 535.564 214.703 535.493 214.965 535.351C215.227 535.208 215.449 535.006 215.632 534.744C215.814 534.487 215.965 534.194 216.085 533.863L216.418 532.974L212.64 523.538ZM61.7109 557.171C60.5826 557.171 59.6765 556.761 58.9927 555.94C58.3146 555.114 57.9755 553.897 57.9755 552.29C57.9755 550.666 58.3203 549.438 59.0098 548.606C59.705 547.774 60.6197 547.358 61.7537 547.358C62.2323 547.358 62.6512 547.424 63.0102 547.555C63.3692 547.68 63.6769 547.851 63.9334 548.068C64.1955 548.284 64.4177 548.526 64.6001 548.794H64.6941C64.6656 548.617 64.6314 548.364 64.5915 548.033C64.5574 547.697 64.5403 547.387 64.5403 547.102V543.7H66.5576V557H64.9847L64.6257 555.709H64.5403C64.3693 555.983 64.1528 556.231 63.8906 556.453C63.6342 556.669 63.3265 556.843 62.9675 556.974C62.6141 557.105 62.1953 557.171 61.7109 557.171ZM62.2751 555.538C63.1356 555.538 63.7425 555.29 64.0958 554.795C64.4491 554.299 64.6314 553.555 64.6428 552.564V552.299C64.6428 551.239 64.4719 550.427 64.13 549.863C63.7881 549.293 63.1641 549.008 62.258 549.008C61.5343 549.008 60.9815 549.301 60.5997 549.888C60.2236 550.469 60.0355 551.281 60.0355 552.324C60.0355 553.367 60.2236 554.165 60.5997 554.718C60.9815 555.265 61.54 555.538 62.2751 555.538ZM73.2078 547.358C74.0512 547.358 74.7749 547.532 75.3789 547.879C75.983 548.227 76.4474 548.72 76.7722 549.358C77.097 549.996 77.2594 550.76 77.2594 551.649V552.726H70.9426C70.9654 553.644 71.2104 554.35 71.6777 554.846C72.1507 555.342 72.8117 555.59 73.6608 555.59C74.2649 555.59 74.8062 555.533 75.2849 555.419C75.7693 555.299 76.2679 555.125 76.7808 554.897V556.53C76.3078 556.752 75.8263 556.915 75.3362 557.017C74.8461 557.12 74.2592 557.171 73.5753 557.171C72.6465 557.171 71.8287 556.991 71.1221 556.632C70.4212 556.268 69.8713 555.726 69.4724 555.008C69.0792 554.29 68.8826 553.399 68.8826 552.333C68.8826 551.273 69.0621 550.373 69.4211 549.632C69.7801 548.891 70.2844 548.327 70.934 547.939C71.5837 547.552 72.3416 547.358 73.2078 547.358ZM73.2078 548.871C72.5752 548.871 72.0624 549.076 71.6692 549.486C71.2817 549.897 71.0537 550.498 70.9853 551.29H75.2934C75.2877 550.817 75.208 550.398 75.0541 550.034C74.9059 549.669 74.678 549.384 74.3703 549.179C74.0683 548.974 73.6808 548.871 73.2078 548.871ZM83.337 557.171C82.4423 557.171 81.6673 556.997 81.0119 556.65C80.3566 556.302 79.8523 555.769 79.499 555.051C79.1457 554.333 78.969 553.421 78.969 552.316C78.969 551.165 79.1628 550.224 79.5503 549.495C79.9378 548.766 80.4734 548.227 81.1573 547.879C81.8468 547.532 82.636 547.358 83.525 547.358C84.0892 547.358 84.5992 547.415 85.0551 547.529C85.5167 547.637 85.907 547.771 86.2261 547.931L85.6278 549.538C85.2802 549.395 84.924 549.276 84.5593 549.179C84.1946 549.082 83.8441 549.033 83.5079 549.033C82.9552 549.033 82.4936 549.156 82.1232 549.401C81.7585 549.646 81.4849 550.011 81.3026 550.495C81.1259 550.979 81.0376 551.581 81.0376 552.299C81.0376 552.994 81.1288 553.581 81.3111 554.06C81.4935 554.533 81.7642 554.892 82.1232 555.137C82.4822 555.376 82.9238 555.496 83.4481 555.496C83.9666 555.496 84.4311 555.433 84.8414 555.308C85.2517 555.182 85.6392 555.02 86.0039 554.82V556.564C85.6449 556.769 85.2602 556.92 84.8499 557.017C84.4396 557.12 83.9353 557.171 83.337 557.171ZM93.0217 547.358C93.1812 547.358 93.355 547.367 93.5431 547.384C93.7311 547.401 93.8935 547.424 94.0303 547.452L93.8423 549.333C93.7226 549.298 93.5744 549.273 93.3978 549.256C93.2268 549.239 93.0729 549.23 92.9362 549.23C92.5772 549.23 92.2353 549.29 91.9104 549.41C91.5856 549.523 91.2978 549.7 91.0471 549.939C90.7964 550.173 90.5998 550.467 90.4573 550.82C90.3148 551.173 90.2436 551.584 90.2436 552.051V557H88.2263V547.538H89.7991L90.0727 549.204H90.1667C90.3547 548.868 90.5884 548.56 90.8676 548.281C91.1468 548.002 91.466 547.78 91.825 547.614C92.1897 547.444 92.5886 547.358 93.0217 547.358ZM99.5522 547.358C100.396 547.358 101.119 547.532 101.723 547.879C102.327 548.227 102.792 548.72 103.117 549.358C103.441 549.996 103.604 550.76 103.604 551.649V552.726H97.287C97.3098 553.644 97.5549 554.35 98.0221 554.846C98.4951 555.342 99.1562 555.59 100.005 555.59C100.609 555.59 101.151 555.533 101.629 555.419C102.114 555.299 102.612 555.125 103.125 554.897V556.53C102.652 556.752 102.171 556.915 101.681 557.017C101.191 557.12 100.604 557.171 99.9198 557.171C98.9909 557.171 98.1732 556.991 97.4665 556.632C96.7656 556.268 96.2157 555.726 95.8168 555.008C95.4236 554.29 95.227 553.399 95.227 552.333C95.227 551.273 95.4065 550.373 95.7655 549.632C96.1245 548.891 96.6288 548.327 97.2785 547.939C97.9281 547.552 98.686 547.358 99.5522 547.358ZM99.5522 548.871C98.9197 548.871 98.4068 549.076 98.0136 549.486C97.6261 549.897 97.3982 550.498 97.3298 551.29H101.638C101.632 550.817 101.552 550.398 101.399 550.034C101.25 549.669 101.022 549.384 100.715 549.179C100.413 548.974 100.025 548.871 99.5522 548.871ZM109.579 547.358C110.776 547.358 111.679 547.623 112.288 548.153C112.904 548.683 113.212 549.509 113.212 550.632V557H111.784L111.4 555.658H111.331C111.063 556 110.787 556.282 110.502 556.504C110.217 556.726 109.887 556.892 109.51 557C109.14 557.114 108.687 557.171 108.151 557.171C107.587 557.171 107.083 557.068 106.638 556.863C106.194 556.652 105.843 556.333 105.587 555.906C105.331 555.478 105.202 554.937 105.202 554.282C105.202 553.307 105.564 552.575 106.288 552.085C107.017 551.595 108.117 551.324 109.587 551.273L111.229 551.213V550.717C111.229 550.062 111.075 549.595 110.767 549.315C110.465 549.036 110.038 548.897 109.485 548.897C109.012 548.897 108.553 548.965 108.109 549.102C107.664 549.239 107.231 549.407 106.809 549.606L106.16 548.187C106.621 547.942 107.146 547.743 107.732 547.589C108.325 547.435 108.941 547.358 109.579 547.358ZM111.22 552.478L109.998 552.521C108.995 552.555 108.291 552.726 107.886 553.034C107.482 553.342 107.279 553.763 107.279 554.299C107.279 554.766 107.419 555.108 107.698 555.325C107.978 555.535 108.345 555.641 108.801 555.641C109.496 555.641 110.072 555.444 110.528 555.051C110.989 554.652 111.22 554.068 111.22 553.299V552.478ZM122.383 554.299C122.383 554.92 122.232 555.444 121.93 555.872C121.628 556.299 121.187 556.624 120.606 556.846C120.03 557.063 119.323 557.171 118.486 557.171C117.825 557.171 117.255 557.123 116.776 557.026C116.303 556.934 115.856 556.792 115.434 556.598V554.863C115.884 555.074 116.389 555.256 116.947 555.41C117.511 555.564 118.044 555.641 118.546 555.641C119.207 555.641 119.682 555.538 119.973 555.333C120.264 555.122 120.409 554.843 120.409 554.495C120.409 554.29 120.349 554.108 120.229 553.948C120.115 553.783 119.899 553.615 119.58 553.444C119.266 553.267 118.805 553.057 118.195 552.812C117.597 552.572 117.092 552.333 116.682 552.094C116.272 551.854 115.961 551.566 115.75 551.23C115.54 550.888 115.434 550.452 115.434 549.922C115.434 549.085 115.765 548.449 116.426 548.016C117.092 547.577 117.973 547.358 119.067 547.358C119.648 547.358 120.195 547.418 120.708 547.538C121.227 547.652 121.734 547.82 122.23 548.042L121.597 549.555C121.17 549.367 120.739 549.213 120.306 549.093C119.879 548.968 119.443 548.905 118.999 548.905C118.48 548.905 118.084 548.985 117.81 549.145C117.543 549.304 117.409 549.532 117.409 549.828C117.409 550.051 117.474 550.239 117.605 550.393C117.736 550.546 117.961 550.7 118.281 550.854C118.605 551.008 119.056 551.199 119.631 551.427C120.195 551.643 120.682 551.871 121.093 552.111C121.509 552.344 121.828 552.632 122.05 552.974C122.272 553.316 122.383 553.758 122.383 554.299ZM126.563 547.538V557H124.555V547.538H126.563ZM125.572 543.913C125.88 543.913 126.145 543.996 126.367 544.161C126.595 544.326 126.709 544.611 126.709 545.016C126.709 545.415 126.595 545.7 126.367 545.871C126.145 546.036 125.88 546.119 125.572 546.119C125.253 546.119 124.982 546.036 124.76 545.871C124.543 545.7 124.435 545.415 124.435 545.016C124.435 544.611 124.543 544.326 124.76 544.161C124.982 543.996 125.253 543.913 125.572 543.913ZM134.376 547.358C135.442 547.358 136.271 547.634 136.864 548.187C137.462 548.734 137.761 549.615 137.761 550.828V557H135.752V551.205C135.752 550.469 135.601 549.92 135.299 549.555C134.997 549.184 134.53 548.999 133.897 548.999C132.98 548.999 132.342 549.281 131.983 549.845C131.629 550.41 131.453 551.227 131.453 552.299V557H129.444V547.538H131.008L131.29 548.82H131.401C131.607 548.489 131.86 548.219 132.162 548.008C132.47 547.791 132.812 547.629 133.188 547.52C133.57 547.412 133.966 547.358 134.376 547.358ZM143.274 561.206C141.992 561.206 141.009 560.975 140.325 560.513C139.642 560.052 139.3 559.405 139.3 558.573C139.3 557.992 139.482 557.499 139.847 557.094C140.211 556.695 140.733 556.419 141.411 556.265C141.155 556.151 140.932 555.974 140.744 555.735C140.562 555.49 140.471 555.219 140.471 554.923C140.471 554.57 140.57 554.268 140.77 554.017C140.969 553.766 141.269 553.524 141.667 553.29C141.172 553.079 140.773 552.737 140.471 552.264C140.174 551.786 140.026 551.225 140.026 550.581C140.026 549.897 140.172 549.315 140.462 548.837C140.753 548.352 141.177 547.985 141.736 547.734C142.294 547.478 142.97 547.349 143.762 547.349C143.933 547.349 144.118 547.361 144.317 547.384C144.522 547.401 144.71 547.424 144.881 547.452C145.058 547.475 145.192 547.501 145.283 547.529H148.557V548.649L146.95 548.948C147.104 549.164 147.226 549.412 147.318 549.692C147.409 549.965 147.454 550.264 147.454 550.589C147.454 551.569 147.115 552.341 146.437 552.906C145.765 553.464 144.836 553.743 143.651 553.743C143.366 553.732 143.089 553.709 142.821 553.675C142.616 553.8 142.46 553.94 142.351 554.094C142.243 554.242 142.189 554.41 142.189 554.598C142.189 554.752 142.243 554.877 142.351 554.974C142.46 555.065 142.619 555.134 142.83 555.179C143.046 555.225 143.309 555.248 143.616 555.248H145.249C146.286 555.248 147.078 555.467 147.625 555.906C148.172 556.345 148.446 556.989 148.446 557.838C148.446 558.915 148.001 559.744 147.112 560.325C146.223 560.912 144.944 561.206 143.274 561.206ZM143.351 559.795C144.052 559.795 144.642 559.727 145.121 559.59C145.599 559.453 145.961 559.257 146.206 559C146.451 558.749 146.574 558.45 146.574 558.103C146.574 557.795 146.497 557.558 146.343 557.393C146.189 557.228 145.958 557.114 145.651 557.051C145.343 556.989 144.961 556.957 144.505 556.957H143.018C142.648 556.957 142.32 557.014 142.035 557.128C141.75 557.248 141.528 557.419 141.368 557.641C141.214 557.863 141.137 558.131 141.137 558.445C141.137 558.878 141.328 559.211 141.71 559.445C142.098 559.678 142.645 559.795 143.351 559.795ZM143.745 552.427C144.331 552.427 144.767 552.267 145.052 551.948C145.337 551.623 145.48 551.168 145.48 550.581C145.48 549.942 145.332 549.464 145.035 549.145C144.745 548.825 144.312 548.666 143.736 548.666C143.172 548.666 142.742 548.828 142.445 549.153C142.155 549.478 142.009 549.959 142.009 550.598C142.009 551.173 142.155 551.623 142.445 551.948C142.742 552.267 143.175 552.427 143.745 552.427ZM158.011 557.171C156.883 557.171 155.976 556.761 155.293 555.94C154.615 555.114 154.275 553.897 154.275 552.29C154.275 550.666 154.62 549.438 155.31 548.606C156.005 547.774 156.92 547.358 158.054 547.358C158.532 547.358 158.951 547.424 159.31 547.555C159.669 547.68 159.977 547.851 160.233 548.068C160.495 548.284 160.718 548.526 160.9 548.794H160.994C160.966 548.617 160.931 548.364 160.891 548.033C160.857 547.697 160.84 547.387 160.84 547.102V543.7H162.857V557H161.285L160.926 555.709H160.84C160.669 555.983 160.453 556.231 160.191 556.453C159.934 556.669 159.626 556.843 159.267 556.974C158.914 557.105 158.495 557.171 158.011 557.171ZM158.575 555.538C159.436 555.538 160.042 555.29 160.396 554.795C160.749 554.299 160.931 553.555 160.943 552.564V552.299C160.943 551.239 160.772 550.427 160.43 549.863C160.088 549.293 159.464 549.008 158.558 549.008C157.834 549.008 157.281 549.301 156.9 549.888C156.524 550.469 156.335 551.281 156.335 552.324C156.335 553.367 156.524 554.165 156.9 554.718C157.281 555.265 157.84 555.538 158.575 555.538ZM174.115 552.247C174.115 553.034 174.012 553.732 173.807 554.342C173.602 554.951 173.303 555.467 172.91 555.889C172.517 556.305 172.044 556.624 171.491 556.846C170.938 557.063 170.314 557.171 169.619 557.171C168.969 557.171 168.374 557.063 167.832 556.846C167.291 556.624 166.821 556.305 166.422 555.889C166.029 555.467 165.724 554.951 165.507 554.342C165.291 553.732 165.183 553.034 165.183 552.247C165.183 551.205 165.362 550.321 165.721 549.598C166.086 548.868 166.604 548.313 167.277 547.931C167.949 547.549 168.75 547.358 169.679 547.358C170.551 547.358 171.32 547.549 171.987 547.931C172.653 548.313 173.175 548.868 173.551 549.598C173.927 550.327 174.115 551.21 174.115 552.247ZM167.251 552.247C167.251 552.937 167.334 553.527 167.499 554.017C167.67 554.507 167.932 554.883 168.285 555.145C168.639 555.402 169.095 555.53 169.653 555.53C170.211 555.53 170.667 555.402 171.021 555.145C171.374 554.883 171.633 554.507 171.799 554.017C171.964 553.527 172.046 552.937 172.046 552.247C172.046 551.558 171.964 550.974 171.799 550.495C171.633 550.011 171.374 549.643 171.021 549.392C170.667 549.136 170.209 549.008 169.644 549.008C168.813 549.008 168.206 549.287 167.824 549.845C167.442 550.404 167.251 551.205 167.251 552.247ZM182.783 554.299C182.783 554.92 182.631 555.444 182.329 555.872C182.027 556.299 181.586 556.624 181.005 556.846C180.429 557.063 179.722 557.171 178.885 557.171C178.224 557.171 177.654 557.123 177.175 557.026C176.702 556.934 176.255 556.792 175.833 556.598V554.863C176.283 555.074 176.788 555.256 177.346 555.41C177.91 555.564 178.443 555.641 178.945 555.641C179.606 555.641 180.081 555.538 180.372 555.333C180.663 555.122 180.808 554.843 180.808 554.495C180.808 554.29 180.748 554.108 180.628 553.948C180.514 553.783 180.298 553.615 179.979 553.444C179.665 553.267 179.204 553.057 178.594 552.812C177.996 552.572 177.491 552.333 177.081 552.094C176.671 551.854 176.36 551.566 176.149 551.23C175.939 550.888 175.833 550.452 175.833 549.922C175.833 549.085 176.164 548.449 176.825 548.016C177.491 547.577 178.372 547.358 179.466 547.358C180.047 547.358 180.594 547.418 181.107 547.538C181.626 547.652 182.133 547.82 182.629 548.042L181.996 549.555C181.569 549.367 181.138 549.213 180.705 549.093C180.278 548.968 179.842 548.905 179.398 548.905C178.879 548.905 178.483 548.985 178.209 549.145C177.942 549.304 177.808 549.532 177.808 549.828C177.808 550.051 177.873 550.239 178.004 550.393C178.135 550.546 178.36 550.7 178.68 550.854C179.004 551.008 179.455 551.199 180.03 551.427C180.594 551.643 181.081 551.871 181.492 552.111C181.908 552.344 182.227 552.632 182.449 552.974C182.671 553.316 182.783 553.758 182.783 554.299ZM188.663 547.358C189.86 547.358 190.763 547.623 191.373 548.153C191.989 548.683 192.296 549.509 192.296 550.632V557H190.869L190.484 555.658H190.416C190.148 556 189.872 556.282 189.587 556.504C189.302 556.726 188.971 556.892 188.595 557C188.225 557.114 187.772 557.171 187.236 557.171C186.672 557.171 186.167 557.068 185.723 556.863C185.278 556.652 184.928 556.333 184.672 555.906C184.415 555.478 184.287 554.937 184.287 554.282C184.287 553.307 184.649 552.575 185.373 552.085C186.102 551.595 187.202 551.324 188.672 551.273L190.313 551.213V550.717C190.313 550.062 190.159 549.595 189.852 549.315C189.55 549.036 189.122 548.897 188.569 548.897C188.096 548.897 187.638 548.965 187.193 549.102C186.749 549.239 186.316 549.407 185.894 549.606L185.244 548.187C185.706 547.942 186.23 547.743 186.817 547.589C187.41 547.435 188.025 547.358 188.663 547.358ZM190.305 552.478L189.082 552.521C188.079 552.555 187.376 552.726 186.971 553.034C186.566 553.342 186.364 553.763 186.364 554.299C186.364 554.766 186.504 555.108 186.783 555.325C187.062 555.535 187.43 555.641 187.886 555.641C188.581 555.641 189.156 555.444 189.612 555.051C190.074 554.652 190.305 554.068 190.305 553.299V552.478ZM197.81 561.206C196.527 561.206 195.544 560.975 194.861 560.513C194.177 560.052 193.835 559.405 193.835 558.573C193.835 557.992 194.017 557.499 194.382 557.094C194.747 556.695 195.268 556.419 195.946 556.265C195.69 556.151 195.468 555.974 195.279 555.735C195.097 555.49 195.006 555.219 195.006 554.923C195.006 554.57 195.106 554.268 195.305 554.017C195.505 553.766 195.804 553.524 196.203 553.29C195.707 553.079 195.308 552.737 195.006 552.264C194.71 551.786 194.561 551.225 194.561 550.581C194.561 549.897 194.707 549.315 194.997 548.837C195.288 548.352 195.713 547.985 196.271 547.734C196.829 547.478 197.505 547.349 198.297 547.349C198.468 547.349 198.653 547.361 198.852 547.384C199.058 547.401 199.246 547.424 199.417 547.452C199.593 547.475 199.727 547.501 199.818 547.529H203.092V548.649L201.485 548.948C201.639 549.164 201.762 549.412 201.853 549.692C201.944 549.965 201.99 550.264 201.99 550.589C201.99 551.569 201.65 552.341 200.972 552.906C200.3 553.464 199.371 553.743 198.186 553.743C197.901 553.732 197.624 553.709 197.357 553.675C197.151 553.8 196.995 553.94 196.886 554.094C196.778 554.242 196.724 554.41 196.724 554.598C196.724 554.752 196.778 554.877 196.886 554.974C196.995 555.065 197.154 555.134 197.365 555.179C197.582 555.225 197.844 555.248 198.152 555.248H199.784C200.821 555.248 201.613 555.467 202.16 555.906C202.708 556.345 202.981 556.989 202.981 557.838C202.981 558.915 202.537 559.744 201.648 560.325C200.759 560.912 199.479 561.206 197.81 561.206ZM197.887 559.795C198.587 559.795 199.177 559.727 199.656 559.59C200.135 559.453 200.496 559.257 200.742 559C200.987 558.749 201.109 558.45 201.109 558.103C201.109 557.795 201.032 557.558 200.878 557.393C200.724 557.228 200.494 557.114 200.186 557.051C199.878 556.989 199.496 556.957 199.04 556.957H197.553C197.183 556.957 196.855 557.014 196.57 557.128C196.285 557.248 196.063 557.419 195.903 557.641C195.75 557.863 195.673 558.131 195.673 558.445C195.673 558.878 195.864 559.211 196.245 559.445C196.633 559.678 197.18 559.795 197.887 559.795ZM198.28 552.427C198.867 552.427 199.303 552.267 199.588 551.948C199.872 551.623 200.015 551.168 200.015 550.581C200.015 549.942 199.867 549.464 199.57 549.145C199.28 548.825 198.847 548.666 198.271 548.666C197.707 548.666 197.277 548.828 196.98 549.153C196.69 549.478 196.545 549.959 196.545 550.598C196.545 551.173 196.69 551.623 196.98 551.948C197.277 552.267 197.71 552.427 198.28 552.427ZM208.588 547.358C209.432 547.358 210.156 547.532 210.76 547.879C211.364 548.227 211.828 548.72 212.153 549.358C212.478 549.996 212.64 550.76 212.64 551.649V552.726H206.323C206.346 553.644 206.591 554.35 207.058 554.846C207.531 555.342 208.192 555.59 209.041 555.59C209.646 555.59 210.187 555.533 210.666 555.419C211.15 555.299 211.649 555.125 212.161 554.897V556.53C211.688 556.752 211.207 556.915 210.717 557.017C210.227 557.12 209.64 557.171 208.956 557.171C208.027 557.171 207.209 556.991 206.503 556.632C205.802 556.268 205.252 555.726 204.853 555.008C204.46 554.29 204.263 553.399 204.263 552.333C204.263 551.273 204.443 550.373 204.802 549.632C205.161 548.891 205.665 548.327 206.315 547.939C206.964 547.552 207.722 547.358 208.588 547.358ZM208.588 548.871C207.956 548.871 207.443 549.076 207.05 549.486C206.662 549.897 206.434 550.498 206.366 551.29H210.674C210.668 550.817 210.589 550.398 210.435 550.034C210.287 549.669 210.059 549.384 209.751 549.179C209.449 548.974 209.061 548.871 208.588 548.871ZM221.265 554.299C221.265 554.92 221.114 555.444 220.812 555.872C220.51 556.299 220.068 556.624 219.487 556.846C218.911 557.063 218.205 557.171 217.367 557.171C216.706 557.171 216.136 557.123 215.658 557.026C215.185 556.934 214.737 556.792 214.315 556.598V554.863C214.766 555.074 215.27 555.256 215.828 555.41C216.393 555.564 216.925 555.641 217.427 555.641C218.088 555.641 218.564 555.538 218.854 555.333C219.145 555.122 219.29 554.843 219.29 554.495C219.29 554.29 219.23 554.108 219.111 553.948C218.997 553.783 218.78 553.615 218.461 553.444C218.148 553.267 217.686 553.057 217.076 552.812C216.478 552.572 215.974 552.333 215.563 552.094C215.153 551.854 214.843 551.566 214.632 551.23C214.421 550.888 214.315 550.452 214.315 549.922C214.315 549.085 214.646 548.449 215.307 548.016C215.974 547.577 216.854 547.358 217.948 547.358C218.53 547.358 219.077 547.418 219.59 547.538C220.108 547.652 220.615 547.82 221.111 548.042L220.478 549.555C220.051 549.367 219.621 549.213 219.188 549.093C218.76 548.968 218.324 548.905 217.88 548.905C217.361 548.905 216.965 548.985 216.692 549.145C216.424 549.304 216.29 549.532 216.29 549.828C216.29 550.051 216.356 550.239 216.487 550.393C216.618 550.546 216.843 550.7 217.162 550.854C217.487 551.008 217.937 551.199 218.512 551.427C219.077 551.643 219.564 551.871 219.974 552.111C220.39 552.344 220.709 552.632 220.932 552.974C221.154 553.316 221.265 553.758 221.265 554.299Z" fill="#C9E4D2"/>
</svg>
