<svg width="24" height="24" viewBox="0 0 24 24" fill="none" xmlns="http://www.w3.org/2000/svg">
<path d="M23.6338 11.8169C23.6338 18.3432 18.3432 23.6338 11.8169 23.6338C5.2906 23.6338 0 18.3432 0 11.8169C0 5.2906 5.2906 0 11.8169 0C18.3432 0 23.6338 5.2906 23.6338 11.8169Z" fill="#CEDAEF"/>
<g clip-path="url(#clip0_867_6869)">
<path d="M8.09994 8.17328C8.09994 7.26976 7.49759 6.50176 6.66936 6.26082V4.67212C6.66936 4.36342 6.41336 4.10742 6.10466 4.10742C5.79595 4.10742 5.53995 4.36342 5.53995 4.67212V6.26082C4.71172 6.50176 4.10938 7.26976 4.10938 8.17328C4.10938 9.07681 4.71925 9.8448 5.54748 10.0857L5.57007 13.1728C4.72678 13.4137 4.10938 14.1817 4.10938 15.1003C4.10938 16.0038 4.71172 16.7718 5.53995 17.0128V18.5638C5.53995 18.8725 5.79595 19.1285 6.10466 19.1285C6.41336 19.1285 6.66936 18.8725 6.66936 18.5638V17.0128C7.49759 16.7718 8.09994 16.0038 8.09994 15.1003C8.09994 14.2043 7.51265 13.4514 6.69948 13.1954L6.67689 10.0857C7.49759 9.83727 8.09994 9.07681 8.09994 8.17328ZM5.23878 8.17328C5.23878 7.69893 5.63031 7.3074 6.10466 7.3074C6.57901 7.3074 6.97053 7.69893 6.97053 8.17328C6.97053 8.64763 6.57901 9.03916 6.10466 9.03916C5.63031 9.03916 5.23878 8.64763 5.23878 8.17328ZM6.97053 15.1003C6.97053 15.5747 6.57901 15.9662 6.10466 15.9662C5.63031 15.9662 5.23878 15.5747 5.23878 15.1003C5.23878 14.6259 5.63031 14.2344 6.10466 14.2344C6.57901 14.2344 6.97053 14.6259 6.97053 15.1003ZM17.6999 5.538H10.3964C9.58322 5.538 8.92817 6.19306 8.92817 7.00623V9.34033C8.92817 10.1535 9.58322 10.8086 10.3964 10.8086H17.6999C18.5131 10.8086 19.1681 10.1535 19.1681 9.34033V7.00623C19.1681 6.19306 18.5131 5.538 17.6999 5.538ZM18.0387 9.34033C18.0387 9.52857 17.8881 9.67915 17.6999 9.67915H10.3964C10.2082 9.67915 10.0576 9.52857 10.0576 9.34033V7.00623C10.0576 6.81799 10.2082 6.66741 10.3964 6.66741H17.6999C17.8881 6.66741 18.0387 6.81799 18.0387 7.00623V9.34033ZM17.6999 12.465H10.3964C9.58322 12.465 8.92817 13.1201 8.92817 13.9332V16.2674C8.92817 17.0805 9.58322 17.7356 10.3964 17.7356H17.6999C18.5131 17.7356 19.1681 17.0805 19.1681 16.2674V13.9332C19.1681 13.1201 18.5131 12.465 17.6999 12.465ZM18.0387 16.2674C18.0387 16.4556 17.8881 16.6062 17.6999 16.6062H10.3964C10.2082 16.6062 10.0576 16.4556 10.0576 16.2674V13.9332C10.0576 13.745 10.2082 13.5944 10.3964 13.5944H17.6999C17.8881 13.5944 18.0387 13.745 18.0387 13.9332V16.2674Z" fill="#184065"/>
</g>
<defs>
<clipPath id="clip0_867_6869">
<rect width="15.0587" height="15.0587" fill="white" transform="translate(4.10938 4.10742)"/>
</clipPath>
</defs>
</svg>
